<svg width="24" height="24" viewBox="0 0 24 24" fill="none" xmlns="http://www.w3.org/2000/svg">
<circle cx="12" cy="12" r="12" fill="white"/>
<path d="M10.4976 5.60156C10.2752 5.60157 10.0572 5.66336 9.86792 5.78004C9.67863 5.89673 9.52548 6.06371 9.42556 6.26236L8.95356 7.20156H7.60156C7.07113 7.20156 6.56242 7.41228 6.18735 7.78735C5.81228 8.16242 5.60156 8.67113 5.60156 9.20156V15.6016C5.60156 16.132 5.81228 16.6407 6.18735 17.0158C6.56242 17.3909 7.07113 17.6016 7.60156 17.6016H11.6784C11.5475 17.3459 11.4422 17.0779 11.364 16.8016H7.60236C7.2841 16.8016 6.97888 16.6751 6.75383 16.4501C6.52879 16.225 6.40236 15.9198 6.40236 15.6016V9.20156C6.40236 8.8833 6.52879 8.57808 6.75383 8.35303C6.97888 8.12799 7.2841 8.00156 7.60236 8.00156H9.20076C9.27485 8.00141 9.34744 7.98069 9.41044 7.9417C9.47344 7.90272 9.52437 7.847 9.55756 7.78076L10.14 6.62156C10.1733 6.55535 10.2244 6.49972 10.2876 6.46087C10.3507 6.42202 10.4234 6.40149 10.4976 6.40156H13.5088C13.5831 6.40142 13.656 6.422 13.7194 6.461C13.7827 6.50001 13.8338 6.55588 13.8672 6.62236L14.4456 7.77996C14.4788 7.84632 14.5299 7.90212 14.593 7.94111C14.6562 7.98011 14.7289 8.00076 14.8032 8.00076H16.4024C16.7206 8.00076 17.0258 8.12719 17.2509 8.35223C17.4759 8.57728 17.6024 8.8825 17.6024 9.20076V11.6832C17.8888 11.8296 18.1568 12.0072 18.4024 12.2104V9.20076C18.4024 8.67033 18.1916 8.16162 17.8166 7.78655C17.4415 7.41148 16.9328 7.20076 16.4024 7.20076H15.0504L14.5824 6.26476C14.4827 6.06542 14.3294 5.89778 14.1398 5.78064C13.9502 5.66351 13.7316 5.6015 13.5088 5.60156H10.4976Z" fill="#11B6AB"/>
<path d="M11.9947 8.79688C12.709 8.7969 13.4029 9.03584 13.9658 9.47566C14.5287 9.91549 14.9283 10.5309 15.1011 11.2241C14.8351 11.2538 14.5724 11.3079 14.3163 11.3857C14.2088 10.9773 13.9955 10.6044 13.6978 10.3048C13.4002 10.0052 13.0288 9.78935 12.6211 9.67913C12.2134 9.56892 11.7838 9.56821 11.3758 9.67706C10.9677 9.78592 10.5956 10.0005 10.2969 10.2991C9.9983 10.5978 9.78373 10.9699 9.67487 11.3779C9.56602 11.786 9.56673 12.2156 9.67695 12.6233C9.78716 13.031 10.003 13.4024 10.3026 13.7C10.6022 13.9976 10.9751 14.211 11.3835 14.3185C11.3058 14.5743 11.2517 14.8368 11.2219 15.1025C10.466 14.9115 9.80576 14.4512 9.3651 13.808C8.92444 13.1648 8.73363 12.3829 8.82847 11.609C8.92332 10.8351 9.2973 10.1224 9.88024 9.60468C10.4632 9.08694 11.215 8.7997 11.9947 8.79688Z" fill="#11B6AB"/>
<path d="M19.2 15.6C19.2 16.5548 18.8207 17.4705 18.1456 18.1456C17.4705 18.8207 16.5548 19.2 15.6 19.2C14.6452 19.2 13.7295 18.8207 13.0544 18.1456C12.3793 17.4705 12 16.5548 12 15.6C12 14.6452 12.3793 13.7295 13.0544 13.0544C13.7295 12.3793 14.6452 12 15.6 12C16.5548 12 17.4705 12.3793 18.1456 13.0544C18.8207 13.7295 19.2 14.6452 19.2 15.6ZM16 14C16 13.8939 15.9579 13.7922 15.8828 13.7172C15.8078 13.6421 15.7061 13.6 15.6 13.6C15.4939 13.6 15.3922 13.6421 15.3172 13.7172C15.2421 13.7922 15.2 13.8939 15.2 14V15.2H14C13.8939 15.2 13.7922 15.2421 13.7172 15.3172C13.6421 15.3922 13.6 15.4939 13.6 15.6C13.6 15.7061 13.6421 15.8078 13.7172 15.8828C13.7922 15.9579 13.8939 16 14 16H15.2V17.2C15.2 17.3061 15.2421 17.4078 15.3172 17.4828C15.3922 17.5579 15.4939 17.6 15.6 17.6C15.7061 17.6 15.8078 17.5579 15.8828 17.4828C15.9579 17.4078 16 17.3061 16 17.2V16H17.2C17.3061 16 17.4078 15.9579 17.4828 15.8828C17.5579 15.8078 17.6 15.7061 17.6 15.6C17.6 15.4939 17.5579 15.3922 17.4828 15.3172C17.4078 15.2421 17.3061 15.2 17.2 15.2H16V14Z" fill="#11B6AB"/>
</svg>
