<svg width="120" height="120" viewBox="0 0 120 120" fill="none" xmlns="http://www.w3.org/2000/svg">
<g clip-path="url(#clip0_824_25359)">
<g filter="url(#filter0_d_824_25359)">
<rect x="15.4219" y="9.42871" width="89.1429" height="100.286" rx="5.14286" fill="url(#paint0_linear_824_25359)"/>
<rect x="15.6362" y="9.643" width="88.7143" height="99.8571" rx="4.92857" stroke="#EDEDED" stroke-width="0.428571"/>
</g>
<path d="M24.1606 19.3705C24.1668 18.613 24.7724 17.999 25.5132 17.999H42.9497C43.6905 17.999 44.286 18.613 44.2798 19.3705L44.1335 37.199C44.1273 37.9564 43.5218 38.5705 42.781 38.5705H25.3444C24.6036 38.5705 24.0082 37.9564 24.0144 37.199L24.1606 19.3705Z" fill="#FFE1CC"/>
<mask id="mask0_824_25359" style="mask-type:alpha" maskUnits="userSpaceOnUse" x="24" y="17" width="21" height="22">
<rect width="20.1191" height="20.5721" transform="matrix(1 0 -0.00820294 0.999966 24.1719 17.999)" fill="#FFE1CC"/>
</mask>
<g mask="url(#mask0_824_25359)">
<path d="M45.8201 36.0978C45.2904 43.6678 38.6985 46.0335 32.5399 45.0131C25.8918 43.9126 21.5237 39.7189 23.2882 31.7476C24.7563 25.1271 29.6923 21.0761 36.4596 22.1958C42.6189 23.2193 46.3073 29.14 45.8201 36.0978Z" fill="url(#paint1_linear_824_25359)"/>
<path d="M42.5807 25.7079L42.6294 25.755C42.6169 25.7417 42.5976 25.7267 42.5807 25.7079Z" fill="#EFEFEF"/>
<path d="M37.2221 22.4643C37.2682 22.4755 37.2885 22.4834 37.2899 22.4894C37.2438 22.4781 37.2103 22.4671 37.2221 22.4643Z" fill="#EFEFEF"/>
<path d="M36.1519 22.3304C36.1738 22.3314 36.1958 22.3325 36.2148 22.3342C36.1906 22.3368 36.1656 22.3365 36.1519 22.3304Z" fill="#EFEFEF"/>
<path d="M42.5779 25.7065L42.4529 25.5903C42.4578 25.5701 42.5213 25.647 42.5779 25.7065Z" fill="#EFEFEF"/>
<path d="M44.1521 28.0526L44.1754 28.1015C44.1758 28.1174 44.1761 28.1333 44.1765 28.1492L44.1521 28.0526Z" fill="#EFEFEF"/>
<path d="M43.339 26.7367C43.3324 26.7383 43.3211 26.734 43.313 26.729C43.3156 26.7249 43.327 26.7292 43.339 26.7367Z" fill="#EFEFEF"/>
<path d="M34.182 22.2392C34.1851 22.2385 34.1882 22.2377 34.1914 22.237C34.2463 22.247 34.2161 22.2443 34.182 22.2392Z" fill="#EFEFEF"/>
<path d="M29.7904 23.1561C29.7976 23.1446 29.811 23.1317 29.8281 23.1211C29.8257 23.1249 29.8178 23.1333 29.7904 23.1561Z" fill="#EFEFEF"/>
<path d="M33.0332 22.2111L32.948 22.2219C32.9814 22.2171 33.0088 22.2138 33.0332 22.2111Z" fill="#EFEFEF"/>
<path d="M28.2344 23.9844C28.1964 24.0128 28.187 24.0279 28.1303 24.0575C28.1357 24.053 28.138 24.0492 28.1427 24.0416C28.1667 24.0359 28.1947 24.0196 28.2344 23.9844Z" fill="#EFEFEF"/>
<path d="M26.8126 25.1759C26.8165 25.1654 26.8235 25.1541 26.8311 25.1459C26.844 25.1333 26.8598 25.1199 26.875 25.1035L26.8126 25.1759Z" fill="#EFEFEF"/>
<path d="M27.9844 23.7422C27.9018 23.8029 27.8173 23.8545 27.7389 23.9205C27.8009 23.8647 27.8959 23.8043 27.9844 23.7422Z" fill="#EFEFEF"/>
<path d="M27.0312 24.4932C27.0009 24.5383 26.9611 24.5825 26.9213 24.6267C26.9102 24.6325 26.8998 24.6412 26.888 24.644C26.9311 24.5864 26.9833 24.5424 27.0312 24.4932Z" fill="#EFEFEF"/>
<path d="M43.8263 42.0043C43.6331 42.2277 43.6949 42.0704 43.629 42.0955C43.3889 42.3459 43.5528 42.2436 43.4923 42.3499C43.3252 42.4942 43.1787 42.5765 43.0602 42.6871C43.0569 42.7006 43.0373 42.7242 43.0714 42.7098C42.9695 42.7689 42.845 42.8809 42.7117 42.995C42.5734 43.1007 42.4293 43.2079 42.3119 43.2675C42.2998 43.283 42.2929 43.2942 42.2943 43.3002C42.3116 43.2517 42.299 43.223 42.281 43.2114C42.1801 43.2893 42.0656 43.3197 42.0474 43.3779C42.1116 43.331 42.126 43.3402 42.1608 43.3287L42.0412 43.392C41.9695 43.5041 42.2018 43.3032 42.2244 43.3358C41.9967 43.4724 41.7256 43.6097 41.5572 43.7194C41.5475 43.7883 41.9662 43.4891 41.7638 43.6703C41.8503 43.6117 41.9283 43.5425 42.0141 43.4809C41.8603 43.6854 42.1694 43.3679 42.0333 43.5682C41.6994 43.8155 41.6302 43.7972 41.2838 44.0158C41.188 44.0322 41.2909 43.9634 41.1951 43.9798C40.6615 44.2081 40.8411 44.3048 40.4267 44.4255C40.3112 44.4371 40.2478 44.3888 39.9787 44.5352L40.0942 44.5521C39.7274 44.7059 39.8551 44.5519 39.4781 44.7303C39.5552 44.7278 39.7765 44.6467 39.7237 44.675C39.4858 44.8077 39.5345 44.7042 39.3384 44.773L39.312 44.8363C38.905 44.9489 38.4525 45.0375 37.9936 45.1117C38.0205 45.1211 38.1019 45.124 37.9983 45.1613C37.4188 45.2515 36.7675 45.3683 36.204 45.4326L35.9861 45.402C35.9369 45.4042 35.8953 45.4267 35.9494 45.4329C35.731 45.4563 35.9369 45.4042 35.8316 45.3912C35.7076 45.3921 35.6679 45.4238 35.7476 45.4333C35.3592 45.4179 34.6492 45.3522 34.2391 45.38L34.3172 45.3963C33.9997 45.3925 33.968 45.2765 33.6711 45.2963L33.7265 45.3085C33.0379 45.2694 32.2981 45.0967 31.7731 45.0535C31.69 44.9719 31.0985 44.9509 31.0799 44.8381C30.691 44.7784 30.7941 44.8236 30.2532 44.7082C30.1095 44.6758 30.0572 44.5932 29.8894 44.5221L29.8708 44.5646L29.6524 44.4327L29.5084 44.4416L29.3502 44.3715C29.4165 44.3906 29.4932 44.4008 29.4893 44.3828C29.2453 44.276 28.8637 44.1924 28.8509 44.2049L28.2881 43.9046C28.2934 43.9287 28.3882 43.979 28.4605 44.0252C28.1715 43.8404 28.3844 44.0465 28.1171 43.8755C28.1594 43.8845 28.1091 43.8394 28.1065 43.8273C27.9487 43.8015 27.6458 43.6104 27.4231 43.4732L27.4505 43.5269C27.2465 43.4043 27.0187 43.3 26.815 43.1361C26.6074 42.9827 26.3925 42.8246 26.1777 42.6665C26.3426 42.7667 26.3392 42.6946 26.216 42.6003L26.1359 42.6035C26.0741 42.52 26.2778 42.6839 26.1355 42.5307C25.983 42.4022 26.0015 42.4865 26.0772 42.5763L25.9082 42.401C25.8869 42.4029 25.9247 42.4478 25.9241 42.4733C25.8698 42.3816 25.5785 42.229 25.5055 42.0942L25.4842 42.0961C25.2755 41.9239 25.1575 41.7682 25.0391 41.6252C24.9214 41.4852 24.8086 41.3536 24.6666 41.1877C24.6817 41.1714 24.6577 41.1328 24.6215 41.0812C24.5912 41.0281 24.5547 40.9608 24.5313 40.8966C24.4323 40.7712 24.3307 40.6337 24.2225 40.4947C24.1166 40.3519 23.9946 40.2066 23.9153 40.029C23.8069 39.7759 23.9108 39.9381 23.8749 39.8168C23.8316 39.8176 23.6557 39.4695 23.723 39.6627C23.6239 39.4517 23.5426 39.3221 23.4899 39.1667C23.44 39.0106 23.3863 38.8364 23.2962 38.5536C23.333 38.6082 23.363 38.674 23.3633 38.6327C23.3313 38.5294 23.2644 38.409 23.2507 38.4313L23.2567 38.4584C23.2358 38.3778 23.2085 38.2956 23.1811 38.2133C23.156 38.1274 23.1368 38.0401 23.1117 37.9541C23.0639 37.7785 23.0088 37.5984 22.9543 37.4212C22.8284 37.074 22.7884 36.7222 22.7941 36.4515L22.7942 36.48L22.7728 35.9305C22.7393 35.6786 22.7597 36.0825 22.7164 35.8995C22.7717 35.3032 22.6875 34.962 22.7417 34.4738C22.6702 34.0915 22.8427 33.1378 22.89 32.6322L22.9127 32.6648C22.9626 32.5388 22.9245 32.5067 22.9371 32.4086C22.9565 32.4262 22.9351 32.5549 22.9642 32.4751C23.1584 31.38 23.445 30.2248 23.8319 29.1441C23.9923 28.7574 24.0543 28.9835 24.206 28.4721L24.1012 28.5889C24.4932 27.8429 24.8901 27.0482 25.403 26.4002C25.367 26.4341 25.3532 26.4279 25.309 26.4954C25.3638 26.3208 25.6912 25.9735 25.7172 25.9927C25.7944 25.892 25.7145 25.9522 25.7515 25.88C25.8453 25.7278 26.0619 25.5685 26.0936 25.4723C26.0991 25.4551 26.0539 25.5039 26.0307 25.5252C26.1053 25.4409 26.3849 25.1305 26.3398 25.2363C26.5428 25.001 26.7656 24.8277 26.9214 24.6322C27.0735 24.5612 27.3121 24.2762 27.3939 24.2948C27.3367 24.2609 27.7645 23.8898 27.9576 23.8217C27.8904 23.8409 28.085 23.709 28.0054 23.728C28.1925 23.6043 28.3688 23.5021 28.3521 23.5536C28.6429 23.2373 29.0913 23.2004 29.2415 22.9936C29.392 22.9293 29.5362 22.8507 29.6857 22.7961C29.8358 22.7446 29.983 22.6937 30.1273 22.6436C30.4151 22.5403 30.6958 22.4324 30.984 22.3734C30.9649 22.343 30.8069 22.387 30.657 22.4257C30.5105 22.4796 30.3676 22.5358 30.3678 22.4945C30.6314 22.3938 30.8521 22.3667 31.066 22.3222C31.2804 22.2807 31.4916 22.2242 31.7582 22.1513C31.8969 22.1183 31.6735 22.1334 31.6227 22.1423C31.8982 22.0958 32.1619 22.0522 32.419 22.0069C32.5479 21.9857 32.6738 21.9653 32.7997 21.9449C32.9247 21.9342 33.0517 21.9325 33.1757 21.9315C33.1744 21.9255 33.1209 21.9224 33.0704 21.9186C33.1688 21.9142 33.2947 21.8938 33.2859 21.9244L33.1921 21.9213C33.0432 21.9789 33.5829 21.99 33.6007 22.0143C33.4339 21.9336 34.0818 21.957 33.8186 21.8611C33.8838 21.8614 33.9636 21.871 33.9498 21.8933C34.0433 21.8806 34.0758 21.8729 33.9773 21.8487C34.3238 21.8709 34.2005 21.9034 34.5158 21.9109C34.5154 21.8951 34.4518 21.888 34.4199 21.8702C34.5798 21.9051 34.736 21.9377 35.0023 21.9346C34.9879 21.9254 35.0197 21.9146 34.9383 21.9118C35.1686 21.9141 35.3583 21.9577 35.5539 22C35.7489 22.0392 35.9527 22.0763 36.201 22.0901C36.0644 22.0054 36.3713 22.0877 36.4093 22.0343C36.4992 22.0478 36.5842 22.0814 36.6695 22.1024L36.5587 22.1065C36.79 22.1561 36.9831 22.2433 37.1842 22.2684L37.0185 22.2064L37.4487 22.3132L37.1994 22.2806C37.4249 22.3601 37.1581 22.3475 37.4643 22.3983C37.4344 22.3895 37.4899 22.4017 37.5733 22.4136C37.652 22.4329 37.7548 22.4623 37.8171 22.4633C37.9222 22.5176 38.0279 22.5749 38.1986 22.6167C38.2478 22.6145 38.1857 22.5437 38.2165 22.5427C38.3098 22.6283 38.7404 22.7224 38.8452 22.8464C38.8071 22.8142 38.8137 22.7874 38.832 22.7862L38.905 22.8639C39.0084 22.8963 39.0245 22.8989 39.0179 22.8687C39.3199 22.9998 38.8926 22.8922 39.2606 23.0265C39.2353 23.0103 39.2514 23.0129 39.1942 22.9789C39.3751 23.0532 39.5449 23.1332 39.7077 23.2244C39.8631 23.3238 40.0178 23.4201 40.1764 23.506C40.2952 23.5094 39.9113 23.3313 40.04 23.3514C40.2603 23.4924 40.4903 23.6342 40.7005 23.7997C40.9062 23.9726 41.1106 24.1395 41.3162 24.284L41.2367 24.2332C41.2444 24.3391 41.5638 24.4216 41.7223 24.6343C41.6809 24.5871 41.69 24.5437 41.6976 24.5641C41.8277 24.6758 41.9545 24.8009 42.0942 24.942C42.1629 25.0144 42.2352 25.0891 42.3154 25.1714C42.3844 25.2596 42.4614 25.3554 42.5426 25.4565L42.5133 25.3938C42.6618 25.5328 42.8765 25.7891 43.032 25.9455C43.0583 26.0089 43.1336 26.1114 43.065 26.0675C43.3095 26.3041 43.4907 26.5779 43.6605 26.8418C43.8145 27.1189 43.9466 27.3949 44.1435 27.627C44.1083 27.5657 44.0717 27.4698 44.1013 27.5198C44.1813 27.6719 44.2754 27.8175 44.336 27.9805C44.2851 27.9609 44.2903 27.928 44.2167 27.8473C44.2312 27.9135 44.2778 28.0546 44.3337 28.168C44.2546 27.9492 44.3842 28.1434 44.4454 28.2239C44.428 28.2154 44.4323 28.2492 44.4198 28.249C44.5908 28.4618 44.377 28.3226 44.5728 28.6341L44.5799 28.6102C44.6267 28.7385 44.6686 28.8585 44.7269 28.9968C44.7884 29.036 44.6922 28.8529 44.7125 28.8322C44.7952 29.0249 44.7907 29.2446 44.8976 29.4062C44.8784 29.3188 44.8336 29.1996 44.8114 29.1129C44.9269 29.2851 44.924 29.3143 44.9859 29.4549L44.9797 29.4405L45.1253 29.764L45.0824 29.6823C45.0846 29.9607 45.2353 30.1942 45.2641 30.5518C45.2343 30.204 45.284 30.4868 45.3217 30.4462C45.3586 30.5293 45.4083 30.657 45.4115 30.615C45.4213 30.787 45.5153 30.8755 45.5279 31.1166C45.5446 31.1221 45.5633 31.292 45.5937 31.2467C45.626 31.464 45.5589 31.2011 45.5451 31.2234C45.5546 31.5634 45.7706 31.9811 45.7727 32.4718C45.7928 32.8885 45.752 32.971 45.7743 33.3555C45.8146 33.4822 45.8152 33.2444 45.8152 33.2444C45.8631 33.4485 45.8762 33.607 45.8641 33.8064C45.8738 33.766 45.889 33.8068 45.9081 33.8656C45.9117 34.0232 45.8578 33.9758 45.891 34.1835C45.905 34.1484 45.9312 34.0978 45.9425 34.0222C45.9337 34.2081 45.9225 34.3978 45.912 34.5904C45.9387 34.6411 45.9449 34.4717 45.9612 34.4044C45.9601 34.5124 45.9568 34.6526 45.956 34.7764C45.9487 34.8986 45.9278 35.0018 45.9072 35.0352L45.8981 34.8948C45.894 34.975 45.9317 34.9343 45.9411 34.8782C45.9742 34.6897 45.9196 34.6108 45.9045 34.5985L45.9005 34.7358C45.8077 34.5962 45.891 34.1834 45.8734 33.9056L45.8155 34.0239L45.8547 33.7357C45.8356 33.6769 45.7991 33.638 45.7951 33.7753C45.7557 33.5818 45.8154 33.5993 45.76 33.4318C45.7531 33.4144 45.7515 33.4212 45.7495 33.4406L45.7446 33.2485C45.7349 33.2888 45.6954 33.2222 45.7205 33.3366C45.6428 32.997 45.7031 32.7767 45.6392 32.6556L45.6393 32.6841C45.6023 32.2049 45.6831 32.6293 45.6867 32.264L45.5276 32.0483L45.5649 31.9919C45.5543 31.9437 45.5302 31.848 45.5165 31.8703C45.5129 31.6842 45.5408 31.8962 45.5507 31.7861C45.4614 31.5633 45.4453 31.1362 45.3543 31.104C45.3653 31.0126 45.4416 31.3177 45.3985 31.0649C45.3007 31.0153 45.3328 30.7795 45.2363 30.5806C45.2154 30.6553 45.2915 30.8463 45.1987 30.6498C45.2286 30.5032 45.0704 30.2493 45.0307 30.0686C45.0834 30.0402 44.9135 29.6908 44.8237 29.3952C44.8136 29.4198 44.6017 28.8649 44.4431 28.6237L44.4392 28.6341C44.4666 28.5611 44.3284 28.2992 44.248 28.1029C44.2225 28.1279 44.2281 28.1678 44.2651 28.2794L44.1791 28.1002C44.1715 28.0513 44.1628 27.9837 44.1009 27.8716L44.0899 27.9344C43.956 27.7064 43.8587 27.4475 43.6607 27.1682C43.683 27.128 43.892 27.3445 43.7267 27.0162C43.7018 27.0158 43.6664 27.0242 43.7075 27.1127C43.695 27.0839 43.666 27.0085 43.6269 26.9576L43.6711 27.1023C43.5758 26.9792 43.6578 27.0136 43.5825 26.9111C43.5586 26.9294 43.5099 26.8491 43.5004 26.8767C43.5159 26.9047 43.577 26.9567 43.5906 27.0042C43.5097 26.8904 43.3894 26.7668 43.3418 26.7338C43.3631 26.7319 43.3739 26.7103 43.3179 26.6254C43.1647 26.4083 43.2355 26.5752 43.1319 26.4572C43.1115 26.3924 42.9942 26.2682 43.0279 26.238C42.9832 26.1757 42.9589 26.1783 42.93 26.1598C42.8625 26.0364 42.5131 25.6758 42.6521 25.7569L42.6793 25.7821C42.675 25.7768 42.6708 25.7715 42.6658 25.7631C42.5323 25.5794 42.3735 25.4079 42.2095 25.2409C42.0305 25.0902 41.8521 24.9425 41.696 24.7831L41.6862 24.795C41.5938 24.6997 41.4893 24.5914 41.3858 24.5019C41.277 24.4169 41.1778 24.3327 41.1127 24.2626C41.0493 24.2143 40.9476 24.1751 40.9644 24.2092C40.8083 24.0783 40.7994 24.0519 40.5507 23.8955C40.7006 24.0405 40.4808 23.8741 40.7059 24.0361C40.4923 23.8841 40.4189 23.8888 40.2017 23.706C40.2635 23.7895 40.0087 23.6473 39.9055 23.5735L40.0763 23.6439C39.96 23.567 39.8507 23.5074 39.7443 23.4471L39.7775 23.5279C39.5398 23.407 39.3251 23.3059 39.1313 23.1872C38.9359 23.0752 38.7536 22.9664 38.5459 22.9397C38.4845 22.9005 38.556 22.9151 38.6289 22.9358C38.6995 22.9603 38.7701 22.9847 38.7227 22.9389C38.4939 22.8444 38.2216 22.8489 38.1504 22.8214C37.8228 22.744 37.8765 22.6489 37.5367 22.5585C37.5846 22.5503 37.6413 22.5115 37.3863 22.439C37.1431 22.3922 37.0714 22.4473 37.2191 22.4978C37.2752 22.513 37.306 22.512 37.3047 22.5059C37.3812 22.5289 37.481 22.5591 37.3812 22.5574L37.354 22.5322C37.2309 22.5235 36.9011 22.4498 36.9734 22.496C36.7965 22.4398 36.9011 22.4497 37.0393 22.4708C36.8827 22.4509 36.7617 22.4227 36.6412 22.3975C36.5194 22.3662 36.399 22.341 36.2363 22.3353C36.2884 22.3324 36.3409 22.3168 36.2897 22.3099C35.8129 22.2743 36.0872 22.2503 35.7662 22.203C35.5812 22.209 35.8231 22.2782 35.5018 22.2152C35.3017 22.2089 35.4553 22.2579 35.5325 22.2839C35.2417 22.2041 34.9813 22.2629 34.814 22.2646L34.9675 22.2852C34.8753 22.2754 34.7999 22.2711 34.7221 22.2706L34.811 22.2368C34.7185 22.2398 34.6436 22.2385 34.644 22.2543C34.5514 22.2288 34.7181 22.1955 34.5326 22.1572C34.409 22.1739 34.1599 22.1285 34.117 22.1736C34.5008 22.1679 34.0748 22.2217 34.398 22.2367C34.3343 22.2297 34.2595 22.2285 34.167 22.2315C34.1529 22.238 34.1785 22.2414 34.2041 22.2448C33.8387 22.2778 34.0373 22.1926 33.6561 22.2103C33.7047 22.2336 33.5697 22.2689 33.5103 22.2672C33.6631 22.2562 33.5797 22.2158 33.4406 22.2045C33.1976 22.2433 33.1742 22.2076 33.0463 22.219L33.1912 22.2004C33.1397 22.1778 33.017 22.1848 32.8451 22.194C32.8337 22.2125 33.0007 22.195 32.9416 22.209C32.7457 22.1796 32.5265 22.3268 32.2614 22.3359C32.1431 22.3767 32.2573 22.3876 32.1553 22.4181C31.8578 22.435 31.8474 22.5008 31.5437 22.5604C31.6207 22.5009 31.6404 22.5057 31.419 22.5298C31.5856 22.4966 31.7475 22.4422 31.9188 22.43C31.8059 22.4251 31.6977 22.4414 31.5888 22.4546C31.7367 22.4068 31.9092 22.4006 32.0007 22.3788C31.8416 22.3755 31.8583 22.381 31.9268 22.3393C31.7269 22.4186 31.5113 22.4128 31.2838 22.5081L31.3148 22.5926C31.1437 22.6618 30.9859 22.693 30.8105 22.7283C30.6393 22.769 30.458 22.8343 30.24 22.9305L30.3767 22.86C30.3058 22.8483 30.1013 22.9635 29.9527 23.0083C29.9764 23.0312 29.8932 23.0763 29.8371 23.1182C29.8299 23.0851 29.5274 23.2774 29.4637 23.2418L29.2917 23.3778C28.9591 23.5741 28.8546 23.4944 28.5506 23.722C28.6608 23.6863 28.5304 23.7997 28.7496 23.681C28.6467 23.7498 28.5563 23.8188 28.5428 23.7999C28.4931 23.8561 28.2361 23.9583 28.1562 24.0471C28.1044 24.0657 28.0725 24.0479 27.9568 24.1293C27.9477 24.1442 27.9654 24.14 27.9654 24.14C27.9526 24.124 27.7842 24.2622 27.8572 24.1562C27.6212 24.4816 27.012 24.8325 26.8459 25.1508C26.652 25.3427 26.3975 25.5553 26.2495 25.7584C26.2666 25.7512 26.2611 25.7684 26.2899 25.7299C26.0952 26.017 26.0929 25.8369 25.87 26.1656C25.7834 26.3509 26.021 26.0188 25.9582 26.1288C25.9998 26.233 25.6482 26.4845 25.5598 26.7464L25.5984 26.696C25.5154 26.8837 25.2986 27.0842 25.1203 27.3611C25.1203 27.3611 25.1366 27.3508 25.1341 27.3673C24.9818 27.5366 24.7653 27.9081 24.6018 28.1815C24.6827 28.1116 24.6875 28.0629 24.6939 28.1343C24.6213 28.2561 24.6573 28.0669 24.5128 28.3136C24.49 28.4077 24.4273 28.6033 24.4527 28.648L24.5605 28.4037C24.5532 28.5544 24.4187 28.7194 24.3736 28.8537L24.4031 28.8467C24.2401 29.2214 24.16 29.196 24.0158 29.6138L24.014 29.5635C23.8799 29.7729 23.9783 29.7685 23.8603 29.9804L23.8919 30.0679C23.8275 30.2132 23.6464 30.5763 23.5738 30.8534C23.6166 30.7798 23.6597 30.665 23.711 30.5451C23.7659 30.4274 23.8225 30.3031 23.8702 30.2093C23.816 30.3585 23.6923 30.7143 23.6531 30.7902C23.6743 30.7313 23.7076 30.6568 23.7157 30.5946C23.6235 30.7687 23.5341 31.0118 23.4555 31.3189C23.5182 31.3071 23.4752 31.5075 23.4176 31.7398C23.373 31.9754 23.3276 32.2493 23.3511 32.3704C23.2801 32.6409 23.2376 32.914 23.1941 33.1969C23.1733 33.4838 23.164 33.7808 23.1291 34.1028C23.0592 33.8691 23.1085 34.2915 23.0208 34.2458C23.0011 34.3963 22.9982 34.454 23.0015 34.4691C23.0008 34.6213 23.0346 34.7749 23.0493 34.9267C23.076 35.0344 23.0674 34.783 23.0891 34.7968C23.0988 35.1241 23.129 34.9363 23.1546 35.152C23.1204 35.1095 23.1086 35.2675 23.1217 35.4546L23.0766 35.1927C23.0528 35.4234 23.0746 35.5228 23.0928 35.6199C23.1146 35.7193 23.127 35.8178 23.1339 36.0474L23.1455 35.9021C23.1567 36.1371 23.2445 36.7627 23.199 37.0081C23.2171 37.0481 23.2555 37.096 23.2389 36.9922C23.305 37.2649 23.3601 37.5719 23.4124 37.8668C23.4254 37.9398 23.4383 38.0128 23.4541 38.0851C23.4723 38.1536 23.4964 38.2208 23.5198 38.2849C23.5637 38.4139 23.6108 38.5295 23.6569 38.6263L23.6646 38.5769C23.693 38.6779 23.6873 38.7649 23.7528 38.8792C23.7597 38.8681 23.7576 38.8305 23.7771 38.8766C23.786 38.9315 23.832 39.1551 23.9159 39.2683L23.8842 39.1522C24.023 39.3886 24.1021 39.5789 24.1776 39.767C24.2135 39.8598 24.2494 39.9527 24.286 40.0486C24.3331 40.1356 24.3844 40.228 24.4459 40.3243C24.5026 40.2855 24.7608 40.6266 24.8874 40.793L24.8906 40.7795C25.3041 41.2484 25.5362 41.6401 25.9712 42.0374C26.1289 42.133 26.3566 42.3356 26.642 42.5181C26.9162 42.7064 27.2044 42.9294 27.4752 43.0457C27.3931 43.0113 27.4622 43.0995 27.5489 43.1549C27.673 43.211 27.8574 43.3858 27.8677 43.32L27.825 43.2953C27.9425 43.2927 28.1757 43.4496 28.3799 43.531L28.3778 43.6202C28.6669 43.6783 28.994 43.8667 29.316 43.9898C29.6358 44.1166 29.9257 44.2347 30.0907 44.2366C30.2122 44.3091 30.3815 44.3449 30.5093 44.4033L30.5148 44.3576C30.8906 44.4426 31.0717 44.5041 31.5342 44.616L31.4458 44.5673C31.7081 44.6158 31.7516 44.7576 31.9954 44.8074L32.081 44.7585C32.5401 44.8554 33.0165 44.8752 33.4681 44.9802C33.4625 44.9688 33.449 44.9498 33.3752 44.9389C33.5931 44.9695 34.2276 44.9739 34.1398 45.055C34.1499 45.0019 34.6227 45.0764 34.8757 45.1114L34.8379 45.0665C35.0493 45.124 35.0555 45.1383 35.3574 45.1553C35.4279 45.1512 35.4184 45.1218 35.3242 45.1315C35.5617 45.1099 35.5097 45.1698 35.7944 45.137L35.6864 45.112C35.9288 45.0987 35.9114 45.1187 36.0437 45.1411C36.1976 45.1489 36.5032 45.0984 36.5373 45.0554C36.5728 45.0755 36.7073 45.0942 36.8503 45.0666C36.8683 45.0496 36.8148 45.0465 36.7899 45.0461C37.1906 44.9762 37.3951 45.0163 37.6656 44.933C37.6689 44.9195 37.6852 44.9093 37.7075 44.8977C37.39 44.9509 37.1316 44.9902 37.1565 44.9906C37.1509 44.9508 37.408 44.9055 37.198 44.8825C37.4064 44.8837 37.7715 44.8919 38.0161 44.818C38.0272 44.8121 38.0384 44.8063 38.0459 44.7982L38.018 44.7985C38.0734 44.7822 38.1279 44.7756 38.1771 44.7734C38.2561 44.7514 38.3043 44.7304 38.3781 44.7129C38.4003 44.6728 38.664 44.6291 38.7889 44.5899C38.7893 44.6342 38.9513 44.5798 38.8071 44.6584C38.8264 44.6475 38.7835 44.6641 38.6972 44.6814C38.6795 44.6856 38.6552 44.6882 38.6434 44.691L38.653 44.6919C38.5703 44.7116 38.4611 44.7375 38.3372 44.767C38.4422 44.7642 38.5494 44.7577 38.6858 44.6999C38.7567 44.7116 38.8357 44.7182 38.8797 44.7204C39.0363 44.6135 39.3556 44.4837 39.39 44.428C39.7746 44.327 40.2696 44.1206 40.5251 44.082C40.6317 44.044 40.6355 44.0051 40.6663 43.9756C40.6027 43.9971 40.5322 44.0296 40.4962 44.035C40.7142 43.9674 41.096 43.7403 41.1731 43.7664C41.411 43.6052 41.0101 43.802 41.3536 43.6126L41.3005 43.6252C41.6127 43.3925 41.8883 43.2477 42.1689 43.0828C42.3052 42.9965 42.4474 42.9088 42.5909 42.7987C42.7265 42.6809 42.8726 42.5542 43.0052 42.3801C42.9689 42.4268 42.9492 42.4505 42.9466 42.4669C43.6202 41.7585 44.3369 40.9639 44.6905 40.0432C44.7993 39.7891 44.8436 39.7786 44.9323 39.6308L44.9128 39.5562L45.0727 39.309C45.2541 38.9331 45.2034 38.6029 45.4042 38.1178L45.4172 38.1908C45.4641 38.0085 45.5638 37.6141 45.5221 37.6367C45.5306 37.6188 45.566 37.5819 45.5655 37.5091L45.5445 37.4982C45.5863 37.3489 45.6185 37.1986 45.6572 37.05C45.6907 36.6934 45.5674 37.0935 45.6187 36.5774C45.6453 36.3873 45.7417 36.0348 45.7488 36.1092C45.741 36.1871 45.7432 36.3102 45.7665 36.3173L45.7964 36.1422C45.8682 36.1156 45.9565 35.9806 45.9612 36.4263L45.888 36.7289L45.9105 36.8313L45.9372 36.5714C45.9549 36.7225 45.9219 36.8127 45.8821 36.9141C45.8975 36.9421 45.9009 36.9857 45.8987 37.0464L45.7854 37.3364C45.8071 37.3788 45.8603 37.2108 45.8429 37.4146C45.789 37.551 45.8046 37.2684 45.7463 37.4978C45.7486 37.6494 45.781 37.6131 45.7176 37.7771C45.7301 37.8059 45.7501 37.7694 45.7699 37.7045C45.7151 37.8506 45.6782 38.1066 45.6215 38.1739C45.6192 38.333 45.4738 38.6749 45.5398 38.6782C45.5152 38.7221 45.404 38.9228 45.359 39.0571C45.522 38.8378 45.1877 39.5637 45.2818 39.5255C45.2117 39.6023 45.1405 39.7587 45.0578 39.9337C44.9679 40.104 44.8767 40.2968 44.7801 40.437C44.7959 40.4237 44.8207 40.3957 44.8332 40.3674C44.7498 40.5393 44.7345 40.5968 44.6855 40.713C44.6218 40.706 44.4632 40.9592 44.3381 41.0682C44.2548 41.2971 44.4757 40.9879 44.4808 41.0818C44.4479 41.0452 44.2143 41.3955 44.2253 41.3041C44.1537 41.4733 44.1494 41.4394 44.1322 41.5449C44.0535 41.5256 44.0199 41.6698 43.8938 41.76C43.76 41.9852 43.9061 41.8585 43.7017 42.0592C43.638 42.179 43.8263 42.0043 43.8263 42.0043ZM37.9962 45.0952C38.053 45.0849 38.1009 45.0767 38.131 45.0727C38.1009 45.0767 38.0618 45.0828 37.9962 45.0952ZM37.4489 45.1905C37.5151 45.1811 37.5991 45.1675 37.686 45.1531C37.704 45.1362 37.6794 45.123 37.6256 45.1326C37.6541 45.1354 37.5272 45.1655 37.4489 45.1905ZM38.5325 44.6667C38.4486 44.6803 38.421 44.6964 38.4112 44.7082C38.4496 44.6991 38.4974 44.6909 38.5594 44.6761C38.5624 44.6754 38.566 44.6777 38.5696 44.6801C38.5617 44.6724 38.5515 44.6685 38.5325 44.6667Z" fill="#EFEFEF"/>
<path d="M42.6445 25.7532L42.6351 25.7443C42.6437 25.7496 42.6531 25.7585 42.6609 25.7604C42.6488 25.7559 42.6496 25.7594 42.6445 25.7532Z" fill="#EFEFEF"/>
<path d="M33.0747 21.9223C33.0621 21.9222 33.0466 21.9227 33.0341 21.9226C32.9402 21.923 33.0024 21.9207 33.0747 21.9223Z" fill="#EFEFEF"/>
<path d="M37.8251 22.4686C37.7791 22.4444 37.733 22.4201 37.6846 22.3996C37.7648 22.4222 37.8287 22.4422 37.8251 22.4686Z" fill="#EFEFEF"/>
<path d="M28.0156 23.7227L27.9864 23.7431L28.0156 23.7227Z" fill="#EFEFEF"/>
<path d="M37.47 22.344C37.5553 22.3521 37.6243 22.3704 37.6865 22.3999C37.6191 22.3748 37.5367 22.366 37.47 22.344Z" fill="#EFEFEF"/>
<path d="M40.8779 24.1725L40.8686 24.2172C40.7559 24.1265 40.8756 24.2057 40.8779 24.1725Z" fill="#EFEFEF"/>
<path d="M39.7548 23.2198L39.8836 23.2684L39.9231 23.3351L39.7548 23.2198Z" fill="#EFEFEF"/>
<path d="M38.8709 23.101L38.9236 23.1295L38.7201 23.02L38.8709 23.101Z" fill="#EFEFEF"/>
<path d="M27.0953 24.9718L27.0932 24.9051C27.1643 24.8435 27.214 24.87 27.0953 24.9718Z" fill="#EFEFEF"/>
<path d="M24.0469 29.5752C24.049 29.641 24.0116 29.7951 23.9585 29.8772C23.9979 29.7605 24.0199 29.6353 24.0469 29.5752Z" fill="#EFEFEF"/>
<path d="M36.5511 27.7596C36.3068 27.7586 36.0472 27.3722 36.0494 26.9439C36.0527 26.3334 36.3783 26.1593 36.6401 26.1428C36.9144 26.1262 37.1552 26.5878 37.1298 27.0479C37.1075 27.4083 36.9333 27.7617 36.5511 27.7596Z" fill="url(#paint2_linear_824_25359)"/>
<path d="M32.4793 27.7103C32.2836 27.7409 31.9544 27.351 31.9374 26.9215C31.91 26.3128 32.2984 26.1026 32.4861 26.0902C32.7326 26.0747 33.0224 26.5072 33.019 26.9677C33.0165 27.3323 32.8415 27.6572 32.4793 27.7103Z" fill="url(#paint3_linear_824_25359)"/>
<path d="M32.9105 28.0079C32.9131 27.9433 32.9561 27.8903 33.0222 27.8916C33.2665 27.8926 34.1183 27.9211 34.5738 27.9162C34.9949 27.911 35.4623 27.9284 35.6927 27.9364C35.772 27.9405 35.8149 28.0119 35.8094 28.09C35.7887 28.3318 35.6503 29.215 34.3929 29.2162C33.4393 29.2184 32.9005 28.467 32.9105 28.0079Z" fill="url(#paint4_linear_824_25359)"/>
<path d="M33.7319 32.4211C39.4715 32.3623 43.844 31.1032 45.3129 30.4809C45.593 30.9544 46.392 32.4444 46.1683 35.3061C45.8668 39.1605 38.9292 39.4635 35.1085 39.4298C31.0828 39.3944 23.3301 41.1189 22.9608 36.5544C22.7199 33.5754 23.0786 31.297 23.3578 30.5324C24.3779 31.185 27.9924 32.4799 33.7319 32.4211Z" fill="url(#paint5_linear_824_25359)"/>
<path d="M33.7126 33.0337C39.4518 32.9751 44.1383 31.5727 45.607 30.951C46.018 31.893 46.2624 33.6044 46.2513 34.9513C46.231 37.4253 45.4343 39.9516 44.6994 40.9067C43.3839 41.4303 41.3711 42.7307 34.9493 42.6741C28.2288 42.6148 25.7754 41.6488 24.2225 40.6185C23.9819 40.4044 22.8938 38.1211 22.8394 37.4487C22.5685 34.1042 22.9092 31.9059 23.1884 31.142C24.2084 31.794 27.9735 33.0923 33.7126 33.0337Z" fill="url(#paint6_linear_824_25359)"/>
<path d="M28.892 35.2349C28.892 35.2349 30.492 37.0531 30.8933 37.3787C31.2947 37.7043 30.8158 38.8134 29.7182 38.4638C28.4904 38.0747 27.5876 36.976 27.2423 36.3246C26.7504 35.3927 27.7142 34.2757 28.892 35.2349Z" fill="#EF5A2E"/>
<path d="M28.5795 34.7595C28.5795 34.7595 30.1578 36.4415 30.1818 36.5174C30.2058 36.5932 29.8449 36.9243 29.5328 37.2995C29.2256 37.6688 28.9073 38.1355 28.8227 38.1238C28.738 38.1121 27.2455 37.2067 26.7205 36.0861C26.1956 34.9655 27.4017 33.8003 28.5795 34.7595Z" fill="url(#paint7_linear_824_25359)"/>
<path d="M39.5082 35.0471C39.5082 35.0471 38.1792 37.1044 37.8277 37.4915C37.4762 37.8785 38.1038 38.8973 39.1404 38.3736C40.3002 37.7895 41.0399 36.5567 41.2907 35.8567C41.6475 34.8555 40.5393 33.9077 39.5082 35.0471Z" fill="#EF5A2E"/>
<path d="M39.741 34.5336C39.741 34.5336 38.4145 36.4528 38.4013 36.5317C38.3882 36.6105 38.791 36.8793 39.1517 37.1996C39.5068 37.5148 39.8863 37.9246 39.9684 37.8992C40.0505 37.8739 41.4002 36.7365 41.7633 35.5434C42.1265 34.3504 40.7721 33.3942 39.741 34.5336Z" fill="url(#paint8_linear_824_25359)"/>
<path d="M34.9858 36.9435L37.4062 32.6318L31.9561 33.024L34.9858 36.9435Z" fill="url(#paint9_linear_824_25359)"/>
<mask id="mask1_824_25359" style="mask-type:alpha" maskUnits="userSpaceOnUse" x="31" y="32" width="7" height="5">
<path d="M34.9936 36.9415L37.4141 32.6299L31.9639 33.0221L34.9936 36.9415Z" fill="url(#paint10_linear_824_25359)"/>
</mask>
<g mask="url(#mask1_824_25359)">
<path d="M35.552 32.9281L34.1053 32.9173C34.0719 32.9167 34.0388 32.9212 34.0088 32.9305C33.9788 32.9397 33.9527 32.9533 33.9329 32.9703C33.9131 32.9872 33.9 33.0069 33.8948 33.0278C33.8897 33.0486 33.8926 33.0699 33.9033 33.0899L34.2004 33.7572C34.2113 33.7813 34.2344 33.8026 34.266 33.8179C34.2977 33.8331 34.3363 33.8415 34.3761 33.8418L35.2377 33.8483C35.2771 33.8486 35.3155 33.841 35.3474 33.8265C35.3793 33.812 35.403 33.7915 35.415 33.7678L35.7665 33.0667C35.767 33.0487 35.7619 33.0307 35.7513 33.0139C35.7407 32.9971 35.7249 32.9818 35.7048 32.9689C35.6847 32.956 35.6608 32.9458 35.6344 32.9388C35.608 32.9318 35.5796 32.9281 35.551 32.9281L35.552 32.9281ZM33.9422 36.9482L34.4307 37.1804C34.5269 37.226 34.6436 37.2511 34.7638 37.252C34.884 37.2529 35.0014 37.2296 35.099 37.1854L35.5982 36.9592C35.6796 36.9222 35.7439 36.8723 35.7846 36.8144C35.8253 36.7565 35.8408 36.6929 35.8296 36.6299L35.3853 34.2205C35.3808 34.1944 35.3612 34.1702 35.3303 34.1526C35.2995 34.135 35.2594 34.1251 35.2178 34.1249L34.4571 34.1192C34.4154 34.1189 34.3751 34.1281 34.3437 34.1453C34.3122 34.1624 34.2918 34.1863 34.2864 34.2123L33.722 36.6119C33.7074 36.6752 33.7201 36.7399 33.7589 36.7991C33.7976 36.8583 33.861 36.9098 33.9422 36.9482Z" fill="url(#paint11_linear_824_25359)"/>
</g>
</g>
<rect x="53.9922" y="19.7148" width="42" height="5.14286" rx="2.57143" fill="#ECECEC"/>
<rect x="23.9922" y="52.2852" width="72" height="5.14286" rx="2.57143" fill="#ECECEC"/>
<rect x="23.9922" y="84.001" width="72" height="5.14286" rx="2.57143" fill="#ECECEC"/>
<rect x="23.9922" y="90.8574" width="45.4286" height="5.14286" rx="2.57143" fill="#ECECEC"/>
<rect x="53.9922" y="33.4287" width="23.1429" height="5.14286" rx="2.57143" fill="#ECECEC"/>
<rect x="23.9922" y="65.999" width="40.2857" height="5.14286" rx="2.57143" fill="#ECECEC"/>
<rect x="53.9922" y="26.5723" width="42" height="5.14286" rx="2.57143" fill="#ECECEC"/>
<rect x="23.9922" y="59.1426" width="72" height="5.14286" rx="2.57143" fill="#ECECEC"/>
<path d="M25.0722 49.1379H26.1625C26.3528 49.1379 26.4659 49.2407 26.4659 49.4259C26.4659 49.611 26.3528 49.7139 26.1625 49.7139H24.7225C24.491 49.7139 24.3625 49.575 24.3625 49.3333V46.6282C24.3625 46.3864 24.491 46.2476 24.7225 46.2476H26.1368C26.327 46.2476 26.4402 46.3504 26.4402 46.5356C26.4402 46.7207 26.327 46.8236 26.1368 46.8236H25.0722V47.6053H26.0236C26.2088 47.6053 26.3219 47.7082 26.3219 47.8882C26.3219 48.0682 26.2088 48.171 26.0236 48.171H25.0722V49.1379ZM28.2648 48.3562L28.9077 49.2253C28.9591 49.2973 28.99 49.3796 28.99 49.4567C28.99 49.6264 28.8357 49.7396 28.6917 49.7396C28.594 49.7396 28.5014 49.6933 28.4242 49.5904L27.8225 48.7779L27.2208 49.5699C27.1437 49.6727 27.0357 49.7396 26.9277 49.7396C26.7785 49.7396 26.6602 49.6264 26.6602 49.4773C26.6602 49.4002 26.686 49.3179 26.7425 49.2459L27.3751 48.4024L26.8145 47.6362C26.758 47.559 26.7374 47.4819 26.7374 47.4047C26.7374 47.2453 26.8608 47.1219 27.0254 47.1219C27.1231 47.1219 27.2208 47.1682 27.2928 47.2659L27.8225 47.9962L28.3677 47.2864C28.45 47.1836 28.5528 47.1219 28.6557 47.1219C28.7997 47.1219 28.918 47.235 28.918 47.379C28.918 47.4562 28.8922 47.5333 28.8357 47.6104L28.2648 48.3562ZM30.855 47.0756C31.5905 47.0756 32.0996 47.631 32.0996 48.4333C32.0996 49.2356 31.5905 49.7859 30.855 49.7859C30.5156 49.7859 30.2276 49.6676 30.0425 49.4619V50.3773C30.0425 50.6139 29.9293 50.7373 29.7133 50.7373C29.4973 50.7373 29.3842 50.6139 29.3842 50.3773V47.4202C29.3842 47.2247 29.487 47.1116 29.667 47.1116C29.8368 47.1116 29.9345 47.2144 29.9499 47.4099L29.9602 47.5076C30.135 47.235 30.4642 47.0756 30.855 47.0756ZM30.7316 49.2613C31.1379 49.2613 31.4259 48.9167 31.4259 48.4333C31.4259 47.9499 31.1379 47.6002 30.7316 47.6002C30.3253 47.6002 30.0373 47.9499 30.0373 48.4333C30.0373 48.9167 30.3253 49.2613 30.7316 49.2613ZM33.7353 47.0756C34.4501 47.0756 34.9284 47.5487 34.9284 48.2533V48.3407C34.9284 48.5464 34.8153 48.6647 34.6044 48.6647H33.0667C33.1439 49.0556 33.4113 49.2613 33.8433 49.2613C34.0181 49.2613 34.1827 49.2253 34.3679 49.1533C34.4296 49.1276 34.4861 49.1173 34.5479 49.1173C34.6867 49.1173 34.7896 49.2202 34.7896 49.3539C34.7896 49.4619 34.7124 49.5596 34.5684 49.6367C34.3936 49.7344 34.1261 49.7859 33.8227 49.7859C32.9639 49.7859 32.3879 49.2407 32.3879 48.4282C32.3879 47.6413 32.9536 47.0756 33.7353 47.0756ZM33.6993 47.5796C33.3599 47.5796 33.1284 47.8059 33.0667 48.1864H34.2804C34.2547 47.811 34.0387 47.5796 33.6993 47.5796ZM36.6091 47.0859C36.8251 47.0859 36.9434 47.1939 36.9434 47.3893C36.9434 47.6053 36.82 47.7133 36.5371 47.739C36.2029 47.7699 36.0743 47.955 36.0743 48.4179V49.3847C36.0743 49.6213 35.9611 49.7447 35.7451 49.7447C35.5291 49.7447 35.416 49.6213 35.416 49.3847V47.3996C35.416 47.2196 35.5137 47.1116 35.6886 47.1116C35.848 47.1116 35.9509 47.2093 35.9663 47.3893L35.9817 47.6002C36.1103 47.271 36.3263 47.0859 36.6091 47.0859ZM37.6386 46.8802C37.4226 46.8802 37.2683 46.731 37.2683 46.5304C37.2683 46.3247 37.4226 46.1756 37.6386 46.1756C37.8546 46.1756 38.0088 46.3247 38.0088 46.5304C38.0088 46.731 37.8546 46.8802 37.6386 46.8802ZM37.6386 49.7447C37.4226 49.7447 37.3094 49.6213 37.3094 49.3847V47.4767C37.3094 47.2402 37.4226 47.1167 37.6386 47.1167C37.8546 47.1167 37.9677 47.2402 37.9677 47.4767V49.3847C37.9677 49.6213 37.8546 49.7447 37.6386 49.7447ZM39.8023 47.0756C40.5171 47.0756 40.9954 47.5487 40.9954 48.2533V48.3407C40.9954 48.5464 40.8823 48.6647 40.6714 48.6647H39.1337C39.2108 49.0556 39.4783 49.2613 39.9103 49.2613C40.0851 49.2613 40.2497 49.2253 40.4348 49.1533C40.4965 49.1276 40.5531 49.1173 40.6148 49.1173C40.7537 49.1173 40.8565 49.2202 40.8565 49.3539C40.8565 49.4619 40.7794 49.5596 40.6354 49.6367C40.4605 49.7344 40.1931 49.7859 39.8897 49.7859C39.0308 49.7859 38.4548 49.2407 38.4548 48.4282C38.4548 47.6413 39.0205 47.0756 39.8023 47.0756ZM39.7663 47.5796C39.4268 47.5796 39.1954 47.8059 39.1337 48.1864H40.3474C40.3217 47.811 40.1057 47.5796 39.7663 47.5796ZM42.8458 47.0756C43.3961 47.0756 43.7458 47.4562 43.7458 48.0476V49.3847C43.7458 49.6213 43.6327 49.7447 43.4167 49.7447C43.2007 49.7447 43.0875 49.6213 43.0875 49.3847V48.1504C43.0875 47.8162 42.9127 47.6259 42.6144 47.6259C42.3161 47.6259 42.1413 47.8213 42.1413 48.1504V49.3847C42.1413 49.6213 42.0281 49.7447 41.8121 49.7447C41.5961 49.7447 41.483 49.6213 41.483 49.3847V47.415C41.483 47.2196 41.5858 47.1116 41.7658 47.1116C41.9355 47.1116 42.0333 47.2144 42.0487 47.4047L42.0538 47.487C42.203 47.2299 42.4961 47.0756 42.8458 47.0756ZM45.6145 49.7859C44.7762 49.7859 44.2054 49.2356 44.2054 48.4282C44.2054 47.6207 44.7762 47.0704 45.6145 47.0704C45.882 47.0704 46.134 47.127 46.314 47.2196C46.4631 47.2967 46.5351 47.3944 46.5351 47.5024C46.5351 47.6362 46.4322 47.739 46.2934 47.739C46.242 47.739 46.1905 47.7287 46.1134 47.6979C45.9282 47.6259 45.7945 47.595 45.6454 47.595C45.1774 47.595 44.8791 47.919 44.8791 48.4282C44.8791 48.9373 45.1774 49.2613 45.6454 49.2613C45.7945 49.2613 45.9282 49.2304 46.1134 49.1584C46.1905 49.1276 46.242 49.1173 46.2934 49.1173C46.4322 49.1173 46.5351 49.2202 46.5351 49.3539C46.5351 49.4619 46.4631 49.5544 46.314 49.6367C46.1391 49.7344 45.882 49.7859 45.6145 49.7859ZM48.079 47.0756C48.7939 47.0756 49.2722 47.5487 49.2722 48.2533V48.3407C49.2722 48.5464 49.159 48.6647 48.9482 48.6647H47.4105C47.4876 49.0556 47.755 49.2613 48.187 49.2613C48.3619 49.2613 48.5265 49.2253 48.7116 49.1533C48.7733 49.1276 48.8299 49.1173 48.8916 49.1173C49.0305 49.1173 49.1333 49.2202 49.1333 49.3539C49.1333 49.4619 49.0562 49.5596 48.9122 49.6367C48.7373 49.7344 48.4699 49.7859 48.1665 49.7859C47.3076 49.7859 46.7316 49.2407 46.7316 48.4282C46.7316 47.6413 47.2973 47.0756 48.079 47.0756ZM48.043 47.5796C47.7036 47.5796 47.4722 47.8059 47.4105 48.1864H48.6242C48.5985 47.811 48.3825 47.5796 48.043 47.5796Z" fill="#F05B2F"/>
<path d="M25.0722 80.8527H26.1625C26.3528 80.8527 26.4659 80.9556 26.4659 81.1407C26.4659 81.3259 26.3528 81.4287 26.1625 81.4287H24.7225C24.491 81.4287 24.3625 81.2899 24.3625 81.0481V78.343C24.3625 78.1013 24.491 77.9624 24.7225 77.9624H26.1368C26.327 77.9624 26.4402 78.0653 26.4402 78.2504C26.4402 78.4356 26.327 78.5384 26.1368 78.5384H25.0722V79.3201H26.0236C26.2088 79.3201 26.3219 79.423 26.3219 79.603C26.3219 79.783 26.2088 79.8859 26.0236 79.8859H25.0722V80.8527ZM29.1391 77.8287C29.3551 77.8287 29.4682 77.9521 29.4682 78.1887V81.1561C29.4682 81.3516 29.3654 81.4647 29.1854 81.4647C29.0157 81.4647 28.918 81.3619 28.9025 81.1664L28.8922 81.0687C28.7174 81.3413 28.3882 81.5007 27.9974 81.5007C27.262 81.5007 26.7528 80.9453 26.7528 80.143C26.7528 79.3407 27.262 78.7904 27.9974 78.7904C28.3368 78.7904 28.6248 78.9087 28.81 79.1144V78.1887C28.81 77.9521 28.9231 77.8287 29.1391 77.8287ZM28.1208 80.9761C28.5271 80.9761 28.8151 80.6264 28.8151 80.143C28.8151 79.6596 28.5271 79.315 28.1208 79.315C27.7145 79.315 27.4265 79.6596 27.4265 80.143C27.4265 80.6264 27.7145 80.9761 28.1208 80.9761ZM31.2582 81.5007C30.5742 81.5007 30.1268 81.079 30.1268 80.4361V79.1864C30.1268 78.9499 30.2399 78.8316 30.4559 78.8316C30.6719 78.8316 30.7851 78.9499 30.7851 79.1864V80.4979C30.7851 80.8064 30.9599 80.9864 31.2582 80.9864C31.5565 80.9864 31.7313 80.8064 31.7313 80.4979V79.1864C31.7313 78.9499 31.8445 78.8316 32.0605 78.8316C32.2765 78.8316 32.3896 78.9499 32.3896 79.1864V80.4361C32.3896 81.079 31.9422 81.5007 31.2582 81.5007ZM34.254 81.5007C33.4157 81.5007 32.8449 80.9504 32.8449 80.143C32.8449 79.3356 33.4157 78.7853 34.254 78.7853C34.5215 78.7853 34.7735 78.8419 34.9535 78.9344C35.1026 79.0116 35.1746 79.1093 35.1746 79.2173C35.1746 79.351 35.0717 79.4539 34.9329 79.4539C34.8815 79.4539 34.83 79.4436 34.7529 79.4127C34.5677 79.3407 34.434 79.3099 34.2849 79.3099C33.8169 79.3099 33.5186 79.6339 33.5186 80.143C33.5186 80.6521 33.8169 80.9761 34.2849 80.9761C34.434 80.9761 34.5677 80.9453 34.7529 80.8733C34.83 80.8424 34.8815 80.8321 34.9329 80.8321C35.0717 80.8321 35.1746 80.935 35.1746 81.0687C35.1746 81.1767 35.1026 81.2693 34.9535 81.3516C34.7786 81.4493 34.5215 81.5007 34.254 81.5007ZM36.6762 78.7904C37.3962 78.7904 37.7511 79.1247 37.7511 79.8036V81.1561C37.7511 81.3516 37.6431 81.4647 37.4682 81.4647C37.2985 81.4647 37.1956 81.3619 37.1802 81.1664V81.1613C37.0053 81.3824 36.7379 81.5007 36.4036 81.5007C35.8225 81.5007 35.4522 81.1561 35.4522 80.6213C35.4522 80.0659 35.8379 79.7161 36.4448 79.7161C36.7225 79.7161 36.9539 79.7881 37.1082 79.9219V79.7676C37.1082 79.4539 36.9488 79.3047 36.6145 79.3047C36.4499 79.3047 36.2905 79.3407 36.0951 79.423C36.0385 79.4487 35.9768 79.4641 35.9151 79.4641C35.7711 79.4641 35.6682 79.3664 35.6682 79.2327C35.6682 79.1144 35.7453 79.0167 35.8996 78.9447C36.1053 78.847 36.3779 78.7904 36.6762 78.7904ZM36.5991 80.9864C36.8922 80.9864 37.0979 80.8219 37.0979 80.5853C37.0979 80.3487 36.8922 80.1841 36.5991 80.1841C36.3059 80.1841 36.1002 80.3487 36.1002 80.5853C36.1002 80.8219 36.3059 80.9864 36.5991 80.9864ZM38.9307 81.4596C38.7147 81.4596 38.6015 81.3361 38.6015 81.0996V79.3716H38.3341C38.1541 79.3716 38.0564 79.279 38.0564 79.1144C38.0564 78.9499 38.1592 78.8573 38.3341 78.8573H38.6015V78.4561C38.6015 78.2196 38.7147 78.1013 38.9307 78.1013C39.1467 78.1013 39.2598 78.2196 39.2598 78.4561V78.8573H39.7227C39.8975 78.8573 40.0004 78.955 40.0004 79.1144C40.0004 79.279 39.8975 79.3716 39.7227 79.3716H39.2598V81.0996C39.2598 81.3361 39.1467 81.4596 38.9307 81.4596ZM40.6319 78.595C40.4159 78.595 40.2616 78.4459 40.2616 78.2453C40.2616 78.0396 40.4159 77.8904 40.6319 77.8904C40.8479 77.8904 41.0021 78.0396 41.0021 78.2453C41.0021 78.4459 40.8479 78.595 40.6319 78.595ZM40.6319 81.4596C40.4159 81.4596 40.3027 81.3361 40.3027 81.0996V79.1916C40.3027 78.955 40.4159 78.8316 40.6319 78.8316C40.8479 78.8316 40.961 78.955 40.961 79.1916V81.0996C40.961 81.3361 40.8479 81.4596 40.6319 81.4596ZM42.8316 81.5007C42.0447 81.5007 41.4481 80.9196 41.4481 80.143C41.4481 79.3664 42.0447 78.7853 42.8316 78.7853C43.6184 78.7853 44.215 79.3716 44.215 80.143C44.215 80.9144 43.6184 81.5007 42.8316 81.5007ZM42.8316 80.9864C43.2636 80.9864 43.5413 80.6521 43.5413 80.143C43.5413 79.6339 43.2636 79.2996 42.8316 79.2996C42.3996 79.2996 42.1218 79.6339 42.1218 80.143C42.1218 80.6521 42.3996 80.9864 42.8316 80.9864ZM46.0651 78.7904C46.6154 78.7904 46.9651 79.171 46.9651 79.7624V81.0996C46.9651 81.3361 46.852 81.4596 46.636 81.4596C46.42 81.4596 46.3068 81.3361 46.3068 81.0996V79.8653C46.3068 79.531 46.132 79.3407 45.8337 79.3407C45.5354 79.3407 45.3606 79.5361 45.3606 79.8653V81.0996C45.3606 81.3361 45.2474 81.4596 45.0314 81.4596C44.8154 81.4596 44.7023 81.3361 44.7023 81.0996V79.1299C44.7023 78.9344 44.8051 78.8264 44.9851 78.8264C45.1548 78.8264 45.2526 78.9293 45.268 79.1196L45.2731 79.2019C45.4223 78.9447 45.7154 78.7904 46.0651 78.7904Z" fill="#F05B2F"/>
<path d="M111.256 31.5933C111.256 31.5933 111.671 31.5707 112.114 31.545C112.106 32.0511 112.08 32.5926 112.08 32.5926C112.134 33.16 112.345 33.3759 112.691 33.4243C113.035 33.4726 113.231 33.1213 113.302 32.5926C113.302 32.5926 113.316 32.0801 113.328 31.5191C113.734 31.5482 114.155 31.5933 114.155 31.5933C114.626 31.532 114.808 31.2935 114.848 30.9002C114.888 30.5102 114.598 30.2877 114.155 30.2071C114.155 30.2071 113.768 30.1652 113.328 30.1394C113.319 29.5979 113.305 29.1176 113.305 29.1176C113.305 28.6566 113.032 28.2859 112.694 28.2859C112.251 28.2859 112.083 28.6598 112.083 29.1176C112.083 29.1176 112.08 29.6108 112.089 30.1394C111.648 30.1652 111.259 30.2071 111.259 30.2071C110.876 30.2071 110.566 30.5166 110.566 30.9002C110.563 31.4031 110.873 31.5933 111.256 31.5933Z" fill="url(#paint12_linear_824_25359)" fill-opacity="0.6"/>
<path d="M15.2641 101.023C15.2641 101.023 15.679 101 16.1223 100.975C16.1137 101.481 16.0882 102.022 16.0882 102.022C16.1421 102.59 16.3524 102.806 16.6991 102.854C17.0429 102.902 17.239 102.551 17.31 102.022C17.31 102.022 17.3242 101.51 17.3356 100.949C17.7419 100.978 18.1624 101.023 18.1624 101.023C18.6341 100.962 18.816 100.723 18.8557 100.33C18.8955 99.9399 18.6057 99.7174 18.1624 99.6368C18.1624 99.6368 17.776 99.5949 17.3356 99.5691C17.327 99.0276 17.3128 98.5473 17.3128 98.5473C17.3128 98.0863 17.04 97.7155 16.7019 97.7155C16.2587 97.7155 16.091 98.0895 16.091 98.5473C16.091 98.5473 16.0882 99.0404 16.0967 99.5691C15.6563 99.5949 15.267 99.6368 15.267 99.6368C14.8834 99.6368 14.5737 99.9463 14.5737 100.33C14.5708 100.833 14.8806 101.023 15.2641 101.023Z" fill="url(#paint13_linear_824_25359)" fill-opacity="0.6"/>
<path d="M104.083 20.9419C104.083 20.9419 104.83 20.9044 105.628 20.8614C105.613 21.7049 105.566 22.6075 105.566 22.6075C105.664 23.5531 106.042 23.913 106.666 23.9936C107.285 24.0742 107.638 23.4886 107.766 22.6075C107.766 22.6075 107.791 21.7532 107.812 20.8184C108.543 20.8667 109.3 20.9419 109.3 20.9419C110.149 20.8398 110.477 20.4423 110.548 19.7869C110.62 19.1368 110.098 18.766 109.3 18.6316C109.3 18.6316 108.605 18.5618 107.812 18.5188C107.796 17.6162 107.771 16.8157 107.771 16.8157C107.771 16.0474 107.28 15.4295 106.671 15.4295C105.873 15.4295 105.572 16.0528 105.572 16.8157C105.572 16.8157 105.567 17.6377 105.582 18.5188C104.789 18.5618 104.088 18.6316 104.088 18.6316C103.398 18.6316 102.84 19.1475 102.84 19.7869C102.835 20.625 103.393 20.9419 104.083 20.9419Z" fill="url(#paint14_linear_824_25359)" fill-opacity="0.6"/>
<path d="M6.38016 90.3697C6.38016 90.3697 7.12686 90.3321 7.92474 90.2891C7.9094 91.1326 7.86337 92.0353 7.86337 92.0353C7.96055 92.9808 8.33904 93.3407 8.96302 93.4213C9.58188 93.5019 9.9348 92.9164 10.0627 92.0353C10.0627 92.0353 10.0882 91.181 10.1087 90.2461C10.8401 90.2945 11.597 90.3697 11.597 90.3697C12.4461 90.2676 12.7734 89.8701 12.845 89.2146C12.9166 88.5645 12.3949 88.1937 11.597 88.0594C11.597 88.0594 10.9014 87.9896 10.1087 87.9466C10.0933 87.044 10.0678 86.2435 10.0678 86.2435C10.0678 85.4752 9.57677 84.8573 8.96814 84.8573C8.17026 84.8573 7.86849 85.4806 7.86849 86.2435C7.86849 86.2435 7.86338 87.0655 7.87873 87.9466C7.08597 87.9896 6.38527 88.0594 6.38527 88.0594C5.6948 88.0594 5.13731 88.5752 5.13731 89.2146C5.1322 90.0527 5.68969 90.3697 6.38016 90.3697Z" fill="url(#paint15_linear_824_25359)" fill-opacity="0.6"/>
</g>
<defs>
<filter id="filter0_d_824_25359" x="5.13616" y="-0.857003" width="109.716" height="120.857" filterUnits="userSpaceOnUse" color-interpolation-filters="sRGB">
<feFlood flood-opacity="0" result="BackgroundImageFix"/>
<feColorMatrix in="SourceAlpha" type="matrix" values="0 0 0 0 0 0 0 0 0 0 0 0 0 0 0 0 0 0 127 0" result="hardAlpha"/>
<feOffset/>
<feGaussianBlur stdDeviation="5.14286"/>
<feComposite in2="hardAlpha" operator="out"/>
<feColorMatrix type="matrix" values="0 0 0 0 0 0 0 0 0 0 0 0 0 0 0 0 0 0 0.1 0"/>
<feBlend mode="normal" in2="BackgroundImageFix" result="effect1_dropShadow_824_25359"/>
<feBlend mode="normal" in="SourceGraphic" in2="effect1_dropShadow_824_25359" result="shape"/>
</filter>
<linearGradient id="paint0_linear_824_25359" x1="59.9933" y1="9.42871" x2="59.9933" y2="158.572" gradientUnits="userSpaceOnUse">
<stop offset="0.449952" stop-color="#FCFCFC"/>
<stop offset="1" stop-color="#DCDCDC"/>
</linearGradient>
<linearGradient id="paint1_linear_824_25359" x1="38.0898" y1="25.5966" x2="30.6573" y2="43.4953" gradientUnits="userSpaceOnUse">
<stop offset="0.000866505" stop-color="#FCFCFC"/>
<stop offset="1" stop-color="#DCDCDC"/>
</linearGradient>
<linearGradient id="paint2_linear_824_25359" x1="37.2545" y1="24.1356" x2="35.8504" y2="30.1039" gradientUnits="userSpaceOnUse">
<stop offset="0.000604984" stop-color="#EE883F"/>
<stop offset="1" stop-color="#F05B2E"/>
</linearGradient>
<linearGradient id="paint3_linear_824_25359" x1="33.4009" y1="22.9801" x2="31.9967" y2="28.9484" gradientUnits="userSpaceOnUse">
<stop offset="0.000604984" stop-color="#EE883F"/>
<stop offset="1" stop-color="#F05B2E"/>
</linearGradient>
<linearGradient id="paint4_linear_824_25359" x1="35.2974" y1="23.847" x2="33.9699" y2="29.8333" gradientUnits="userSpaceOnUse">
<stop offset="0.000604984" stop-color="#EE883F"/>
<stop offset="1" stop-color="#F05B2E"/>
</linearGradient>
<linearGradient id="paint5_linear_824_25359" x1="36.4087" y1="30.188" x2="35.2298" y2="40.8176" gradientUnits="userSpaceOnUse">
<stop stop-color="white"/>
<stop offset="1" stop-color="#E7E7E7"/>
</linearGradient>
<linearGradient id="paint6_linear_824_25359" x1="34.8407" y1="30.5968" x2="34.4423" y2="42.7096" gradientUnits="userSpaceOnUse">
<stop stop-color="#A5A5B6"/>
<stop offset="1" stop-color="#6A6A7C"/>
</linearGradient>
<linearGradient id="paint7_linear_824_25359" x1="26.4997" y1="35.6794" x2="30.1257" y2="36.76" gradientUnits="userSpaceOnUse">
<stop stop-color="#A5A5B6"/>
<stop offset="1" stop-color="#6A6A7C"/>
</linearGradient>
<linearGradient id="paint8_linear_824_25359" x1="41.9251" y1="35.1055" x2="38.4629" y2="36.7024" gradientUnits="userSpaceOnUse">
<stop stop-color="#A5A5B6"/>
<stop offset="1" stop-color="#6A6A7C"/>
</linearGradient>
<linearGradient id="paint9_linear_824_25359" x1="35.0808" y1="32.6144" x2="34.3613" y2="37.2554" gradientUnits="userSpaceOnUse">
<stop stop-color="white"/>
<stop offset="1" stop-color="#E7E7E7"/>
</linearGradient>
<linearGradient id="paint10_linear_824_25359" x1="35.0886" y1="32.6125" x2="34.3691" y2="37.2534" gradientUnits="userSpaceOnUse">
<stop stop-color="white"/>
<stop offset="1" stop-color="#E7E7E7"/>
</linearGradient>
<linearGradient id="paint11_linear_824_25359" x1="36.1128" y1="35.0972" x2="33.4851" y2="35.0569" gradientUnits="userSpaceOnUse">
<stop offset="0.000604984" stop-color="#EE883F"/>
<stop offset="0.2852" stop-color="#EE813C"/>
<stop offset="0.7014" stop-color="#EF6D35"/>
<stop offset="1" stop-color="#F05B2E"/>
</linearGradient>
<linearGradient id="paint12_linear_824_25359" x1="114.848" y1="30.8563" x2="110.562" y2="30.8563" gradientUnits="userSpaceOnUse">
<stop offset="0.000604984" stop-color="#EE883F"/>
<stop offset="1" stop-color="#F05B2E"/>
</linearGradient>
<linearGradient id="paint13_linear_824_25359" x1="18.856" y1="100.286" x2="14.5697" y2="100.286" gradientUnits="userSpaceOnUse">
<stop offset="0.000604984" stop-color="#EE883F"/>
<stop offset="1" stop-color="#F05B2E"/>
</linearGradient>
<linearGradient id="paint14_linear_824_25359" x1="110.549" y1="19.7136" x2="102.833" y2="19.7136" gradientUnits="userSpaceOnUse">
<stop offset="0.000604984" stop-color="#EEA83F"/>
<stop offset="1" stop-color="#F08B2E"/>
</linearGradient>
<linearGradient id="paint15_linear_824_25359" x1="12.8456" y1="89.1413" x2="5.1301" y2="89.1413" gradientUnits="userSpaceOnUse">
<stop offset="0.000604984" stop-color="#EEA83F"/>
<stop offset="1" stop-color="#F08B2E"/>
</linearGradient>
<clipPath id="clip0_824_25359">
<rect width="120" height="120" fill="white"/>
</clipPath>
</defs>
</svg>
