<svg width="120" height="120" viewBox="0 0 120 120" fill="none" xmlns="http://www.w3.org/2000/svg">
<g clip-path="url(#clip0_911_20980)">
<rect width="120" height="120" rx="10" fill="#FEF5F1"/>
<path d="M122.451 123.401C108.187 166.229 65.9236 169.62 31.1953 154.16C-6.29552 137.476 -25.8175 106.501 -3.69834 63.2789C14.6876 27.385 49.6915 11.7011 87.8548 28.6811C122.583 44.1604 135.563 84.0374 122.451 123.401Z" fill="url(#paint0_linear_911_20980)"/>
<path d="M72.5983 56.5031C71.1125 56.4529 69.5826 54.1075 69.6495 51.5595C69.7468 47.9272 71.7487 46.9498 73.3432 46.899C75.0136 46.8494 76.4205 49.6393 76.2079 52.3725C76.0269 54.5124 74.9228 56.5843 72.5983 56.5031Z" fill="url(#paint1_linear_911_20980)"/>
<path d="M47.8671 55.4072C46.6729 55.5536 44.7193 53.1746 44.6703 50.6159C44.58 46.9896 46.9689 45.8085 48.1124 45.7684C49.6131 45.7206 51.3218 48.3457 51.2429 51.0855C51.182 53.2541 50.0764 55.1563 47.8671 55.4072Z" fill="url(#paint2_linear_911_20980)"/>
<path d="M50.4675 57.3053C50.4914 56.9217 50.7598 56.6136 51.1612 56.6333C52.647 56.6835 57.8246 57.0059 60.596 57.0584C63.1578 57.1032 65.9986 57.2907 67.3989 57.3797C67.8804 57.4185 68.1326 57.8512 68.0896 58.3148C67.9331 59.7498 66.9802 64.9801 59.3321 64.7615C53.5312 64.6033 50.3486 60.0355 50.4675 57.3053Z" fill="url(#paint3_linear_911_20980)"/>
<path d="M54.3036 83.8154C89.2275 83.6331 115.808 76.2669 124.732 72.6066C126.447 75.4324 131.341 84.3233 130.04 101.348C128.289 124.279 86.0796 125.879 62.8302 125.568C38.333 125.239 -8.80564 135.276 -11.1499 108.1C-12.6799 90.3634 -10.5454 76.8141 -8.86287 72.2722C-2.64169 76.1855 19.3798 83.9978 54.3036 83.8154Z" fill="url(#paint4_linear_911_20980)"/>
<path d="M54.1781 87.4826C89.0995 87.3013 117.587 79.0916 126.511 75.4345C129.032 81.0526 132.31 90.8048 131.683 107.854C131.142 122.567 129.807 125.899 125.356 131.562C117.362 134.64 100.987 145.417 61.909 144.893C21.0137 144.344 0.23021 138.288 -9.24112 132.111C-10.7094 130.83 -11.66 114.559 -12.0616 109.907C-13.592 92.1853 -11.5845 80.455 -9.90222 75.9168C-3.68137 79.827 19.2567 87.6638 54.1781 87.4826Z" fill="url(#paint5_linear_911_20980)"/>
<path d="M27.2946 100.157C27.2946 100.157 32.8325 113.684 34.4809 116.345C36.1292 119.006 31.1874 124.233 25.6047 119.989C19.3561 115.253 16.3763 107.212 15.6956 102.84C14.7337 96.589 22.4646 92.3265 27.2946 100.157Z" fill="#EF5A2E"/>
<path d="M26.4857 96.8463C26.4857 96.8463 32.1702 109.565 32.1566 110.04C32.1431 110.515 29.4216 111.623 26.8913 113.078C24.4008 114.511 21.6535 116.468 21.1926 116.226C20.7318 115.984 13.995 107.801 13.2193 100.423C12.4437 93.0453 21.6557 89.0162 26.4857 96.8463Z" fill="url(#paint6_linear_911_20980)"/>
<path d="M99.5497 98.537C99.5497 98.537 93.9137 112.023 92.2461 114.673C90.5784 117.322 95.4822 122.584 101.096 118.381C107.378 113.691 110.417 105.671 111.129 101.305C112.136 95.0607 104.436 90.7422 99.5497 98.537Z" fill="#EF5A2E"/>
<path d="M100.371 95.2345C100.371 95.2345 94.594 107.911 94.6042 108.387C94.6143 108.862 97.3276 109.989 99.8473 111.463C102.327 112.914 105.06 114.891 105.523 114.652C105.986 114.414 112.782 106.28 113.611 98.9078C114.44 91.5356 105.258 87.4397 100.371 95.2345Z" fill="url(#paint7_linear_911_20980)"/>
<path d="M61.9774 110.794L77.2422 85.5737L44.0428 86.9279L61.9774 110.794Z" fill="url(#paint8_linear_911_20980)"/>
<mask id="mask0_911_20980" style="mask-type:alpha" maskUnits="userSpaceOnUse" x="44" y="85" width="34" height="26">
<path d="M61.9774 110.794L77.2422 85.5737L44.0428 86.9279L61.9774 110.794Z" fill="url(#paint9_linear_911_20980)"/>
</mask>
<g mask="url(#mask0_911_20980)">
<path d="M65.9172 86.9979L57.1195 86.6735C56.9163 86.664 56.7143 86.6849 56.5305 86.7343C56.3468 86.7838 56.1867 86.8604 56.0639 86.9576C55.9411 87.0549 55.8592 87.1699 55.8252 87.2928C55.7912 87.4158 55.8062 87.5432 55.8687 87.664L57.5918 91.6878C57.6554 91.8335 57.7928 91.9643 57.9834 92.0607C58.1741 92.1572 58.4078 92.2141 58.6498 92.2231L63.8898 92.4163C64.1291 92.4255 64.364 92.387 64.5599 92.3066C64.7557 92.2262 64.9023 92.108 64.978 91.9695L67.2043 87.861C67.2099 87.7537 67.1807 87.6459 67.1184 87.5441C67.0561 87.4422 66.962 87.3484 66.8415 87.268C66.7211 87.1876 66.5767 87.1222 66.417 87.0758C66.2572 87.0294 66.0852 87.0028 65.9111 86.9977L65.9172 86.9979ZM55.6199 110.629L58.562 112.098C59.1412 112.387 59.8478 112.557 60.5788 112.584C61.3098 112.611 62.027 112.493 62.6259 112.248L65.6911 110.992C66.1908 110.786 66.5883 110.5 66.8429 110.164C67.0975 109.827 67.2 109.451 67.1401 109.074L64.7407 94.6577C64.7167 94.5016 64.6007 94.3542 64.415 94.2438C64.2293 94.1333 63.9867 94.0674 63.7336 94.0587L59.1074 93.8882C58.8544 93.8786 58.6079 93.9265 58.4144 94.0229C58.221 94.1193 58.0941 94.2575 58.0576 94.4113L54.323 108.588C54.2261 108.962 54.2955 109.349 54.5237 109.708C54.752 110.067 55.1307 110.385 55.6199 110.629Z" fill="url(#paint10_linear_911_20980)"/>
</g>
</g>
<defs>
<linearGradient id="paint0_linear_911_20980" x1="92.4373" y1="50.8264" x2="23.2602" y2="143.158" gradientUnits="userSpaceOnUse">
<stop offset="0.000866505" stop-color="#FCFCFC"/>
<stop offset="1" stop-color="#DCDCDC"/>
</linearGradient>
<linearGradient id="paint1_linear_911_20980" x1="77.3331" y1="35.0658" x2="68.126" y2="70.348" gradientUnits="userSpaceOnUse">
<stop offset="0.000604984" stop-color="#EE883F"/>
<stop offset="1" stop-color="#F05B2E"/>
</linearGradient>
<linearGradient id="paint2_linear_911_20980" x1="54.0675" y1="27.4271" x2="44.8598" y2="62.7093" gradientUnits="userSpaceOnUse">
<stop offset="0.000604984" stop-color="#EE883F"/>
<stop offset="1" stop-color="#F05B2E"/>
</linearGradient>
<linearGradient id="paint3_linear_911_20980" x1="65.5092" y1="32.9765" x2="56.7445" y2="68.3728" gradientUnits="userSpaceOnUse">
<stop offset="0.000604984" stop-color="#EE883F"/>
<stop offset="1" stop-color="#F05B2E"/>
</linearGradient>
<linearGradient id="paint4_linear_911_20980" x1="70.5439" y1="70.6035" x2="63.388" y2="133.807" gradientUnits="userSpaceOnUse">
<stop stop-color="white"/>
<stop offset="1" stop-color="#E7E7E7"/>
</linearGradient>
<linearGradient id="paint5_linear_911_20980" x1="61.6795" y1="73.0379" x2="59.0159" y2="145.096" gradientUnits="userSpaceOnUse">
<stop stop-color="#A5A5B6"/>
<stop offset="1" stop-color="#6A6A7C"/>
</linearGradient>
<linearGradient id="paint6_linear_911_20980" x1="12.7645" y1="97.6825" x2="31.2832" y2="111.379" gradientUnits="userSpaceOnUse">
<stop stop-color="#A5A5B6"/>
<stop offset="1" stop-color="#6A6A7C"/>
</linearGradient>
<linearGradient id="paint7_linear_911_20980" x1="114.085" y1="96.1703" x2="95.4679" y2="109.732" gradientUnits="userSpaceOnUse">
<stop stop-color="#A5A5B6"/>
<stop offset="1" stop-color="#6A6A7C"/>
</linearGradient>
<linearGradient id="paint8_linear_911_20980" x1="63.1001" y1="85.0523" x2="58.1048" y2="112.531" gradientUnits="userSpaceOnUse">
<stop stop-color="white"/>
<stop offset="1" stop-color="#E7E7E7"/>
</linearGradient>
<linearGradient id="paint9_linear_911_20980" x1="63.1001" y1="85.0523" x2="58.1048" y2="112.531" gradientUnits="userSpaceOnUse">
<stop stop-color="white"/>
<stop offset="1" stop-color="#E7E7E7"/>
</linearGradient>
<linearGradient id="paint10_linear_911_20980" x1="69.0554" y1="100.005" x2="53.0731" y2="99.4158" gradientUnits="userSpaceOnUse">
<stop offset="0.000604984" stop-color="#EE883F"/>
<stop offset="0.2852" stop-color="#EE813C"/>
<stop offset="0.7014" stop-color="#EF6D35"/>
<stop offset="1" stop-color="#F05B2E"/>
</linearGradient>
<clipPath id="clip0_911_20980">
<rect width="120" height="120" rx="10" fill="white"/>
</clipPath>
</defs>
</svg>
