<svg width="241" height="46" viewBox="0 0 241 46" fill="none" xmlns="http://www.w3.org/2000/svg">
<path fill-rule="evenodd" clip-rule="evenodd" d="M19.7311 6.58927C17.817 7.05666 16.6596 8.97075 17.127 10.8848L17.7502 13.3998C17.7947 13.3776 17.8392 13.3553 17.8838 13.3553C27.2538 9.88327 37.67 14.6685 41.1421 24.0386C44.0799 31.962 41.0975 40.6421 34.4205 45.227L53.6949 40.5308C55.6089 40.0634 56.7663 38.1494 56.2989 36.2353L48.2642 3.29527C47.7968 1.38119 45.8827 0.22384 43.9687 0.691232L19.7311 6.58927Z" fill="#ED3E4B"/>
<path d="M38.0462 25.1747C35.2195 17.5184 26.6952 13.5789 19.0389 16.4278C11.3603 19.2544 7.46538 27.7787 10.292 35.4573C13.1186 43.1136 21.6429 47.0531 29.2993 44.2042C36.9778 41.3776 40.8728 32.831 38.0462 25.1747Z" fill="#FE6E00"/>
<path d="M76.7717 15.3357C75.1915 15.3357 73.6113 15.6473 72.1423 16.2482C70.6734 16.8714 69.338 17.7617 68.2029 18.8745C67.09 19.9874 66.1998 21.3228 65.5766 22.7917C64.9757 24.2606 64.6641 25.8409 64.6641 27.4211C64.6641 34.0759 70.0502 39.5065 76.7495 39.5065C78.53 39.5065 80.9783 39.551 84.161 37.4366C85.2738 36.7244 85.897 35.4558 85.3183 34.2539C84.7397 33.0966 83.2485 32.4289 82.1356 33.1411C79.8209 34.6323 77.8401 34.7213 76.7495 34.7213C73.5222 34.7213 70.8292 32.6514 69.8054 29.7581H86.4534C87.8111 29.7581 88.8571 28.6897 88.8571 27.3988C88.8571 19.5867 82.5807 15.3357 76.7717 15.3357ZM76.7717 20.1209C79.6651 20.1209 82.7365 21.6566 83.7604 25.0396H69.8499C70.8292 22.1908 73.5445 20.1209 76.7717 20.1209ZM125.714 25.0841C125.714 19.787 121.374 15.447 116.033 15.447C114.653 15.447 113.295 15.7363 112.026 16.315C110.78 16.8937 109.645 17.7394 108.755 18.7855C107.864 17.7394 106.729 16.8937 105.483 16.315C104.237 15.7363 102.857 15.447 101.477 15.447C96.1351 15.447 91.795 19.787 91.795 25.0841V37.2141C91.795 37.5257 91.8618 37.8373 91.9731 38.1489C92.0844 38.4382 92.2624 38.7053 92.485 38.9278C92.7076 39.1504 92.9747 39.3285 93.264 39.4398C93.5533 39.551 93.8649 39.6178 94.1988 39.6178C95.5119 39.6178 96.558 38.5495 96.558 37.2141V25.0841C96.558 22.3911 98.7837 20.2099 101.477 20.2099C102.122 20.2099 102.745 20.3435 103.346 20.566C103.947 20.8108 104.481 21.167 104.927 21.6121C105.372 22.0572 105.728 22.5914 105.973 23.1923C106.217 23.7933 106.351 24.4164 106.329 25.0619V37.1918C106.329 37.8373 106.574 38.4382 107.041 38.8833C107.486 39.3285 108.109 39.5956 108.732 39.5956C110.046 39.5956 111.092 38.5272 111.092 37.1918V25.0619C111.092 22.3688 113.317 20.1877 116.01 20.1877C118.703 20.1877 120.929 22.3466 120.929 25.0619V37.1918C120.929 38.5495 121.997 39.5956 123.288 39.5956C123.934 39.5956 124.535 39.3285 124.98 38.8833C125.425 38.4382 125.692 37.815 125.692 37.1918V25.4848C125.692 25.3957 125.692 25.329 125.648 25.2399C125.714 25.2177 125.714 25.1732 125.714 25.0841ZM142.83 26.9092C138.824 23.8378 133.638 26.0857 133.638 22.6136C133.638 20.9666 135.173 19.9651 136.954 19.9651C138.312 19.9651 140.315 20.388 141.005 21.7456C141.583 22.6136 142.073 23.3926 143.23 23.3926C144.544 23.3926 145.59 22.2798 145.679 21.0779C145.679 18.14 142.162 16.5598 141.672 16.315C140.248 15.6028 138.646 15.2244 137.043 15.2021C132.814 15.2021 128.897 17.9397 128.897 22.5691C128.897 27.8662 133.949 29.4465 136.887 29.8026C139.202 30.0474 140.893 30.7151 140.893 32.3621C140.849 32.7405 140.604 34.8771 137.533 34.8771C135.463 34.7881 134.305 34.1649 133.193 32.6069C132.97 32.3176 132.703 32.095 132.391 31.9392C132.08 31.7834 131.724 31.6944 131.368 31.6944C130.01 31.6944 128.919 32.8518 128.919 34.0536C128.919 34.2984 128.919 34.5433 129.008 34.7213C130.321 38.0821 134.261 39.5956 137.622 39.5956C144.655 39.5956 145.656 33.7643 145.656 32.3621C145.679 30.3813 144.566 28.3114 142.83 26.9092ZM165.687 15.4025C164.33 15.4025 163.284 16.4708 163.284 17.7617V29.8026C163.284 30.4703 163.15 31.1157 162.905 31.7167C162.661 32.3176 162.282 32.874 161.815 33.3414C161.347 33.8088 160.791 34.1649 160.19 34.432C159.589 34.6768 158.921 34.8103 158.276 34.8103C155.538 34.8103 153.313 32.5402 153.313 29.8026V17.7617C153.313 16.4708 152.244 15.4025 150.909 15.4025C150.286 15.4025 149.685 15.6473 149.24 16.0924C148.795 16.5376 148.55 17.1385 148.55 17.7617V29.8916C148.594 35.2332 152.934 39.5733 158.276 39.5733C160.858 39.5733 163.328 38.5717 165.153 36.7467C166.978 34.9439 168.024 32.4734 168.047 29.8916V17.7617C168.047 17.1385 167.802 16.5376 167.357 16.0924C166.912 15.6473 166.311 15.4025 165.687 15.4025ZM204.926 25.0619C204.926 19.7648 200.586 15.4247 195.244 15.4247C193.865 15.4247 192.507 15.7141 191.238 16.2927C189.992 16.8714 188.857 17.7172 187.966 18.7632C187.076 17.7172 185.941 16.8714 184.695 16.2927C183.448 15.7141 182.068 15.4247 180.689 15.4247C175.347 15.4247 171.007 19.7648 171.007 25.0619V37.1918C171.007 37.5034 171.074 37.815 171.185 38.1266C171.296 38.4159 171.474 38.683 171.697 38.9056C171.919 39.1282 172.186 39.3062 172.476 39.4175C172.765 39.5288 173.077 39.5956 173.411 39.5956C174.701 39.5956 175.77 38.5272 175.77 37.1918V25.0619C175.77 22.3688 177.995 20.1877 180.689 20.1877C181.334 20.1877 181.957 20.3212 182.558 20.5438C183.159 20.7886 183.693 21.1447 184.138 21.5898C184.583 22.035 184.94 22.5691 185.184 23.1701C185.429 23.771 185.563 24.3942 185.54 25.0396V37.1696C185.54 37.815 185.808 38.4159 186.253 38.8611C186.698 39.3062 187.321 39.5733 187.944 39.5733C189.235 39.5733 190.303 38.505 190.303 37.1696V25.0396C190.303 22.3466 192.529 20.1654 195.222 20.1654C197.915 20.1654 200.141 22.3243 200.141 25.0396V37.1696C200.141 38.5272 201.209 39.5733 202.5 39.5733C203.146 39.5733 203.747 39.3062 204.192 38.8611C204.637 38.4159 204.904 37.7928 204.904 37.1696V25.4625C204.904 25.3735 204.904 25.3067 204.859 25.2177C204.926 25.2177 204.926 25.1732 204.926 25.0619ZM219.86 15.3357C218.28 15.3357 216.7 15.6473 215.231 16.2482C213.762 16.8714 212.427 17.7617 211.314 18.8745C210.201 19.9874 209.311 21.3228 208.688 22.7917C208.087 24.2606 207.775 25.8409 207.775 27.4211C207.775 34.0759 213.161 39.5065 219.86 39.5065C221.641 39.5065 224.089 39.551 227.272 37.4366C228.385 36.7244 229.008 35.4558 228.429 34.2539C227.851 33.0966 226.359 32.4289 225.247 33.1411C222.932 34.6323 220.951 34.7213 219.86 34.7213C216.633 34.7213 213.94 32.6514 212.916 29.7581H229.542C230.9 29.7581 231.946 28.6897 231.946 27.3988C231.968 19.5867 225.692 15.3357 219.86 15.3357ZM219.86 20.1209C222.754 20.1209 225.825 21.6566 226.849 25.0396H212.916C213.94 22.1908 216.633 20.1209 219.86 20.1209Z" fill="#212121"/>
</svg>
