<svg width="25" height="25" viewBox="0 0 25 25" fill="none" xmlns="http://www.w3.org/2000/svg">
<path d="M20.45 4.5376H4.55C3.45687 4.5376 2.57244 5.43197 2.57244 6.5251L2.5625 18.4501C2.5625 19.5432 3.45687 20.4376 4.55 20.4376H20.45C21.5431 20.4376 22.4375 19.5432 22.4375 18.4501V6.5251C22.4375 5.43197 21.5431 4.5376 20.45 4.5376ZM20.0525 8.76103L13.0267 13.1534C12.7087 13.3522 12.2913 13.3522 11.9733 13.1534L4.9475 8.76103C4.69906 8.60203 4.55 8.33372 4.55 8.04553C4.55 7.37972 5.27544 6.98222 5.84188 7.33003L12.5 11.4938L19.1581 7.33003C19.7246 6.98222 20.45 7.37972 20.45 8.04553C20.45 8.33372 20.3009 8.60203 20.0525 8.76103Z" fill="#525260"/>
</svg>
