<svg width="24" height="24" viewBox="0 0 24 24" fill="none" xmlns="http://www.w3.org/2000/svg">
<rect width="23.375" height="23.375" rx="11.6875" fill="white"/>
<path d="M16.4678 8.69507C16.4584 9.25575 16.2833 9.69548 15.9274 10.0536C15.1846 10.8009 14.4362 11.5416 13.6916 12.286C12.5264 13.4505 11.3631 14.616 10.196 15.7786C10.1445 15.8292 10.0714 15.8723 10.0012 15.8883C9.12355 16.0824 8.24404 16.2708 7.36546 16.4593C7.07978 16.5202 6.85405 16.2783 6.9168 15.9933C7.10694 15.127 7.28959 14.2587 7.48067 13.3933C7.49753 13.3155 7.54061 13.233 7.59587 13.1768C9.12449 11.6457 10.6568 10.1165 12.1892 8.58819C12.6013 8.17752 12.9938 7.74342 13.4321 7.36275C14.5093 6.42516 16.1625 7.00928 16.435 8.40911C16.4566 8.52162 16.4622 8.63694 16.4688 8.69601L16.4678 8.69507ZM7.75604 15.6079C7.78039 15.6079 7.79538 15.6107 7.80943 15.6079C8.41919 15.4776 9.02988 15.3492 9.63777 15.2132C9.70708 15.1982 9.77827 15.1523 9.82885 15.1016C11.2263 13.7093 12.621 12.3151 14.0175 10.9219C14.0475 10.8928 14.0869 10.8731 14.1131 10.8543C13.5764 10.318 13.0593 9.80237 12.5395 9.28294C12.5376 9.28482 12.5245 9.29326 12.5142 9.30357C11.0868 10.7296 9.65838 12.1567 8.23186 13.5846C8.19908 13.6174 8.17566 13.6662 8.16536 13.7121C8.10541 13.9728 8.05015 14.2344 7.99395 14.496C7.91433 14.8644 7.83659 15.2338 7.75604 15.6089V15.6079ZM13.1015 8.74008C13.6138 9.252 14.129 9.76674 14.6357 10.273C14.898 10.018 15.1734 9.7583 15.4394 9.48921C15.8356 9.08792 15.8253 8.39786 15.4263 7.98063C15.0338 7.5709 14.3379 7.52496 13.9267 7.90281C13.6373 8.16908 13.3731 8.46255 13.1015 8.74008Z" fill="#24CAB1"/>
</svg>
