<svg width="25" height="25" viewBox="0 0 25 25" fill="none" xmlns="http://www.w3.org/2000/svg">
<path d="M23.375 12.4126C23.375 6.40718 18.5054 1.5376 12.5 1.5376C6.49458 1.5376 1.625 6.40718 1.625 12.4126C1.625 17.8415 5.60214 22.3399 10.8014 23.1547V15.556H8.03952V12.4126H10.8014V10.0166C10.8014 7.29099 12.4258 5.78575 14.9098 5.78575C16.0991 5.78575 17.3437 5.99807 17.3437 5.99807V8.67367H15.9731C14.6215 8.67367 14.2003 9.5126 14.2003 10.3722V12.4126H17.216L16.7343 15.556H14.1986V23.1547C19.3979 22.3399 23.375 17.8415 23.375 12.4126Z" fill="#1877F2"/>
<path d="M16.7339 15.5559L17.2172 12.4125H14.1998V10.3721C14.1998 9.51249 14.621 8.67356 15.9726 8.67356H17.3432V5.99797C17.3432 5.99797 16.0986 5.78564 14.9093 5.78564C12.4253 5.78564 10.801 7.29088 10.801 10.0165V12.4125H8.03906V15.5559H10.801V23.1546C11.3551 23.2409 11.9213 23.2875 12.4995 23.2875C13.0778 23.2875 13.6457 23.2426 14.1981 23.1546V15.5559H16.7339Z" fill="white"/>
</svg>
