<svg width="24" height="25" viewBox="0 0 24 25" fill="none" xmlns="http://www.w3.org/2000/svg">
<path d="M21.5673 10.6204H12.207V14.4706H17.5631C17.3406 15.7197 16.639 16.7636 15.5781 17.4823L18.7951 19.9806C20.6775 18.2352 21.7555 15.6855 21.7555 12.6567C21.7555 11.9551 21.6871 11.2706 21.5673 10.6204Z" fill="#3E82F1"/>
<path d="M15.5779 17.4824C14.6881 18.0813 13.5416 18.4235 12.2068 18.4235C9.62291 18.4235 7.41547 16.6781 6.64543 14.3167H6.62832V14.3338L3.30859 16.9006C4.95134 20.1518 8.30529 22.3935 12.2068 22.3935C14.8934 22.3935 17.1522 21.5037 18.7949 19.9807L15.5779 17.4824Z" fill="#32A753"/>
<path d="M6.31875 12.4342C6.31875 11.784 6.43853 11.1337 6.62676 10.5348L3.32415 7.96802H3.30704C2.62256 9.30275 2.24609 10.8257 2.24609 12.4342C2.24609 14.0428 2.62256 15.5657 3.30704 16.9005L6.62676 14.3337V14.3166C6.42142 13.7176 6.31875 13.1016 6.31875 12.4342Z" fill="#F9BB00"/>
<path d="M12.2068 2.4751C8.3224 2.4751 4.95134 4.69966 3.30859 7.95093L3.32571 7.96804L6.62832 10.5348C7.41547 8.1905 9.6058 6.44508 12.2068 6.44508C13.6613 6.44508 14.979 6.94133 16.0057 7.93382L18.8634 5.07612C17.1351 3.46759 14.8763 2.4751 12.2068 2.4751Z" fill="#E74133"/>
</svg>
