<svg width="28" height="28" viewBox="0 0 28 28" fill="none" xmlns="http://www.w3.org/2000/svg">
<path d="M25.2962 12.6619L14.849 3.16079C14.386 2.73807 13.7016 2.73807 13.2386 3.16079L2.79142 12.6619C2.42909 13.0041 2.30832 13.5073 2.48948 13.9703C2.67065 14.4333 3.1135 14.7352 3.5966 14.7352H5.26735V24.2766C5.26735 24.659 5.56929 24.961 5.95175 24.961H11.0244C11.4068 24.961 11.7088 24.659 11.7088 24.2766V18.278H16.3587V24.2766C16.3587 24.659 16.6606 24.961 17.0431 24.961H22.1358C22.5183 24.961 22.8202 24.659 22.8202 24.2766V14.7352H24.491C24.9942 14.7352 25.4169 14.4333 25.5981 13.9703C25.7793 13.5275 25.6585 13.0041 25.2962 12.6619Z" fill="#D2D2DA"/>
</svg>
