<svg width="24" height="23" viewBox="0 0 24 23" fill="none" xmlns="http://www.w3.org/2000/svg">
<path d="M23.2962 10.6619L12.849 1.16079C12.386 0.73807 11.7016 0.73807 11.2386 1.16079L0.791425 10.6619C0.429095 11.0041 0.308318 11.5073 0.489483 11.9703C0.670648 12.4333 1.1135 12.7352 1.5966 12.7352H3.26735V22.2766C3.26735 22.659 3.56929 22.961 3.95175 22.961H9.02437C9.40683 22.961 9.70877 22.659 9.70877 22.2766V16.278H14.3587V22.2766C14.3587 22.659 14.6606 22.961 15.0431 22.961H20.1358C20.5183 22.961 20.8202 22.659 20.8202 22.2766V12.7352H22.491C22.9942 12.7352 23.4169 12.4333 23.5981 11.9703C23.7793 11.5275 23.6585 11.0041 23.2962 10.6619Z" fill="#24CAB1"/>
</svg>
