<svg width="24" height="25" viewBox="0 0 24 25" fill="none" xmlns="http://www.w3.org/2000/svg">
<path d="M21.25 12.7039C21.25 11.5458 21.2491 10.7284 21.1883 10.0809C21.1289 9.4486 21.0163 9.03582 20.823 8.68281C20.6305 8.33102 20.3486 8.02181 19.859 7.64687C19.3558 7.26153 18.6811 6.84163 17.7203 6.24531L15.7203 5.0043C14.7046 4.37391 13.9904 3.93135 13.3934 3.64102C12.8117 3.35819 12.3998 3.25 12 3.25C11.6002 3.25 11.1883 3.35819 10.6066 3.64102C10.0096 3.93135 9.29543 4.3739 8.27969 5.0043L6.27969 6.24531C5.31886 6.84163 4.6442 7.26153 4.14102 7.64687C3.65144 8.02181 3.36951 8.33103 3.17695 8.68281C2.98374 9.03582 2.87114 9.4486 2.81172 10.0809C2.75087 10.7284 2.75 11.5458 2.75 12.7039V14.225C2.75 16.1959 2.75154 17.6013 2.89023 18.6684C3.02646 19.7164 3.28319 20.3244 3.71094 20.7668L3.79219 20.8469C4.20896 21.2377 4.77532 21.4749 5.71406 21.6055C6.73967 21.7481 8.09247 21.75 10 21.75H14C15.9075 21.75 17.2603 21.7481 18.2859 21.6055C19.2872 21.4662 19.8648 21.2057 20.2891 20.7668L20.3676 20.6816C20.7486 20.2465 20.9821 19.6507 21.1098 18.6684C21.2485 17.6013 21.25 16.1959 21.25 14.225V12.7039ZM22.75 14.225C22.75 16.1549 22.7515 17.6754 22.5973 18.8617C22.4504 19.9917 22.152 20.9177 21.5023 21.6629L21.3676 21.8094C20.6204 22.5823 19.6696 22.9277 18.4926 23.0914C17.3397 23.2517 15.8637 23.25 14 23.25H10C8.13629 23.25 6.66033 23.2517 5.50742 23.0914C4.33036 22.9277 3.37961 22.5823 2.63242 21.8094C1.88864 21.0401 1.55941 20.067 1.40273 18.8617C1.24854 17.6754 1.25 16.1549 1.25 14.225V12.7039C1.25 11.5736 1.24941 10.6744 1.31836 9.94063C1.38874 9.1917 1.53539 8.55797 1.86133 7.9625C2.18796 7.36582 2.6402 6.90671 3.22891 6.45586C3.80407 6.01538 4.55242 5.55177 5.48867 4.9707L7.48867 3.72969C8.47818 3.11557 9.26781 2.62413 9.95039 2.29219C10.6484 1.95277 11.2919 1.75 12 1.75C12.7081 1.75 13.3516 1.95277 14.0496 2.29219C14.5616 2.54116 15.1338 2.87975 15.8055 3.29258L18.5113 4.9707C19.4476 5.55177 20.1959 6.01538 20.7711 6.45586C21.3598 6.90672 21.812 7.36582 22.1387 7.9625C22.4646 8.55797 22.6113 9.1917 22.6816 9.94063C22.7506 10.6744 22.75 11.5736 22.75 12.7039V14.225Z" fill="#D2D2DA"/>
<path d="M15 17.75C15.4142 17.75 15.75 18.0858 15.75 18.5C15.75 18.9142 15.4142 19.25 15 19.25H9C8.58579 19.25 8.25 18.9142 8.25 18.5C8.25 18.0858 8.58579 17.75 9 17.75H15Z" fill="#D2D2DA"/>
</svg>
