<svg width="24" height="25" viewBox="0 0 24 25" fill="none" xmlns="http://www.w3.org/2000/svg">
<path d="M2 12.7039C2 10.4155 2 9.27128 2.5192 8.32274C3.0384 7.37421 3.98695 6.78551 5.88403 5.60813L7.88403 4.36687C9.88939 3.12229 10.8921 2.5 12 2.5C13.1079 2.5 14.1106 3.12229 16.116 4.36687L18.116 5.60812C20.0131 6.78551 20.9616 7.37421 21.4808 8.32274C22 9.27128 22 10.4155 22 12.7039V14.225C22 18.1258 22 20.0763 20.8284 21.2881C19.6569 22.5 17.7712 22.5 14 22.5H10C6.22876 22.5 4.34315 22.5 3.17157 21.2881C2 20.0763 2 18.1258 2 14.225V12.7039Z" fill="#24CAB1"/>
<path d="M9 17.75C8.58579 17.75 8.25 18.0858 8.25 18.5C8.25 18.9142 8.58579 19.25 9 19.25H15C15.4142 19.25 15.75 18.9142 15.75 18.5C15.75 18.0858 15.4142 17.75 15 17.75H9Z" fill="white"/>
</svg>
