<svg width="32" height="32" viewBox="0 0 32 32" fill="none" xmlns="http://www.w3.org/2000/svg">
<g clip-path="url(#clip0_1233_28348)">
<rect width="32" height="32" rx="16" fill="#3AA8AF"/>
<path d="M9.44 12.8C9.44 13.618 9.978 14.314 10.72 14.552V10.4H9.44V12.8Z" fill="#EEF9FB"/>
<path d="M21.28 14.552C22.022 14.316 22.56 13.62 22.56 12.8V10.4H21.28V14.552Z" fill="#EEF9FB"/>
<path fill-rule="evenodd" clip-rule="evenodd" d="M5 0C2.23858 0 0 2.23858 0 5V27C0 29.7614 2.23858 32 5 32H27C29.7614 32 32 29.7614 32 27V5C32 2.23858 29.7614 0 27 0H5ZM21.28 8.96H23.12C23.3534 8.96 23.5772 9.05271 23.7423 9.21775C23.9073 9.38278 24 9.60661 24 9.84V12.8C24 14.434 22.8 15.792 21.236 16.04C20.928 18.364 19.06 20.196 16.72 20.45V22.554H20.64C20.994 22.554 21.28 22.84 21.28 23.194V23.84C21.28 23.928 21.208 24 21.12 24H10.88C10.792 24 10.72 23.928 10.72 23.84V23.194C10.72 22.84 11.006 22.554 11.36 22.554H15.28V20.45C12.94 20.196 11.072 18.364 10.764 16.04C9.2 15.792 8 14.434 8 12.8V9.84C8 9.60661 8.09271 9.38278 8.25775 9.21775C8.42278 9.05271 8.64661 8.96 8.88 8.96H10.72V8.16C10.72 8.072 10.792 8 10.88 8H21.12C21.208 8 21.28 8.072 21.28 8.16V8.96Z" fill="#EEF9FB"/>
</g>
<defs>
<clipPath id="clip0_1233_28348">
<rect width="32" height="32" rx="16" fill="white"/>
</clipPath>
</defs>
</svg>
