<svg width="28" height="22" viewBox="0 0 28 22" fill="none" xmlns="http://www.w3.org/2000/svg">
<path d="M14.4492 0.267975C14.9597 0.25503 15.4677 0.351974 15.9375 0.552155C15.9781 0.572258 24.757 4.92511 27.7012 6.42813C27.7914 6.47409 27.8672 6.54386 27.9199 6.63028C27.9727 6.71671 28.0004 6.81615 28 6.91739C27.9996 7.01871 27.9715 7.11845 27.918 7.2045C27.8645 7.29045 27.7878 7.35949 27.6973 7.40469L15.9375 13.269C14.9842 13.6578 13.9162 13.6578 12.9629 13.269L2.50977 8.2543L2.83301 8.41641V13.4809C3.1532 13.6045 3.42931 13.821 3.625 14.1029C3.82061 14.3848 3.9278 14.7188 3.93164 15.0619C3.9354 15.4051 3.83596 15.7425 3.64648 16.0287C3.45702 16.3148 3.18553 16.5378 2.86816 16.6684L4.46191 21.7328H0L1.59375 16.6684C1.28161 16.5338 1.01475 16.3115 0.826172 16.0287C0.637666 15.746 0.535505 15.4144 0.53125 15.0746C0.535462 14.7299 0.642187 14.3936 0.837891 14.1098C1.03355 13.8261 1.30933 13.6074 1.62988 13.4809V7.83243L1.60742 7.82169L0.90332 7.42911C0.81619 7.38071 0.743914 7.30952 0.694336 7.22305C0.64474 7.1365 0.619754 7.03762 0.62207 6.9379C0.624445 6.83847 0.653717 6.74157 0.707031 6.65762C0.760591 6.57347 0.836417 6.50468 0.925781 6.46036C3.89667 4.99141 12.998 0.552155 12.998 0.552155C13.4572 0.359032 13.9511 0.262204 14.4492 0.267975ZM12.502 14.2572C13.1166 14.5219 13.7801 14.6542 14.4492 14.6459C15.1349 14.6643 15.8156 14.5188 16.4336 14.2211L23.4453 10.6645V16.8393C22.9567 18.0787 19.8334 20.9477 14.3086 20.9477C8.78356 20.9476 5.99568 18.0791 5.16992 16.8393V10.6313L12.502 14.2572Z" fill="#24CAB1"/>
</svg>
