<svg width="25" height="25" viewBox="0 0 25 25" fill="none" xmlns="http://www.w3.org/2000/svg">
<path d="M10.3175 12.9976V13.4513C10.3175 13.5207 10.2612 13.577 10.1919 13.577H8.3825C8.34875 13.577 8.31875 13.5638 8.29437 13.5413H8.2925C8.27 13.5151 8.25688 13.4851 8.25688 13.4513V10.637C8.25688 10.5695 8.31313 10.5113 8.3825 10.5113H8.83625C8.90375 10.5113 8.96187 10.5695 8.96187 10.637V12.8738H10.1938C10.2631 12.8738 10.3194 12.932 10.3175 12.9976Z" fill="#00B900"/>
<path d="M11.4125 10.637V13.4532C11.4125 13.5226 11.3544 13.5788 11.2869 13.5788H10.8331C10.7638 13.5788 10.7075 13.5226 10.7075 13.4532V10.637C10.7075 10.5695 10.7638 10.5113 10.8331 10.5113H11.2869C11.3544 10.5113 11.4125 10.5695 11.4125 10.637Z" fill="#00B900"/>
<path d="M14.5344 13.4588C14.5344 13.5263 14.4781 13.5845 14.4088 13.5845H13.955C13.955 13.5845 13.9325 13.5845 13.9231 13.5788H13.9213C13.9213 13.5788 13.9194 13.5788 13.9194 13.577H13.9175C13.9175 13.577 13.9156 13.577 13.9137 13.5751H13.91L13.9081 13.5732H13.9062C13.9062 13.5732 13.9044 13.5732 13.9025 13.5732C13.9025 13.5713 13.9006 13.5713 13.9006 13.5713L13.8969 13.5695C13.8969 13.5695 13.8963 13.5688 13.895 13.5676H13.8912C13.8912 13.5676 13.8913 13.5657 13.8894 13.5657L13.8875 13.562C13.8875 13.5601 13.8856 13.5601 13.8856 13.5601C13.8725 13.5526 13.8612 13.5413 13.8538 13.5282L12.56 11.7845V13.457C12.56 13.5263 12.5056 13.5826 12.4344 13.5826H11.9806C11.9131 13.5826 11.8569 13.5263 11.8569 13.457V10.6407C11.8569 10.5732 11.9131 10.5151 11.9806 10.5151H12.4587C12.4587 10.5151 12.4606 10.5151 12.4625 10.5151H12.4662C12.4662 10.5151 12.4681 10.517 12.47 10.517C12.4719 10.517 12.4756 10.517 12.4775 10.5188C12.4775 10.5188 12.4794 10.5207 12.4813 10.5207H12.4831C12.4831 10.5207 12.4869 10.5226 12.4869 10.5245C12.4869 10.5245 12.4888 10.5245 12.4906 10.5245C12.4925 10.5245 12.4963 10.5245 12.4963 10.5263C12.4981 10.5263 12.4981 10.5282 12.4981 10.5282H12.5L12.5037 10.532C12.5037 10.532 12.5056 10.532 12.5075 10.5338L12.515 10.5413H12.5187V10.5451H12.5206L12.5262 10.5526C12.5262 10.5545 12.5281 10.5563 12.53 10.5582C12.5319 10.5582 12.5338 10.5638 12.5356 10.5657L13.8256 12.3076V10.6351C13.8256 10.5676 13.8819 10.5095 13.9513 10.5095H14.405C14.4744 10.5095 14.5306 10.5676 14.5344 10.6351V13.4588Z" fill="#00B900"/>
<path d="M17.0338 10.637V11.0907C17.0338 11.1601 16.9775 11.2163 16.9081 11.2163H15.6744V11.6945H16.9062C16.9756 11.6945 17.0319 11.7488 17.0319 11.8201V12.272C17.0319 12.3395 16.9756 12.3976 16.9062 12.3976H15.6744V12.872H16.9062C16.9756 12.872 17.0319 12.9301 17.0319 12.9976V13.4513C17.0319 13.5207 16.9756 13.577 16.9062 13.577H15.0969C15.0631 13.577 15.0312 13.5638 15.0106 13.5413H15.0069C14.9844 13.5151 14.9713 13.4851 14.9713 13.4513V10.637C14.9713 10.6051 14.9844 10.5732 15.0069 10.5507L15.0106 10.547C15.0312 10.5263 15.0631 10.5113 15.0969 10.5113H16.9081C16.9775 10.5113 17.0338 10.5676 17.0338 10.637Z" fill="#00B900"/>
<path d="M12.5 1.5376C6.49438 1.5376 1.625 6.40697 1.625 12.4126C1.625 18.4182 6.49438 23.2876 12.5 23.2876C18.5056 23.2876 23.375 18.4182 23.375 12.4126C23.375 6.40697 18.5056 1.5376 12.5 1.5376ZM17.675 15.1351C16.3212 16.6951 13.2894 18.5945 12.5994 18.8851C11.9281 19.1682 12.0069 18.7276 12.0369 18.5513C12.0369 18.5476 12.0369 18.542 12.0406 18.5382C12.0575 18.4407 12.1325 17.9851 12.1325 17.9851C12.1531 17.8201 12.1775 17.5651 12.1119 17.4001C12.0406 17.222 11.7537 17.1282 11.5419 17.0832C8.43687 16.6726 6.13812 14.5013 6.13812 11.9101C6.13812 9.01885 9.03687 6.6676 12.5994 6.6676C16.1619 6.6676 19.0588 9.01885 19.0588 11.9101C19.0588 13.067 18.6106 14.1076 17.675 15.1351Z" fill="#00B900"/>
</svg>
