<svg width="16" height="20" viewBox="0 0 16 20" fill="none" xmlns="http://www.w3.org/2000/svg">
<path d="M1 4.27915C1 3.13145 1 2.5576 1.25433 2.11901C1.47803 1.7334 1.83497 1.41988 2.274 1.22339C2.77333 1 3.42667 1 4.73333 1H11.2667C12.5733 1 13.2267 1 13.726 1.22339C14.165 1.41988 14.522 1.7334 14.7457 2.11901C15 2.5576 15 3.13145 15 4.27915V17.9132C15 18.4113 15 18.6603 14.8822 18.7966C14.8313 18.8558 14.7663 18.9047 14.6917 18.9397C14.6172 18.9748 14.5349 18.9951 14.4505 18.9995C14.2557 19.0097 14.02 18.8714 13.5487 18.5957L8 15.3463L2.45133 18.5947C1.98 18.8714 1.74433 19.0097 1.54833 18.9995C1.46414 18.995 1.38206 18.9745 1.30773 18.9395C1.23341 18.9045 1.16862 18.8557 1.11783 18.7966C1 18.6603 1 18.4113 1 17.9132V4.27915Z" stroke="#D2D2DA" stroke-width="1.6" stroke-linecap="round" stroke-linejoin="round"/>
</svg>
