<svg width="28" height="28" viewBox="0 0 28 28" fill="none" xmlns="http://www.w3.org/2000/svg">
<path fill-rule="evenodd" clip-rule="evenodd" d="M10.7917 9.7597H17.4294C18.1519 9.7597 18.7754 9.7597 19.2749 9.82717C19.8103 9.89899 20.3228 10.0611 20.7384 10.4768C21.1541 10.8925 21.3162 11.4061 21.3881 11.9403C21.4555 12.4398 21.4555 13.0633 21.4555 13.7869V18.2461C21.4555 18.9697 21.4555 19.5932 21.3881 20.0927C21.3162 20.6281 21.1541 21.1406 20.7384 21.5562C20.3228 21.9719 19.8092 22.134 19.2749 22.2059C18.7754 22.2733 18.1519 22.2733 17.4294 22.2733H10.7917C10.0692 22.2733 9.44572 22.2733 8.94626 22.2059C8.41198 22.134 7.89838 21.9719 7.48271 21.5562C7.06704 21.1406 6.90491 20.627 6.83309 20.0927C6.76562 19.5932 6.76562 18.9697 6.76562 18.2461V13.7869C6.76562 13.0633 6.76562 12.4398 6.83309 11.9403C6.90491 11.4061 7.06704 10.8925 7.48271 10.4768C7.89838 10.0611 8.41198 9.89899 8.94626 9.82717C9.44572 9.7597 10.0692 9.7597 10.7928 9.7597M9.16498 11.4441C8.81133 11.492 8.70034 11.5693 8.63832 11.6313C8.57629 11.6933 8.49903 11.8043 8.45116 12.158C8.4011 12.5356 8.39892 13.0481 8.39892 13.8402V18.1928C8.39892 18.985 8.4011 19.4986 8.45116 19.8751C8.49903 20.2287 8.57629 20.3397 8.63832 20.4017C8.70034 20.4637 8.81133 20.541 9.16498 20.5889C9.54256 20.6389 10.0551 20.6411 10.8472 20.6411H17.3761C18.1683 20.6411 18.6819 20.6389 19.0584 20.5889C19.412 20.541 19.523 20.4637 19.585 20.4017C19.647 20.3397 19.7243 20.2287 19.7722 19.8751C19.8222 19.4975 19.8244 18.985 19.8244 18.1928V13.8402C19.8244 13.0481 19.8222 12.5345 19.7722 12.158C19.7243 11.8043 19.647 11.6933 19.585 11.6313C19.523 11.5693 19.412 11.492 19.0584 11.4441C18.6808 11.3941 18.1683 11.3919 17.3761 11.3919H10.8462C10.054 11.3919 9.54147 11.3941 9.16498 11.4441Z" fill="#D2D2DA"/>
<path d="M8.66767 6.49527C8.45122 6.49527 8.24364 6.58125 8.09059 6.7343C7.93754 6.88735 7.85156 7.09493 7.85156 7.31138C7.85156 7.52782 7.93754 7.7354 8.09059 7.88845C8.24364 8.0415 8.45122 8.12748 8.66767 8.12748H14.1084C14.3248 8.12748 14.5324 8.0415 14.6854 7.88845C14.8385 7.7354 14.9245 7.52782 14.9245 7.31138C14.9245 7.09493 14.8385 6.88735 14.6854 6.7343C14.5324 6.58125 14.3248 6.49527 14.1084 6.49527H8.66767Z" fill="#D2D2DA"/>
<path fill-rule="evenodd" clip-rule="evenodd" d="M12.9603 2.14264H15.2585C17.2585 2.14264 18.8428 2.14264 20.0822 2.30912C21.3575 2.48105 22.3901 2.84231 23.2051 3.65624C24.0191 4.47126 24.3803 5.50391 24.5523 6.77921C24.7188 8.01969 24.7188 9.60293 24.7188 11.6029V16.0774C24.7188 18.0774 24.7188 19.6617 24.5523 20.9011C24.3803 22.1764 24.0191 23.209 23.2051 24.0241C22.3901 24.838 21.3575 25.1993 20.0822 25.3712C18.8417 25.5377 17.2585 25.5377 15.2585 25.5377H12.9603C10.9603 25.5377 9.37596 25.5377 8.13657 25.3712C6.86127 25.1993 5.82862 24.838 5.0136 24.0241C4.19967 23.209 3.83841 22.1764 3.66649 20.9011C3.5 19.6606 3.5 18.0774 3.5 16.0774V11.6029C3.5 9.60293 3.5 8.0186 3.66649 6.77921C3.83841 5.50391 4.19967 4.47126 5.0136 3.65624C5.82862 2.84231 6.86127 2.48105 8.13657 2.30912C9.37705 2.14264 10.9603 2.14264 12.9603 2.14264ZM8.35311 3.92719C7.25844 4.07409 6.62732 4.35048 6.16595 4.81076C5.70675 5.27104 5.43036 5.90217 5.28346 6.99684C5.1333 8.11545 5.13112 9.58879 5.13112 11.6639V16.0164C5.13112 18.0915 5.1333 19.566 5.28346 20.6846C5.43036 21.7781 5.70675 22.4093 6.16703 22.8696C6.62732 23.3298 7.25844 23.6062 8.35311 23.7531C9.47172 23.9033 10.9451 23.9055 13.0201 23.9055H15.1964C17.2715 23.9055 18.7459 23.9033 19.8646 23.7531C20.9581 23.6062 21.5893 23.3298 22.0495 22.8696C22.5098 22.4093 22.7862 21.7781 22.9331 20.6835C23.0833 19.566 23.0855 18.0915 23.0855 16.0164V11.6639C23.0855 9.58879 23.0833 8.11545 22.9331 6.99575C22.7862 5.90217 22.5098 5.27104 22.0495 4.81076C21.5893 4.35048 20.9581 4.07409 19.8635 3.92719C18.7459 3.77703 17.2715 3.77485 15.1964 3.77485H13.0201C10.9451 3.77485 9.47281 3.77703 8.35311 3.92719Z" fill="#D2D2DA"/>
</svg>
