<svg width="24" height="25" viewBox="0 0 24 25" fill="none" xmlns="http://www.w3.org/2000/svg">
<path fill-rule="evenodd" clip-rule="evenodd" d="M11.1088 2.33655H13.0787C14.793 2.33655 16.151 2.33655 17.2133 2.47925C18.3064 2.62662 19.1915 2.93627 19.8901 3.63392C20.5878 4.33251 20.8974 5.21763 21.0448 6.31075C21.1875 7.37402 21.1875 8.73109 21.1875 10.4454V14.2806C21.1875 15.9949 21.1875 17.3529 21.0448 18.4152C20.8974 19.5083 20.5878 20.3935 19.8901 21.0921C19.1915 21.7897 18.3064 22.0994 17.2133 22.2467C16.15 22.3894 14.793 22.3894 13.0787 22.3894H11.1088C9.39454 22.3894 8.03654 22.3894 6.9742 22.2467C5.88109 22.0994 4.99596 21.7897 4.29737 21.0921C3.59972 20.3935 3.29007 19.5083 3.1427 18.4152C3 17.352 3 15.9949 3 14.2806V10.4454C3 8.73109 3 7.37309 3.1427 6.31075C3.29007 5.21763 3.59972 4.33251 4.29737 3.63392C4.99596 2.93627 5.88109 2.62662 6.9742 2.47925C8.03747 2.33655 9.39454 2.33655 11.1088 2.33655Z" fill="#24CAB1"/>
<path fill-rule="evenodd" clip-rule="evenodd" d="M9.24784 8.86548H14.9373C15.5566 8.86548 16.091 8.86548 16.5191 8.92331C16.978 8.98486 17.4173 9.12383 17.7736 9.48012C18.1299 9.83641 18.2688 10.2766 18.3304 10.7346C18.3882 11.1627 18.3882 11.6971 18.3882 12.3174V16.1395C18.3882 16.7598 18.3882 17.2942 18.3304 17.7223C18.2688 18.1812 18.1299 18.6205 17.7736 18.9768C17.4173 19.3331 16.9771 19.4721 16.5191 19.5336C16.091 19.5914 15.5566 19.5914 14.9373 19.5914H9.24784C8.62853 19.5914 8.0941 19.5914 7.66599 19.5336C7.20804 19.4721 6.76781 19.3331 6.41152 18.9768C6.05523 18.6205 5.91626 18.1803 5.8547 17.7223C5.79687 17.2942 5.79688 16.7598 5.79688 16.1395V12.3174C5.79688 11.6971 5.79687 11.1627 5.8547 10.7346C5.91626 10.2766 6.05523 9.83641 6.41152 9.48012C6.76781 9.12383 7.20804 8.98486 7.66599 8.92331C8.0941 8.86548 8.6276 8.86548 9.24784 8.86548ZM7.85346 10.3093C7.55034 10.3503 7.4552 10.4165 7.40204 10.4697C7.34888 10.5229 7.28265 10.618 7.24162 10.9211C7.19871 11.2448 7.19685 11.6841 7.19685 12.3631V16.0938C7.19685 16.7728 7.19871 17.2131 7.24162 17.5358C7.28265 17.8389 7.34888 17.934 7.40204 17.9872C7.4552 18.0404 7.55034 18.1066 7.85346 18.1476C8.17711 18.1905 8.6164 18.1924 9.2954 18.1924H14.8916C15.5706 18.1924 16.0108 18.1905 16.3335 18.1476C16.6366 18.1066 16.7318 18.0404 16.7849 17.9872C16.8381 17.934 16.9043 17.8389 16.9453 17.5358C16.9882 17.2121 16.9901 16.7728 16.9901 16.0938V12.3631C16.9901 11.6841 16.9882 11.2438 16.9453 10.9211C16.9043 10.618 16.8381 10.5229 16.7849 10.4697C16.7318 10.4165 16.6366 10.3503 16.3335 10.3093C16.0099 10.2664 15.5706 10.2645 14.8916 10.2645H9.29447C8.61547 10.2645 8.17617 10.2664 7.85346 10.3093Z" fill="white"/>
<path d="M7.42999 6.06738C7.24446 6.06738 7.06654 6.14108 6.93535 6.27227C6.80417 6.40345 6.73047 6.58138 6.73047 6.7669C6.73047 6.95243 6.80417 7.13035 6.93535 7.26154C7.06654 7.39272 7.24446 7.46642 7.42999 7.46642H12.0934C12.279 7.46642 12.4569 7.39272 12.5881 7.26154C12.7193 7.13035 12.793 6.95243 12.793 6.7669C12.793 6.58138 12.7193 6.40345 12.5881 6.27227C12.4569 6.14108 12.279 6.06738 12.0934 6.06738H7.42999Z" fill="white"/>
</svg>
