<svg width="24" height="24" viewBox="0 0 24 24" fill="none" xmlns="http://www.w3.org/2000/svg">
<path fill-rule="evenodd" clip-rule="evenodd" d="M9.24784 8.36548H14.9373C15.5566 8.36548 16.091 8.36548 16.5191 8.42331C16.978 8.48486 17.4173 8.62383 17.7736 8.98012C18.1299 9.33641 18.2688 9.77664 18.3304 10.2346C18.3882 10.6627 18.3882 11.1971 18.3882 11.8174V15.6395C18.3882 16.2598 18.3882 16.7942 18.3304 17.2223C18.2688 17.6812 18.1299 18.1205 17.7736 18.4768C17.4173 18.8331 16.9771 18.9721 16.5191 19.0336C16.091 19.0914 15.5566 19.0914 14.9373 19.0914H9.24784C8.62853 19.0914 8.0941 19.0914 7.66599 19.0336C7.20804 18.9721 6.76781 18.8331 6.41152 18.4768C6.05523 18.1205 5.91626 17.6803 5.8547 17.2223C5.79687 16.7942 5.79688 16.2598 5.79688 15.6395V11.8174C5.79688 11.1971 5.79687 10.6627 5.8547 10.2346C5.91626 9.77664 6.05523 9.33641 6.41152 8.98012C6.76781 8.62383 7.20804 8.48486 7.66599 8.42331C8.0941 8.36548 8.62853 8.36548 9.24877 8.36548M7.85346 9.80929C7.55034 9.85033 7.4552 9.91655 7.40204 9.96971C7.34888 10.0229 7.28265 10.118 7.24162 10.4211C7.19871 10.7448 7.19685 11.1841 7.19685 11.8631V15.5938C7.19685 16.2728 7.19871 16.7131 7.24162 17.0358C7.28265 17.3389 7.34888 17.434 7.40204 17.4872C7.4552 17.5404 7.55034 17.6066 7.85346 17.6476C8.17711 17.6905 8.6164 17.6924 9.2954 17.6924H14.8916C15.5706 17.6924 16.0108 17.6905 16.3335 17.6476C16.6366 17.6066 16.7318 17.5404 16.7849 17.4872C16.8381 17.434 16.9043 17.3389 16.9453 17.0358C16.9882 16.7121 16.9901 16.2728 16.9901 15.5938V11.8631C16.9901 11.1841 16.9882 10.7438 16.9453 10.4211C16.9043 10.118 16.8381 10.0229 16.7849 9.96971C16.7318 9.91655 16.6366 9.85033 16.3335 9.80929C16.0099 9.76638 15.5706 9.76452 14.8916 9.76452H9.29447C8.61547 9.76452 8.17617 9.76638 7.85346 9.80929Z" fill="#D2D2DA"/>
<path d="M7.42999 5.56738C7.24446 5.56738 7.06654 5.64108 6.93535 5.77227C6.80417 5.90345 6.73047 6.08138 6.73047 6.2669C6.73047 6.45243 6.80417 6.63035 6.93535 6.76154C7.06654 6.89272 7.24446 6.96642 7.42999 6.96642H12.0934C12.279 6.96642 12.4569 6.89272 12.5881 6.76154C12.7193 6.63035 12.793 6.45243 12.793 6.2669C12.793 6.08138 12.7193 5.90345 12.5881 5.77227C12.4569 5.64108 12.279 5.56738 12.0934 5.56738H7.42999Z" fill="#D2D2DA"/>
<path fill-rule="evenodd" clip-rule="evenodd" d="M11.1088 1.83655H13.0787C14.793 1.83655 16.151 1.83655 17.2133 1.97925C18.3064 2.12662 19.1915 2.43627 19.8901 3.13392C20.5878 3.83251 20.8974 4.71763 21.0448 5.81075C21.1875 6.87402 21.1875 8.23109 21.1875 9.94538V13.7806C21.1875 15.4949 21.1875 16.8529 21.0448 17.9152C20.8974 19.0083 20.5878 19.8935 19.8901 20.5921C19.1915 21.2897 18.3064 21.5994 17.2133 21.7467C16.15 21.8894 14.793 21.8894 13.0787 21.8894H11.1088C9.39454 21.8894 8.03654 21.8894 6.9742 21.7467C5.88109 21.5994 4.99596 21.2897 4.29737 20.5921C3.59972 19.8935 3.29007 19.0083 3.1427 17.9152C3 16.852 3 15.4949 3 13.7806V9.94538C3 8.23109 3 6.87309 3.1427 5.81075C3.29007 4.71763 3.59972 3.83251 4.29737 3.13392C4.99596 2.43627 5.88109 2.12662 6.9742 1.97925C8.03747 1.83655 9.39454 1.83655 11.1088 1.83655ZM7.15981 3.36616C6.22152 3.49208 5.68056 3.72898 5.2851 4.12351C4.8915 4.51804 4.6546 5.059 4.52868 5.99729C4.39997 6.9561 4.39811 8.21896 4.39811 9.99761V13.7284C4.39811 15.507 4.39997 16.7708 4.52868 17.7296C4.6546 18.667 4.8915 19.2079 5.28603 19.6025C5.68056 19.997 6.22152 20.2339 7.15981 20.3598C8.11862 20.4885 9.38148 20.4904 11.1601 20.4904H13.0255C14.8042 20.4904 16.068 20.4885 17.0268 20.3598C17.9641 20.2339 18.5051 19.997 18.8996 19.6025C19.2941 19.2079 19.531 18.667 19.6569 17.7287C19.7857 16.7708 19.7875 15.507 19.7875 13.7284V9.99761C19.7875 8.21896 19.7857 6.9561 19.6569 5.99636C19.531 5.059 19.2941 4.51804 18.8996 4.12351C18.5051 3.72898 17.9641 3.49208 17.0258 3.36616C16.068 3.23745 14.8042 3.23559 13.0255 3.23559H11.1601C9.38148 3.23559 8.11955 3.23745 7.15981 3.36616Z" fill="#D2D2DA"/>
</svg>
