<svg width="24" height="25" viewBox="0 0 24 25" fill="none" xmlns="http://www.w3.org/2000/svg">
<path d="M5 7.27915C5 6.13145 5 5.5576 5.25433 5.11901C5.47803 4.7334 5.83497 4.41988 6.274 4.22339C6.77333 4 7.42667 4 8.73333 4H15.2667C16.5733 4 17.2267 4 17.726 4.22339C18.165 4.41988 18.522 4.7334 18.7457 5.11901C19 5.5576 19 6.13145 19 7.27915V20.9132C19 21.4113 19 21.6603 18.8822 21.7966C18.8313 21.8558 18.7663 21.9047 18.6917 21.9397C18.6172 21.9748 18.5349 21.9951 18.4505 21.9995C18.2557 22.0097 18.02 21.8714 17.5487 21.5957L12 18.3463L6.45133 21.5947C5.98 21.8714 5.74433 22.0097 5.54833 21.9995C5.46414 21.995 5.38206 21.9745 5.30773 21.9395C5.23341 21.9045 5.16862 21.8557 5.11783 21.7966C5 21.6603 5 21.4113 5 20.9132V7.27915Z" fill="#24CAB1" stroke="#24CAB1" stroke-width="1.6" stroke-linecap="round" stroke-linejoin="round"/>
</svg>
