<svg width="375" height="36" viewBox="0 0 375 36" fill="none" xmlns="http://www.w3.org/2000/svg">
<g clip-path="url(#clip0_1233_28273)">
<rect width="375" height="36" fill="white"/>
<rect width="375" height="36" fill="url(#paint0_linear_1233_28273)"/>
<path d="M14.4466 21.9062C14.2275 21.9088 14.0134 21.8403 13.8364 21.711C13.6595 21.5817 13.5291 21.3984 13.4648 21.1887L12.6463 18.626L10.0788 17.7659C9.87157 17.6965 9.69172 17.563 9.56523 17.3846C9.43874 17.2062 9.37216 16.9922 9.37509 16.7734C9.37803 16.5547 9.45033 16.3425 9.58156 16.1676C9.71279 15.9927 9.89615 15.8641 10.1052 15.8003L12.6524 15.0214L13.5104 12.4551C13.5742 12.2444 13.7062 12.0608 13.8856 11.9333C14.0649 11.8058 14.2815 11.7416 14.5013 11.7509C14.7204 11.7512 14.9336 11.8225 15.1088 11.9542C15.2841 12.086 15.412 12.271 15.4735 12.4815L16.2504 15.028L18.8011 15.8455C19.0069 15.9146 19.1857 16.0467 19.3125 16.2231C19.4392 16.3994 19.5074 16.6112 19.5074 16.8285C19.5074 17.0458 19.4392 17.2576 19.3125 17.434C19.1857 17.6104 19.0069 17.7425 18.8011 17.8116L16.2458 18.6301L15.4283 21.1887C15.364 21.3984 15.2336 21.5817 15.0567 21.711C14.8797 21.8403 14.6656 21.9088 14.4466 21.9062Z" fill="white"/>
<path d="M20.2892 24.25C20.1881 24.2512 20.0893 24.2196 20.0077 24.1599C19.926 24.1002 19.8658 24.0156 19.8361 23.9188L19.4584 22.736L18.2734 22.3391C18.1777 22.307 18.0947 22.2454 18.0363 22.1631C17.9779 22.0808 17.9472 21.982 17.9486 21.881C17.9499 21.78 17.9833 21.6821 18.0439 21.6014C18.1044 21.5207 18.1891 21.4613 18.2855 21.4319L19.4612 21.0724L19.8572 19.888C19.8866 19.7907 19.9475 19.7059 20.0303 19.6471C20.1131 19.5883 20.2131 19.5586 20.3145 19.5629C20.4157 19.563 20.514 19.596 20.5949 19.6568C20.6758 19.7176 20.7348 19.8029 20.7632 19.9001L21.1218 21.0754L22.299 21.4527C22.394 21.4846 22.4766 21.5456 22.535 21.627C22.5935 21.7084 22.625 21.8061 22.625 21.9064C22.625 22.0067 22.5935 22.1045 22.535 22.1859C22.4766 22.2673 22.394 22.3283 22.299 22.3601L21.1197 22.7379L20.7424 23.9188C20.7127 24.0156 20.6525 24.1002 20.5708 24.1599C20.4892 24.2196 20.3904 24.2512 20.2892 24.25Z" fill="white"/>
<path d="M41.5873 22.332C41.6406 22.492 41.6673 22.6307 41.6673 22.748C41.6673 22.9827 41.5766 23.1853 41.3953 23.356C41.214 23.516 40.99 23.596 40.7233 23.596C40.5206 23.596 40.3446 23.5427 40.1953 23.436C40.046 23.3187 39.934 23.1587 39.8593 22.956L38.8193 20.028H35.2673L34.2113 22.956C34.1366 23.1587 34.0246 23.3187 33.8753 23.436C33.726 23.5427 33.55 23.596 33.3473 23.596C33.102 23.596 32.894 23.5213 32.7233 23.372C32.5526 23.212 32.4673 23.0147 32.4673 22.78C32.4673 22.652 32.4886 22.524 32.5313 22.396L35.6993 13.644C35.9446 12.94 36.4033 12.588 37.0753 12.588C37.406 12.588 37.6726 12.6733 37.8753 12.844C38.0886 13.004 38.2646 13.2707 38.4033 13.644L41.5873 22.332ZM38.3873 18.556L37.0433 14.652L35.7153 18.556H38.3873ZM44.1697 23.596C43.871 23.596 43.6417 23.5107 43.4817 23.34C43.3217 23.1587 43.2417 22.9133 43.2417 22.604V13.612C43.2417 13.3027 43.3217 13.0627 43.4817 12.892C43.6417 12.7107 43.871 12.62 44.1697 12.62C44.4684 12.62 44.6977 12.7107 44.8577 12.892C45.0177 13.0627 45.0977 13.3027 45.0977 13.612V22.604C45.0977 22.9133 45.0177 23.1587 44.8577 23.34C44.6977 23.5107 44.4684 23.596 44.1697 23.596ZM56.6706 16.844C57.1506 16.9507 57.5186 17.1747 57.7746 17.516C58.0306 17.8573 58.1586 18.3 58.1586 18.844V20.396C58.1586 21.42 57.8386 22.2307 57.1986 22.828C56.5586 23.4147 55.6839 23.708 54.5746 23.708C53.4652 23.708 52.5906 23.4147 51.9506 22.828C51.3106 22.2307 50.9906 21.42 50.9906 20.396V17.804C51.5026 17.5373 51.8972 17.2547 52.1746 16.956C52.4626 16.6573 52.6492 16.3267 52.7346 15.964H51.2946C51.0599 15.964 50.8786 15.9053 50.7506 15.788C50.6226 15.6707 50.5586 15.5107 50.5586 15.308C50.5586 14.8707 50.8039 14.652 51.2946 14.652H53.4866C53.9239 14.652 54.1426 14.86 54.1426 15.276V15.724C54.1426 16.2573 54.0306 16.7213 53.8066 17.116C53.5932 17.5 53.2412 17.852 52.7506 18.172V20.412C52.7506 21.0093 52.9052 21.468 53.2146 21.788C53.5346 22.108 53.9879 22.268 54.5746 22.268C55.1612 22.268 55.6092 22.108 55.9186 21.788C56.2386 21.468 56.3986 21.0093 56.3986 20.412V19.02C56.3986 18.1347 56.0732 17.692 55.4226 17.692H55.3586C55.1666 17.692 55.0119 17.644 54.8946 17.548C54.7879 17.452 54.7346 17.3133 54.7346 17.132C54.7346 17.036 54.7612 16.9453 54.8146 16.86C54.8679 16.764 54.9692 16.6307 55.1186 16.46L56.6386 14.732C56.8626 14.476 57.1186 14.348 57.4066 14.348C57.5879 14.348 57.7426 14.412 57.8706 14.54C58.0092 14.6573 58.0786 14.8067 58.0786 14.988C58.0786 15.2013 57.9879 15.4093 57.8066 15.612L56.6706 16.844ZM57.0204 13.516C56.7538 13.516 56.5458 13.436 56.3964 13.276C56.2364 13.116 56.1564 12.8973 56.1564 12.62V11.212C56.1564 10.9347 56.2364 10.716 56.3964 10.556C56.5458 10.396 56.7538 10.316 57.0204 10.316C57.2871 10.316 57.4951 10.396 57.6444 10.556C57.7938 10.716 57.8684 10.9347 57.8684 11.212V12.62C57.8684 12.8973 57.7938 13.116 57.6444 13.276C57.4951 13.436 57.2871 13.516 57.0204 13.516ZM62.7831 23.708C62.3244 23.708 61.8657 23.6547 61.4071 23.548C60.9591 23.4413 60.5484 23.292 60.1751 23.1C59.9937 23.004 59.8551 22.8867 59.7591 22.748C59.6631 22.6093 59.6151 22.4653 59.6151 22.316C59.6151 22.1347 59.6737 21.98 59.7911 21.852C59.9191 21.7133 60.0737 21.644 60.2551 21.644C60.4044 21.644 60.6177 21.7027 60.8951 21.82C61.5351 22.108 62.1271 22.252 62.6711 22.252C63.5031 22.252 64.1431 21.9747 64.5911 21.42C65.0497 20.8547 65.2791 20.0707 65.2791 19.068C65.2791 18.0653 65.0497 17.2867 64.5911 16.732C64.1431 16.1773 63.5031 15.9 62.6711 15.9C62.0524 15.9 61.4604 16.044 60.8951 16.332C60.6924 16.4387 60.4844 16.492 60.2711 16.492C60.0684 16.492 59.9084 16.428 59.7911 16.3C59.6737 16.1613 59.6151 16.0013 59.6151 15.82C59.6151 15.6707 59.6631 15.532 59.7591 15.404C59.8551 15.2653 59.9937 15.148 60.1751 15.052C60.5484 14.86 60.9591 14.7107 61.4071 14.604C61.8657 14.4973 62.3244 14.444 62.7831 14.444C63.6364 14.444 64.3831 14.6307 65.0231 15.004C65.6737 15.3667 66.1804 15.9 66.5431 16.604C66.9057 17.2973 67.0871 18.1187 67.0871 19.068C67.0871 20.0173 66.9057 20.844 66.5431 21.548C66.1804 22.2413 65.6737 22.7747 65.0231 23.148C64.3831 23.5213 63.6364 23.708 62.7831 23.708ZM75.3277 14.556C75.605 14.556 75.8184 14.6413 75.9677 14.812C76.1277 14.972 76.2077 15.2067 76.2077 15.516V20.172C76.2077 21.2813 75.861 22.1507 75.1677 22.78C74.485 23.3987 73.5304 23.708 72.3037 23.708C71.557 23.708 70.8957 23.5907 70.3197 23.356C69.7544 23.1213 69.3117 22.7853 68.9917 22.348C68.6824 21.9107 68.5277 21.404 68.5277 20.828C68.5277 20.284 68.661 19.8253 68.9277 19.452C69.1944 19.0787 69.557 18.8173 70.0157 18.668C69.621 18.5187 69.301 18.2733 69.0557 17.932C68.821 17.5907 68.7037 17.1853 68.7037 16.716C68.7037 16.0973 68.917 15.5853 69.3437 15.18C69.7704 14.764 70.3677 14.556 71.1357 14.556C71.573 14.556 71.9304 14.62 72.2077 14.748C72.4957 14.876 72.6397 15.0733 72.6397 15.34C72.6397 15.5213 72.5864 15.6653 72.4797 15.772C72.373 15.868 72.229 15.916 72.0477 15.916C71.9517 15.916 71.8557 15.9107 71.7597 15.9C71.6744 15.8787 71.5837 15.868 71.4877 15.868C71.1464 15.868 70.8797 15.9587 70.6877 16.14C70.4957 16.3213 70.3997 16.572 70.3997 16.892C70.3997 17.2227 70.5064 17.484 70.7197 17.676C70.9437 17.868 71.2477 17.964 71.6317 17.964H72.1277C72.373 17.964 72.5597 18.028 72.6877 18.156C72.8264 18.2733 72.8957 18.444 72.8957 18.668C72.8957 18.892 72.8264 19.068 72.6877 19.196C72.5597 19.3133 72.373 19.372 72.1277 19.372H71.6637C71.2477 19.372 70.917 19.4893 70.6717 19.724C70.437 19.948 70.3197 20.2573 70.3197 20.652C70.3197 21.132 70.4957 21.516 70.8477 21.804C71.2104 22.0813 71.6904 22.22 72.2877 22.22C72.9597 22.22 73.4824 22.044 73.8557 21.692C74.2397 21.34 74.4317 20.8547 74.4317 20.236V15.516C74.4317 15.2067 74.5064 14.972 74.6557 14.812C74.8157 14.6413 75.0397 14.556 75.3277 14.556ZM82.4209 23.708C81.2796 23.708 80.3729 23.3933 79.7009 22.764C79.0396 22.124 78.7089 21.2653 78.7089 20.188V15.516C78.7089 15.2067 78.7836 14.972 78.9329 14.812C79.0929 14.6413 79.3169 14.556 79.6049 14.556C79.8823 14.556 80.0956 14.6413 80.2449 14.812C80.4049 14.972 80.4849 15.2067 80.4849 15.516V20.252C80.4849 20.8813 80.6503 21.372 80.9809 21.724C81.3223 22.076 81.8023 22.252 82.4209 22.252C83.0289 22.252 83.4983 22.076 83.8289 21.724C84.1703 21.372 84.3409 20.8813 84.3409 20.252V12.252C84.3409 11.9533 84.4156 11.724 84.5649 11.564C84.7249 11.3933 84.9489 11.308 85.2369 11.308C85.5249 11.308 85.7436 11.388 85.8929 11.548C86.0423 11.708 86.1169 11.9427 86.1169 12.252V20.188C86.1169 21.2653 85.7809 22.124 85.1089 22.764C84.4476 23.3933 83.5516 23.708 82.4209 23.708ZM90.9832 23.708C90.5885 23.708 90.1939 23.6707 89.7992 23.596C89.4152 23.5213 89.0845 23.42 88.8072 23.292C88.5939 23.196 88.4339 23.084 88.3272 22.956C88.2312 22.828 88.1832 22.6733 88.1832 22.492C88.1832 22.2893 88.2472 22.1293 88.3752 22.012C88.5139 21.884 88.7005 21.82 88.9352 21.82C89.0205 21.82 89.1805 21.8627 89.4152 21.948C90.0019 22.172 90.5352 22.284 91.0152 22.284C91.4952 22.284 91.8685 22.188 92.1352 21.996C92.4125 21.7933 92.5512 21.5107 92.5512 21.148C92.5512 20.8067 92.4179 20.5347 92.1512 20.332C91.8845 20.1293 91.3779 19.9107 90.6312 19.676C89.7885 19.4093 89.1592 19.0573 88.7432 18.62C88.3379 18.172 88.1352 17.6227 88.1352 16.972C88.1352 16.172 88.4072 15.5533 88.9512 15.116C89.4952 14.668 90.2472 14.444 91.2072 14.444C91.9645 14.444 92.6472 14.572 93.2552 14.828C93.7672 15.0413 94.0232 15.324 94.0232 15.676C94.0232 15.8573 93.9592 16.0173 93.8312 16.156C93.7032 16.284 93.5485 16.348 93.3672 16.348C93.2072 16.348 93.0152 16.3053 92.7912 16.22C92.4392 16.092 92.1565 16.0013 91.9432 15.948C91.7299 15.8947 91.5112 15.868 91.2872 15.868C90.8392 15.868 90.4925 15.9587 90.2472 16.14C90.0125 16.3213 89.8952 16.572 89.8952 16.892C89.8952 17.2227 90.0285 17.5 90.2952 17.724C90.5619 17.9373 91.0312 18.1453 91.7032 18.348C92.6525 18.6467 93.3245 18.9987 93.7192 19.404C94.1139 19.8093 94.3112 20.348 94.3112 21.02C94.3112 21.8627 94.0179 22.524 93.4312 23.004C92.8445 23.4733 92.0285 23.708 90.9832 23.708ZM91.8408 13.372C91.2221 13.372 90.7635 13.2387 90.4648 12.972C90.1661 12.7053 90.0168 12.2893 90.0168 11.724V11.564C90.0168 11.2867 90.0915 11.0733 90.2408 10.924C90.3795 10.7747 90.5875 10.7 90.8648 10.7C91.1208 10.7 91.3235 10.7747 91.4728 10.924C91.6115 11.0733 91.6808 11.2867 91.6808 11.564V11.596C91.6808 11.7453 91.7181 11.852 91.7928 11.916C91.8675 11.98 91.9955 12.012 92.1768 12.012H95.1528C95.3981 12.012 95.5848 12.076 95.7128 12.204C95.8515 12.3213 95.9208 12.4867 95.9208 12.7C95.9208 12.9133 95.8515 13.0787 95.7128 13.196C95.5848 13.3133 95.3981 13.372 95.1528 13.372H91.8408ZM99.8897 23.708C98.7484 23.708 97.8417 23.3933 97.1697 22.764C96.5084 22.124 96.1777 21.2653 96.1777 20.188V15.516C96.1777 15.2067 96.2524 14.972 96.4017 14.812C96.5617 14.6413 96.7857 14.556 97.0737 14.556C97.351 14.556 97.5644 14.6413 97.7137 14.812C97.8737 14.972 97.9537 15.2067 97.9537 15.516V20.252C97.9537 20.8813 98.119 21.372 98.4497 21.724C98.791 22.076 99.271 22.252 99.8897 22.252C100.498 22.252 100.967 22.076 101.298 21.724C101.639 21.372 101.81 20.8813 101.81 20.252V15.516C101.81 15.2067 101.884 14.972 102.034 14.812C102.194 14.6413 102.418 14.556 102.706 14.556C102.994 14.556 103.212 14.6413 103.362 14.812C103.511 14.972 103.586 15.2067 103.586 15.516V20.188C103.586 21.2653 103.25 22.124 102.578 22.764C101.916 23.3933 101.02 23.708 99.8897 23.708ZM112.548 12.716C113.753 12.716 114.697 13.0147 115.38 13.612C116.063 14.1987 116.404 15.0093 116.404 16.044C116.404 17.0787 116.063 17.8893 115.38 18.476C114.697 19.0627 113.753 19.356 112.548 19.356H111.268V22.604C111.268 22.9133 111.188 23.1587 111.028 23.34C110.868 23.5107 110.639 23.596 110.34 23.596C110.041 23.596 109.812 23.5107 109.652 23.34C109.492 23.1587 109.412 22.9133 109.412 22.604V13.74C109.412 13.42 109.497 13.1693 109.668 12.988C109.839 12.8067 110.079 12.716 110.388 12.716H112.548ZM112.436 17.836C113.065 17.836 113.561 17.676 113.924 17.356C114.297 17.0253 114.484 16.5773 114.484 16.012C114.484 15.4573 114.297 15.02 113.924 14.7C113.561 14.3693 113.065 14.204 112.436 14.204H111.236V17.836H112.436ZM121.208 15.388C121.507 15.388 121.736 15.4573 121.896 15.596C122.056 15.7347 122.136 15.9373 122.136 16.204C122.136 16.4813 122.046 16.6947 121.864 16.844C121.694 16.9933 121.427 17.0787 121.064 17.1C120.531 17.1427 120.142 17.3347 119.896 17.676C119.651 18.0067 119.528 18.5293 119.528 19.244V22.636C119.528 23.276 119.24 23.596 118.664 23.596C118.387 23.596 118.174 23.516 118.024 23.356C117.875 23.1853 117.8 22.9453 117.8 22.636V16.236C117.8 16.0013 117.864 15.8147 117.992 15.676C118.12 15.5373 118.296 15.468 118.52 15.468C118.734 15.468 118.904 15.532 119.032 15.66C119.171 15.788 119.246 15.9693 119.256 16.204L119.32 16.94C119.512 16.4493 119.768 16.0707 120.088 15.804C120.419 15.5267 120.792 15.388 121.208 15.388ZM126.774 23.708C125.985 23.708 125.27 23.5267 124.63 23.164C123.99 22.8013 123.489 22.3053 123.126 21.676C122.763 21.036 122.582 20.3213 122.582 19.532C122.582 18.7427 122.763 18.0333 123.126 17.404C123.489 16.764 123.99 16.2627 124.63 15.9C125.27 15.5373 125.985 15.356 126.774 15.356C127.563 15.356 128.278 15.5373 128.918 15.9C129.558 16.2627 130.059 16.764 130.422 17.404C130.785 18.044 130.966 18.7533 130.966 19.532C130.966 20.3107 130.785 21.02 130.422 21.66C130.059 22.3 129.558 22.8013 128.918 23.164C128.278 23.5267 127.563 23.708 126.774 23.708ZM126.774 22.332C127.51 22.332 128.097 22.0813 128.534 21.58C128.971 21.068 129.19 20.3853 129.19 19.532C129.19 18.6787 128.971 18.0013 128.534 17.5C128.097 16.988 127.51 16.732 126.774 16.732C126.027 16.732 125.435 16.988 124.998 17.5C124.561 18.0013 124.342 18.6787 124.342 19.532C124.342 20.3853 124.561 21.068 124.998 21.58C125.435 22.0813 126.027 22.332 126.774 22.332ZM134.011 23.596C133.733 23.596 133.52 23.516 133.371 23.356C133.221 23.1853 133.147 22.9453 133.147 22.636V16.924H132.267C131.776 16.924 131.531 16.6947 131.531 16.236C131.531 16.0227 131.595 15.8573 131.723 15.74C131.851 15.6227 132.032 15.564 132.267 15.564H133.147V14.3C133.147 13.564 133.349 12.9933 133.755 12.588C134.16 12.1827 134.736 11.98 135.483 11.98C135.931 11.98 136.32 12.0493 136.651 12.188C136.832 12.2627 136.976 12.364 137.083 12.492C137.189 12.6093 137.243 12.7373 137.243 12.876C137.243 13.0573 137.179 13.2067 137.051 13.324C136.933 13.4307 136.779 13.484 136.587 13.484C136.501 13.484 136.395 13.468 136.267 13.436C136.096 13.3827 135.909 13.356 135.707 13.356C135.152 13.356 134.875 13.6813 134.875 14.332V15.564H136.363C136.597 15.564 136.779 15.6227 136.907 15.74C137.035 15.8573 137.099 16.0227 137.099 16.236C137.099 16.46 137.029 16.6307 136.891 16.748C136.763 16.8653 136.587 16.924 136.363 16.924H134.875V22.636C134.875 23.276 134.587 23.596 134.011 23.596ZM139.019 14.46C138.731 14.46 138.491 14.3693 138.299 14.188C138.107 14.0067 138.011 13.7773 138.011 13.5C138.011 13.2227 138.101 12.9933 138.283 12.812C138.475 12.6307 138.72 12.54 139.019 12.54C139.307 12.54 139.547 12.6307 139.739 12.812C139.931 12.9933 140.027 13.2227 140.027 13.5C140.027 13.7773 139.931 14.0067 139.739 14.188C139.547 14.3693 139.307 14.46 139.019 14.46ZM139.019 23.596C138.443 23.596 138.155 23.276 138.155 22.636V16.428C138.155 15.7987 138.443 15.484 139.019 15.484C139.595 15.484 139.883 15.7987 139.883 16.428V22.636C139.883 22.9453 139.808 23.1853 139.659 23.356C139.509 23.516 139.296 23.596 139.019 23.596ZM143.103 23.596C142.825 23.596 142.612 23.516 142.463 23.356C142.313 23.1853 142.239 22.9453 142.239 22.636V13.244C142.239 12.9347 142.313 12.7 142.463 12.54C142.612 12.38 142.825 12.3 143.103 12.3C143.679 12.3 143.967 12.6147 143.967 13.244V22.636C143.967 23.276 143.679 23.596 143.103 23.596ZM149.724 15.372C150.439 15.372 151.068 15.5213 151.612 15.82C152.156 16.1187 152.578 16.5453 152.876 17.1C153.175 17.644 153.324 18.2787 153.324 19.004V19.26C153.324 19.5267 153.25 19.7347 153.1 19.884C152.962 20.0333 152.754 20.108 152.476 20.108H147.42C147.516 20.8227 147.788 21.372 148.236 21.756C148.695 22.1293 149.303 22.316 150.06 22.316C150.626 22.316 151.191 22.1987 151.756 21.964C151.916 21.8893 152.087 21.852 152.268 21.852C152.45 21.852 152.599 21.9107 152.716 22.028C152.844 22.1453 152.908 22.2947 152.908 22.476C152.908 22.764 152.711 23.0147 152.316 23.228C152.039 23.3773 151.698 23.4947 151.292 23.58C150.898 23.6653 150.471 23.708 150.012 23.708C149.138 23.708 148.37 23.5373 147.708 23.196C147.058 22.844 146.551 22.3533 146.188 21.724C145.826 21.0947 145.644 20.364 145.644 19.532C145.644 18.7213 145.815 18.0013 146.156 17.372C146.508 16.7427 146.994 16.252 147.612 15.9C148.231 15.548 148.935 15.372 149.724 15.372ZM149.628 16.716C149.042 16.716 148.551 16.9027 148.156 17.276C147.772 17.6387 147.527 18.1507 147.42 18.812H151.612C151.591 18.1613 151.399 17.6493 151.036 17.276C150.684 16.9027 150.215 16.716 149.628 16.716Z" fill="white"/>
<circle cx="322.5" cy="18.5" r="20.5" stroke="white" stroke-opacity="0.12" stroke-width="8"/>
<circle cx="323" cy="20" r="42.5" stroke="white" stroke-opacity="0.16" stroke-width="7"/>
</g>
<defs>
<linearGradient id="paint0_linear_1233_28273" x1="0" y1="18" x2="375" y2="18" gradientUnits="userSpaceOnUse">
<stop stop-color="#426CFF"/>
<stop offset="0.524038" stop-color="#FF6EBD"/>
<stop offset="1" stop-color="#FEB83C"/>
</linearGradient>
<clipPath id="clip0_1233_28273">
<rect width="375" height="36" fill="white"/>
</clipPath>
</defs>
</svg>
