<svg width="28" height="28" viewBox="0 0 28 28" fill="none" xmlns="http://www.w3.org/2000/svg">
<path d="M14.4046 15.6422C16.7134 15.4135 18.3997 13.3566 18.1711 11.0478C17.9424 8.73897 15.8855 7.05266 13.5767 7.28128C11.2679 7.5099 9.58154 9.56688 9.81017 11.8757C10.0388 14.1845 12.0958 15.8708 14.4046 15.6422Z" fill="#D2D2DA"/>
<path d="M20.7926 23.375C20.8108 23.375 20.8108 23.3568 20.8289 23.3568C20.9744 23.2477 21.1199 23.1386 21.2654 23.0295C21.2836 23.0113 21.3018 23.0113 21.32 22.9931C23.9206 20.8653 25.5938 17.6282 25.5938 14.0091C25.5938 7.60753 20.4107 2.40625 13.9909 2.40625C7.58934 2.40625 2.40625 7.58934 2.40625 14.0091C2.40625 17.81 4.24306 21.1927 7.08012 23.3205C7.22561 23.4296 7.3711 23.5387 7.53478 23.6296C7.55297 23.6478 7.57115 23.6478 7.57115 23.6478C9.40797 24.8845 11.6267 25.5938 13.9909 25.5938C16.3188 25.5938 18.5011 24.9027 20.3197 23.7206C20.4834 23.5933 20.6471 23.4841 20.7926 23.375ZM3.29738 13.9909C3.29738 8.09856 8.09855 3.29738 13.9727 3.29738C19.8651 3.29738 24.6663 8.09856 24.6663 13.9909C24.6663 16.8643 23.5205 19.4832 21.6655 21.3927C21.3018 18.5375 19.756 16.1005 17.7191 14.7184C16.8098 15.7732 15.464 16.4279 13.9727 16.4279C12.4996 16.4279 11.1902 15.7913 10.2809 14.7729C8.24404 16.1551 6.64365 18.5738 6.27993 21.3745C4.44311 19.465 3.29738 16.8643 3.29738 13.9909Z" fill="#D2D2DA"/>
</svg>
