<svg width="48" height="48" viewBox="0 0 48 48" fill="none" xmlns="http://www.w3.org/2000/svg">
<path d="M8.72867 37.8665C1.14672 31.5459 -1.74164 18.9926 7.35734 11.8919C16.9364 6.06567 21.4975 16.1113 26.9615 13.0231C48.6108 1.61482 49.4254 24.1719 42.3059 33.6528C35.1864 43.1337 16.3106 44.1871 8.72867 37.8665Z" fill="url(#paint0_linear_1233_28384)"/>
<path d="M43.6749 28.4291C43.8757 28.5099 44.1034 28.4143 44.1835 28.2154C44.2636 28.0166 44.1658 27.7898 43.965 27.7089C43.7643 27.6281 43.5366 27.7237 43.4565 27.9226C43.3764 28.1214 43.4742 28.3482 43.6749 28.4291Z" fill="white"/>
<path d="M40.4083 26.8958C40.7718 27.0422 41.1853 26.8658 41.332 26.5018C41.4786 26.1378 41.3028 25.7241 40.9394 25.5776C40.5759 25.4312 40.1624 25.6076 40.0157 25.9716C39.8691 26.3355 40.0449 26.7493 40.4083 26.8958Z" fill="white"/>
<path d="M9.36243 20.7416C9.56318 20.8224 9.79086 20.7268 9.87097 20.5279C9.95109 20.3291 9.85329 20.1023 9.65255 20.0214C9.4518 19.9406 9.22412 20.0362 9.144 20.2351C9.06389 20.4339 9.16168 20.6607 9.36243 20.7416Z" fill="white"/>
<path d="M4.3523 26.2948C4.57781 26.3857 4.83438 26.2763 4.92536 26.0504C5.01634 25.8246 4.90728 25.5679 4.68177 25.477C4.45625 25.3861 4.19968 25.4956 4.1087 25.7214C4.01772 25.9473 4.12678 26.204 4.3523 26.2948Z" fill="white"/>
<path d="M39.5343 19.1605L39.6719 19.2899C39.6972 19.3139 39.7332 19.3242 39.7681 19.3174L39.9564 19.2811C40.0607 19.261 40.1437 19.3654 40.0966 19.458L40.0121 19.6247C39.9964 19.6556 39.9974 19.6919 40.0146 19.7218L40.1083 19.884C40.1604 19.9742 40.0835 20.0826 39.9777 20.0679L39.7878 20.0414C39.7529 20.0365 39.7175 20.0488 39.6932 20.0738L39.5631 20.21C39.4907 20.2855 39.3601 20.2483 39.3424 20.1468L39.31 19.9639C39.3039 19.9301 39.2812 19.9012 39.2488 19.887L39.0746 19.809C38.978 19.7659 38.9744 19.634 39.0686 19.586L39.2381 19.4992C39.2695 19.483 39.2908 19.4531 39.2948 19.4193L39.3171 19.235C39.3293 19.1325 39.4578 19.0884 39.5343 19.1605Z" fill="url(#paint1_linear_1233_28384)"/>
<path d="M43.4874 29.558C43.6882 29.6389 43.9159 29.5432 43.996 29.3443C44.0761 29.1455 43.9783 28.9187 43.7775 28.8378C43.5768 28.757 43.3491 28.8526 43.269 29.0515C43.1889 29.2503 43.2867 29.4771 43.4874 29.558Z" fill="white"/>
<path d="M40.2208 28.0247C40.5843 28.1711 40.9978 27.9947 41.1445 27.6307C41.2911 27.2667 41.1153 26.853 40.7519 26.7065C40.3884 26.5601 39.9749 26.7365 39.8282 27.1005C39.6816 27.4645 39.8574 27.8782 40.2208 28.0247Z" fill="white"/>
<path d="M9.17493 21.8705C9.37568 21.9514 9.60336 21.8557 9.68347 21.6568C9.76359 21.458 9.66579 21.2312 9.46505 21.1503C9.2643 21.0695 9.03662 21.1651 8.9565 21.364C8.87639 21.5628 8.97418 21.7896 9.17493 21.8705Z" fill="white"/>
<path d="M4.46358 29.5489C4.96265 29.75 5.53045 29.5078 5.7318 29.008C5.93314 28.5083 5.69179 27.9401 5.19271 27.739C4.69364 27.538 4.12584 27.7802 3.92449 28.2799C3.72315 28.7797 3.9645 29.3479 4.46358 29.5489Z" fill="white"/>
<path d="M23.8825 40.0612C28.7708 40.0612 32.7337 39.3383 32.7337 38.4466C32.7337 37.5549 28.7708 36.832 23.8825 36.832C18.9941 36.832 15.0312 37.5549 15.0312 38.4466C15.0312 39.3383 18.9941 40.0612 23.8825 40.0612Z" fill="url(#paint2_linear_1233_28384)"/>
<path d="M31.6351 3.85527L32.1444 4.14337C32.2391 4.19737 32.3528 4.19998 32.4496 4.15203L32.974 3.8949C33.2651 3.75267 33.5939 4.00597 33.5294 4.32543L33.4144 4.90052C33.393 5.00754 33.4255 5.11751 33.5009 5.19552L33.9084 5.61703C34.1346 5.85107 33.9953 6.24357 33.673 6.28064L33.0933 6.34792C32.9855 6.36096 32.8913 6.42538 32.8412 6.52108L32.5671 7.03854C32.4154 7.32606 32.0013 7.31352 31.865 7.01793L31.6212 6.48439C31.5765 6.38626 31.4859 6.31569 31.3801 6.29727L30.8036 6.19532C30.484 6.1389 30.3662 5.73874 30.606 5.51901L31.0352 5.12207C31.1153 5.04936 31.1535 4.94132 31.1387 4.83354L31.0553 4.25248C31.0094 3.92957 31.3518 3.69647 31.6351 3.85527Z" fill="url(#paint3_linear_1233_28384)"/>
<path d="M2.44458 11.3542L2.53904 11.5782C2.55586 11.6189 2.59302 11.6493 2.63709 11.6583L2.87556 11.7083C3.00777 11.7356 3.0515 11.9026 2.94847 11.9906L2.76505 12.1492C2.73071 12.1786 2.71376 12.2227 2.71883 12.2674L2.74505 12.5084C2.76024 12.6427 2.61403 12.735 2.49955 12.6651L2.29194 12.5403C2.25404 12.5162 2.2061 12.515 2.16537 12.5318L1.94378 12.631C1.82006 12.6861 1.68721 12.5764 1.71919 12.4457L1.77392 12.2088C1.78458 12.1639 1.77166 12.1192 1.74232 12.0849L1.57985 11.9054C1.4895 11.8055 1.5519 11.6456 1.68617 11.6343L1.92802 11.6136C1.97356 11.6101 2.01343 11.5838 2.03513 11.5452L2.15606 11.3336C2.22039 11.22 2.39097 11.2297 2.44458 11.3542Z" fill="url(#paint4_linear_1233_28384)"/>
<path d="M38.0696 8.16669L38.164 8.39067C38.1809 8.4314 38.218 8.46175 38.2621 8.47084L38.5006 8.52085C38.6328 8.54811 38.6765 8.71513 38.5735 8.80314L38.3901 8.96171C38.3557 8.99105 38.3388 9.03518 38.3438 9.07993L38.3701 9.32095C38.3852 9.45519 38.239 9.54747 38.1246 9.47764L37.9169 9.35275C37.879 9.32869 37.8311 9.32749 37.7904 9.34431L37.5688 9.44346C37.4451 9.49863 37.3122 9.38888 37.3442 9.2582L37.3989 9.02127C37.4096 8.9764 37.3967 8.93171 37.3673 8.89737L37.2049 8.71791C37.1145 8.61804 37.1769 8.45806 37.3112 8.4468L37.553 8.42606C37.5986 8.42257 37.6384 8.39633 37.6601 8.35766L37.7811 8.14614C37.8454 8.0325 38.016 8.04217 38.0696 8.16669Z" fill="url(#paint5_linear_1233_28384)"/>
<path d="M31.4147 36.4212C29.9922 36.7654 29.2351 38.3255 29.8144 39.6678C30.7609 41.8876 26.5162 41.0043 26.5392 41.9335C26.5736 43.0749 27.7494 44.9908 28.2944 44.5721C28.4664 44.4401 28.5066 44.1361 28.541 43.6313C28.541 43.6313 32.6193 44.9506 33.8411 42.6677C35.0628 40.3848 34.69 35.882 31.5524 36.3868C31.5295 36.3983 31.4377 36.4212 31.4147 36.4212Z" fill="#EF5A2E"/>
<path d="M38.1615 16.6151C38.1615 16.6151 39.0908 13.3799 39.1711 12.6687C39.2514 11.9574 40.8861 11.7108 41.2934 13.2767C41.7465 15.0204 41.1385 16.9018 40.6395 17.7852C39.9168 19.0528 37.9149 18.7144 38.1615 16.6151Z" fill="#EF5A2E"/>
<path d="M36.8153 17.5699C36.8153 17.5699 38.5856 14.377 38.6873 14.305C38.7891 14.2331 39.4495 14.629 40.1527 14.9301C40.8449 15.2265 41.6874 15.4942 41.7092 15.6288C41.7311 15.7634 41.0768 18.463 39.6528 19.7868C38.2289 21.1105 35.9347 19.8144 36.8153 17.5699Z" fill="url(#paint6_linear_1233_28384)"/>
<path d="M42.2578 24.1753C44.2941 33.7486 35.6156 40.6662 26.1914 43.0179C16.423 45.4557 7.19376 39.2093 6.41367 26.8253C5.7655 16.5407 10.9279 8.94621 21.528 7.69576C31.1817 6.5543 39.952 13.2941 42.2578 24.1753Z" fill="url(#paint7_linear_1233_28384)"/>
<path d="M21.5625 15.4531C21.8264 15.499 24.2928 15.7629 24.2928 15.7629L22.1361 17.0993" stroke="url(#paint8_linear_1233_28384)" stroke-width="0.245965" stroke-miterlimit="10" stroke-linecap="round" stroke-linejoin="round"/>
<path d="M30.0092 12.75C29.8715 12.9221 28.4375 14.4134 28.4375 14.4134L30.9957 14.0291" stroke="url(#paint9_linear_1233_28384)" stroke-width="0.245965" stroke-miterlimit="10" stroke-linecap="round" stroke-linejoin="round"/>
<path d="M42.0704 24.2136C42.1048 24.2652 42.1565 24.2193 42.1048 24.0645L41.9844 23.9727L42.0704 24.2136Z" fill="#EFEFEF"/>
<path d="M41.9686 23.1024C41.8768 22.9246 41.7449 22.7353 41.6875 22.8787C41.8252 23.0393 41.7965 23.0909 41.9514 23.2687C42.003 23.4236 41.9915 23.5555 41.9514 23.5326C41.9915 23.5842 41.9915 23.785 42.0718 23.8538C42.089 23.6301 42.0259 23.3662 41.8997 23.1081C41.9112 23.045 41.9513 23.0967 41.9686 23.1024Z" fill="#EFEFEF"/>
<path d="M33.0312 10.1406L33.1173 10.2037C33.0944 10.1808 33.0657 10.1636 33.0312 10.1406Z" fill="#EFEFEF"/>
<path d="M23.4794 7.3883C23.554 7.3883 23.5884 7.38257 23.5942 7.37109C23.5253 7.37683 23.4622 7.37683 23.4794 7.3883Z" fill="#EFEFEF"/>
<path d="M21.7578 7.38162C21.798 7.38162 21.8266 7.38162 21.8611 7.38162C21.8209 7.37589 21.7808 7.37015 21.7578 7.38162Z" fill="#EFEFEF"/>
<path d="M33.0265 10.145L32.8085 9.98438C32.7799 10.0016 32.9175 10.0704 33.0265 10.145Z" fill="#EFEFEF"/>
<path d="M41.1016 21.0586C41.1245 21.1102 41.1475 21.1504 41.1704 21.1848L41.1188 21.0586C41.1131 21.0643 41.1073 21.0643 41.1016 21.0586Z" fill="#EFEFEF"/>
<path d="M36.5234 12.8438L36.5808 12.9011C36.6038 12.9126 36.6324 12.9183 36.6554 12.9241L36.5234 12.8438Z" fill="#EFEFEF"/>
<path d="M38.7367 15.4338C38.6965 15.365 38.6162 15.3937 38.5703 15.3879C38.6219 15.4051 38.6679 15.4453 38.708 15.4969C38.7195 15.4912 38.7309 15.474 38.7367 15.4338Z" fill="#EFEFEF"/>
<path d="M41.1641 20.2305C41.1813 20.2591 41.1928 20.2878 41.21 20.3165C41.1928 20.2935 41.1813 20.2591 41.1641 20.2305Z" fill="#EFEFEF"/>
<path d="M34.7283 11.2003C34.7283 11.1888 34.7283 11.1716 34.7225 11.1602C34.7168 11.1659 34.7168 11.1831 34.7283 11.2003Z" fill="#EFEFEF"/>
<path d="M42.1094 28.0245C42.1149 28.03 42.1203 28.0245 42.1258 28.0245C42.1203 28.0081 42.1149 27.9971 42.1094 28.0245Z" fill="#EFEFEF"/>
<path d="M42.2812 24.168L42.2927 24.2196C42.3099 24.2196 42.3214 24.2253 42.3386 24.2196L42.2812 24.168Z" fill="#EFEFEF"/>
<path d="M18.6328 7.83778C18.6385 7.83778 18.6386 7.83778 18.6443 7.83778C18.7246 7.8091 18.6787 7.82057 18.6328 7.83778Z" fill="#EFEFEF"/>
<path d="M6.7165 30.9669C6.72224 30.6285 6.91153 31.466 6.89432 30.9669C6.86564 31.0186 6.67635 30.5597 6.7165 30.9669Z" fill="#EFEFEF"/>
<path d="M41.085 20.9796L41.0391 20.8477C41.062 20.905 41.0735 20.9452 41.085 20.9796Z" fill="#EFEFEF"/>
<path d="M12.0859 11.0155C12.1089 11.0155 12.1376 11.0097 12.1662 10.9982C12.1605 10.9925 12.1433 10.9982 12.0859 11.0155Z" fill="#EFEFEF"/>
<path d="M16.8976 8.52344L16.7656 8.55785C16.8172 8.54638 16.8574 8.53491 16.8976 8.52344Z" fill="#EFEFEF"/>
<path d="M10.1319 13.0625C10.0803 13.1141 10.0574 13.1256 10 13.2116C10.0115 13.2059 10.0172 13.2002 10.0287 13.1944C10.0459 13.1543 10.0688 13.1141 10.1319 13.0625Z" fill="#EFEFEF"/>
<path d="M8.45312 15.4582L8.49328 15.4181C8.50475 15.3894 8.52197 15.3607 8.53344 15.332L8.45312 15.4582Z" fill="#EFEFEF"/>
<path d="M38.625 35.6593C38.6824 35.6249 38.7282 35.6135 38.7627 35.6077C38.6938 35.6077 38.952 35.2807 38.625 35.6593Z" fill="#EFEFEF"/>
<path d="M41.149 21.0454C41.1261 21.0339 41.1089 21.0167 41.0859 20.9766C41.0974 21.0052 41.1089 21.0339 41.1204 21.0626C41.1376 21.0683 41.149 21.0626 41.149 21.0454Z" fill="#EFEFEF"/>
<path d="M10.5483 13.5586L10.25 13.8913C10.336 13.7995 10.445 13.679 10.5483 13.5586Z" fill="#EFEFEF"/>
<path d="M20.3047 43.0819L20.4079 43.0876C20.3678 43.0762 20.3276 43.0762 20.3047 43.0819Z" fill="#EFEFEF"/>
<path d="M9.48981 14.9766C9.42098 15.0282 9.35791 15.0855 9.30055 15.1544C9.29481 15.1716 9.28906 15.1945 9.28906 15.206L9.48981 14.9766Z" fill="#EFEFEF"/>
<path d="M40.356 33.1258C40.1495 33.4929 40.3503 33.3552 40.356 33.4642C40.1094 33.9116 40.161 33.6191 40.0176 33.7338C39.857 34.0091 39.7939 34.2615 39.6563 34.4565C39.6333 34.4623 39.5989 34.4967 39.6161 34.4393C39.5071 34.7777 39.0024 35.2309 38.8188 35.5922C38.7901 35.6095 38.7787 35.6152 38.7672 35.6152C38.8475 35.6037 38.8934 35.6324 38.9163 35.6668C38.7901 35.8159 38.7271 35.9823 38.6295 35.9938C38.7098 35.9077 38.6926 35.8791 38.7156 35.8217L38.6066 35.9938C38.4115 36.0626 38.7614 35.7586 38.7098 35.7127C38.5894 35.8733 38.4746 36.0569 38.3484 36.2175C38.2165 36.3724 38.0846 36.5157 37.9641 36.6075C37.8494 36.5788 38.4574 36.097 38.1018 36.315C38.2223 36.2175 38.3484 36.12 38.4574 36.0053C38.1133 36.1659 38.6525 35.7988 38.314 35.9307C37.8666 36.3494 37.8552 36.4412 37.3963 36.8484C37.3332 36.9861 37.4823 36.8771 37.4192 37.009C36.8399 37.6802 36.7367 37.2671 36.3294 37.7777C36.2434 37.9325 36.2663 38.0702 35.8648 38.3054L35.9221 38.1218C35.4461 38.4775 35.7386 38.4488 35.1822 38.747C35.251 38.6495 35.5493 38.4545 35.469 38.4946C35.0847 38.6495 35.2683 38.7069 35.0101 38.8847L34.9011 38.8388C34.3964 39.2289 33.817 39.6246 33.2148 39.9975C33.232 39.9516 33.3237 39.8655 33.1689 39.9229C32.8018 40.181 32.3658 40.3703 31.9356 40.5653C31.5054 40.7604 31.0752 40.9439 30.668 41.0701L30.3984 41.2709C30.3295 41.2996 30.255 41.2881 30.3238 41.2422C30.0026 41.3397 30.3296 41.2995 30.1919 41.3913C30.0198 41.4716 29.9395 41.443 30.0428 41.3741C29.538 41.6953 28.5113 42.0911 27.8975 42.223L28.0065 42.16C27.5361 42.2747 27.5304 42.4812 27.0773 42.5271L27.1576 42.4869C26.1423 42.7737 25.0066 43.0376 24.2035 43.049C24.0659 43.181 23.171 43.0834 23.1137 43.2612C22.5114 43.2326 22.6835 43.2039 21.846 43.1236C21.6223 43.1121 21.5134 43.2211 21.2323 43.2326V43.1465L20.848 43.2326C20.7849 43.1924 20.7218 43.1465 20.6587 43.1007L20.4006 43.0892C20.5038 43.1064 20.6128 43.158 20.5956 43.1809C20.1884 43.1637 19.6205 42.9859 19.6205 42.94L19.1386 42.9114L18.6683 42.8311C18.697 42.8024 18.8576 42.8311 18.9838 42.8368C18.4676 42.7966 18.915 42.7221 18.4446 42.6877C18.502 42.7221 18.3987 42.7278 18.3872 42.745C18.1807 42.6188 17.653 42.5385 17.2859 42.4009L17.3777 42.3722C16.7295 42.0969 15.9609 41.9018 15.2726 41.4946C15.5135 41.6494 15.4045 41.7183 15.1923 41.615L15.1521 41.4889C14.9915 41.4716 15.3529 41.6322 15.0432 41.5519C14.7851 41.4028 14.917 41.3684 15.0833 41.42L14.7449 41.2823C14.7392 41.2479 14.8252 41.2766 14.8596 41.2537C14.7793 41.2422 14.6531 41.1562 14.5212 41.0587C14.395 40.9497 14.2631 40.8407 14.1483 40.8235V40.789C13.5002 40.3416 13.1675 40.1868 12.6914 39.7451C12.6283 39.7967 12.4505 39.6189 12.2612 39.5386C11.8998 39.2231 11.5958 38.7815 11.2058 38.357C10.9018 38.0874 11.0739 38.3168 10.919 38.2136C10.9534 38.1448 10.5634 37.7203 10.8043 37.9096C10.3683 37.3761 10.2708 37.2098 9.70868 36.533C9.73736 36.6247 9.78902 36.7223 9.73739 36.6878C9.63414 36.5674 9.55381 36.3781 9.5997 36.3723L9.62841 36.4067C9.34161 36.0052 9.1064 35.4833 8.8827 34.99C8.66473 34.4909 8.53857 33.9862 8.3034 33.6592L8.32633 33.6994C8.20014 33.4585 8.05674 33.2233 7.93628 32.9766C7.83877 32.6153 8.05675 33.1716 8.0166 32.8906C7.64949 32.0875 7.60359 31.5713 7.3512 30.8887C7.46592 30.2922 6.89807 28.95 7.00132 28.1699L6.95542 28.2215C6.88659 28.0322 6.96115 27.9806 6.95542 27.8372C6.921 27.8601 6.93248 28.0552 6.89233 27.9347C6.5998 26.2942 6.7776 24.5103 6.95542 22.8412C7.04719 22.2331 6.73745 22.4626 6.95542 21.6997L7.02425 21.9349C7.01851 21.3039 7.19633 20.6844 7.31679 20.0649C7.44872 19.4454 7.67817 18.8547 7.79863 18.2524C7.79863 18.3269 7.82156 18.3384 7.78714 18.4531C7.90186 18.2237 8.13704 17.5755 8.07968 17.5411C8.15999 17.369 8.14277 17.5182 8.2116 17.4206C8.34926 17.2027 8.37221 16.7839 8.4984 16.6922C8.52134 16.675 8.4812 16.7667 8.47547 16.8126C8.50988 16.6463 8.84828 16.13 8.69915 16.2333C8.95726 15.8547 9.06052 15.4303 9.3129 15.1607C9.37026 14.914 9.789 14.5412 9.72591 14.4035C9.7718 14.4551 9.90372 14.306 10.0414 14.1052C10.1963 13.9217 10.3626 13.698 10.4314 13.566C10.397 13.6636 10.6265 13.3997 10.592 13.5202C10.8043 13.2678 10.9763 13.0211 10.8903 13.0211C11.4123 12.6885 11.6819 12.0804 12.0605 11.9887C12.766 11.3176 13.4715 10.7268 14.2286 10.2736C14.2688 10.3998 13.3969 10.7899 13.5059 10.8816C13.8501 10.6465 14.1082 10.4399 14.3778 10.2449C14.5154 10.1474 14.6416 10.0442 14.7965 9.95813C14.9514 9.87782 15.1235 9.79753 15.3128 9.71723C15.5135 9.64266 15.2267 9.82047 15.1694 9.87209C15.5365 9.67133 15.9036 9.49925 16.2592 9.33291C16.632 9.20098 16.9877 9.07478 17.3318 8.91417C17.3318 8.92565 17.263 8.96581 17.1942 9.00023C17.3318 8.9486 17.5211 8.90271 17.4867 8.85109L17.3548 8.91417C17.1024 8.91417 17.8538 8.54709 17.8653 8.5012C17.6702 8.7249 18.5995 8.3578 18.2668 8.66181C18.3586 8.62739 18.4675 8.57003 18.4389 8.53561C18.5823 8.51267 18.6339 8.52413 18.502 8.5987C19.0067 8.43809 18.8117 8.42662 19.2763 8.30616C19.282 8.33484 19.1903 8.36926 19.1501 8.41515C19.3738 8.30616 19.5975 8.17425 20.0048 8.13983C19.9818 8.16277 20.0335 8.17424 19.913 8.19145C20.6013 8.08247 21.0659 7.83008 21.8346 7.81287C21.6223 7.95054 22.0984 7.83582 22.15 7.93907L22.5573 7.8817L22.391 7.84155C22.7466 7.8186 23.0621 7.71536 23.3775 7.7383C23.2858 7.74978 23.1997 7.77846 23.1137 7.79567C23.3374 7.76125 23.5611 7.77272 23.7848 7.77272L23.4005 7.7211C23.7676 7.67521 23.3603 7.58343 23.8422 7.62932C23.7446 7.63505 24.2035 7.6408 24.3928 7.70963C24.5706 7.68095 24.7599 7.65227 25.0238 7.68668C25.0926 7.7211 24.9607 7.8014 25.0008 7.82434C25.1844 7.7383 25.8383 7.90466 26.0735 7.83582C25.9989 7.8473 25.9874 7.90465 26.0104 7.91612L26.1652 7.8645C26.3258 7.91038 26.3488 7.92186 26.3144 7.96202C26.8077 8.04232 26.1767 7.80714 26.7618 7.94481C26.7159 7.94481 26.7331 7.95627 26.6356 7.95627C27.2206 8.0882 27.7771 8.1685 28.3048 8.32337C28.431 8.46677 27.8287 8.23734 27.9893 8.36927C28.3793 8.43236 28.7751 8.54134 29.1709 8.65032C29.5609 8.76504 29.9625 8.85108 30.3066 9.0289L30.1804 8.96007C30.3353 8.86256 30.6737 9.26982 31.0523 9.3616C30.9605 9.33292 30.9031 9.38454 30.9318 9.3788C31.167 9.49926 31.4137 9.59677 31.6947 9.71723C31.9643 9.84915 32.2683 10.004 32.6297 10.1761L32.5264 10.1589C32.7788 10.3424 33.2262 10.5776 33.4786 10.8013C33.5819 10.8243 33.7367 10.9447 33.6736 10.83C34.0235 11.2315 34.4652 11.4552 34.838 11.7592C35.2223 12.046 35.6009 12.3214 35.882 12.6885C35.8017 12.6139 35.664 12.5451 35.7271 12.5967C35.9336 12.7516 36.1114 12.9466 36.3007 13.1244C36.3065 13.0326 36.2606 13.0211 36.1803 12.8663C36.2778 12.9122 36.4499 13.0498 36.5875 13.1875C36.3122 12.9638 36.5129 13.2621 36.5932 13.3997C36.5875 13.3653 36.6449 13.3882 36.6506 13.3653C36.8456 13.7381 36.794 13.3251 37.1267 13.784H37.0808C37.2472 13.9159 37.3848 14.0536 37.5282 14.2314C37.5282 14.3519 37.3619 14.0823 37.3045 14.111C37.5053 14.3519 37.8093 14.5068 37.9297 14.7821C37.8265 14.6903 37.706 14.5412 37.6085 14.4494C37.7347 14.7477 37.7749 14.7649 37.9068 14.9542L37.8953 14.937L38.1993 15.3786L38.1362 15.2582C38.5435 15.4532 38.618 15.9006 39.031 16.2735C38.641 15.9063 38.9221 16.239 38.8303 16.2562C38.8876 16.3824 38.9794 16.566 38.922 16.5316C39.1171 16.7094 39.1228 16.8987 39.3695 17.1625C39.3523 17.1912 39.4957 17.3977 39.4096 17.3862C39.5874 17.6616 39.4154 17.2944 39.4555 17.3002C39.6161 17.4952 39.7366 17.7705 39.8685 18.0688C40.0062 18.3614 40.1553 18.6768 40.3503 18.9866C40.6543 19.5372 40.7863 19.6061 41.0673 20.1223C41.1075 20.3173 40.9067 20.0133 40.9067 20.0133C41.0042 20.3173 41.0788 20.541 41.2107 20.8106C41.1706 20.759 41.1706 20.8278 41.1706 20.9253C41.2566 21.149 41.3197 21.04 41.3828 21.3555C41.3369 21.3154 41.2681 21.2637 41.1992 21.1662C41.314 21.4243 41.4574 21.671 41.5778 21.9406C41.5549 22.0266 41.4516 21.7972 41.3885 21.7112C41.4516 21.8603 41.5377 22.0553 41.6065 22.2274C41.6696 22.3995 41.7327 22.5429 41.7786 22.583L41.7556 22.3708C41.79 22.4855 41.7098 22.4511 41.6696 22.3651C41.5491 22.1069 41.5721 21.9693 41.595 21.9463L41.6811 22.1356C41.7671 21.8832 41.3828 21.3498 41.2566 20.954L41.4287 21.0802L41.1935 20.7074C41.1935 20.6098 41.2337 20.5238 41.3197 20.7188C41.2738 20.4148 41.1935 20.4779 41.1648 20.2141C41.1648 20.1854 41.1706 20.1911 41.1878 20.2141L41.0329 19.9559C41.0788 20.0018 41.0903 19.8814 41.1476 20.0535C40.9985 19.5372 40.7174 19.3021 40.7232 19.0841L40.7461 19.1242C40.4134 18.4646 40.6371 19.0956 40.3216 18.6367C40.3388 18.4875 40.3389 18.3499 40.3446 18.2122L40.2299 18.1893C40.1954 18.1205 40.1324 17.9885 40.1725 17.9942C39.9832 17.7763 40.161 18.0516 40.0348 17.9369C39.9316 17.5755 39.5186 17.0708 39.5989 16.9274C39.4785 16.8471 39.7251 17.26 39.4956 16.9388C39.5817 16.7553 39.2318 16.5717 39.1056 16.2562C39.2261 16.3021 39.3694 16.5889 39.2433 16.2677C39.0196 16.1702 38.9049 15.7056 38.727 15.4876C38.6812 15.5106 38.5894 15.3901 38.4689 15.218C38.337 15.0517 38.1707 14.8395 38.01 14.6674C38.0502 14.6731 37.511 13.9217 37.23 13.5775H37.2529C37.1152 13.5833 36.8112 13.2448 36.5703 13.0211C36.6219 12.9867 36.685 13.0097 36.8284 13.1244L36.6105 12.9007C36.5359 12.872 36.4556 12.8147 36.3064 12.677H36.4154C36.1344 12.3673 35.7328 12.1779 35.3715 11.7822C35.3026 11.8166 35.555 12.2124 35.1019 11.8854C35.1134 11.8395 35.1421 11.7764 35.2625 11.8625C35.2224 11.8338 35.1134 11.7764 35.0503 11.6961L35.2625 11.7936C35.0962 11.6101 35.1306 11.7535 34.9872 11.6216C35.0273 11.5814 34.9011 11.4954 34.9528 11.4782C34.9929 11.5068 35.0675 11.6101 35.1363 11.6388C34.9757 11.4896 34.8036 11.2831 34.752 11.2028C34.7463 11.2373 34.7061 11.2602 34.5685 11.1742C34.23 10.9332 34.4939 11.0365 34.3103 10.8701C34.2071 10.8415 34.0121 10.6522 33.9547 10.721C33.8572 10.6522 33.8572 10.6063 33.8342 10.5604C33.7367 10.5145 33.5302 10.3711 33.3639 10.2621C33.1918 10.1704 33.0656 10.113 33.1459 10.2163L33.1918 10.2507C33.1803 10.2449 33.1689 10.2392 33.1574 10.2335C32.8304 10.0901 32.5207 9.90078 32.2167 9.70002C32.0618 9.60251 31.9127 9.49352 31.7521 9.40748C31.5915 9.32717 31.4309 9.2526 31.2645 9.18377L31.276 9.16083C30.8802 9.01743 30.4213 8.78226 30.1231 8.73064C30.0083 8.69048 29.8649 8.58722 29.928 8.57575C29.6183 8.48971 29.5724 8.51267 29.1537 8.31764C29.4749 8.375 29.0619 8.23734 29.4749 8.39221C29.0906 8.23161 29.0103 8.15704 28.5686 8.08821C28.7349 8.05379 28.2876 7.9276 28.0868 7.90465L28.3564 8.0251C28.1384 7.98495 27.9491 7.93333 27.7598 7.8817L27.886 7.81287C27.4788 7.66374 27.0944 7.60063 26.7331 7.58916C26.366 7.57769 26.0333 7.56622 25.7236 7.42856C25.4941 7.46297 26.1767 7.53754 25.9702 7.58916C25.5859 7.52607 25.1901 7.32531 25.0697 7.32531C24.5305 7.25648 24.5592 7.44577 23.997 7.39414C24.0659 7.42856 24.1347 7.52607 23.716 7.54328C23.3259 7.52034 23.2341 7.38268 23.4808 7.36547C23.5726 7.36547 23.6184 7.37695 23.6184 7.38842C23.7446 7.38268 23.911 7.37121 23.7561 7.33105L23.7045 7.36547C23.5095 7.30811 22.9703 7.34252 23.0907 7.28516C22.7925 7.33678 22.9645 7.34827 23.1882 7.354C22.6835 7.33679 22.4024 7.40562 21.8805 7.40562C21.9665 7.4171 22.0468 7.45151 21.9608 7.45725C21.1979 7.46872 21.6338 7.54328 21.129 7.62932C20.8365 7.62358 21.2151 7.49166 20.7103 7.61211C20.3948 7.62932 20.63 7.53181 20.7505 7.48592C20.2916 7.62358 19.8671 7.58343 19.5975 7.61211L19.8385 7.54328C19.6951 7.58917 19.5689 7.5949 19.4484 7.62932C19.5 7.64079 19.5516 7.65226 19.6033 7.66373C19.4541 7.68094 19.3394 7.71536 19.3337 7.68668C19.196 7.76699 19.4713 7.76698 19.1903 7.89891C18.9953 7.91038 18.6224 8.07673 18.5364 8.0079C19.1386 7.88744 18.4503 7.93907 18.9494 7.79567C18.8519 7.83008 18.7371 7.85876 18.588 7.8817C18.5651 7.87597 18.6052 7.85876 18.6396 7.84155C18.0488 7.91038 18.4044 8.0079 17.8136 8.1513C17.8767 8.08246 17.6473 8.09394 17.5612 8.13983C17.7964 8.05953 17.6989 8.17998 17.4982 8.2947C17.1196 8.38647 17.1081 8.46678 16.9131 8.52987L17.1368 8.47251C17.0794 8.54708 16.8959 8.60444 16.6435 8.71343C16.6091 8.68475 16.8672 8.60444 16.7697 8.62165C16.523 8.81094 16.0871 8.7421 15.7315 8.99449C15.5422 9.04611 15.6741 8.91419 15.5078 8.96581C15.1063 9.22967 15.0087 9.12067 14.5843 9.38453C14.7449 9.38453 14.7563 9.35585 14.4753 9.56808L15.1923 9.1723L14.7621 9.48205C14.9858 9.3788 15.2152 9.22392 15.3529 9.1723C15.1521 9.32717 15.1693 9.30423 15.2955 9.30423C14.9514 9.36159 14.7105 9.61971 14.3491 9.76311L14.2745 9.60824C14.0049 9.7287 13.787 9.88356 13.5633 10.0499C13.3281 10.2162 13.0815 10.3883 12.7717 10.612L12.9839 10.4858C12.9438 10.6006 12.6168 10.7784 12.4333 10.9505C12.4161 10.8931 12.2842 10.9677 12.1752 11.0021C12.2153 11.0308 11.722 11.3348 11.7507 11.4724L11.4524 11.6502C10.9878 12.0575 11.0452 12.2468 10.6207 12.6483C10.6953 12.4762 10.4773 12.6368 10.7297 12.3328C10.5806 12.4648 10.4601 12.5967 10.4888 12.6254C10.3856 12.6885 10.1905 13.0957 10.0356 13.199C10.0012 13.2793 10.0299 13.3366 9.88079 13.503C9.85785 13.5144 9.85783 13.4858 9.85783 13.4858C9.88077 13.503 9.66282 13.7726 9.84064 13.6636C9.56531 13.8299 9.35307 14.2028 9.1179 14.5412C8.88846 14.8853 8.67622 15.2238 8.4984 15.4245C8.31485 15.8146 8.07393 16.2734 7.91332 16.6291C7.90758 16.6004 7.89038 16.6176 7.91906 16.5488C7.66668 17.0249 7.94203 16.9216 7.65523 17.4608C7.44873 17.7132 7.7355 17.1453 7.62652 17.3117C7.4315 17.3231 7.33974 17.9942 7.14472 18.3556L7.16191 18.2581C7.00703 18.5392 7.0013 19.0153 6.84069 19.5028C6.84069 19.5028 6.82923 19.4741 6.81202 19.4913C6.80628 19.8527 6.72025 20.5123 6.63995 20.9942C6.59979 20.8335 6.64567 20.7704 6.55389 20.845C6.51948 21.063 6.68584 20.8049 6.61127 21.2351C6.53671 21.367 6.4736 21.6767 6.38756 21.7112L6.43346 21.2982C6.30153 21.4932 6.37036 21.8374 6.32447 22.0496L6.28432 22.0152C6.22696 22.6519 6.31298 22.6691 6.26135 23.3517L6.2958 23.2828C6.38758 23.6614 6.22122 23.5926 6.28432 23.9711L6.16385 24.0801C6.18679 24.3268 6.21547 24.9463 6.26709 25.3879C6.16385 25.1413 6.13518 24.6193 6.1065 24.2981C6.0893 24.5447 6.07783 25.1298 6.1524 25.2617C6.14093 25.1642 6.10649 25.038 6.12369 24.9405C6.22121 25.2388 6.27859 25.6346 6.29006 26.1164C6.18108 26.0762 6.17533 26.3975 6.17533 26.7703C6.19828 27.1431 6.24991 27.5676 6.18108 27.7512C6.26711 28.1756 6.30724 28.6058 6.33592 29.0532C6.39328 29.4949 6.47361 29.9595 6.57686 30.4528C6.67437 30.0685 6.63993 30.7396 6.80054 30.6421C6.8579 30.8715 6.87513 30.9576 6.86366 30.9805C6.86939 31.2214 6.91526 31.4566 6.94968 31.6918C6.94968 31.8696 6.84644 31.491 6.81202 31.5197C6.94968 32.0187 6.8063 31.7491 6.86366 32.0876C6.90381 32.0015 7.00131 32.231 7.07015 32.5235L7.02425 32.1048C7.33399 32.7644 7.05294 32.7529 7.39136 33.4126C7.34547 33.3495 7.29385 33.2864 7.2537 33.2175C7.42004 33.556 7.79287 34.4967 8.06246 34.7777C8.0682 34.8466 8.06245 34.9498 7.98215 34.8007C8.13128 35.2251 8.45253 35.6267 8.69344 36.0282C8.94582 36.4297 9.17525 36.8025 9.36454 37.1066L9.28997 37.0779C9.39895 37.2098 9.52514 37.2672 9.61118 37.4622C9.58824 37.4622 9.53662 37.4335 9.58251 37.4966C9.64561 37.5597 9.90372 37.8121 10.0127 38.0071L9.86357 37.8809C10.0873 38.2652 10.3397 38.4889 10.5863 38.6954C10.833 38.9019 11.0681 39.0912 11.3262 39.3493C11.2173 39.4526 11.7048 39.9401 11.9572 40.181L11.9342 40.1868C12.6742 40.9095 13.374 41.1676 14.1713 41.6609C14.3893 41.8617 14.8309 42.1026 15.307 42.3607C15.4275 42.4238 15.5479 42.4926 15.6684 42.5557C15.7946 42.6074 15.9265 42.659 16.0527 42.7106C16.3051 42.8139 16.5517 42.9171 16.764 43.0204C16.6378 42.9458 16.8213 42.9343 16.9819 42.9859C17.0794 43.0376 17.2286 43.072 17.349 43.1007C17.4695 43.1179 17.5555 43.1408 17.5211 43.1924L17.4465 43.1695C17.5727 43.3186 18.0259 43.4047 18.37 43.4964L18.4618 43.3645C18.8805 43.6111 19.4943 43.6685 20.0449 43.7144C20.3203 43.7431 20.5841 43.7718 20.8078 43.7947C21.0315 43.8004 21.2208 43.8234 21.347 43.875C21.5707 43.8406 21.8518 43.8463 22.0698 43.8177L22.0583 43.8979C22.6778 43.9553 22.9875 43.8922 23.7504 43.8177L23.6013 43.8865C24.0372 43.8463 24.1232 43.6169 24.5076 43.5538L24.6452 43.6513C25.3737 43.4907 26.171 43.5022 26.8421 43.1695C26.8363 43.1924 26.8249 43.2268 26.7101 43.267C27.0486 43.1752 28.0466 42.9745 27.8746 42.854C27.9205 42.9687 28.6088 42.6188 28.9701 42.441L28.9357 42.5385C29.2225 42.332 29.2225 42.3033 29.6585 42.1198C29.7674 42.0911 29.7732 42.1485 29.624 42.1771C29.9911 42.0854 29.8649 41.9993 30.3009 41.8674L30.1632 41.9821C30.5189 41.8387 30.4844 41.8273 30.6565 41.6896C30.8687 41.5691 31.3391 41.4257 31.4194 41.4716C31.4481 41.4085 31.6144 41.2651 31.8266 41.1791C31.8668 41.1906 31.798 41.2422 31.7635 41.2709C32.3658 41.0357 32.5781 40.7661 33.014 40.6399C33.0369 40.6571 33.0656 40.6571 33.1 40.6456C32.6412 40.8751 32.2683 41.0529 32.3027 41.0299C32.3371 41.0988 32.7157 40.921 32.4634 41.1619C32.7387 40.9669 33.1918 40.6112 33.5532 40.4277C33.5761 40.4219 33.5933 40.4219 33.6106 40.4219L33.5761 40.4506C33.6622 40.4105 33.731 40.3646 33.7941 40.3129C33.9145 40.2613 33.9891 40.2269 34.0924 40.1638C34.1669 40.1925 34.5226 39.9516 34.7004 39.8483C34.643 39.791 34.8725 39.6476 34.6315 39.7336C34.6602 39.7222 34.6029 39.7623 34.4881 39.8369C34.4652 39.8541 34.4308 39.8713 34.4193 39.8885L34.4251 39.877C34.3103 39.9459 34.1555 40.0376 33.9834 40.1409C34.1038 40.0262 34.23 39.9114 34.4537 39.8311C34.5226 39.7336 34.5914 39.6246 34.6315 39.5673C34.9241 39.5042 35.4059 39.2461 35.5092 39.2633C36.0197 38.8904 36.6908 38.3512 36.903 37.9899C37.0292 37.8637 37.0923 37.8924 37.1611 37.8694C37.0923 37.944 36.9948 38.0186 36.9603 38.0702C37.0865 37.944 37.293 37.7777 37.4651 37.6171C37.6257 37.4507 37.7519 37.2958 37.7519 37.227C38.1133 36.9517 37.6315 37.4737 38.0731 37.032L38.033 37.1123C38.2854 36.9345 38.4861 36.7452 38.6697 36.5501C38.8417 36.3494 38.9794 36.1314 39.1286 35.9192C39.272 35.707 39.4211 35.489 39.5989 35.2768C39.7825 35.0645 39.9431 34.8122 40.1897 34.5713C40.1266 34.6401 40.0922 34.6745 40.0692 34.6802C41.1017 33.5044 41.6409 31.9155 42.2317 30.5159C42.3694 30.1029 42.3178 30.0398 42.335 29.7702L42.4439 29.6957C42.4439 29.5408 42.4669 29.3916 42.4497 29.2368C42.4554 28.9155 42.5415 28.646 42.6218 28.3534C42.6906 28.0609 42.8111 27.7397 42.7136 27.3324L42.6562 27.4357C42.6619 27.1432 42.6103 26.5122 42.6791 26.5581C42.6677 26.5294 42.616 26.4663 42.6447 26.3516L42.6906 26.3401C42.6676 26.0992 42.6332 25.864 42.5587 25.6346C42.5128 25.0839 42.748 25.7034 42.639 24.8946C42.5759 24.5963 42.3808 24.0629 42.3694 24.1834C42.3866 24.3038 42.3866 24.4931 42.3407 24.5103L42.2776 24.2465C42.14 24.2235 41.9793 24.0514 41.9793 24.7168L42.1285 25.1527L42.0883 25.3076L42.031 24.9291C42.0023 25.1528 42.0769 25.279 42.1342 25.4281C42.1055 25.4682 42.0883 25.5371 42.0883 25.6231C42.1457 25.7665 42.226 25.9099 42.2719 26.0533C42.2203 26.1107 42.1686 25.864 42.14 26.1623C42.2031 26.3688 42.2547 25.9558 42.2948 26.2999C42.2374 26.5236 42.1858 26.4606 42.2432 26.7129C42.2088 26.7474 42.1858 26.6957 42.1686 26.5982C42.2145 26.8219 42.1916 27.1948 42.2661 27.3152C42.2202 27.5389 42.2374 28.0838 42.1113 28.0494C42.1342 28.124 42.1629 28.4567 42.14 28.6632C42.031 28.2616 42.0482 29.4433 41.8761 29.3056C41.9335 29.6039 41.6868 30.2979 41.618 30.8027C41.618 30.774 41.618 30.7167 41.6294 30.6765C41.5319 30.9404 41.4516 30.9977 41.3598 31.1583C41.4516 31.2329 41.314 31.6459 41.2853 31.8983C41.0559 32.1736 41.2451 31.6516 41.1075 31.709C41.1992 31.7262 40.9698 32.2998 41.0788 32.2252C40.8895 32.426 40.9411 32.4088 40.792 32.4891C40.8952 32.5923 40.6945 32.7128 40.6658 32.948C40.4192 33.252 40.5052 32.9709 40.3389 33.3552C40.2241 33.4757 40.356 33.1258 40.356 33.1258ZM33.2262 40.0204C33.3008 39.9746 33.3639 39.9344 33.404 39.9115C33.3696 39.9344 33.318 39.9631 33.2262 40.0204ZM32.4805 40.4219C32.5723 40.376 32.6928 40.3187 32.8132 40.2613C32.8534 40.2728 32.8362 40.3129 32.7616 40.3474C32.7903 40.3129 32.601 40.3875 32.4805 40.4219ZM34.339 40.0204C34.2243 40.1007 34.1784 40.1065 34.1554 40.1065C34.2128 40.072 34.2759 40.0319 34.3562 39.9745L34.3677 39.9573C34.3619 39.9803 34.3562 39.9975 34.339 40.0204Z" fill="#EFEFEF"/>
<path d="M34.5006 39.8079C34.5178 39.7964 34.5235 39.7906 34.5465 39.7734C34.5178 39.7849 34.4949 39.7907 34.4662 39.7964L34.4375 39.8423C34.4604 39.8308 34.4776 39.8193 34.5006 39.8079Z" fill="#EFEFEF"/>
<path d="M33.1267 10.2108L33.1094 10.1992C33.1209 10.2108 33.1325 10.2166 33.1383 10.2281C33.1325 10.2223 33.1325 10.2223 33.1267 10.2108Z" fill="#EFEFEF"/>
<path d="M21.2266 43.125V43.1479L21.3011 43.1307L21.2266 43.125Z" fill="#EFEFEF"/>
<path d="M36.5859 13.4297C36.5859 13.4412 36.5917 13.4584 36.6146 13.4871C36.6146 13.4871 36.6031 13.4584 36.5859 13.4297Z" fill="#EFEFEF"/>
<path d="M37.8828 14.9766L38.0377 15.2175C37.9746 15.1085 37.9287 15.0339 37.8828 14.9766Z" fill="#EFEFEF"/>
<path d="M38.7578 16.2656C38.7808 16.2714 38.7922 16.2714 38.8037 16.2714V16.2656H38.7578Z" fill="#EFEFEF"/>
<path d="M17.183 9C17.1658 9.00574 17.1428 9.0172 17.1256 9.02293C16.9994 9.08029 17.0855 9.04589 17.183 9Z" fill="#EFEFEF"/>
<path d="M24.3737 7.72266C24.2934 7.73413 24.2189 7.74559 24.1328 7.75133C24.2705 7.7628 24.368 7.76854 24.3737 7.72266Z" fill="#EFEFEF"/>
<path d="M10.5677 13.5195L10.5391 13.5597L10.5677 13.5195Z" fill="#EFEFEF"/>
<path d="M23.7969 7.73594C23.9288 7.75888 24.0378 7.75888 24.1411 7.7474C24.0321 7.74167 23.9059 7.7302 23.7969 7.73594Z" fill="#EFEFEF"/>
<path d="M41.5391 22.375L41.5563 22.4496C41.562 22.4496 41.5678 22.4495 41.5735 22.4553L41.5391 22.375Z" fill="#EFEFEF"/>
<path d="M41.5703 22.457L41.599 22.5373C41.5875 22.4972 41.5818 22.4628 41.5703 22.457Z" fill="#EFEFEF"/>
<path d="M41.6646 22.6976L41.6016 22.5312C41.613 22.5886 41.6302 22.6632 41.6646 22.6976Z" fill="#EFEFEF"/>
<path d="M40.9097 20.4139L40.875 20.4023C40.8866 20.4081 40.8981 20.4139 40.9097 20.4139Z" fill="#EFEFEF"/>
<path d="M40.6484 19.8398C40.7001 19.9775 40.7402 20.207 40.8435 20.3905L40.8721 20.402C40.7976 20.3274 40.7517 19.9546 40.6484 19.8398Z" fill="#EFEFEF"/>
<path d="M39.8125 17.3242L40.0477 17.8003C40.0305 17.7028 40.0076 17.5766 40.1337 17.7831C39.8928 17.1521 40.1395 17.9437 39.8125 17.3242Z" fill="#EFEFEF"/>
<path d="M38.9863 15.8941C39.1584 16.1235 39.0207 15.8654 39.0437 15.8711C38.9232 15.7335 38.8888 15.6991 38.9863 15.8941Z" fill="#EFEFEF"/>
<path d="M29.8039 8.50955L29.8555 8.45219C29.6433 8.3891 29.8498 8.47514 29.8039 8.50955Z" fill="#EFEFEF"/>
<path d="M27.5312 8.21875L27.7263 8.31627L27.841 8.27037L27.5312 8.21875Z" fill="#EFEFEF"/>
<path d="M26.3066 7.45654H26.4041L26.0312 7.43359L26.3066 7.45654Z" fill="#EFEFEF"/>
<path d="M8.64844 14.9598L8.76316 14.954C8.832 14.8221 8.76316 14.7418 8.64844 14.9598Z" fill="#EFEFEF"/>
<path d="M6.22421 23.2656C6.17259 23.3574 6.13246 23.5983 6.17261 23.7532C6.18408 23.5524 6.22995 23.3631 6.22421 23.2656Z" fill="#EFEFEF"/>
<path d="M18.8731 43.5641L18.6953 43.5469L19.028 43.6043L18.8731 43.5641Z" fill="#EFEFEF"/>
<path d="M22.3262 23.6162C30.815 21.9427 36.9414 18.9327 38.9435 17.637C39.4914 18.2358 41.0935 20.1434 41.5646 24.2941C42.1991 29.8845 32.0034 32.2387 26.3322 33.2487C20.3566 34.3129 9.35167 38.9238 7.52414 32.5044C6.33142 28.3149 6.22397 24.9602 6.42325 23.7906C8.11794 24.4404 13.8373 25.2896 22.3262 23.6162Z" fill="url(#paint10_linear_1233_28384)"/>
<path d="M22.4301 24.5872C30.9183 22.9141 37.9696 19.4794 39.9717 18.1845C40.845 19.4165 41.6793 21.653 42.3154 25.7782C42.6785 28.1328 42.2378 31.4397 41.4167 33.0078C38.4212 37.2541 36.5115 38.0603 26.9792 39.7578C17.0036 41.5343 11.6543 39.31 9.06411 38.268C8.64761 38.0287 7.66364 34.1642 7.35072 33.0654C6.15857 28.8793 6.10436 25.9676 6.30375 24.7988C7.99822 25.4479 13.9418 26.2603 22.4301 24.5872Z" fill="url(#paint11_linear_1233_28384)"/>
<path d="M31.6095 28.1446L33.5391 21.1953L25.8082 23.7077L31.6095 28.1446Z" fill="url(#paint12_linear_1233_28384)"/>
<mask id="mask0_1233_28384" style="mask-type:alpha" maskUnits="userSpaceOnUse" x="25" y="21" width="9" height="8">
<path d="M31.6142 28.1363L33.5312 21.1836L25.8049 23.7098L31.6142 28.1363Z" fill="url(#paint13_linear_1233_28384)"/>
</mask>
<g mask="url(#mask0_1233_28384)">
<path d="M30.9632 22.2714L28.8703 22.78C28.8219 22.7913 28.7757 22.8096 28.7357 22.8335C28.6957 22.8573 28.6631 22.886 28.6407 22.9171C28.6183 22.9481 28.6066 22.9807 28.6068 23.0119C28.607 23.0431 28.619 23.0721 28.6417 23.0964L29.3149 23.9292C29.3396 23.9592 29.3806 23.9809 29.4319 23.9909C29.4832 24.001 29.542 23.9988 29.5996 23.9849L30.8462 23.6819C30.9031 23.6682 30.9559 23.6435 30.9966 23.6115C31.0374 23.5796 31.0641 23.542 31.0727 23.5044L31.3236 22.389C31.3178 22.3634 31.3038 22.34 31.2824 22.3201C31.2609 22.3003 31.2325 22.2845 31.1988 22.2735C31.1651 22.2626 31.1268 22.2568 31.0861 22.2565C31.0454 22.2562 31.0031 22.2614 30.9618 22.2718L30.9632 22.2714ZM30.1101 28.5197L30.9004 28.67C31.056 28.6995 31.2337 28.6926 31.4076 28.6503C31.5815 28.608 31.7425 28.5326 31.8672 28.4351L32.5053 27.9355C32.6093 27.8539 32.6839 27.7602 32.7215 27.664C32.759 27.5677 32.7581 27.4723 32.719 27.3877L31.1955 24.1531C31.1795 24.1179 31.1424 24.0909 31.0913 24.0773C31.0403 24.0636 30.9788 24.0642 30.9186 24.079L29.8181 24.3464C29.7579 24.361 29.703 24.3887 29.6639 24.4242C29.6247 24.4598 29.604 24.5008 29.6057 24.5394L29.669 28.1255C29.6711 28.22 29.7132 28.3065 29.7908 28.3759C29.8684 28.4453 29.9787 28.495 30.1101 28.5197Z" fill="url(#paint14_linear_1233_28384)"/>
</g>
<path d="M18.8705 3.76177L23.4051 7.94462C18.7634 13.2535 13.3486 13.094 11.2214 12.3507L11.6242 6.71473C11.6612 6.19613 12.3006 5.97429 12.6504 6.35866L16.8904 11.0176L17.8852 4.11226C17.953 3.64111 18.5207 3.43917 18.8705 3.76177Z" fill="#FABD64"/>
<path d="M10.4664 12.8797C17.844 14.5677 23.412 9.40259 23.7573 7.47098L21.0547 2.87278C20.7909 2.42382 20.1174 2.51092 19.9763 3.01225L19.2312 5.65923C19.1241 6.03995 18.6805 6.21009 18.3463 5.99864L14.5024 3.56673C14.1188 3.32404 13.6161 3.58649 13.5959 4.03999L13.4286 7.79663C13.4102 8.20998 12.9837 8.47703 12.6038 8.31304L9.33233 6.90068C8.85558 6.69486 8.36411 7.15987 8.54325 7.64728L10.4664 12.8797Z" fill="url(#paint15_linear_1233_28384)"/>
<path d="M19.4074 38.1367C17.9448 38.1425 16.8492 39.4904 17.1016 40.9301C17.5146 43.3106 13.5797 41.4751 13.3961 42.3814C13.1667 43.4999 13.8665 45.6394 14.4974 45.3526C14.6925 45.2666 14.8014 44.974 14.9563 44.4922C14.9563 44.4922 18.6216 46.712 20.3367 44.7733C22.046 42.8345 22.7171 38.3604 19.5508 38.1367C19.5279 38.1367 19.4304 38.1367 19.4074 38.1367Z" fill="#EF5A2E"/>
<path d="M9.84028 24.4428C9.84028 24.4428 7.37954 21.6265 6.96655 20.9496C6.55356 20.2728 4.78689 20.7948 5.11958 22.5615C5.48668 24.5289 6.98376 26.135 7.90152 26.7889C9.22079 27.7238 11.0793 26.4447 9.84028 24.4428Z" fill="#EF5A2E"/>
<path d="M25.0656 18.7568C25.0312 18.6306 25.0771 18.5388 25.2148 18.4757C25.6679 18.275 26.9413 17.8448 27.8763 17.5235C28.7654 17.2195 29.9527 16.8065 30.4116 16.6976C30.5665 16.6631 30.6927 16.7779 30.7213 16.9213C30.8189 17.3916 31.0597 19.5197 28.6162 20.2367C26.5283 20.8504 25.3008 19.6287 25.0656 18.7568Z" fill="url(#paint16_linear_1233_28384)"/>
<path d="M6.23205 24.0785C6.88011 27.7952 29.14 26.2401 29.14 26.2401C29.14 26.2401 40.9819 19.1025 39.2988 15.9829" stroke="url(#paint17_linear_1233_28384)" stroke-width="0.168402" stroke-miterlimit="10" stroke-linecap="round" stroke-linejoin="round"/>
<path d="M32.2421 31.5431L31.4746 26.0924C31.4545 25.9598 31.3342 25.8676 31.2025 25.8849L26.9583 26.4758C26.8265 26.4931 26.7349 26.617 26.7521 26.7496L27.5196 32.2003C27.5396 32.3329 27.6628 32.4252 27.7945 32.4079L32.0388 31.817C32.1705 31.7997 32.2621 31.6757 32.2421 31.5431ZM29.7133 26.4268C29.7133 26.4268 29.7104 26.4268 29.7047 26.4297C29.7018 26.4297 29.699 26.4297 29.6961 26.4297C29.6904 26.4297 29.6818 26.4326 29.6761 26.4326L29.656 26.4354C29.6532 26.4354 29.6474 26.4354 29.6446 26.4354L29.2637 26.4902C29.215 26.496 29.1692 26.4729 29.1491 26.4326L29.6618 26.3663C29.7133 26.3807 29.7133 26.421 29.7133 26.4268Z" fill="url(#paint18_linear_1233_28384)"/>
<path d="M32.0373 31.8176L27.7931 32.4085C27.6613 32.4258 27.5382 32.3335 27.5181 32.2009L26.7506 26.7502C26.742 26.6897 26.7564 26.6349 26.785 26.5859L26.6618 26.7848C26.6332 26.8309 26.6189 26.8886 26.6275 26.9491L27.395 32.3998C27.415 32.5324 27.5353 32.6247 27.6699 32.6074L31.9142 32.0165C31.9886 32.0049 32.0488 31.9646 32.086 31.9041L32.2091 31.7052C32.1719 31.7657 32.1089 31.8089 32.0373 31.8176Z" fill="url(#paint19_linear_1233_28384)"/>
<path d="M31.763 31.6119L27.977 32.1394C27.8596 32.1567 27.7508 32.0731 27.7336 31.9549L27.3985 29.5797L27.0491 27.0951C27.0319 26.9769 27.115 26.8674 27.2324 26.8501L31.0184 26.3226C31.1359 26.3053 31.2447 26.3889 31.2619 26.5071L31.6198 29.058L31.9463 31.3697C31.9635 31.485 31.8805 31.5946 31.763 31.6119Z" fill="#FFF6EE"/>
<path d="M31.6277 29.0541C30.9317 29.7517 29.9466 30.1466 28.8927 30.0572C28.3485 30.0111 27.8445 29.841 27.4063 29.5758L27.0569 27.0912C27.0398 26.973 27.1228 26.8635 27.2402 26.8462L31.0262 26.3187C31.1437 26.3014 31.2525 26.385 31.2697 26.5031L31.6277 29.0541Z" fill="url(#paint20_linear_1233_28384)"/>
<path d="M28.0702 29.0964C28.2707 30.0562 29.17 30.2349 29.9547 29.987C30.7995 29.719 31.2949 29.0992 30.9255 28.1106C30.6191 27.2891 29.906 26.8654 29.0468 27.1363C28.2621 27.3842 27.8841 28.2143 28.0702 29.0964Z" fill="url(#paint21_linear_1233_28384)"/>
<path d="M28.0448 29.1053C28.0477 29.1111 28.0535 29.1053 28.0506 29.0908L28.0391 29.082L28.0448 29.1053Z" fill="#EFEFEF"/>
<path d="M28.057 29.0083C28.0484 28.9939 28.0398 28.9766 28.0312 28.9881C28.0427 29.0026 28.0398 29.0083 28.0542 29.0227C28.057 29.0371 28.0542 29.0487 28.0513 29.0458C28.0542 29.0516 28.0542 29.0688 28.0599 29.0746C28.0627 29.0544 28.0599 29.0314 28.0513 29.0112C28.0513 29.0026 28.0542 29.0083 28.057 29.0083Z" fill="#EFEFEF"/>
<path d="M28.3112 27.7109L28.3047 27.7174C28.3079 27.7142 28.3112 27.7142 28.3112 27.7109Z" fill="#EFEFEF"/>
<path d="M28.9457 27.1953C28.9402 27.1981 28.9375 27.2008 28.9375 27.2008C28.943 27.1981 28.9485 27.1953 28.9457 27.1953Z" fill="#EFEFEF"/>
<path d="M29.0785 27.1602C29.0758 27.1602 29.0731 27.1602 29.0703 27.1629C29.0731 27.1602 29.0785 27.1602 29.0785 27.1602Z" fill="#EFEFEF"/>
<path d="M28.3125 27.7086L28.3264 27.6918C28.3264 27.689 28.3208 27.7002 28.3125 27.7086Z" fill="#EFEFEF"/>
<path d="M28.0786 28.3119C28.0814 28.3063 28.0731 28.3036 28.0703 28.3008C28.0731 28.3036 28.0731 28.3091 28.0731 28.3147C28.0731 28.3147 28.0759 28.3147 28.0786 28.3119Z" fill="#EFEFEF"/>
<path d="M28.0703 29.1016L28.0731 29.1071H28.0785L28.0703 29.1016Z" fill="#EFEFEF"/>
<path d="M29.3421 27.1133C29.3324 27.1165 29.3356 27.1133 29.3421 27.1133V27.1133Z" fill="#EFEFEF"/>
<path d="M30.9847 28.4602C30.9847 28.4311 31.0049 28.5009 31.002 28.4602C31.002 28.4631 30.9818 28.4253 30.9847 28.4602Z" fill="#EFEFEF"/>
<path d="M29.9205 27.1471C29.9205 27.1439 29.9173 27.1439 29.9141 27.1406C29.9141 27.1406 29.9141 27.1439 29.9205 27.1471Z" fill="#EFEFEF"/>
<path d="M30.1406 27.2188C30.1462 27.2215 30.1462 27.2243 30.1545 27.2271L30.1517 27.2243C30.1517 27.2243 30.1462 27.2243 30.1406 27.2188Z" fill="#EFEFEF"/>
<path d="M30.3442 27.3442L30.3414 27.3387L30.3359 27.3359L30.3442 27.3442Z" fill="#EFEFEF"/>
<path d="M28.6516 29.9767C28.6488 29.974 28.646 29.9684 28.646 29.9657C28.646 29.9712 28.6129 29.9546 28.6516 29.9767Z" fill="#EFEFEF"/>
<path d="M30.1797 27.168L30.2143 27.1854C30.2057 27.1796 30.1941 27.1738 30.1797 27.168Z" fill="#EFEFEF"/>
<path d="M30.3676 29.8516L30.3594 29.8571C30.3649 29.8571 30.3676 29.8543 30.3676 29.8516Z" fill="#EFEFEF"/>
<path d="M30.3125 27.2422C30.3181 27.2478 30.3236 27.2534 30.3292 27.259C30.3319 27.259 30.3347 27.259 30.3347 27.259C30.3264 27.2534 30.3208 27.2478 30.3125 27.2422Z" fill="#EFEFEF"/>
<path d="M28.4209 29.8307C28.4495 29.8538 28.4409 29.8336 28.4524 29.8336C28.4896 29.8596 28.4638 29.8538 28.4724 29.8653C28.4982 29.8797 28.5182 29.8884 28.5354 29.8999C28.5354 29.9028 28.5383 29.9057 28.5326 29.9028C28.5641 29.9115 28.6099 29.9489 28.6442 29.9576C28.6471 29.9605 28.6471 29.9633 28.6471 29.9633C28.6443 29.9547 28.6471 29.9518 28.65 29.9489C28.6643 29.9576 28.6815 29.9576 28.6843 29.9662C28.6757 29.9605 28.6729 29.9633 28.6672 29.9633L28.6843 29.9691C28.6958 29.9835 28.6614 29.9633 28.6586 29.9691C28.6929 29.9806 28.7302 29.9893 28.7531 30.0037C28.7531 30.0152 28.6958 29.9806 28.7244 30.0037L28.6901 29.9835C28.713 30.0095 28.6672 29.972 28.6872 29.9979C28.7359 30.021 28.7445 30.021 28.7932 30.0412C28.8075 30.0412 28.7932 30.0325 28.8046 30.0296C28.8791 30.044 28.8533 30.0729 28.9106 30.0758C28.9278 30.0729 28.9335 30.0613 28.9736 30.0758L28.9564 30.0844C29.008 30.0959 28.9879 30.0758 29.0395 30.093C29.028 30.0959 28.9994 30.0873 29.0051 30.0902C29.0395 30.1046 29.0309 30.0902 29.0566 30.0959L29.0595 30.1075C29.1139 30.1103 29.1769 30.1161 29.2371 30.1132C29.2342 30.1161 29.2227 30.119 29.2371 30.1219C29.3201 30.1219 29.3917 30.1248 29.4776 30.1248L29.5063 30.1132C29.512 30.1132 29.5177 30.1161 29.512 30.119C29.5406 30.119 29.512 30.1132 29.5263 30.1075C29.5435 30.1046 29.5492 30.1103 29.5378 30.1132C29.5893 30.0988 29.6781 30.0786 29.7325 30.0758L29.7239 30.0815C29.7669 30.0758 29.7669 30.0556 29.807 30.0556L29.8012 30.0585C29.89 30.0383 29.9845 30.0037 30.0533 29.9922C30.0619 29.9777 30.1392 29.9662 30.1392 29.9489C30.1907 29.9374 30.1764 29.946 30.248 29.9201C30.2652 29.9143 30.2709 29.8999 30.291 29.8855L30.2967 29.8942L30.3225 29.8711H30.3425L30.3626 29.8596C30.354 29.8625 30.3425 29.8653 30.3425 29.8625C30.3712 29.8423 30.4227 29.8279 30.4256 29.8307L30.4914 29.7789C30.4914 29.7817 30.48 29.7904 30.4714 29.799C30.5058 29.7673 30.4828 29.8019 30.5144 29.7731C30.5086 29.7731 30.5144 29.7673 30.5144 29.7644C30.5344 29.7587 30.5716 29.7299 30.5974 29.7068L30.5945 29.7154C30.6461 29.6809 30.6948 29.629 30.7463 29.58C30.7263 29.5944 30.7234 29.5829 30.7377 29.5684H30.7492C30.7549 29.554 30.732 29.58 30.7463 29.5569C30.7635 29.5367 30.7664 29.5511 30.7578 29.5656L30.775 29.5396C30.7778 29.5396 30.775 29.5454 30.775 29.5511C30.7778 29.5367 30.8179 29.5137 30.8236 29.4935H30.8265C30.8723 29.4387 30.8838 29.407 30.9182 29.3609C30.9124 29.3551 30.9267 29.3378 30.9267 29.3177C30.9468 29.2802 30.9783 29.2427 30.9955 29.1937C31.0041 29.1591 30.9926 29.1822 30.9926 29.1649C31.0012 29.1649 31.0155 29.1159 31.0127 29.1447C31.0327 29.0871 31.0356 29.0698 31.047 28.992C31.0413 29.0006 31.0384 29.0092 31.0384 29.0035C31.0413 28.9891 31.047 28.9718 31.0528 28.9747V28.9775C31.0585 28.8911 31.0986 28.7787 31.0814 28.7095V28.7124L31.0728 28.6403C31.0728 28.6086 31.0785 28.6605 31.0814 28.6345C31.0613 28.5596 31.0699 28.5135 31.0499 28.4501C31.0585 28.3982 31.0127 28.28 31.0012 28.2137L30.9983 28.2195C30.9869 28.205 30.9955 28.1993 30.9926 28.1877C30.9898 28.1906 30.9926 28.2079 30.9869 28.1964C30.9411 28.0609 30.8867 27.9139 30.8179 27.7813C30.7893 27.7352 30.7778 27.7698 30.752 27.7035L30.7692 27.715C30.7034 27.6286 30.6375 27.5305 30.5573 27.4585C30.563 27.4614 30.5659 27.4585 30.5716 27.4671C30.563 27.4441 30.5115 27.4066 30.5086 27.4124C30.4972 27.4008 30.5086 27.4066 30.5029 27.398C30.4886 27.3807 30.4542 27.3663 30.4513 27.3518C30.4513 27.349 30.4571 27.3547 30.4599 27.3576C30.4485 27.349 30.4055 27.3144 30.4141 27.3288C30.3855 27.3 30.3511 27.2855 30.3282 27.2625C30.3053 27.2596 30.2709 27.2221 30.2595 27.2308C30.2681 27.2221 30.2051 27.1818 30.1793 27.1789C30.1879 27.1789 30.1621 27.1645 30.1736 27.1645C30.1478 27.1529 30.122 27.1414 30.1249 27.1501C30.0819 27.1097 30.0218 27.1212 29.9989 27.0924C29.9158 27.0694 29.8356 27.0578 29.7583 27.0492C29.764 27.0348 29.8442 27.0607 29.8413 27.0492C29.7669 27.0377 29.7239 27.0492 29.6523 27.0348C29.6323 27.0319 29.6638 27.029 29.6695 27.029C29.595 27.0319 29.5263 27.0204 29.4633 27.0348C29.4633 27.0348 29.469 27.0319 29.4776 27.029C29.4662 27.029 29.449 27.029 29.449 27.0348L29.4604 27.0319C29.4805 27.0377 29.4118 27.0549 29.4089 27.0578C29.4289 27.0405 29.3459 27.0578 29.3774 27.0348C29.3688 27.0377 29.3602 27.0405 29.3602 27.0434C29.3488 27.0434 29.343 27.0434 29.3545 27.0348C29.3087 27.0463 29.3258 27.0492 29.2858 27.0549C29.2858 27.0521 29.2943 27.0492 29.2972 27.0463C29.2772 27.0549 29.2571 27.0636 29.2227 27.0694C29.2256 27.0665 29.2199 27.0665 29.2313 27.0636C29.1712 27.0751 29.1368 27.1039 29.071 27.1126C29.0853 27.0953 29.0481 27.1155 29.0423 27.1039C29.0309 27.1068 29.0194 27.1126 29.0108 27.1184H29.0251C28.9965 27.1299 28.9736 27.1472 28.9478 27.1529L28.9679 27.1414L28.9135 27.1645L28.945 27.1558C28.9163 27.1731 28.9535 27.1674 28.9135 27.1789C28.9192 27.1731 28.8848 27.1904 28.8676 27.1933C28.8562 27.202 28.8419 27.2135 28.8218 27.2221C28.8161 27.2221 28.8218 27.2106 28.8161 27.2077C28.8075 27.2221 28.7502 27.2423 28.7416 27.2625C28.7445 27.2567 28.7445 27.251 28.7416 27.251L28.7359 27.2654C28.7216 27.2711 28.7216 27.2711 28.7187 27.2654C28.6815 27.2884 28.7388 27.2682 28.6901 27.2913C28.6929 27.2884 28.6901 27.2884 28.6987 27.2827C28.6528 27.3057 28.6185 27.3403 28.5812 27.3691C28.5641 27.3691 28.6127 27.3403 28.5927 27.3432C28.5383 27.3864 28.4925 27.4441 28.4438 27.4902L28.4524 27.4815C28.4581 27.4988 28.4123 27.5104 28.3951 27.5421C28.4008 27.5363 28.3951 27.5277 28.3951 27.5305C28.3665 27.5651 28.335 27.6026 28.3035 27.6631L28.3063 27.6545C28.2891 27.6747 28.2662 27.7121 28.2462 27.7352C28.2433 27.7439 28.2376 27.7583 28.2462 27.7525C28.1832 27.8188 28.1774 27.9082 28.1316 27.9716C28.1345 27.9629 28.1373 27.9485 28.1345 27.9572C28.1259 27.9773 28.1173 28.0004 28.1116 28.0206C28.1202 28.0177 28.1173 28.0148 28.1288 28.0033C28.1288 28.0119 28.1259 28.0321 28.1202 28.0465C28.1259 28.0177 28.1087 28.0436 28.103 28.0552C28.1058 28.0552 28.1058 28.058 28.1087 28.058C28.0858 28.0869 28.1202 28.0667 28.0973 28.1099L28.0944 28.107C28.0915 28.1243 28.0887 28.1416 28.0829 28.1589C28.0743 28.1647 28.0829 28.1387 28.0801 28.1359C28.0715 28.1618 28.0801 28.1906 28.0686 28.2137C28.0715 28.1964 28.0715 28.1906 28.0743 28.1733C28.06 28.1964 28.06 28.2022 28.0543 28.2195V28.2166L28.04 28.2598L28.0457 28.2483C28.0572 28.2858 28.0371 28.3175 28.0428 28.3636C28.0371 28.3175 28.0371 28.3549 28.0285 28.3492C28.0257 28.3607 28.0199 28.378 28.0171 28.3722C28.0199 28.3953 28.0056 28.4068 28.0113 28.4385C28.0085 28.4385 28.0085 28.4616 28.0027 28.4558C28.0027 28.4846 28.0085 28.4501 28.0113 28.4529C28.0199 28.4962 27.9913 28.5538 28.0027 28.6172C28.0085 28.672 28.0199 28.6806 28.0228 28.7296C28.0199 28.7469 28.0113 28.7152 28.0113 28.7152C28.0085 28.7412 28.0085 28.7642 28.0142 28.7873C28.0113 28.7815 28.0085 28.7873 28.0085 28.7959C28.0113 28.8161 28.0199 28.8075 28.0171 28.8363C28.0142 28.8305 28.0085 28.8277 28.0027 28.8161C28.0085 28.8363 28.0142 28.868 28.0199 28.8882C28.0171 28.8968 28.0113 28.8738 28.0085 28.8651C28.0113 28.8939 28.0199 28.9372 28.0314 28.9458V28.9285C28.0342 28.9372 28.0257 28.9343 28.0228 28.9285C28.0142 28.9055 28.0228 28.8939 28.0257 28.8911L28.0285 28.9084C28.0428 28.8882 28.0199 28.8363 28.0171 28.8017L28.0314 28.8161L28.0171 28.7815C28.0199 28.7729 28.0257 28.7671 28.0285 28.7844C28.0314 28.7585 28.0228 28.7614 28.0285 28.7412C28.0285 28.7383 28.0314 28.7412 28.0314 28.7412L28.0285 28.7152C28.0314 28.721 28.0371 28.7095 28.0342 28.7268C28.04 28.6806 28.0228 28.6547 28.0342 28.6374V28.6403C28.0285 28.5769 28.0257 28.6345 28.0142 28.5884L28.0371 28.5567L28.0285 28.5509C28.0285 28.5452 28.0314 28.5308 28.0342 28.5336C28.0285 28.5106 28.0314 28.5365 28.0257 28.5221C28.0371 28.4933 28.0257 28.4356 28.0428 28.4299C28.0371 28.4183 28.0342 28.4587 28.0342 28.4241C28.0514 28.4155 28.0371 28.3866 28.0486 28.3578C28.0543 28.3665 28.0457 28.3924 28.0572 28.3665C28.0457 28.3492 28.0686 28.3117 28.0686 28.2886C28.0572 28.2858 28.0772 28.2368 28.0801 28.1993C28.0829 28.2022 28.1001 28.1272 28.1173 28.0955V28.0984C28.1087 28.0897 28.123 28.0523 28.1288 28.0263C28.1345 28.0292 28.1345 28.035 28.1345 28.0494L28.1431 28.0235C28.1431 28.0177 28.1431 28.009 28.1488 27.9917L28.1545 28.0004C28.1688 27.9687 28.1746 27.9341 28.1946 27.8937C28.1889 27.888 28.1631 27.9168 28.1774 27.8707C28.1803 27.8707 28.1889 27.8707 28.186 27.8851C28.186 27.8822 28.1889 27.8707 28.1946 27.8649L28.1918 27.8851C28.2032 27.8678 28.1918 27.8736 28.1975 27.8592C28.2032 27.862 28.2061 27.8505 28.2089 27.8534C28.2089 27.8563 28.2004 27.8649 28.2004 27.8707C28.2089 27.8534 28.2233 27.8361 28.229 27.8332C28.2261 27.8332 28.2233 27.8303 28.229 27.8188C28.2462 27.7871 28.2404 27.813 28.2519 27.7957C28.2519 27.7871 28.2662 27.7698 28.2605 27.764C28.2662 27.7554 28.2691 27.7554 28.2748 27.7525C28.2805 27.7352 28.3206 27.6833 28.3006 27.6949L28.2977 27.6977V27.6949C28.3235 27.6401 28.3722 27.5968 28.4066 27.5507L28.4094 27.5536C28.4295 27.5248 28.4581 27.4931 28.4724 27.4729C28.481 27.4643 28.4925 27.4585 28.4925 27.4643C28.5096 27.4441 28.5096 27.4383 28.5411 27.4153C28.5268 27.4383 28.5497 27.4124 28.524 27.4383C28.5497 27.4153 28.5583 27.4153 28.5841 27.3864C28.5784 27.4008 28.6099 27.3778 28.6213 27.3663L28.5984 27.3778C28.6127 27.3663 28.6242 27.3547 28.6385 27.3461V27.3605C28.6987 27.3288 28.733 27.274 28.7874 27.2625C28.7989 27.2481 28.7531 27.2769 28.7617 27.2625C28.7903 27.2452 28.8275 27.2452 28.8361 27.2394C28.8762 27.225 28.8676 27.2077 28.9106 27.1904C28.9049 27.1904 28.8934 27.1818 28.9249 27.1674C28.9564 27.1558 28.9679 27.1674 28.9507 27.176C28.945 27.1789 28.9392 27.1789 28.9392 27.1789C28.9306 27.1847 28.9192 27.1904 28.9306 27.1875L28.9335 27.1818C28.9507 27.1789 28.9908 27.1645 28.9822 27.1731C29.0051 27.1616 28.9908 27.1645 28.9736 27.1702C29.0137 27.1616 29.0337 27.1443 29.0767 27.1385C29.071 27.1385 29.0624 27.1357 29.0681 27.1357C29.1282 27.1241 29.0939 27.1212 29.134 27.1097C29.1597 27.1097 29.1282 27.1241 29.1683 27.1097C29.1941 27.1068 29.1769 27.1184 29.1655 27.1212C29.1998 27.1039 29.2371 27.1097 29.2571 27.1068L29.2371 27.1126C29.2485 27.1097 29.2571 27.1068 29.2686 27.1068L29.2571 27.1011C29.2686 27.1011 29.28 27.0982 29.28 27.1011C29.2915 27.0953 29.2686 27.0924 29.2915 27.0809C29.3087 27.0809 29.3402 27.0694 29.3459 27.078C29.2972 27.0838 29.3516 27.0867 29.3115 27.0953C29.3201 27.0924 29.3287 27.0924 29.3402 27.0895C29.343 27.0895 29.3373 27.0924 29.3344 27.0924C29.3831 27.0924 29.3545 27.078 29.4032 27.0751C29.3974 27.0809 29.4146 27.0838 29.4232 27.0809C29.4032 27.0809 29.4118 27.0722 29.4318 27.0665C29.4633 27.0694 29.4662 27.0607 29.4834 27.0607H29.4633C29.469 27.0549 29.4862 27.0549 29.5091 27.0521C29.512 27.0549 29.4891 27.0549 29.4977 27.0578C29.5235 27.0463 29.555 27.0694 29.5893 27.0636C29.6065 27.0665 29.5893 27.0722 29.6036 27.0751C29.6437 27.0694 29.6437 27.0809 29.6838 27.0809C29.6724 27.0722 29.6695 27.0751 29.701 27.0722C29.6781 27.0722 29.6581 27.0694 29.6351 27.0694C29.6495 27.0665 29.6638 27.0636 29.6781 27.0636C29.6581 27.0607 29.6351 27.0636 29.6237 27.0636C29.6437 27.0578 29.6409 27.0607 29.6323 27.0549C29.6581 27.0636 29.6867 27.0549 29.7182 27.0636L29.7153 27.0809C29.7612 27.0924 29.8012 27.0809 29.8614 27.1011L29.8413 27.0924C29.8499 27.0867 29.8786 27.1011 29.8986 27.1011C29.8958 27.1068 29.9072 27.1097 29.9129 27.1155C29.9129 27.1097 29.9559 27.1299 29.9645 27.1212L29.9874 27.1385C30.0332 27.1587 30.0475 27.1414 30.0905 27.1645C30.0762 27.1645 30.0934 27.176 30.0619 27.1674C30.0762 27.1731 30.0876 27.1818 30.0905 27.1789C30.0962 27.1875 30.1335 27.1904 30.1449 27.202C30.1535 27.202 30.1564 27.1991 30.1736 27.2077C30.1736 27.2106 30.1736 27.2106 30.1736 27.2106C30.1764 27.2077 30.1993 27.2221 30.1879 27.2077C30.2222 27.2481 30.311 27.2769 30.3339 27.3201C30.3626 27.3403 30.3998 27.3634 30.4227 27.3864C30.4198 27.3864 30.4198 27.3893 30.417 27.3835C30.4456 27.4181 30.4485 27.3893 30.48 27.4297C30.4914 27.4527 30.4571 27.4153 30.4657 27.4297C30.4571 27.447 30.5115 27.4671 30.5258 27.5017L30.5201 27.496C30.5315 27.519 30.5688 27.5392 30.5945 27.5709C30.5945 27.5709 30.5917 27.5709 30.5917 27.5738C30.6174 27.5911 30.6518 27.6343 30.6776 27.666C30.6633 27.6603 30.6633 27.6545 30.6633 27.6631C30.6747 27.6776 30.669 27.6516 30.6948 27.6804C30.6976 27.692 30.7091 27.7179 30.7034 27.7237L30.6862 27.6949C30.6862 27.715 30.7091 27.7323 30.7177 27.7496H30.712C30.7406 27.7929 30.7521 27.7871 30.7778 27.839V27.8332C30.8007 27.8563 30.7836 27.8591 30.8065 27.8822L30.8007 27.8966C30.8122 27.9139 30.8437 27.9543 30.858 27.9889C30.8437 27.9716 30.8208 27.9341 30.8036 27.9139C30.8122 27.9312 30.8351 27.9744 30.8437 27.9831C30.8408 27.9773 30.8322 27.9687 30.8322 27.96C30.8494 27.9802 30.8666 28.009 30.8809 28.0465C30.858 28.0465 30.9153 28.1474 30.9067 28.182C30.9382 28.2483 30.9468 28.3175 30.964 28.3982C30.9754 28.3665 30.9697 28.4212 30.9869 28.4126C30.9926 28.4328 30.9926 28.4385 30.9926 28.4414C30.9955 28.4616 30.9926 28.4818 30.9897 28.5019C30.9869 28.5163 30.984 28.4846 30.9812 28.4875C30.984 28.5308 30.9754 28.5048 30.9754 28.5336C30.9812 28.5279 30.9869 28.5481 30.9869 28.5711L30.9897 28.5365C31.0041 28.5942 30.984 28.5884 30.9955 28.6461L30.9897 28.6288C30.9926 28.6576 30.9926 28.7412 31.0069 28.77C31.0041 28.7758 30.9983 28.7815 30.9983 28.77C30.9897 28.8421 31.0012 28.9343 30.9754 28.9862L30.9726 28.9804C30.9697 28.9948 30.9754 29.0064 30.9668 29.0208C30.964 29.0208 30.964 29.015 30.9611 29.0208C30.9611 29.0294 30.9611 29.0582 30.9525 29.0727V29.0582C30.921 29.1217 30.9325 29.1649 30.9038 29.2197C30.8924 29.2139 30.8637 29.2629 30.8494 29.286V29.2831C30.8036 29.3494 30.7836 29.407 30.7349 29.4647C30.6948 29.4935 30.6203 29.5771 30.5544 29.6174C30.5659 29.6117 30.5602 29.6261 30.5487 29.6347C30.5344 29.6434 30.5144 29.6722 30.5086 29.6607L30.5144 29.6578C30.4972 29.6578 30.4714 29.6809 30.4456 29.6953L30.4513 29.7097C30.3769 29.7327 30.2852 29.8163 30.2394 29.8192C30.2251 29.8307 30.2051 29.8394 30.1879 29.8509L30.185 29.8423C30.1363 29.8625 30.1163 29.8711 30.0561 29.8942L30.0647 29.8855C30.0304 29.897 30.0304 29.923 30.0017 29.9345L29.9874 29.9259C29.9301 29.9489 29.8671 29.9518 29.8127 29.9806C29.8127 29.9777 29.8127 29.9749 29.8242 29.972C29.7955 29.9806 29.7153 29.9893 29.7268 30.0037C29.7239 29.9922 29.6638 30.0152 29.6323 30.0268L29.6351 30.0181C29.6094 30.0325 29.6094 30.0354 29.5693 30.044C29.5607 30.044 29.5607 30.0383 29.5721 30.0383C29.5406 30.0383 29.5492 30.0498 29.512 30.0498L29.5263 30.044C29.4948 30.0469 29.4977 30.0498 29.4805 30.0585C29.4605 30.0642 29.4204 30.0585 29.4146 30.0527C29.4118 30.0585 29.3946 30.0642 29.3745 30.0642C29.3717 30.0613 29.3774 30.0585 29.3831 30.0585C29.3287 30.0585 29.3029 30.07 29.2686 30.0613C29.2686 30.0585 29.2657 30.0585 29.2628 30.0556C29.3058 30.0556 29.3402 30.0585 29.3344 30.0585C29.3344 30.0498 29.3001 30.0498 29.3258 30.0383C29.3001 30.044 29.2514 30.0527 29.2199 30.0498L29.217 30.0469H29.2199C29.2113 30.0469 29.2056 30.0469 29.1998 30.0469C29.1884 30.044 29.1798 30.044 29.1741 30.0412C29.1712 30.0354 29.1368 30.0325 29.1196 30.0325C29.1196 30.0412 29.0996 30.0383 29.1168 30.0469C29.1139 30.0469 29.1197 30.0469 29.1311 30.0469C29.134 30.0469 29.134 30.0469 29.1397 30.0469C29.1512 30.0469 29.1655 30.0498 29.1827 30.0498C29.1683 30.0527 29.154 30.0556 29.1368 30.0469C29.1282 30.0498 29.1168 30.0556 29.1111 30.0585C29.0881 30.044 29.0452 30.0325 29.0423 30.0239C28.9908 30.0152 28.922 30.0037 28.8877 30.0066C28.8734 30.0037 28.8734 29.9979 28.8676 29.9922C28.8762 29.9922 28.8848 29.9979 28.8905 29.995C28.8619 29.9893 28.8075 29.9691 28.796 29.9777C28.7617 29.9605 28.8189 29.9777 28.7703 29.9605H28.7788C28.6958 29.9057 28.6185 29.9172 28.5354 29.8365C28.5412 29.8423 28.544 29.8452 28.544 29.848C28.4495 29.7644 28.335 29.6866 28.2777 29.5684C28.2576 29.5396 28.2519 29.5396 28.2376 29.5223L28.2404 29.5108L28.2147 29.482C28.1832 29.4387 28.1889 29.3926 28.1517 29.335L28.1488 29.3465C28.1402 29.3234 28.1173 29.2773 28.1259 29.2773C28.123 29.2744 28.1173 29.2715 28.1173 29.2629L28.1202 29.26C28.1116 29.2427 28.1058 29.2225 28.0973 29.2053C28.0887 29.1591 28.1173 29.2081 28.1001 29.1418C28.0915 29.1188 28.0686 29.0755 28.0686 29.0871C28.0715 29.0957 28.0715 29.113 28.0686 29.113L28.06 29.09C28.0457 29.09 28.0285 29.0727 28.0342 29.1332L28.0514 29.1707L28.0486 29.1851L28.04 29.1534C28.04 29.1735 28.0486 29.1851 28.0543 29.1966C28.0514 29.1995 28.0514 29.2081 28.0514 29.2139L28.0743 29.2485C28.0715 29.2543 28.06 29.2341 28.0629 29.26C28.0743 29.2773 28.0686 29.2398 28.0801 29.2687C28.0801 29.2888 28.0743 29.286 28.0887 29.3033C28.0858 29.3061 28.0829 29.3033 28.0772 29.2946C28.0887 29.3119 28.0973 29.3436 28.1087 29.3494C28.1087 29.3696 28.1345 29.4128 28.123 29.4157C28.1259 29.4214 28.1488 29.4445 28.1574 29.4589C28.1288 29.4358 28.1889 29.5194 28.1717 29.5194C28.1946 29.5367 28.2233 29.5944 28.2576 29.6261C28.2548 29.6261 28.2519 29.6232 28.249 29.6174C28.2634 29.6376 28.2634 29.6463 28.2719 29.6607C28.2834 29.6578 28.3063 29.6866 28.3292 29.6953C28.3435 29.7241 28.3063 29.6895 28.3063 29.7039C28.312 29.6982 28.3493 29.7356 28.3493 29.7241C28.3607 29.7443 28.3607 29.7414 28.3636 29.7558C28.375 29.75 28.3808 29.7702 28.4008 29.7789C28.4209 29.8077 28.398 29.7962 28.4295 29.8163C28.4495 29.848 28.4209 29.8307 28.4209 29.8307ZM29.2428 30.1103C29.2342 30.1103 29.2285 30.1103 29.2256 30.1103C29.2285 30.1132 29.2342 30.1132 29.2428 30.1103ZM29.3144 30.1132C29.3058 30.1132 29.2943 30.1132 29.2829 30.1132C29.28 30.1103 29.2829 30.1075 29.2915 30.1075C29.2886 30.1075 29.3058 30.1103 29.3144 30.1132ZM29.1655 30.0498C29.1769 30.0498 29.1798 30.0527 29.1827 30.0527C29.1769 30.0527 29.1712 30.0527 29.1626 30.0527L29.1655 30.0498Z" fill="#EFEFEF"/>
<path d="M30.2955 29.8939V29.8906L30.2891 29.8971L30.2955 29.8939Z" fill="#EFEFEF"/>
<path d="M28.0474 28.2305L28.0391 28.2528C28.0418 28.2417 28.0446 28.2361 28.0474 28.2305Z" fill="#EFEFEF"/>
<path d="M29.4766 27.0333C29.4793 27.0333 29.4793 27.0333 29.4821 27.0333C29.4932 27.0306 29.4849 27.0306 29.4766 27.0333Z" fill="#EFEFEF"/>
<path d="M28.8672 27.1985C28.8727 27.193 28.8782 27.1903 28.8838 27.1875C28.8727 27.1903 28.8672 27.193 28.8672 27.1985Z" fill="#EFEFEF"/>
<path d="M28.9087 27.1719C28.8972 27.1747 28.8886 27.1776 28.8828 27.1834C28.8914 27.1805 28.8972 27.1776 28.9087 27.1719Z" fill="#EFEFEF"/>
<path d="M28.029 28.9748L28.0234 28.9609C28.0234 28.9637 28.0262 28.972 28.029 28.9748Z" fill="#EFEFEF"/>
<path d="M28.0037 28.7109C28.0037 28.7225 27.9979 28.7426 28.0008 28.7628L28.0037 28.7657C27.9979 28.7542 28.0065 28.7225 28.0037 28.7109Z" fill="#EFEFEF"/>
<path d="M28.0448 28.4922L28.0391 28.5354C28.0419 28.5268 28.0477 28.5181 28.0477 28.5383C28.062 28.4835 28.0419 28.5498 28.0448 28.4922Z" fill="#EFEFEF"/>
<path d="M28.0631 28.355C28.0603 28.3774 28.0686 28.355 28.0686 28.3578C28.0686 28.341 28.0686 28.3382 28.0631 28.355Z" fill="#EFEFEF"/>
<path d="M28.5078 27.4821L28.5106 27.4875C28.5243 27.4738 28.5106 27.4848 28.5078 27.4821Z" fill="#EFEFEF"/>
<path d="M28.621 27.3281L28.6043 27.3365L28.6016 27.3477L28.621 27.3281Z" fill="#EFEFEF"/>
<path d="M28.7477 27.312L28.7422 27.3176L28.7644 27.3008L28.7477 27.312Z" fill="#EFEFEF"/>
<path d="M30.2987 27.3258V27.3147C30.2904 27.3091 30.282 27.3147 30.2987 27.3258Z" fill="#EFEFEF"/>
<path d="M30.7812 27.8516C30.7812 27.8603 30.787 27.8806 30.7986 27.8894C30.7899 27.8748 30.7841 27.8574 30.7812 27.8516Z" fill="#EFEFEF"/>
<path d="M30.4252 29.7377L30.4335 29.7266L30.4141 29.7433L30.4252 29.7377Z" fill="#EFEFEF"/>
<path d="M30.8548 28.4132C30.8548 28.4132 30.9951 28.6986 31.0151 28.762C31.0352 28.8254 31.1898 28.8225 31.2013 28.6697C31.2128 28.4997 31.1268 28.3354 31.0638 28.2604C30.9779 28.1567 30.7975 28.2201 30.8548 28.4132Z" fill="#EF5A2E"/>
<path d="M28.1266 28.6061C28.1266 28.6061 28.0579 28.9174 28.055 28.9837C28.0522 29.05 27.9004 29.0846 27.8517 28.9405C27.8001 28.779 27.8431 28.5975 27.886 28.511C27.9462 28.387 28.1381 28.4072 28.1266 28.6061Z" fill="#EF5A2E"/>
<path d="M29.1247 27.8183C29.1562 27.8125 29.1819 27.7577 29.1734 27.703C29.159 27.6251 29.1132 27.6107 29.0789 27.6136C29.0416 27.6165 29.0216 27.6828 29.0359 27.7404C29.0445 27.7866 29.0731 27.8269 29.1247 27.8183Z" fill="url(#paint22_linear_1233_28384)"/>
<path d="M29.6578 27.7128C29.6835 27.7128 29.7179 27.6551 29.7122 27.6003C29.7036 27.5225 29.6492 27.5052 29.6234 27.5081C29.5919 27.511 29.5633 27.5744 29.5719 27.6321C29.5804 27.6782 29.612 27.7156 29.6578 27.7128Z" fill="url(#paint23_linear_1233_28384)"/>
<path d="M29.6155 27.7623C29.6127 27.7536 29.6069 27.7479 29.5983 27.7507C29.5668 27.7565 29.458 27.7796 29.3979 27.7882C29.3435 27.7969 29.2833 27.8113 29.2547 27.817C29.2432 27.8199 29.2404 27.8286 29.2432 27.8401C29.2518 27.8718 29.289 27.9813 29.4494 27.9525C29.5726 27.9266 29.6241 27.8199 29.6155 27.7623Z" fill="url(#paint24_linear_1233_28384)"/>
<path d="M31.0044 30.4496L28.6159 30.7926C28.4584 30.8157 28.3095 30.7033 28.2866 30.5447L28.2608 30.3689C28.2379 30.2104 28.3496 30.0605 28.5071 30.0374L30.8955 29.6944C31.0531 29.6713 31.202 29.7838 31.2249 29.9423L31.2507 30.1181C31.2736 30.2795 31.1647 30.4266 31.0044 30.4496Z" fill="url(#paint25_linear_1233_28384)"/>
<path opacity="0.5" d="M31.1834 30.9042L28.4169 31.302C28.3797 31.3078 28.3453 31.2818 28.3425 31.2443L28.3367 31.204C28.331 31.1665 28.3568 31.1319 28.394 31.129L31.1605 30.7313C31.1977 30.7255 31.2321 30.7514 31.235 30.7889L31.2407 30.8293C31.2464 30.8667 31.2206 30.9013 31.1834 30.9042Z" fill="#BBBBBB"/>
<path opacity="0.5" d="M30.8408 31.2558L28.4638 31.5959C28.4266 31.6017 28.3922 31.5757 28.3893 31.5383L28.3836 31.4979C28.3779 31.4604 28.4037 31.4258 28.4409 31.423L30.8179 31.0828C30.8551 31.0771 30.8895 31.103 30.8923 31.1405L30.8981 31.1808C30.9038 31.2154 30.878 31.25 30.8408 31.2558Z" fill="#BBBBBB"/>
<path d="M30.5188 30.349C30.5172 30.3379 30.5159 30.3276 30.5149 30.318C30.5139 30.3081 30.5126 30.2979 30.5112 30.2876C30.5101 30.2772 30.5089 30.2663 30.5077 30.2547C30.5064 30.2428 30.5047 30.2295 30.5026 30.2148C30.5007 30.2021 30.4989 30.1905 30.4969 30.1798C30.4954 30.1691 30.4937 30.1588 30.4919 30.149C30.49 30.1387 30.4882 30.1287 30.4864 30.1188C30.4845 30.109 30.4828 30.0985 30.4813 30.0874C30.4802 30.0803 30.4816 30.0744 30.4854 30.0698C30.4895 30.0647 30.495 30.0619 30.5018 30.0613C30.5066 30.061 30.5108 30.0608 30.5144 30.0607C30.5185 30.0605 30.5232 30.06 30.5288 30.0592C30.5423 30.0573 30.5539 30.055 30.5636 30.0524C30.5737 30.0497 30.5829 30.0469 30.591 30.0441C30.5995 30.0413 30.6076 30.0387 30.6153 30.0364C30.6231 30.034 30.6313 30.0322 30.64 30.0309C30.6638 30.0275 30.686 30.0283 30.7065 30.0334C30.7274 30.0381 30.746 30.0465 30.7624 30.0587C30.7787 30.0709 30.792 30.0864 30.8024 30.1051C30.8131 30.1234 30.8202 30.1444 30.8236 30.1682C30.8257 30.1829 30.8278 30.1961 30.8299 30.2079C30.8319 30.2194 30.8337 30.2303 30.8352 30.2406C30.837 30.2508 30.8389 30.2609 30.8407 30.2707C30.8425 30.2802 30.8441 30.2904 30.8457 30.3015C30.8462 30.3051 30.8451 30.3085 30.8423 30.3118C30.8396 30.315 30.8359 30.3177 30.8314 30.32C30.8268 30.3223 30.8221 30.3242 30.817 30.3257C30.812 30.3273 30.8077 30.3283 30.8041 30.3288C30.8006 30.3294 30.7961 30.3296 30.7909 30.3295C30.7856 30.3295 30.7805 30.329 30.7755 30.3281C30.7705 30.3272 30.7662 30.3256 30.7627 30.3233C30.7591 30.321 30.7571 30.3181 30.7565 30.3145C30.755 30.3034 30.7537 30.2931 30.7527 30.2835C30.7517 30.2735 30.7504 30.2634 30.749 30.2531C30.7479 30.2427 30.7467 30.2318 30.7455 30.2202C30.7441 30.2083 30.7424 30.1949 30.7403 30.1803C30.7356 30.1474 30.7262 30.1253 30.712 30.114C30.6978 30.1023 30.6772 30.0984 30.6503 30.1023C30.6233 30.1062 30.6047 30.1158 30.5943 30.1311C30.5839 30.1459 30.5811 30.1698 30.5858 30.2027C30.5879 30.2174 30.59 30.2306 30.5921 30.2425C30.5941 30.2539 30.5959 30.2648 30.5974 30.2751C30.5992 30.2853 30.6011 30.2954 30.6029 30.3052C30.6047 30.3147 30.6063 30.325 30.6079 30.3361C30.6084 30.3396 30.6073 30.343 30.6045 30.3463C30.6018 30.3495 30.5981 30.3523 30.5936 30.3546C30.5891 30.3568 30.5843 30.3587 30.5792 30.3603C30.5742 30.3618 30.5699 30.3628 30.5663 30.3634C30.5628 30.3639 30.5583 30.3641 30.5531 30.3641C30.5478 30.364 30.5427 30.3636 30.5377 30.3627C30.5327 30.3618 30.5284 30.3602 30.5249 30.3579C30.5213 30.3555 30.5193 30.3526 30.5188 30.349Z" fill="white"/>
<path d="M30.1324 30.2699C30.129 30.2461 30.1296 30.224 30.1344 30.2035C30.1395 30.1825 30.1481 30.1638 30.1604 30.1475C30.1726 30.1312 30.1879 30.1178 30.2062 30.1075C30.2249 30.0966 30.2461 30.0895 30.2699 30.0861C30.2937 30.0826 30.3158 30.0834 30.3364 30.0885C30.3573 30.0932 30.3759 30.1016 30.3922 30.1138C30.4085 30.126 30.4219 30.1415 30.4322 30.1602C30.4429 30.1785 30.45 30.1995 30.4534 30.2233C30.4568 30.2471 30.456 30.2695 30.4509 30.2904C30.4461 30.311 30.4377 30.3294 30.4254 30.3457C30.4132 30.3621 30.3977 30.3755 30.379 30.3859C30.3607 30.3966 30.3397 30.4037 30.3159 30.4072C30.2921 30.4106 30.2698 30.4098 30.2488 30.4048C30.2283 30.4001 30.2099 30.3916 30.1936 30.3794C30.1773 30.3672 30.1638 30.352 30.1531 30.3337C30.1427 30.315 30.1358 30.2937 30.1324 30.2699ZM30.2097 30.2587C30.2144 30.2916 30.2248 30.3138 30.241 30.3252C30.2572 30.3362 30.2787 30.3397 30.3057 30.3358C30.3326 30.3319 30.3523 30.3224 30.3647 30.3072C30.377 30.2917 30.3808 30.2674 30.3761 30.2345C30.3714 30.2016 30.361 30.1797 30.3448 30.1687C30.3286 30.1573 30.3071 30.1535 30.2801 30.1574C30.2532 30.1613 30.2335 30.1711 30.2212 30.1866C30.2088 30.2018 30.205 30.2258 30.2097 30.2587Z" fill="white"/>
<path d="M29.818 30.0365C29.8216 30.036 29.826 30.0357 29.8313 30.0358C29.8365 30.0358 29.8417 30.0363 29.8466 30.0372C29.8516 30.0381 29.8559 30.0397 29.8595 30.042C29.863 30.0443 29.8651 30.0473 29.8656 30.0508C29.8674 30.0631 29.8693 30.0782 29.8715 30.0961C29.874 30.1136 29.8764 30.1316 29.8786 30.1503C29.8809 30.169 29.8831 30.1873 29.8853 30.2052C29.8874 30.2227 29.8894 30.2378 29.8912 30.2505C29.8924 30.2588 29.8951 30.2626 29.8995 30.262C29.9023 30.2616 29.9054 30.2591 29.9088 30.2546C29.9135 30.2482 29.9189 30.2408 29.925 30.2322C29.9314 30.2236 29.9377 30.215 29.9437 30.2064C29.9501 30.1974 29.9564 30.1888 29.9625 30.1806C29.9689 30.172 29.9745 30.1645 29.9793 30.1582C29.9837 30.1522 29.9892 30.1472 29.9959 30.143C30.003 30.1387 30.0101 30.1361 30.0172 30.135L30.0707 30.1273C30.0779 30.1262 30.0823 30.1272 30.0839 30.1302C30.0859 30.1332 30.0848 30.1376 30.0803 30.1435C30.0736 30.1526 30.0654 30.1636 30.056 30.1768C30.0465 30.1899 30.0369 30.2032 30.0271 30.2168C30.0173 30.2303 30.0083 30.2432 29.9999 30.2553C29.9915 30.2675 29.985 30.2769 29.9803 30.2837C29.9763 30.2899 29.9771 30.2954 29.9827 30.3003C29.9891 30.3054 29.998 30.3126 30.0094 30.3219C30.0209 30.3312 30.0332 30.3409 30.0464 30.3511C30.0596 30.3614 30.0726 30.3714 30.0853 30.3813C30.0981 30.3912 30.109 30.3995 30.118 30.4063C30.1239 30.4107 30.1263 30.4146 30.1252 30.418C30.1244 30.4214 30.1205 30.4235 30.1134 30.4246L30.0599 30.4324C30.0527 30.4334 30.0452 30.4329 30.0372 30.4308C30.0296 30.4287 30.0229 30.4254 30.017 30.421C30.0106 30.4162 30.0031 30.4106 29.9945 30.4042C29.9863 30.3977 29.9779 30.3912 29.9693 30.3848C29.961 30.3779 29.9526 30.3714 29.9441 30.3654C29.9359 30.3589 29.9286 30.3533 29.9222 30.3485C29.9177 30.3452 29.914 30.3437 29.9113 30.3441C29.9073 30.3446 29.9061 30.3491 29.9077 30.3573C29.9096 30.368 29.9119 30.3806 29.9144 30.3952C29.9169 30.4098 29.9191 30.4239 29.921 30.4373C29.9215 30.4409 29.9204 30.4443 29.9176 30.4475C29.9148 30.4508 29.9112 30.4535 29.9067 30.4558C29.9021 30.4581 29.8973 30.46 29.8923 30.4615C29.8873 30.4631 29.883 30.4641 29.8794 30.4646C29.8758 30.4651 29.8714 30.4654 29.8661 30.4653C29.8609 30.4653 29.8558 30.4648 29.8508 30.4639C29.8458 30.463 29.8415 30.4614 29.8379 30.4591C29.8344 30.4568 29.8323 30.4539 29.8318 30.4503C29.8302 30.4392 29.829 30.4289 29.828 30.4193C29.827 30.4093 29.8257 30.3992 29.8242 30.3889C29.8232 30.3785 29.822 30.3675 29.8207 30.356C29.8194 30.344 29.8177 30.3307 29.8156 30.3161C29.8142 30.3062 29.8123 30.2945 29.81 30.2811C29.808 30.2672 29.8057 30.2528 29.8032 30.2377C29.801 30.2223 29.7985 30.2065 29.7958 30.1903C29.7934 30.1736 29.7909 30.1578 29.7884 30.1428C29.7861 30.1273 29.7839 30.1129 29.7815 30.0995C29.7795 30.0856 29.7778 30.0737 29.7764 30.0638C29.7759 30.0602 29.777 30.0568 29.7798 30.0536C29.7826 30.0503 29.7862 30.0476 29.7908 30.0453C29.7953 30.043 29.8001 30.0411 29.8051 30.0396C29.8102 30.038 29.8145 30.037 29.818 30.0365Z" fill="white"/>
<path d="M29.4563 30.5053C29.4547 30.4942 29.4534 30.4838 29.4524 30.4743C29.4514 30.4643 29.4501 30.4542 29.4487 30.4439C29.4476 30.4335 29.4464 30.4225 29.4452 30.411C29.4439 30.399 29.4422 30.3857 29.4401 30.3711C29.4382 30.3584 29.4364 30.3467 29.4344 30.3361C29.4329 30.3254 29.4312 30.3151 29.4294 30.3052C29.4275 30.295 29.4257 30.2849 29.4239 30.2751C29.422 30.2652 29.4203 30.2547 29.4188 30.2436C29.4177 30.2365 29.4191 30.2306 29.4229 30.226C29.427 30.221 29.4325 30.2182 29.4393 30.2176C29.4441 30.2173 29.4483 30.2171 29.4519 30.217C29.456 30.2168 29.4607 30.2163 29.4663 30.2155C29.4798 30.2135 29.4914 30.2112 29.5011 30.2086C29.5112 30.2059 29.5204 30.2032 29.5285 30.2004C29.537 30.1975 29.5451 30.1949 29.5528 30.1926C29.5606 30.1903 29.5688 30.1885 29.5775 30.1872C29.6013 30.1837 29.6235 30.1846 29.644 30.1897C29.6649 30.1943 29.6835 30.2028 29.6999 30.215C29.7162 30.2272 29.7295 30.2426 29.7399 30.2613C29.7506 30.2796 29.7577 30.3007 29.7611 30.3244C29.7632 30.3391 29.7653 30.3524 29.7674 30.3642C29.7694 30.3756 29.7712 30.3865 29.7727 30.3968C29.7745 30.4071 29.7764 30.4171 29.7782 30.427C29.78 30.4364 29.7816 30.4467 29.7832 30.4578C29.7837 30.4614 29.7826 30.4648 29.7798 30.468C29.7771 30.4712 29.7734 30.474 29.7689 30.4763C29.7643 30.4785 29.7596 30.4805 29.7545 30.482C29.7495 30.4835 29.7452 30.4846 29.7416 30.4851C29.7381 30.4856 29.7336 30.4858 29.7284 30.4858C29.7231 30.4858 29.718 30.4853 29.713 30.4844C29.708 30.4835 29.7037 30.4819 29.7002 30.4796C29.6966 30.4773 29.6946 30.4743 29.694 30.4707C29.6925 30.4596 29.6912 30.4493 29.6902 30.4397C29.6892 30.4298 29.6879 30.4196 29.6865 30.4093C29.6854 30.399 29.6842 30.388 29.683 30.3765C29.6816 30.3645 29.6799 30.3512 29.6778 30.3365C29.6731 30.3036 29.6637 30.2815 29.6495 30.2702C29.6353 30.2585 29.6147 30.2546 29.5878 30.2586C29.5608 30.2625 29.5422 30.2721 29.5318 30.2873C29.5214 30.3022 29.5186 30.3261 29.5233 30.359C29.5254 30.3736 29.5275 30.3869 29.5296 30.3987C29.5316 30.4102 29.5334 30.421 29.5349 30.4313C29.5367 30.4416 29.5386 30.4516 29.5404 30.4615C29.5422 30.471 29.5438 30.4812 29.5454 30.4923C29.5459 30.4959 29.5448 30.4993 29.542 30.5025C29.5393 30.5058 29.5356 30.5085 29.5311 30.5108C29.5266 30.5131 29.5218 30.515 29.5167 30.5165C29.5117 30.5181 29.5074 30.5191 29.5038 30.5196C29.5003 30.5201 29.4958 30.5204 29.4906 30.5203C29.4853 30.5203 29.4802 30.5198 29.4752 30.5189C29.4702 30.518 29.4659 30.5164 29.4624 30.5141C29.4588 30.5118 29.4568 30.5088 29.4563 30.5053Z" fill="white"/>
<path d="M29.0621 30.4262C29.0587 30.4024 29.0593 30.3802 29.0641 30.3597C29.0692 30.3387 29.0778 30.3201 29.09 30.3037C29.1023 30.2874 29.1175 30.2741 29.1359 30.2637C29.1546 30.2529 29.1758 30.2458 29.1996 30.2423C29.2233 30.2389 29.2455 30.2397 29.2661 30.2448C29.287 30.2495 29.3056 30.2579 29.3219 30.2701C29.3382 30.2823 29.3515 30.2977 29.3619 30.3165C29.3726 30.3347 29.3797 30.3558 29.3831 30.3796C29.3865 30.4033 29.3857 30.4257 29.3806 30.4467C29.3758 30.4672 29.3674 30.4856 29.3551 30.502C29.3429 30.5183 29.3274 30.5317 29.3087 30.5421C29.2904 30.5529 29.2694 30.56 29.2456 30.5634C29.2218 30.5669 29.1995 30.5661 29.1785 30.561C29.158 30.5563 29.1396 30.5479 29.1233 30.5357C29.107 30.5235 29.0935 30.5082 29.0828 30.4899C29.0724 30.4712 29.0655 30.45 29.0621 30.4262ZM29.1394 30.415C29.1441 30.4479 29.1545 30.47 29.1707 30.4814C29.1869 30.4924 29.2084 30.496 29.2354 30.4921C29.2623 30.4881 29.282 30.4786 29.2944 30.4635C29.3067 30.4479 29.3105 30.4237 29.3058 30.3908C29.3011 30.3579 29.2907 30.3359 29.2745 30.3249C29.2583 30.3135 29.2367 30.3098 29.2098 30.3137C29.1829 30.3176 29.1632 30.3273 29.1509 30.3429C29.1385 30.358 29.1346 30.382 29.1394 30.415Z" fill="white"/>
<path d="M28.7141 30.6147C28.7125 30.6036 28.7112 30.5932 28.7102 30.5836C28.7092 30.5737 28.708 30.5635 28.7065 30.5532C28.7054 30.5429 28.7042 30.5319 28.703 30.5204C28.7017 30.5084 28.7 30.4951 28.6979 30.4804C28.696 30.4677 28.6942 30.4561 28.6922 30.4454C28.6907 30.4347 28.689 30.4245 28.6872 30.4146C28.6853 30.4044 28.6835 30.3943 28.6817 30.3844C28.6799 30.3746 28.6782 30.3641 28.6766 30.353C28.6755 30.3459 28.6769 30.34 28.6807 30.3354C28.6848 30.3304 28.6903 30.3276 28.6971 30.327C28.7019 30.3267 28.7061 30.3265 28.7098 30.3263C28.7138 30.3262 28.7186 30.3257 28.7241 30.3249C28.7376 30.3229 28.7492 30.3206 28.7589 30.318C28.7691 30.3153 28.7782 30.3126 28.7863 30.3098C28.7948 30.3069 28.8029 30.3043 28.8106 30.302C28.8184 30.2996 28.8266 30.2978 28.8354 30.2966C28.8591 30.2931 28.8813 30.2939 28.9019 30.2991C28.9228 30.3037 28.9414 30.3121 28.9577 30.3243C28.974 30.3365 28.9873 30.352 28.9977 30.3707C29.0084 30.389 29.0155 30.41 29.0189 30.4338C29.021 30.4485 29.0231 30.4617 29.0252 30.4736C29.0272 30.485 29.029 30.4959 29.0305 30.5062C29.0323 30.5164 29.0342 30.5265 29.036 30.5363C29.0378 30.5458 29.0394 30.5561 29.041 30.5672C29.0415 30.5707 29.0404 30.5741 29.0376 30.5774C29.0349 30.5806 29.0312 30.5834 29.0267 30.5856C29.0222 30.5879 29.0174 30.5898 29.0123 30.5914C29.0073 30.5929 29.003 30.5939 28.9994 30.5945C28.9959 30.595 28.9914 30.5952 28.9862 30.5952C28.9809 30.5951 28.9758 30.5947 28.9708 30.5938C28.9658 30.5929 28.9615 30.5913 28.958 30.5889C28.9544 30.5866 28.9524 30.5837 28.9519 30.5801C28.9503 30.569 28.949 30.5587 28.948 30.5491C28.947 30.5391 28.9457 30.529 28.9443 30.5187C28.9432 30.5083 28.942 30.4974 28.9408 30.4858C28.9395 30.4739 28.9378 30.4606 28.9357 30.4459C28.9309 30.413 28.9215 30.3909 28.9073 30.3796C28.8931 30.3679 28.8725 30.364 28.8456 30.3679C28.8186 30.3718 28.8 30.3814 28.7896 30.3967C28.7792 30.4116 28.7764 30.4354 28.7811 30.4683C28.7832 30.483 28.7853 30.4963 28.7874 30.5081C28.7894 30.5195 28.7912 30.5304 28.7927 30.5407C28.7946 30.551 28.7964 30.561 28.7982 30.5709C28.8 30.5803 28.8017 30.5906 28.8032 30.6017C28.8038 30.6053 28.8026 30.6087 28.7998 30.6119C28.7971 30.6151 28.7934 30.6179 28.7889 30.6202C28.7844 30.6225 28.7796 30.6244 28.7745 30.6259C28.7695 30.6274 28.7652 30.6285 28.7616 30.629C28.7581 30.6295 28.7537 30.6297 28.7484 30.6297C28.7431 30.6297 28.738 30.6292 28.733 30.6283C28.728 30.6274 28.7238 30.6258 28.7202 30.6235C28.7166 30.6212 28.7146 30.6182 28.7141 30.6147Z" fill="white"/>
<path d="M29.7944 26.3263C29.7944 26.3321 29.7944 26.335 29.7915 26.3407C29.7829 26.3811 29.7514 26.4157 29.7113 26.4272C29.7113 26.4214 29.7113 26.3811 29.6569 26.3667L29.1443 26.433C29.1385 26.4214 29.1328 26.4099 29.1328 26.3984C29.1328 26.3897 29.1328 26.3811 29.1328 26.3724C29.1357 26.3205 29.1758 26.2802 29.2273 26.2715L29.6684 26.2081C29.7285 26.1995 29.7858 26.2427 29.7944 26.3033C29.7944 26.3119 29.7944 26.3177 29.7944 26.3263Z" fill="url(#paint26_linear_1233_28384)"/>
<path opacity="0.6" d="M27.5459 27.3349L27.6404 27.3925C27.6576 27.404 27.6805 27.404 27.6977 27.3954L27.7979 27.3493C27.8523 27.3233 27.9153 27.3723 27.901 27.4329L27.8781 27.5424C27.8724 27.5626 27.8781 27.5828 27.8924 27.5972L27.9669 27.6779C28.0098 27.724 27.9812 27.7961 27.9211 27.8018L27.8122 27.8134C27.7922 27.8162 27.775 27.8278 27.7636 27.8451L27.7091 27.9431C27.6805 27.9978 27.6003 27.9921 27.5774 27.9373L27.5344 27.8364C27.5259 27.8162 27.5087 27.8047 27.4886 27.7989L27.3798 27.7788C27.3197 27.7672 27.2996 27.6923 27.3454 27.6491L27.4285 27.5741C27.4428 27.5597 27.4514 27.5395 27.4485 27.5193L27.4342 27.4098C27.4285 27.3464 27.4944 27.3032 27.5459 27.3349Z" fill="#F59C1D"/>
<path opacity="0.4" d="M31.2192 27.6664L31.2364 27.7125C31.2392 27.7212 31.2478 27.727 31.2564 27.7298L31.3051 27.7414C31.3309 27.7471 31.3395 27.7817 31.3165 27.799L31.2793 27.8307C31.2736 27.8365 31.2679 27.8451 31.2679 27.8538L31.2707 27.9028C31.2736 27.9287 31.2421 27.9489 31.2192 27.9316L31.1791 27.9057C31.1705 27.8999 31.1619 27.8999 31.1533 27.9028L31.1075 27.9201C31.0817 27.9316 31.0559 27.9085 31.0645 27.8797L31.076 27.8336C31.0788 27.825 31.076 27.8163 31.0703 27.8077L31.0388 27.7702C31.0216 27.75 31.0359 27.7183 31.0617 27.7154L31.1103 27.7125C31.1189 27.7125 31.1275 27.7068 31.1333 27.6981L31.159 27.6578C31.1762 27.6376 31.2106 27.6405 31.2192 27.6664Z" fill="#F59C1D"/>
<path d="M45.1803 33.106L45.5633 33.4784C45.6336 33.5469 45.7337 33.5768 45.8321 33.5575L46.3574 33.4538C46.6491 33.3958 46.8792 33.6963 46.7492 33.9633L46.512 34.443C46.4681 34.5326 46.4716 34.6362 46.5191 34.7223L46.7808 35.1896C46.9267 35.4479 46.7106 35.7624 46.4172 35.7202L45.8883 35.6447C45.79 35.6306 45.6916 35.6657 45.6248 35.7378L45.2611 36.1313C45.0591 36.3492 44.6954 36.242 44.6445 35.9486L44.5531 35.4215C44.5355 35.3231 44.4723 35.2406 44.3827 35.2002L43.896 34.9771C43.6255 34.8523 43.6167 34.4728 43.8785 34.334L44.3511 34.0846C44.4389 34.0389 44.4986 33.9528 44.5092 33.8544L44.5724 33.3238C44.6093 33.0251 44.966 32.8986 45.1803 33.106Z" fill="url(#paint27_linear_1233_28384)"/>
<path d="M4.47086 6.51273L4.54282 6.80399C4.55584 6.85784 4.59489 6.90259 4.64738 6.92363L4.92977 7.03801C5.08615 7.10134 5.10677 7.31208 4.96407 7.39477L4.70757 7.54365C4.66 7.57122 4.63007 7.62039 4.62722 7.67507L4.61212 7.97202C4.60383 8.13716 4.40777 8.21493 4.27939 8.10395L4.04911 7.90471C4.00676 7.86801 3.94894 7.85372 3.89497 7.86601L3.60394 7.93507C3.4423 7.97305 3.3003 7.81061 3.36421 7.6602L3.47874 7.38876C3.49982 7.33847 3.4944 7.28028 3.46347 7.23337L3.29851 6.97915C3.20681 6.83819 3.31584 6.65955 3.48283 6.67693L3.78379 6.70791C3.83959 6.71348 3.89374 6.69204 3.92832 6.6505L4.11702 6.42433C4.2216 6.29841 4.4311 6.35074 4.47086 6.51273Z" fill="url(#paint28_linear_1233_28384)"/>
<path d="M42.8458 19.0247C43.2093 19.1711 43.6228 18.9947 43.7695 18.6307C43.9161 18.2667 43.7403 17.853 43.3769 17.7065C43.0134 17.5601 42.5999 17.7365 42.4532 18.1005C42.3066 18.4645 42.4824 18.8782 42.8458 19.0247Z" fill="white"/>
<path d="M39.3468 20.2894L39.4844 20.4188C39.5097 20.4428 39.5457 20.4531 39.5806 20.4463L39.7689 20.41C39.8732 20.3899 39.9562 20.4943 39.9091 20.5869L39.8246 20.7536C39.8089 20.7845 39.8099 20.8208 39.8271 20.8507L39.9208 21.0129C39.9729 21.1031 39.896 21.2115 39.7902 21.1968L39.6003 21.1703C39.5654 21.1654 39.53 21.1777 39.5057 21.2027L39.3756 21.3389C39.3032 21.4144 39.1726 21.3772 39.1549 21.2757L39.1225 21.0929C39.1164 21.059 39.0937 21.0301 39.0613 21.0159L38.8871 20.9379C38.7905 20.8948 38.7869 20.7629 38.8811 20.7149L39.0506 20.6281C39.082 20.612 39.1033 20.5821 39.1073 20.5482L39.1296 20.3639C39.1418 20.2615 39.2703 20.2173 39.3468 20.2894Z" fill="url(#paint29_linear_1233_28384)"/>
<path d="M10.6579 24.5756C10.6579 24.5756 8.08471 21.9858 7.96723 21.9442C7.84975 21.9027 7.32221 22.4636 6.72757 22.9449C6.14228 23.4186 5.40464 23.9057 5.42027 24.0412C5.4359 24.1767 6.80089 26.5959 8.53159 27.4817C10.2623 28.3675 12.1166 26.4953 10.6579 24.5756Z" fill="url(#paint30_linear_1233_28384)"/>
<rect x="5.625" y="31.3125" width="36.5625" height="11.25" rx="5.625" fill="url(#paint31_linear_1233_28384)"/>
<path d="M18.2349 38.4031C18.3249 38.4031 18.3942 38.4275 18.443 38.4762C18.4955 38.5212 18.5217 38.585 18.5217 38.6675C18.5217 38.7537 18.4955 38.8212 18.443 38.87C18.3942 38.915 18.3249 38.9375 18.2349 38.9375H16.6599C16.5511 38.9375 16.4667 38.9056 16.4067 38.8419C16.3467 38.7781 16.3167 38.69 16.3167 38.5775V35.5062C16.3167 35.3937 16.3467 35.3056 16.4067 35.2419C16.4667 35.1781 16.5511 35.1462 16.6599 35.1462H18.2067C18.2967 35.1462 18.3661 35.1706 18.4149 35.2194C18.4674 35.2644 18.4936 35.33 18.4936 35.4162C18.4936 35.4987 18.4674 35.5644 18.4149 35.6131C18.3661 35.6581 18.2967 35.6806 18.2067 35.6806H16.9692V36.6706H18.0717C18.1617 36.6706 18.2311 36.695 18.2799 36.7437C18.3324 36.7887 18.3586 36.8525 18.3586 36.935C18.3586 37.0175 18.3324 37.0831 18.2799 37.1319C18.2311 37.1769 18.1617 37.1994 18.0717 37.1994H16.9692V38.4031H18.2349ZM21.1376 38.4819C21.1939 38.5644 21.222 38.6375 21.222 38.7012C21.222 38.78 21.192 38.8437 21.132 38.8925C21.0758 38.9413 21.012 38.9656 20.9408 38.9656C20.8433 38.9656 20.7589 38.9169 20.6876 38.8194L19.9901 37.8631L19.287 38.8081C19.212 38.9131 19.1201 38.9656 19.0114 38.9656C18.9401 38.9656 18.8801 38.9431 18.8314 38.8981C18.7826 38.8531 18.7583 38.795 18.7583 38.7237C18.7583 38.645 18.7864 38.57 18.8426 38.4987L19.5795 37.5031L18.9214 36.6087C18.8726 36.545 18.8483 36.47 18.8483 36.3837C18.8483 36.3087 18.8726 36.2469 18.9214 36.1981C18.9739 36.1456 19.0376 36.1194 19.1126 36.1194C19.2139 36.1194 19.2983 36.1681 19.3658 36.2656L19.9901 37.1206L20.6201 36.2825C20.7064 36.1737 20.7964 36.1194 20.8901 36.1194C20.9576 36.1194 21.0158 36.1437 21.0645 36.1925C21.117 36.2412 21.1433 36.2994 21.1433 36.3669C21.1433 36.4381 21.1151 36.5112 21.0589 36.5862L20.3951 37.4694L21.1376 38.4819ZM23.2516 36.08C23.5141 36.08 23.7466 36.1419 23.9491 36.2656C24.1516 36.3856 24.3091 36.5581 24.4216 36.7831C24.5341 37.0044 24.5904 37.2594 24.5904 37.5481C24.5904 37.8369 24.5341 38.0919 24.4216 38.3131C24.3091 38.5344 24.1516 38.7069 23.9491 38.8306C23.7466 38.9506 23.5141 39.0106 23.2516 39.0106C23.0529 39.0106 22.871 38.975 22.706 38.9037C22.5447 38.8325 22.4135 38.7331 22.3122 38.6056V39.6744C22.3122 39.8994 22.211 40.0119 22.0085 40.0119C21.911 40.0119 21.836 39.9819 21.7835 39.9219C21.731 39.8656 21.7047 39.7831 21.7047 39.6744V36.4006C21.7047 36.3106 21.7272 36.2412 21.7722 36.1925C21.821 36.14 21.8866 36.1137 21.9691 36.1137C22.0479 36.1137 22.1097 36.1381 22.1547 36.1869C22.2035 36.2319 22.2297 36.2994 22.2335 36.3894L22.2447 36.575C22.3422 36.4212 22.4791 36.3012 22.6554 36.215C22.8316 36.125 23.0304 36.08 23.2516 36.08ZM23.1391 38.5156C23.3829 38.5156 23.5816 38.4256 23.7354 38.2456C23.8891 38.0656 23.966 37.8331 23.966 37.5481C23.966 37.2594 23.8891 37.025 23.7354 36.845C23.5816 36.6612 23.3829 36.5694 23.1391 36.5694C22.8954 36.5694 22.6966 36.6612 22.5429 36.845C22.3891 37.025 22.3122 37.2594 22.3122 37.5481C22.3122 37.8331 22.3891 38.0656 22.5429 38.2456C22.6966 38.4256 22.8954 38.5156 23.1391 38.5156ZM26.3747 36.08C26.6259 36.08 26.8472 36.1325 27.0384 36.2375C27.2297 36.3425 27.3778 36.4925 27.4828 36.6875C27.5878 36.8787 27.6403 37.1019 27.6403 37.3569V37.4469C27.6403 37.5406 27.6141 37.6137 27.5616 37.6662C27.5128 37.7187 27.4397 37.745 27.3422 37.745H25.5647C25.5984 37.9962 25.6941 38.1894 25.8516 38.3244C26.0128 38.4556 26.2266 38.5212 26.4928 38.5212C26.6916 38.5212 26.8903 38.48 27.0891 38.3975C27.1453 38.3712 27.2053 38.3581 27.2691 38.3581C27.3328 38.3581 27.3853 38.3787 27.4266 38.42C27.4716 38.4612 27.4941 38.5137 27.4941 38.5775C27.4941 38.6787 27.4247 38.7669 27.2859 38.8419C27.1884 38.8944 27.0684 38.9356 26.9259 38.9656C26.7872 38.9956 26.6372 39.0106 26.4759 39.0106C26.1684 39.0106 25.8984 38.9506 25.6659 38.8306C25.4372 38.7069 25.2591 38.5344 25.1316 38.3131C25.0041 38.0919 24.9403 37.835 24.9403 37.5425C24.9403 37.2575 25.0003 37.0044 25.1203 36.7831C25.2441 36.5619 25.4147 36.3894 25.6322 36.2656C25.8497 36.1419 26.0972 36.08 26.3747 36.08ZM26.3409 36.5525C26.1347 36.5525 25.9622 36.6181 25.8234 36.7494C25.6884 36.8769 25.6022 37.0569 25.5647 37.2894H27.0384C27.0309 37.0606 26.9634 36.8806 26.8359 36.7494C26.7122 36.6181 26.5472 36.5525 26.3409 36.5525ZM29.4123 36.0856C29.5173 36.0856 29.5979 36.11 29.6541 36.1587C29.7104 36.2075 29.7385 36.2787 29.7385 36.3725C29.7385 36.47 29.7066 36.545 29.6429 36.5975C29.5829 36.65 29.4891 36.68 29.3616 36.6875C29.1741 36.7025 29.0373 36.77 28.951 36.89C28.8648 37.0062 28.8216 37.19 28.8216 37.4412V38.6337C28.8216 38.8587 28.7204 38.9713 28.5179 38.9713C28.4204 38.9713 28.3454 38.9431 28.2929 38.8869C28.2404 38.8269 28.2141 38.7425 28.2141 38.6337V36.3837C28.2141 36.3012 28.2366 36.2356 28.2816 36.1869C28.3266 36.1381 28.3885 36.1137 28.4673 36.1137C28.5423 36.1137 28.6023 36.1362 28.6473 36.1812C28.696 36.2262 28.7223 36.29 28.726 36.3725L28.7485 36.6312C28.816 36.4587 28.906 36.3256 29.0185 36.2319C29.1348 36.1344 29.266 36.0856 29.4123 36.0856ZM30.8204 38.9713C30.7229 38.9713 30.6479 38.9431 30.5954 38.8869C30.5429 38.8269 30.5166 38.7425 30.5166 38.6337V36.6256H30.2072C30.0347 36.6256 29.9485 36.545 29.9485 36.3837C29.9485 36.3087 29.971 36.2506 30.016 36.2094C30.061 36.1681 30.1247 36.1475 30.2072 36.1475H30.5166V35.6525C30.5166 35.5475 30.5429 35.4669 30.5954 35.4106C30.6479 35.3544 30.7229 35.3262 30.8204 35.3262C31.0229 35.3262 31.1241 35.435 31.1241 35.6525V36.1475H31.6472C31.7297 36.1475 31.7935 36.1681 31.8385 36.2094C31.8835 36.2506 31.906 36.3087 31.906 36.3837C31.906 36.4625 31.8835 36.5225 31.8385 36.5637C31.7935 36.605 31.7297 36.6256 31.6472 36.6256H31.1241V38.6337C31.1241 38.8587 31.0229 38.9713 30.8204 38.9713Z" fill="white"/>
<defs>
<linearGradient id="paint0_linear_1233_28384" x1="24" y1="18.1855" x2="22.6816" y2="41.8154" gradientUnits="userSpaceOnUse">
<stop offset="0.029" stop-color="#CCF3E9"/>
<stop offset="1" stop-color="#00CC99"/>
</linearGradient>
<linearGradient id="paint1_linear_1233_28384" x1="38.7895" y1="19.0978" x2="40.0536" y2="20.0587" gradientUnits="userSpaceOnUse">
<stop offset="0.000866505" stop-color="#FBDF8B"/>
<stop offset="1" stop-color="#F7BE73"/>
</linearGradient>
<linearGradient id="paint2_linear_1233_28384" x1="23.8617" y1="36.5064" x2="23.9133" y2="41.4027" gradientUnits="userSpaceOnUse">
<stop offset="0.0292" stop-color="#FEDBCC"/>
<stop offset="0.3009" stop-color="#FDCCB7"/>
<stop offset="0.7457" stop-color="#FBB79A"/>
<stop offset="1" stop-color="#FAAF8F"/>
</linearGradient>
<linearGradient id="paint3_linear_1233_28384" x1="29.3911" y1="4.2445" x2="33.951" y2="6.03622" gradientUnits="userSpaceOnUse">
<stop offset="0.000866505" stop-color="#FBDF8B"/>
<stop offset="1" stop-color="#F7BE73"/>
</linearGradient>
<linearGradient id="paint4_linear_1233_28384" x1="1.61274" y1="10.8987" x2="2.64911" y2="12.6478" gradientUnits="userSpaceOnUse">
<stop offset="0.000866505" stop-color="#FBDF8B"/>
<stop offset="1" stop-color="#F7BE73"/>
</linearGradient>
<linearGradient id="paint5_linear_1233_28384" x1="37.2377" y1="7.71121" x2="38.2741" y2="9.4603" gradientUnits="userSpaceOnUse">
<stop offset="0.000866505" stop-color="#FBDF8B"/>
<stop offset="1" stop-color="#F7BE73"/>
</linearGradient>
<linearGradient id="paint6_linear_1233_28384" x1="39.1501" y1="20.3134" x2="39.1055" y2="14.2772" gradientUnits="userSpaceOnUse">
<stop stop-color="#A5A5B6"/>
<stop offset="1" stop-color="#6A6A7C"/>
</linearGradient>
<linearGradient id="paint7_linear_1233_28384" x1="27.0318" y1="18.0802" x2="15.5281" y2="49.7857" gradientUnits="userSpaceOnUse">
<stop offset="0.000866505" stop-color="#FCFCFC"/>
<stop offset="1" stop-color="#DCDCDC"/>
</linearGradient>
<linearGradient id="paint8_linear_1233_28384" x1="23.0656" y1="15.0464" x2="22.4762" y2="17.5719" gradientUnits="userSpaceOnUse">
<stop offset="0.000604984" stop-color="#EE883F"/>
<stop offset="1" stop-color="#F05B2E"/>
</linearGradient>
<linearGradient id="paint9_linear_1233_28384" x1="28.6988" y1="13.2147" x2="31.1281" y2="14.6373" gradientUnits="userSpaceOnUse">
<stop offset="0.000604984" stop-color="#EE883F"/>
<stop offset="1" stop-color="#F05B2E"/>
</linearGradient>
<linearGradient id="paint10_linear_1233_28384" x1="25.6664" y1="19.6843" x2="26.8814" y2="35.1995" gradientUnits="userSpaceOnUse">
<stop stop-color="white"/>
<stop offset="1" stop-color="#E7E7E7"/>
</linearGradient>
<linearGradient id="paint11_linear_1233_28384" x1="23.6275" y1="20.7048" x2="26.5851" y2="39.8851" gradientUnits="userSpaceOnUse">
<stop stop-color="#A5A5B6"/>
<stop offset="1" stop-color="#6A6A7C"/>
</linearGradient>
<linearGradient id="paint12_linear_1233_28384" x1="30.1733" y1="22.0068" x2="30.8121" y2="28.8097" gradientUnits="userSpaceOnUse">
<stop stop-color="white"/>
<stop offset="1" stop-color="#E7E7E7"/>
</linearGradient>
<linearGradient id="paint13_linear_1233_28384" x1="30.167" y1="22.0011" x2="30.818" y2="28.8028" gradientUnits="userSpaceOnUse">
<stop stop-color="white"/>
<stop offset="1" stop-color="#E7E7E7"/>
</linearGradient>
<linearGradient id="paint14_linear_1233_28384" x1="32.5669" y1="25.1252" x2="28.7649" y2="26.0491" gradientUnits="userSpaceOnUse">
<stop offset="0.000604984" stop-color="#EE883F"/>
<stop offset="0.2852" stop-color="#EE813C"/>
<stop offset="0.7014" stop-color="#EF6D35"/>
<stop offset="1" stop-color="#F05B2E"/>
</linearGradient>
<linearGradient id="paint15_linear_1233_28384" x1="15.9772" y1="13.2895" x2="17.2204" y2="3.58265" gradientUnits="userSpaceOnUse">
<stop stop-color="#F7BF74"/>
<stop offset="1" stop-color="#F9D081"/>
</linearGradient>
<linearGradient id="paint16_linear_1233_28384" x1="27.4923" y1="16.4758" x2="28.5285" y2="20.0296" gradientUnits="userSpaceOnUse">
<stop offset="0.000604984" stop-color="#EE883F"/>
<stop offset="1" stop-color="#F05B2E"/>
</linearGradient>
<linearGradient id="paint17_linear_1233_28384" x1="6.18772" y1="24.8815" x2="40.1194" y2="20.3207" gradientUnits="userSpaceOnUse">
<stop stop-color="#2EB9A3"/>
<stop offset="1" stop-color="#6DE9B6"/>
</linearGradient>
<linearGradient id="paint18_linear_1233_28384" x1="27.6079" y1="26.9255" x2="31.63" y2="31.5963" gradientUnits="userSpaceOnUse">
<stop offset="0.000604984" stop-color="#EE883F"/>
<stop offset="1" stop-color="#F05B2E"/>
</linearGradient>
<linearGradient id="paint19_linear_1233_28384" x1="27.4999" y1="33.1425" x2="30.027" y2="28.1141" gradientUnits="userSpaceOnUse">
<stop offset="0.000604984" stop-color="#EE883F"/>
<stop offset="1" stop-color="#F05B2E"/>
</linearGradient>
<linearGradient id="paint20_linear_1233_28384" x1="29.2692" y1="27.6415" x2="29.6555" y2="29.9711" gradientUnits="userSpaceOnUse">
<stop offset="0.000866505" stop-color="#FBDF8B"/>
<stop offset="1" stop-color="#F7BE73"/>
</linearGradient>
<linearGradient id="paint21_linear_1233_28384" x1="28.89" y1="27.6036" x2="30.1603" y2="29.7619" gradientUnits="userSpaceOnUse">
<stop offset="0.000866505" stop-color="#FCFCFC"/>
<stop offset="1" stop-color="#DCDCDC"/>
</linearGradient>
<linearGradient id="paint22_linear_1233_28384" x1="28.9564" y1="27.3686" x2="29.2667" y2="28.0974" gradientUnits="userSpaceOnUse">
<stop offset="0.000604984" stop-color="#EE883F"/>
<stop offset="1" stop-color="#F05B2E"/>
</linearGradient>
<linearGradient id="paint23_linear_1233_28384" x1="29.4401" y1="27.1272" x2="29.7504" y2="27.856" gradientUnits="userSpaceOnUse">
<stop offset="0.000604984" stop-color="#EE883F"/>
<stop offset="1" stop-color="#F05B2E"/>
</linearGradient>
<linearGradient id="paint24_linear_1233_28384" x1="29.2129" y1="27.2882" x2="29.5141" y2="28.0209" gradientUnits="userSpaceOnUse">
<stop offset="0.000604984" stop-color="#EE883F"/>
<stop offset="1" stop-color="#F05B2E"/>
</linearGradient>
<linearGradient id="paint25_linear_1233_28384" x1="29.7064" y1="29.8672" x2="29.8213" y2="30.6676" gradientUnits="userSpaceOnUse">
<stop offset="0.000604984" stop-color="#EE883F"/>
<stop offset="1" stop-color="#F05B2E"/>
</linearGradient>
<linearGradient id="paint26_linear_1233_28384" x1="29.4928" y1="26.5386" x2="29.451" y2="26.2893" gradientUnits="userSpaceOnUse">
<stop offset="0.000604984" stop-color="#EE883F"/>
<stop offset="1" stop-color="#F05B2E"/>
</linearGradient>
<linearGradient id="paint27_linear_1233_28384" x1="43.1025" y1="32.9259" x2="46.7108" y2="35.582" gradientUnits="userSpaceOnUse">
<stop offset="0.000866505" stop-color="#FBDF8B"/>
<stop offset="1" stop-color="#F7BE73"/>
</linearGradient>
<linearGradient id="paint28_linear_1233_28384" x1="3.53183" y1="5.78588" x2="4.38515" y2="8.15859" gradientUnits="userSpaceOnUse">
<stop offset="0.000866505" stop-color="#FBDF8B"/>
<stop offset="1" stop-color="#F7BE73"/>
</linearGradient>
<linearGradient id="paint29_linear_1233_28384" x1="38.602" y1="20.2267" x2="39.8661" y2="21.1876" gradientUnits="userSpaceOnUse">
<stop offset="0.000866505" stop-color="#FBDF8B"/>
<stop offset="1" stop-color="#F7BE73"/>
</linearGradient>
<linearGradient id="paint30_linear_1233_28384" x1="9.1588" y1="27.8515" x2="7.55731" y2="22.0314" gradientUnits="userSpaceOnUse">
<stop stop-color="#A5A5B6"/>
<stop offset="1" stop-color="#6A6A7C"/>
</linearGradient>
<linearGradient id="paint31_linear_1233_28384" x1="42.1875" y1="36.9375" x2="6.49633" y2="38.9315" gradientUnits="userSpaceOnUse">
<stop stop-color="#F05B2F"/>
<stop offset="1" stop-color="#F48565"/>
</linearGradient>
</defs>
</svg>
