<svg width="24" height="25" viewBox="0 0 24 25" fill="none" xmlns="http://www.w3.org/2000/svg">
<path d="M15.242 12.9707C15.0812 12.8996 14.9174 12.8339 14.7504 12.7737C14.3598 12.6308 13.9583 12.5194 13.5498 12.4408C13.5464 12.4408 13.5416 12.4408 13.5382 12.4385C13.3359 12.399 13.1277 12.3661 12.9205 12.3437C12.9119 12.3425 12.9032 12.3417 12.8944 12.3415C12.7765 12.3288 12.6567 12.3187 12.5376 12.3109C12.4186 12.3031 12.2887 12.296 12.1644 12.2937C12.1099 12.2937 12.0558 12.2915 12.0013 12.2915C11.852 12.2915 11.7027 12.296 11.5534 12.3049C11.524 12.3049 11.4934 12.3086 11.4639 12.3109C11.3441 12.3176 11.2216 12.3277 11.103 12.3415C11.0962 12.3415 11.0895 12.3415 11.0824 12.3437C11.05 12.3471 11.0194 12.3516 10.9876 12.3549C10.8111 12.3762 10.6368 12.4057 10.4651 12.4385C10.0523 12.5176 9.64654 12.63 9.25179 12.7744C9.05137 12.8468 8.85431 12.9271 8.6621 13.0155C7.6472 13.4775 6.73947 14.1456 5.99656 14.9772C5.83583 15.1548 5.68417 15.3388 5.5416 15.5292C5.27332 15.8889 5.03514 16.2701 4.8295 16.669C4.30325 17.6903 4.00262 18.8128 3.94795 19.9604C3.94198 20.0907 3.9375 20.2217 3.9375 20.3534C3.9375 20.6113 4.20585 20.858 4.65073 21.0868C6.1981 21.8803 9.90007 22.4461 12.0009 22.4461C16.4538 22.4461 20.0625 21.4354 20.0625 20.3534C20.0628 18.7877 19.607 17.2557 18.751 15.9446C17.8949 14.6336 16.6756 13.6002 15.242 12.9707Z" fill="#24CAB1"/>
<path d="M15.0348 3.79209C14.4588 3.23323 13.7396 2.84421 12.9567 2.66794C12.2038 2.49928 11.4196 2.53345 10.6843 2.76694C9.94891 3.00044 9.28868 3.4249 8.771 3.99699C8.73368 4.03768 8.6986 4.07836 8.66352 4.12016C7.99847 4.91057 7.63604 5.91162 7.64096 6.94458C7.64588 7.97754 8.01784 8.97511 8.69039 9.75914C8.72435 9.7987 8.75831 9.83826 8.7934 9.8767C8.9283 10.0242 9.07401 10.1614 9.22932 10.2873C9.31777 10.3597 9.40921 10.4287 9.50326 10.4933C9.64617 10.595 9.7958 10.6869 9.95113 10.7683C10.145 10.8724 10.3467 10.9614 10.5543 11.0345C10.6952 11.0849 10.8388 11.1272 10.9846 11.1613C11.0297 11.1736 11.0749 11.1837 11.1204 11.1927L11.1462 11.1987C11.2619 11.2211 11.3783 11.2393 11.4985 11.2517H11.5007C11.5175 11.2539 11.5347 11.255 11.5515 11.2573C11.7002 11.2734 11.8498 11.2814 11.9994 11.2811C12.1661 11.2811 12.3328 11.2713 12.4984 11.2517H12.5006C12.5234 11.2494 12.5473 11.2461 12.5696 11.2427C12.6637 11.2315 12.7563 11.2166 12.8496 11.1975L12.8697 11.1938C13.0654 11.1537 13.2583 11.1008 13.4471 11.0356L13.549 10.9982C13.8848 10.8706 14.203 10.7009 14.4962 10.4933C15.0029 10.1403 15.4286 9.68354 15.7453 9.1534C16.0619 8.62326 16.2622 8.03183 16.3328 7.41837C16.4034 6.80492 16.3427 6.18346 16.1547 5.59526C15.9668 5.00705 15.6559 4.46556 15.2426 4.0067C15.1762 3.93355 15.1061 3.86114 15.0348 3.79209Z" fill="#24CAB1"/>
</svg>
