<svg width="32" height="32" viewBox="0 0 32 32" fill="none" xmlns="http://www.w3.org/2000/svg">
<g clip-path="url(#clip0_1303_30351)">
<path d="M8.01803 1.38458C7.10577 1.38458 6.35938 2.13098 6.35938 3.04324V26.2644C6.35938 27.1766 7.10577 27.923 8.01803 27.923H24.6046C25.5168 27.923 26.2632 27.1766 26.2632 26.2644V8.0192L19.6286 1.38458H8.01803Z" fill="#E2E2E2"/>
<path d="M21.2915 8.0192H26.2674L19.6328 1.38458V6.36054C19.6328 7.2728 20.3792 8.0192 21.2915 8.0192Z" fill="#B5B5B5"/>
<path d="M26.265 12.9951L21.2891 8.01917H26.265V12.9951Z" fill="#CACACA"/>
<path d="M22.9507 22.9471C22.9507 23.4032 22.5775 23.7764 22.1214 23.7764H3.8762C3.42007 23.7764 3.04688 23.4032 3.04688 22.9471V14.6539C3.04688 14.1977 3.42007 13.8245 3.8762 13.8245H22.1214C22.5775 13.8245 22.9507 14.1977 22.9507 14.6539V22.9471Z" fill="#DE3A45"/>
<path d="M6.65625 17.0979C6.65625 16.8789 6.82875 16.6401 7.10657 16.6401H8.63834C9.50084 16.6401 10.2771 17.2173 10.2771 18.3236C10.2771 19.3719 9.50084 19.9557 8.63834 19.9557H7.53119V20.8315C7.53119 21.1234 7.34542 21.2885 7.10657 21.2885C6.88763 21.2885 6.65625 21.1234 6.65625 20.8315V17.0979ZM7.53119 17.4752V19.1272H8.63834C9.08286 19.1272 9.43449 18.735 9.43449 18.3236C9.43449 17.86 9.08286 17.4752 8.63834 17.4752H7.53119Z" fill="white"/>
<path d="M11.575 21.2885C11.356 21.2885 11.1172 21.1691 11.1172 20.878V17.1112C11.1172 16.8732 11.356 16.6998 11.575 16.6998H13.0935C16.1238 16.6998 16.0575 21.2885 13.1532 21.2885H11.575ZM11.993 17.5093V20.4799H13.0935C14.884 20.4799 14.9636 17.5093 13.0935 17.5093H11.993Z" fill="white"/>
<path d="M17.1331 17.5622V18.6163H18.8241C19.0629 18.6163 19.3018 18.8551 19.3018 19.0865C19.3018 19.3054 19.0629 19.4846 18.8241 19.4846H17.1331V20.877C17.1331 21.1092 16.9681 21.2875 16.7359 21.2875C16.4439 21.2875 16.2656 21.1092 16.2656 20.877V17.1102C16.2656 16.8722 16.4448 16.6989 16.7359 16.6989H19.0638C19.3557 16.6989 19.5282 16.8722 19.5282 17.1102C19.5282 17.3225 19.3557 17.5614 19.0638 17.5614H17.1331V17.5622Z" fill="white"/>
<path d="M22.1166 23.7765H6.35938V24.6058H22.1166C22.5727 24.6058 22.9459 24.2326 22.9459 23.7765V22.9471C22.9459 23.4033 22.5727 23.7765 22.1166 23.7765Z" fill="#CACACA"/>
</g>
<defs>
<clipPath id="clip0_1303_30351">
<rect width="26.5385" height="26.5385" fill="white" transform="translate(1.38281 1.38464)"/>
</clipPath>
</defs>
</svg>
