<svg width="12" height="12" viewBox="0 0 12 12" fill="none" xmlns="http://www.w3.org/2000/svg">
<path d="M10.7803 3.00757C10.7709 3.56825 10.5958 4.00798 10.2399 4.36614C9.4971 5.1134 8.74872 5.8541 8.00409 6.59855C6.83889 7.76304 5.67558 8.92846 4.50851 10.0911C4.457 10.1417 4.38394 10.1848 4.31369 10.2008C3.43605 10.3949 2.55654 10.5833 1.67796 10.7718C1.39228 10.8327 1.16655 10.5908 1.2293 10.3058C1.41944 9.43945 1.60209 8.57124 1.79317 7.70584C1.81003 7.62802 1.85311 7.54552 1.90837 7.48926C3.43699 5.95817 4.96934 4.42896 6.5017 2.90069C6.91383 2.49002 7.30628 2.05592 7.74463 1.67525C8.82178 0.737663 10.475 1.32178 10.7475 2.72161C10.7691 2.83412 10.7747 2.94944 10.7812 3.00851L10.7803 3.00757ZM2.06854 9.92044C2.09289 9.92044 2.10788 9.92325 2.12193 9.92044C2.73169 9.79011 3.34238 9.66166 3.95027 9.52571C4.01958 9.51071 4.09077 9.46477 4.14135 9.41414C5.53883 8.02181 6.9335 6.62761 8.33004 5.23435C8.36001 5.20529 8.39935 5.1856 8.42558 5.16685C7.88888 4.63054 7.37185 4.11487 6.85201 3.59544C6.85013 3.59732 6.83702 3.60576 6.82672 3.61607C5.39926 5.04215 3.97088 6.46916 2.54436 7.89711C2.51158 7.92993 2.48816 7.97868 2.47786 8.02463C2.41791 8.28528 2.36265 8.54686 2.30645 8.80845C2.22683 9.17693 2.14909 9.54634 2.06854 9.92137V9.92044ZM7.414 3.05258C7.92634 3.5645 8.4415 4.07924 8.94823 4.58554C9.21049 4.33051 9.48586 4.0708 9.75187 3.80171C10.1481 3.40042 10.1378 2.71036 9.73876 2.29313C9.3463 1.8834 8.65037 1.83746 8.23918 2.21531C7.94976 2.48158 7.68563 2.77505 7.414 3.05258Z" fill="#24CAB1"/>
</svg>
