<svg width="24" height="25" viewBox="0 0 24 25" fill="none" xmlns="http://www.w3.org/2000/svg">
<path fill-rule="evenodd" clip-rule="evenodd" d="M14.9275 12.6545C16.2074 13.1092 17.8211 14.2214 18.7352 15.4955C19.6014 16.7028 20.0627 18.1139 20.0625 19.5565C20.0624 20.5016 19.2459 21.0375 18.8508 21.2552C18.3473 21.5326 17.7094 21.7441 17.0376 21.9067C15.6737 22.2368 13.8621 22.4375 11.907 22.4375C10.9268 22.4375 9.62982 22.3198 8.41749 22.1276C7.24194 21.9412 5.96441 21.6575 5.11539 21.2613L5.11411 21.2607L5.11392 21.2606C4.86416 21.1437 4.57211 20.9816 4.32406 20.7562C4.08063 20.535 3.75 20.1301 3.75 19.5565C3.75 19.4281 3.75478 19.3063 3.76023 19.1982L3.76034 19.1959C3.81574 18.1376 4.12037 17.1026 4.65338 16.1611L4.65354 16.1608C4.86118 15.7943 5.10175 15.4439 5.3726 15.1134L5.37409 15.1115L5.37424 15.1114C5.51436 14.9411 7.02519 13.2554 8.93719 12.6341C9.44293 12.4408 10.5071 12.1319 11.8125 12.1319C11.8292 12.1319 11.8458 12.132 11.8624 12.1321C11.8774 12.132 11.8924 12.1319 11.9073 12.1319C11.945 12.1319 11.9803 12.1326 12.0012 12.133L12.0015 12.133L11.9855 12.1334C11.9938 12.1335 12.0022 12.1337 12.0105 12.1338L12.0015 12.133L12.0046 12.1331C12.0298 12.1335 12.0379 12.1336 12.0437 12.1336H12.0565L12.0692 12.1339C12.2059 12.1361 12.3402 12.143 12.4487 12.1495C12.555 12.1559 12.6641 12.164 12.7739 12.1744C12.7973 12.176 12.8205 12.1781 12.8433 12.1807C13.0103 12.1975 13.1748 12.2197 13.3336 12.2456H13.3372L13.4117 12.2586L13.4121 12.2587C13.4249 12.2609 13.4376 12.2631 13.4503 12.2654C13.5185 12.2767 13.5849 12.2886 13.6496 12.3008L13.7412 12.3171L13.7449 12.3194C14.2794 12.4266 14.6838 12.5583 14.9275 12.6545ZM11.4832 13.6176L11.494 13.6167C11.5135 13.6151 11.524 13.6144 11.5328 13.6144H11.538L11.5432 13.6141C11.6646 13.6075 11.786 13.6042 11.9073 13.6042C11.928 13.6042 11.949 13.6046 11.972 13.605L11.9726 13.605C11.9943 13.6054 12.018 13.6058 12.0421 13.6059C12.1416 13.6075 12.2465 13.6127 12.3444 13.6186C12.4419 13.6244 12.5397 13.6319 12.6357 13.6413L12.6429 13.642L12.6501 13.6422L12.6506 13.6422L12.654 13.6427L12.6574 13.643C12.821 13.6591 12.986 13.6826 13.1472 13.711C13.1584 13.7139 13.1677 13.7153 13.1737 13.7161C13.1758 13.7164 13.1778 13.7166 13.1798 13.7168C13.5086 13.7749 13.8318 13.8567 14.1463 13.9614L14.147 13.9617L14.1646 13.9675C14.2942 14.0104 14.4215 14.0571 14.5464 14.1074L14.5469 14.1076C15.714 14.574 16.7045 15.3388 17.3989 16.3067C17.8086 16.8777 18.1048 17.5049 18.2788 18.1598C18.3997 18.615 18.4616 19.0837 18.4615 19.5565C18.4615 19.6009 18.4418 19.6615 18.3715 19.7396C18.3007 19.8184 18.1877 19.904 18.0275 19.9923C17.7074 20.1687 17.2321 20.3372 16.6297 20.483C15.4276 20.774 13.7576 20.9653 11.907 20.9653C11.0411 20.9653 9.83813 20.8588 8.6898 20.6768C7.5368 20.494 6.46201 20.2385 5.84065 19.9486C5.66256 19.8652 5.53245 19.7842 5.44956 19.7089C5.36523 19.6322 5.35096 19.5816 5.35096 19.5565C5.35096 19.4606 5.35454 19.3643 5.35946 19.2666C5.40371 18.4217 5.64692 17.5947 6.07333 16.8415C6.24002 16.5472 6.43317 16.2658 6.65086 16.0001C6.76636 15.8598 6.88929 15.724 7.01969 15.5929L7.02052 15.592C7.62371 14.9775 8.36155 14.4831 9.18764 14.1408L9.18831 14.1405C9.34417 14.0752 9.50427 14.0159 9.66744 13.9622L9.66813 13.962C9.98926 13.8551 10.3194 13.7719 10.6554 13.7132C10.7962 13.6887 10.9373 13.667 11.0792 13.6515C11.0845 13.6509 11.0897 13.6504 11.0946 13.6499C11.0966 13.6497 11.0986 13.6494 11.1005 13.6492L11.1192 13.6471C11.133 13.6456 11.1449 13.6442 11.1568 13.6431L11.1661 13.6422L11.1664 13.6422L11.1745 13.6414L11.175 13.6413L11.1762 13.6412C11.2715 13.6311 11.3704 13.6237 11.4676 13.6187L11.4693 13.6186L11.471 13.6185C11.4752 13.6182 11.4793 13.6179 11.4832 13.6176Z" fill="#D2D2DA"/>
<path fill-rule="evenodd" clip-rule="evenodd" d="M11.8125 11.3958C14.2978 11.3958 16.3125 9.41842 16.3125 6.97917C16.3125 4.53991 14.2978 2.5625 11.8125 2.5625C9.32722 2.5625 7.3125 4.53991 7.3125 6.97917C7.3125 9.41842 9.32722 11.3958 11.8125 11.3958ZM14.8364 6.97917C14.8364 8.61831 13.4826 9.9471 11.8125 9.9471C10.1424 9.9471 8.78856 8.61831 8.78856 6.97917C8.78856 5.34002 10.1424 4.01123 11.8125 4.01123C13.4826 4.01123 14.8364 5.34002 14.8364 6.97917Z" fill="#D2D2DA"/>
</svg>
