<svg width="16" height="16" viewBox="0 0 16 16" fill="none" xmlns="http://www.w3.org/2000/svg">
<path fill-rule="evenodd" clip-rule="evenodd" d="M5.60696 3.02125C5.77813 2.84757 6.01029 2.75 6.25236 2.75H9.74764C9.98971 2.75 10.2219 2.84757 10.393 3.02125C10.5642 3.19492 10.6604 3.43048 10.6604 3.6761V4.41554H12.3019C13.2397 4.41554 14 5.18694 14 6.13851V7.3576C12.8602 7.91702 11.1269 8.54548 9.13208 8.72809V8.32095C9.13208 8.00376 8.87865 7.74662 8.56604 7.74662H7.32076C7.00814 7.74662 6.75472 8.00376 6.75472 8.32095V8.7174C4.82435 8.52433 3.13426 7.92098 2 7.37667V6.13851C2 5.18694 2.76027 4.41554 3.69811 4.41554H5.33962V3.6761C5.33962 3.43048 5.43579 3.19492 5.60696 3.02125ZM9.86792 3.6761V4.41554H6.13208V3.6761C6.13208 3.64373 6.14475 3.61269 6.16731 3.5898C6.18986 3.56691 6.22046 3.55405 6.25236 3.55405H9.74764C9.77954 3.55405 9.81014 3.56691 9.83269 3.5898C9.85525 3.61269 9.86792 3.64373 9.86792 3.6761Z" fill="#11B6AB"/>
<path d="M6.75472 9.17901C4.85567 8.99543 3.17973 8.42624 2 7.88294V11.652C2 12.6036 2.76027 13.375 3.69811 13.375H12.3019C13.2397 13.375 14 12.6036 14 11.652V7.86581C12.8102 8.42505 11.0922 9.016 9.13208 9.18936V9.92905C9.13208 10.2462 8.87865 10.5034 8.56604 10.5034H7.32076C7.00814 10.5034 6.75472 10.2462 6.75472 9.92905V9.17901Z" fill="#11B6AB"/>
<path d="M7.43396 8.09122C7.24639 8.09122 7.09434 8.2455 7.09434 8.43581V9.81419C7.09434 10.0045 7.24639 10.1588 7.43396 10.1588H8.45283C8.6404 10.1588 8.79245 10.0045 8.79245 9.81419V8.43581C8.79245 8.2455 8.6404 8.09122 8.45283 8.09122H7.43396Z" fill="#11B6AB"/>
<g clip-path="url(#clip0_1233_28258)">
<path d="M8.02539 6.35938L8.03809 6.36035C8.19297 6.37658 8.33324 6.46056 8.4209 6.58887L8.45508 6.64648L8.45703 6.64844L9.01367 7.76953V7.77051C9.01779 7.77887 9.02602 7.78454 9.03516 7.78613H9.03418L10.2793 7.9668C10.4523 7.99183 10.6005 8.09936 10.6787 8.25195L10.708 8.32031L10.71 8.3252C10.7723 8.51688 10.7176 8.72747 10.5703 8.86621L10.5713 8.86719L9.63477 9.75391L9.62695 9.77637L9.85059 11.0068C9.88691 11.2085 9.80081 11.4116 9.63379 11.5273L9.63281 11.5264C9.4695 11.6429 9.25487 11.6567 9.0791 11.5625V11.5615L7.97168 10.9844L7.96875 10.9834C7.96524 10.9816 7.96077 10.9796 7.95605 10.9795H7.93066L6.83105 11.5557L6.82715 11.5576C6.72472 11.6092 6.6103 11.6265 6.49902 11.6094L6.49023 11.6084V11.6074C6.20908 11.5539 6.02165 11.2868 6.06738 11.0039V10.999L6.29004 9.76953C6.2916 9.76005 6.28876 9.74965 6.28125 9.74219H6.28027L5.37695 8.86523C5.23227 8.72458 5.18078 8.51287 5.24707 8.32129H5.24805C5.31188 8.13459 5.47271 7.99889 5.66699 7.96777L5.6709 7.9668L6.91699 7.78711L6.92676 7.78516C6.93611 7.78419 6.94456 7.77866 6.94922 7.76953L7.49805 6.64551L7.50098 6.63965C7.52641 6.59059 7.55989 6.54669 7.59863 6.50879L7.6084 6.49902L7.61914 6.49023L7.6416 6.47266C7.66384 6.45274 7.68615 6.43648 7.70703 6.42383L7.72754 6.41016L7.76855 6.39648L7.81055 6.37891L7.85645 6.35938H8.02539Z" fill="url(#paint0_linear_1233_28258)" stroke="white" stroke-width="0.5"/>
</g>
<defs>
<linearGradient id="paint0_linear_1233_28258" x1="5.46875" y1="8.99217" x2="10.4852" y2="8.99217" gradientUnits="userSpaceOnUse">
<stop offset="0.110577" stop-color="#A6E9D6"/>
<stop offset="0.423077" stop-color="#71DCDA"/>
<stop offset="0.701923" stop-color="#2CCBD0"/>
<stop offset="1" stop-color="#1FAECE"/>
</linearGradient>
<clipPath id="clip0_1233_28258">
<rect width="6" height="6" fill="white" transform="translate(5 6)"/>
</clipPath>
</defs>
</svg>
