<svg width="16" height="16" viewBox="0 0 16 16" fill="none" xmlns="http://www.w3.org/2000/svg">
<path d="M12.3818 2.625C12.9576 2.62504 13.51 2.84804 13.9258 3.24512C14.3412 3.6419 14.5888 4.18259 14.6211 4.75586L14.6221 4.75781L14.625 4.88184V11.1162C14.625 11.6904 14.4078 12.2444 14.0156 12.6641C13.623 13.0841 13.0837 13.3381 12.5088 13.3711L12.5068 13.3721L12.3838 13.375H3.61816C3.04236 13.375 2.49002 13.152 2.07422 12.7549C1.65882 12.3581 1.41118 11.8174 1.37891 11.2441L1.37793 11.2422L1.375 11.1182V4.88379C1.37496 4.30957 1.59222 3.75565 1.98438 3.33594C2.37701 2.91593 2.91629 2.66186 3.49121 2.62891L3.49316 2.62793L3.61621 2.625H12.3818ZM8.29297 9.20117C8.21653 9.24197 8.13204 9.26613 8.04492 9.27246C7.95769 9.27875 7.86999 9.26691 7.78809 9.2373L7.7832 9.23535L7.71191 9.2041L2.61621 6.49316V11.1162C2.61622 11.375 2.71239 11.6233 2.88379 11.8115C3.05446 11.9988 3.28727 12.1125 3.53418 12.1338L3.62109 12.1377H12.3818C12.6302 12.1376 12.8712 12.0435 13.0566 11.8711C13.2419 11.6987 13.3583 11.4602 13.3799 11.2031L13.3838 11.1143V6.49316L8.29297 9.20117ZM3.61816 3.8623C3.36976 3.86239 3.12881 3.95648 2.94336 4.12891C2.75809 4.30135 2.6417 4.53985 2.62012 4.79688L2.61621 4.88574V5.09082L8 7.95508L13.3838 5.09082V4.88379C13.3838 4.62504 13.2876 4.37671 13.1162 4.18848C12.9455 4.00115 12.7127 3.88753 12.4658 3.86621L12.3789 3.8623H3.61816Z" fill="#24CAB1"/>
</svg>
