<svg width="26" height="26" viewBox="0 0 26 26" fill="none" xmlns="http://www.w3.org/2000/svg">
<rect width="26" height="26" rx="13" fill="white"/>
<path d="M17.9374 16.3436C17.9374 16.2823 17.917 16.2159 17.8711 16.1546C17.5188 15.736 17.238 15.3735 17.0236 15.0723C17.1563 14.817 17.2533 14.5771 17.3248 14.3575L18.785 14.1329C18.8411 14.1278 18.8922 14.092 18.9381 14.0359C18.9841 13.9746 19.0045 13.9133 19.0045 13.8521V12.1111C19.0045 12.0447 18.9841 11.9784 18.9381 11.9273C18.8922 11.8762 18.8411 11.8405 18.7799 11.8303L17.3503 11.6159C17.2788 11.4014 17.1767 11.1462 17.0287 10.8449C17.1206 10.7071 17.2635 10.5182 17.4524 10.2782C17.6413 10.0383 17.7741 9.86979 17.8455 9.76768C17.8915 9.70641 17.9119 9.64514 17.9119 9.58898C17.9119 9.4205 17.4575 8.91506 16.5539 8.08286C16.4926 8.03181 16.4262 8.00628 16.3547 8.00628C16.2782 8.00628 16.2169 8.0267 16.1658 8.07265L15.0528 8.90995C14.7976 8.77721 14.5627 8.6802 14.3483 8.61894L14.1338 7.17919C14.1287 7.11792 14.0981 7.06176 14.042 7.01581C13.9858 6.96986 13.9245 6.94434 13.853 6.94434H12.1019C11.9589 6.94434 11.8619 7.02092 11.8211 7.16898C11.7445 7.45999 11.673 7.93991 11.6066 8.61894C11.336 8.70573 11.0961 8.80784 10.8816 8.92016L9.79418 8.06754C9.73291 8.0216 9.66654 8.00117 9.59506 8.00117C9.47764 8.00117 9.22747 8.18497 8.84966 8.55767C8.47696 8.93037 8.21658 9.20607 8.07873 9.39497C8.03278 9.44603 8.01236 9.50729 8.01236 9.58388C8.01236 9.64004 8.03278 9.7013 8.07873 9.77278C8.43101 10.1914 8.71181 10.5539 8.92624 10.8551C8.7935 11.1104 8.69139 11.3504 8.62502 11.5699L7.16485 11.7946C7.10869 11.7997 7.05763 11.8354 7.01168 11.8916C6.96573 11.9528 6.94531 12.0141 6.94531 12.0754V13.8163C6.94531 13.8827 6.96573 13.9491 7.01168 14.0001C7.05763 14.0512 7.10869 14.0818 7.16995 14.0869L8.59949 14.3116C8.67608 14.5515 8.78329 14.8068 8.93135 15.0825C8.82924 15.2203 8.68118 15.4144 8.48717 15.6594C8.29316 15.9045 8.16553 16.073 8.09915 16.1598C8.0532 16.221 8.03278 16.2823 8.03278 16.3384C8.03278 16.5069 8.48717 17.0124 9.38574 17.8446C9.44701 17.8956 9.51338 17.9212 9.58485 17.9212C9.66654 17.9212 9.72781 17.9007 9.77376 17.8548L10.8816 17.0175C11.1369 17.1502 11.3769 17.2472 11.5862 17.3085L11.8006 18.7482C11.8057 18.8095 11.8364 18.8657 11.8925 18.9116C11.9487 18.9576 12.01 18.9831 12.0814 18.9831H13.8326C13.9756 18.9831 14.0726 18.9065 14.1134 18.7585C14.19 18.4623 14.2615 17.9773 14.3279 17.2983C14.578 17.2217 14.818 17.1247 15.0528 17.0073L16.1352 17.8548C16.1965 17.9007 16.2628 17.9212 16.3343 17.9212C16.4517 17.9212 16.7019 17.7322 17.0746 17.3595C17.4473 16.9868 17.7077 16.706 17.8506 16.5171C17.9119 16.4763 17.9374 16.4201 17.9374 16.3436ZM14.6801 14.669C14.2104 15.1387 13.6437 15.3735 12.9749 15.3735C12.3112 15.3735 11.7394 15.1387 11.2697 14.669C10.8 14.1992 10.5651 13.6325 10.5651 12.9637C10.5651 12.3 10.8 11.7333 11.2697 11.2585C11.7394 10.7888 12.3061 10.5539 12.9749 10.5539C13.6386 10.5539 14.2104 10.7888 14.6801 11.2585C15.1498 11.7282 15.3847 12.2949 15.3847 12.9637C15.3847 13.6274 15.1498 14.1941 14.6801 14.669Z" fill="#838395"/>
</svg>
