<svg width="24" height="25" viewBox="0 0 24 25" fill="none" xmlns="http://www.w3.org/2000/svg">
<line x1="1.47822" y1="-1.47822" x2="5.51938" y2="-1.47822" transform="matrix(0.626248 0.779624 0.778436 -0.627723 16.9961 15.982)" stroke="#D2D2DA" stroke-width="2.95644" stroke-linecap="round"/>
<mask id="mask0_1576_31468" style="mask-type:alpha" maskUnits="userSpaceOnUse" x="2" y="2" width="19" height="19">
<ellipse cx="8.82985" cy="8.61552" rx="8.82985" ry="8.61552" transform="matrix(0.959877 -0.27903 0.278125 0.96095 0.886719 5.76743)" fill="#FF0000"/>
</mask>
<g mask="url(#mask0_1576_31468)">
<path d="M9.68931 13.7793C9.65028 13.5037 9.69938 13.3356 9.77614 13.2371C9.895 13.0836 10.1217 13.1483 10.3062 13.2084C10.9925 13.4317 11.3302 13.4415 11.9349 13.5307C12.7802 13.6552 13.7015 13.3423 13.9053 13.4144C14.1085 13.4865 14.1864 13.7349 13.9885 14.1152C13.7906 14.4959 13.1066 15.3066 11.9027 15.3821C10.6989 15.4571 9.78719 14.4675 9.68986 13.7799L9.68931 13.7793Z" fill="#D2D2DA"/>
<path d="M10.1929 10.9645C10.2272 10.3439 9.87062 9.81963 9.39652 9.79355C8.92242 9.76746 8.51033 10.2494 8.47608 10.87C8.44183 11.4907 8.79839 12.0149 9.27249 12.041C9.74658 12.0671 10.1587 11.5851 10.1929 10.9645Z" fill="#D2D2DA"/>
<path d="M15.5158 11.4292C15.5638 10.8154 15.2189 10.2878 14.7456 10.2509C14.2722 10.2139 13.8496 10.6816 13.8017 11.2954C13.7537 11.9092 14.0986 12.4368 14.5719 12.4737C15.0453 12.5107 15.4679 12.043 15.5158 11.4292Z" fill="#D2D2DA"/>
<path d="M6.65514 4.90635C3.01103 7.8454 1.79604 13.1069 5.22241 17.1795C8.36763 20.918 13.6916 21.3814 17.5045 18.3063C21.3174 15.2311 22.0005 9.74068 19.0302 6.04319C16.0599 2.3457 10.7238 1.62488 6.65514 4.90635ZM16.0267 15.7537C13.6393 18.0821 10.0519 18.3439 7.63757 16.0745C5.00736 13.602 5.40227 9.83483 7.65913 7.58461C9.98952 5.2608 13.809 5.10045 16.1019 7.35633C18.3948 9.61222 18.6477 13.1977 16.0267 15.7537Z" fill="#D2D2DA"/>
</g>
</svg>
