<svg width="120" height="120" viewBox="0 0 120 120" fill="none" xmlns="http://www.w3.org/2000/svg">
<g clip-path="url(#clip0_911_21014)">
<rect width="120" height="120" rx="10" fill="#FEF5F1"/>
<g filter="url(#filter0_d_911_21014)">
<rect x="15.4375" y="9.42822" width="89.1429" height="100.286" rx="5.14286" fill="url(#paint0_linear_911_21014)"/>
<rect x="15.6518" y="9.64251" width="88.7143" height="99.8571" rx="4.92857" stroke="#EDEDED" stroke-width="0.428571"/>
</g>
<path d="M24.1684 19.3709C24.1747 18.6135 24.7802 17.9995 25.521 17.9995H42.9576C43.6983 17.9995 44.2938 18.6135 44.2876 19.3709L44.1413 37.1995C44.1351 37.9569 43.5296 38.5709 42.7888 38.5709H25.3522C24.6114 38.5709 24.016 37.9569 24.0222 37.1995L24.1684 19.3709Z" fill="#FFE1CC"/>
<mask id="mask0_911_21014" style="mask-type:alpha" maskUnits="userSpaceOnUse" x="24" y="17" width="21" height="22">
<rect width="20.1191" height="20.5721" transform="matrix(1 0 -0.00820294 0.999966 24.1797 17.9995)" fill="#FFE1CC"/>
</mask>
<g mask="url(#mask0_911_21014)">
<path d="M45.8045 36.1002C45.2747 43.6702 38.6829 46.0359 32.5243 45.0155C25.8761 43.915 21.5081 39.7214 23.2726 31.7501C24.7407 25.1295 29.6767 21.0786 36.444 22.1983C42.6032 23.2217 46.2917 29.1424 45.8045 36.1002Z" fill="url(#paint1_linear_911_21014)"/>
<path d="M42.5722 25.7056L42.6219 25.7536C42.6091 25.74 42.5895 25.7248 42.5722 25.7056Z" fill="#EFEFEF"/>
<path d="M37.2226 22.4685C37.2683 22.4797 37.2885 22.4875 37.2898 22.4935C37.2441 22.4823 37.2109 22.4713 37.2226 22.4685Z" fill="#EFEFEF"/>
<path d="M36.1524 22.3318C36.1742 22.3328 36.1959 22.3338 36.2148 22.3355C36.1907 22.3381 36.166 22.3378 36.1524 22.3318Z" fill="#EFEFEF"/>
<path d="M42.5779 25.7079L42.4529 25.5918C42.4578 25.5716 42.5213 25.6485 42.5779 25.7079Z" fill="#EFEFEF"/>
<path d="M44.1366 28.0526L44.1597 28.1011C44.1601 28.1168 44.1604 28.1326 44.1607 28.1483L44.1366 28.0526Z" fill="#EFEFEF"/>
<path d="M43.3234 26.7369C43.3168 26.7384 43.3055 26.7342 43.2975 26.7292C43.3001 26.7252 43.3114 26.7294 43.3234 26.7369Z" fill="#EFEFEF"/>
<path d="M34.181 22.238C34.1842 22.2372 34.1875 22.2364 34.1907 22.2357C34.247 22.246 34.216 22.2432 34.181 22.238Z" fill="#EFEFEF"/>
<path d="M29.7818 23.1538C29.7892 23.1421 29.8028 23.1289 29.8203 23.1182C29.8179 23.1221 29.8098 23.1306 29.7818 23.1538Z" fill="#EFEFEF"/>
<path d="M33.0332 22.2105L32.9487 22.2213C32.9818 22.2165 33.0089 22.2132 33.0332 22.2105Z" fill="#EFEFEF"/>
<path d="M28.2266 23.9871C28.1889 24.0152 28.1796 24.0302 28.1234 24.0596C28.1287 24.0551 28.131 24.0514 28.1356 24.0439C28.1594 24.0382 28.1872 24.022 28.2266 23.9871Z" fill="#EFEFEF"/>
<path d="M26.8131 25.1733C26.817 25.1629 26.8239 25.1518 26.8314 25.1436C26.8442 25.1311 26.8599 25.1178 26.875 25.1016L26.8131 25.1733Z" fill="#EFEFEF"/>
<path d="M27.9844 23.7476C27.9018 23.8082 27.8173 23.8599 27.7389 23.9258C27.8009 23.8701 27.8959 23.8096 27.9844 23.7476Z" fill="#EFEFEF"/>
<path d="M27.0312 24.4932C27.0009 24.5383 26.9611 24.5825 26.9213 24.6267C26.9102 24.6325 26.8998 24.6412 26.888 24.644C26.9311 24.5864 26.9833 24.5424 27.0312 24.4932Z" fill="#EFEFEF"/>
<path d="M43.8185 42.0053C43.6253 42.2286 43.6871 42.0713 43.6212 42.0965C43.3811 42.3469 43.545 42.2446 43.4845 42.3509C43.3174 42.4951 43.1709 42.5775 43.0524 42.6881C43.0491 42.7015 43.0295 42.7252 43.0636 42.7108C42.9616 42.7699 42.8372 42.8818 42.7039 42.9959C42.5656 43.1017 42.4215 43.2089 42.3041 43.2684C42.292 43.284 42.2851 43.2951 42.2864 43.3012C42.3037 43.2527 42.2912 43.224 42.2732 43.2124C42.1723 43.2903 42.0578 43.3207 42.0396 43.3789C42.1038 43.3319 42.1182 43.3411 42.153 43.3297L42.0333 43.393C41.9617 43.5051 42.1939 43.3042 42.2166 43.3368C41.9889 43.4733 41.7178 43.6106 41.5494 43.7204C41.5397 43.7893 41.9584 43.4901 41.756 43.6713C41.8425 43.6127 41.9205 43.5434 42.0063 43.4818C41.8525 43.6864 42.1616 43.3689 42.0255 43.5692C41.6916 43.8165 41.6223 43.7981 41.276 44.0167C41.1802 44.0332 41.2831 43.9644 41.1873 43.9808C40.6537 44.2091 40.8333 44.3058 40.4188 44.4265C40.3034 44.4381 40.24 44.3898 39.9709 44.5362L40.0864 44.5531C39.7196 44.7068 39.8473 44.5529 39.4703 44.7312C39.5474 44.7288 39.7687 44.6476 39.7159 44.676C39.478 44.8086 39.5267 44.7052 39.3306 44.774L39.3042 44.8373C38.8972 44.9499 38.4446 45.0384 37.9858 45.1127C38.0127 45.1221 38.0941 45.125 37.9905 45.1623C37.411 45.2525 36.7597 45.3693 36.1962 45.4336L35.9783 45.403C35.9291 45.4051 35.8875 45.4277 35.9416 45.4338C35.7231 45.4573 35.9291 45.4051 35.8238 45.3922C35.6997 45.3931 35.6601 45.4247 35.7398 45.4343C35.3514 45.4189 34.6413 45.3532 34.2313 45.3809L34.3094 45.3972C33.9919 45.3935 33.9601 45.2774 33.6633 45.2973L33.7187 45.3095C33.0301 45.2704 32.2903 45.0977 31.7653 45.0545C31.6822 44.9729 31.0907 44.9519 31.0721 44.8391C30.6832 44.7794 30.7863 44.8246 30.2454 44.7092C30.1017 44.6768 30.0494 44.5941 29.8816 44.5231L29.863 44.5656L29.6446 44.4337L29.5006 44.4426L29.3424 44.3724C29.4087 44.3915 29.4854 44.4018 29.4815 44.3837C29.2375 44.2769 28.8559 44.1934 28.8431 44.2059L28.2803 43.9056C28.2855 43.9297 28.3804 43.98 28.4527 44.0262C28.1637 43.8414 28.3766 44.0475 28.1093 43.8765C28.1516 43.8855 28.1013 43.8404 28.0987 43.8283C27.9408 43.8025 27.638 43.6114 27.4153 43.4742L27.4427 43.5279C27.2387 43.4053 27.0109 43.301 26.8072 43.1371C26.5996 42.9836 26.3847 42.8256 26.1699 42.6675C26.3348 42.7677 26.3314 42.6956 26.2082 42.6013L26.1281 42.6045C26.0663 42.521 26.27 42.6849 26.1276 42.5317C25.9752 42.4032 25.9937 42.4875 26.0693 42.5773L25.9004 42.402C25.8791 42.4039 25.9169 42.4487 25.9163 42.4742C25.862 42.3826 25.5707 42.23 25.4977 42.0952L25.4763 42.0971C25.2677 41.9249 25.1496 41.7692 25.0313 41.6262C24.9136 41.4862 24.8008 41.3545 24.6588 41.1887C24.6739 41.1724 24.6499 41.1337 24.6137 41.0821C24.5834 41.0291 24.5469 40.9617 24.5235 40.8976C24.4245 40.7722 24.3229 40.6347 24.2147 40.4956C24.1088 40.3528 23.9868 40.2076 23.9074 40.03C23.7991 39.7768 23.903 39.9391 23.8671 39.8177C23.8237 39.8185 23.6479 39.4705 23.7152 39.6637C23.6161 39.4527 23.5348 39.3231 23.482 39.1677C23.4322 39.0116 23.3785 38.8374 23.2884 38.5546C23.3252 38.6092 23.3552 38.675 23.3555 38.6337C23.3235 38.5304 23.2566 38.41 23.2429 38.4323L23.2488 38.4594C23.228 38.3788 23.2007 38.2965 23.1733 38.2143C23.1482 38.1284 23.129 38.041 23.1039 37.9551C23.056 37.7795 23.0009 37.5993 22.9465 37.4221C22.8206 37.075 22.7806 36.7232 22.7863 36.4524L22.7864 36.4809L22.765 35.9314C22.7314 35.6796 22.7519 36.0835 22.7086 35.9005C22.7639 35.3042 22.6797 34.963 22.7339 34.4747C22.6624 34.0924 22.8349 33.1388 22.8822 32.6331L22.9049 32.6658C22.9548 32.5398 22.9167 32.5077 22.9293 32.4096C22.9487 32.4272 22.9273 32.5559 22.9564 32.4761C23.1506 31.3809 23.4372 30.2258 23.8241 29.1451C23.9845 28.7584 24.0465 28.9845 24.1982 28.4731L24.0934 28.5899C24.4854 27.8439 24.8823 27.0492 25.3952 26.4012C25.3592 26.4351 25.3454 26.4288 25.3012 26.4964C25.356 26.3217 25.6834 25.9745 25.7094 25.9937C25.7866 25.8929 25.7067 25.9532 25.7436 25.881C25.8375 25.7287 26.0541 25.5695 26.0857 25.4732C26.0913 25.4561 26.0461 25.5048 26.0229 25.5262C26.0975 25.4419 26.3771 25.1315 26.332 25.2372C26.535 25.002 26.7578 24.8286 26.9136 24.6331C27.0657 24.5621 27.3043 24.2772 27.3861 24.2958C27.3289 24.2618 27.7567 23.8908 27.9498 23.8227C27.8826 23.8419 28.0772 23.71 27.9975 23.729C28.1846 23.6053 28.361 23.5031 28.3443 23.5546C28.6351 23.2383 29.0835 23.2014 29.2337 22.9946C29.3841 22.9303 29.5283 22.8516 29.6778 22.7971C29.828 22.7455 29.9752 22.6947 30.1195 22.6446C30.4073 22.5413 30.6879 22.4334 30.9762 22.3743C30.9571 22.344 30.7991 22.3879 30.6492 22.4267C30.5027 22.4806 30.3598 22.5367 30.36 22.4955C30.6236 22.3948 30.8443 22.3677 31.0581 22.3232C31.2726 22.2817 31.4838 22.2251 31.7504 22.1523C31.8891 22.1193 31.6657 22.1344 31.6149 22.1433C31.8903 22.0968 32.154 22.0531 32.4112 22.0078C32.5401 21.9867 32.666 21.9663 32.7919 21.9458C32.9169 21.9351 33.0439 21.9335 33.1679 21.9325C33.1665 21.9265 33.1131 21.9234 33.0625 21.9195C33.161 21.9151 33.2869 21.8947 33.2781 21.9253L33.1843 21.9223C33.0354 21.9798 33.5751 21.991 33.5929 22.0153C33.4261 21.9345 34.074 21.9579 33.8107 21.8621C33.876 21.8624 33.9558 21.872 33.942 21.8943C34.0355 21.8816 34.068 21.8738 33.9695 21.8497C34.316 21.8719 34.1927 21.9044 34.508 21.9118C34.5076 21.8961 34.444 21.889 34.4121 21.8712C34.5719 21.9061 34.7281 21.9387 34.9945 21.9356C34.9801 21.9263 35.0119 21.9156 34.9305 21.9128C35.1608 21.9151 35.3505 21.9587 35.5461 22.0009C35.741 22.0402 35.9448 22.0773 36.1932 22.0911C36.0566 22.0063 36.3635 22.0887 36.4015 22.0353C36.4914 22.0487 36.5764 22.0824 36.6617 22.1033L36.5508 22.1075C36.7822 22.1571 36.9753 22.2443 37.1764 22.2694L37.0106 22.2073L37.4409 22.3142L37.1915 22.2816C37.4171 22.3611 37.1503 22.3485 37.4565 22.3993C37.4266 22.3905 37.4821 22.4027 37.5654 22.4146C37.6442 22.4339 37.747 22.4633 37.8093 22.4643C37.9144 22.5186 38.0201 22.5758 38.1908 22.6177C38.24 22.6155 38.1778 22.5447 38.2087 22.5437C38.302 22.6292 38.7326 22.7233 38.8374 22.8474C38.7993 22.8152 38.8058 22.7883 38.8242 22.7871L38.8972 22.8648C39.0006 22.8973 39.0167 22.8998 39.0101 22.8697C39.3121 23.0007 38.8848 22.8931 39.2528 23.0275C39.2275 23.0113 39.2436 23.0139 39.1864 22.9799C39.3673 23.0542 39.5371 23.1342 39.6999 23.2254C39.8553 23.3247 40.01 23.4211 40.1686 23.5069C40.2874 23.5104 39.9035 23.3323 40.0322 23.3524C40.2525 23.4933 40.4825 23.6352 40.6927 23.8007C40.8984 23.9736 41.1027 24.1405 41.3084 24.285L41.2289 24.2341C41.2366 24.34 41.556 24.4226 41.7145 24.6353C41.673 24.5881 41.6822 24.5447 41.6898 24.5651C41.8199 24.6767 41.9467 24.8019 42.0864 24.943C42.1551 25.0154 42.2274 25.0901 42.3076 25.1724C42.3766 25.2606 42.4536 25.3564 42.5348 25.4575L42.5055 25.3947C42.654 25.5337 42.8687 25.7901 43.0241 25.9464C43.0505 26.0099 43.1258 26.1124 43.0572 26.0685C43.3017 26.3051 43.4829 26.5789 43.6527 26.8428C43.8067 27.1199 43.9387 27.3959 44.1357 27.628C44.1005 27.5666 44.0639 27.4708 44.0935 27.5208C44.1735 27.6729 44.2676 27.8185 44.3282 27.9815C44.2773 27.9619 44.2825 27.929 44.2089 27.8483C44.2234 27.9145 44.27 28.0556 44.3259 28.169C44.2468 27.9502 44.3764 28.1443 44.4376 28.2249C44.4202 28.2163 44.4245 28.2502 44.412 28.2499C44.583 28.4628 44.3692 28.3235 44.5649 28.6351L44.5721 28.6112C44.6189 28.7395 44.6608 28.8595 44.7191 28.9977C44.7805 29.037 44.6844 28.8539 44.7047 28.8332C44.7874 29.0259 44.7829 29.2456 44.8898 29.4071C44.8706 29.3198 44.8258 29.2005 44.8036 29.1139C44.9191 29.2861 44.9162 29.3153 44.9781 29.4559L44.9719 29.4415L45.1174 29.765L45.0746 29.6833C45.0768 29.9616 45.2275 30.1952 45.2563 30.5528C45.2265 30.2049 45.2762 30.4878 45.3139 30.4472C45.3508 30.5303 45.4005 30.6579 45.4037 30.616C45.4135 30.788 45.5075 30.8765 45.5201 31.1175C45.5368 31.1231 45.5555 31.2929 45.5859 31.2477C45.6181 31.465 45.5511 31.2021 45.5373 31.2243C45.5468 31.5643 45.7627 31.9821 45.7649 32.4727C45.785 32.8894 45.7442 32.972 45.7665 33.3565C45.8068 33.4832 45.8073 33.2454 45.8073 33.2454C45.8553 33.4495 45.8684 33.608 45.8562 33.8073C45.866 33.767 45.8812 33.8078 45.9003 33.8666C45.9039 34.0242 45.85 33.9768 45.8832 34.1844C45.8972 34.1494 45.9234 34.0988 45.9347 34.0232C45.9258 34.2091 45.9147 34.3987 45.9042 34.5914C45.9309 34.6421 45.9371 34.4727 45.9534 34.4054C45.9523 34.5134 45.949 34.6536 45.9482 34.7774C45.9409 34.8996 45.92 35.0028 45.8994 35.0362L45.8903 34.8958C45.8862 34.976 45.9239 34.9353 45.9333 34.8792C45.9664 34.6907 45.9118 34.6118 45.8967 34.5995L45.8927 34.7367C45.7999 34.5972 45.8832 34.1844 45.8656 33.9066L45.8077 34.0249L45.8469 33.7367C45.8278 33.6779 45.7913 33.639 45.7873 33.7762C45.7479 33.5828 45.8076 33.6002 45.7522 33.4328C45.7453 33.4154 45.7437 33.4221 45.7417 33.4416L45.7368 33.2495C45.7271 33.2898 45.6876 33.2232 45.7127 33.3376C45.635 32.998 45.6953 32.7777 45.6314 32.6566L45.6315 32.6851C45.5945 32.2058 45.6753 32.6303 45.6789 32.265L45.5198 32.0493L45.5571 31.9929C45.5465 31.9447 45.5224 31.849 45.5087 31.8713C45.505 31.6852 45.533 31.8972 45.5429 31.7871C45.4536 31.5643 45.4374 31.1372 45.3465 31.1049C45.3575 31.0136 45.4338 31.3187 45.3907 31.0659C45.2929 31.0163 45.325 30.7805 45.2285 30.5816C45.2076 30.6563 45.2837 30.8473 45.1909 30.6507C45.2208 30.5042 45.0625 30.2503 45.0228 30.0696C45.0756 30.0412 44.9057 29.6918 44.8159 29.3962C44.8058 29.4208 44.5939 28.8659 44.4353 28.6247L44.4314 28.6351C44.4588 28.562 44.3206 28.3002 44.2402 28.1038C44.2146 28.1289 44.2203 28.1688 44.2572 28.2804L44.1713 28.1012C44.1637 28.0523 44.155 27.9847 44.0931 27.8726L44.0821 27.9354C43.9482 27.7074 43.8509 27.4485 43.6529 27.1691C43.6752 27.129 43.8842 27.3455 43.7189 27.0172C43.694 27.0168 43.6586 27.0252 43.6997 27.1136C43.6872 27.0849 43.6582 27.0094 43.6191 26.9585L43.6633 27.1033C43.5679 26.9802 43.65 27.0145 43.5747 26.912C43.5508 26.9304 43.5021 26.8501 43.4926 26.8777C43.5081 26.9057 43.5692 26.9577 43.5828 27.0052C43.5019 26.8913 43.3816 26.7678 43.3339 26.7348C43.3553 26.7329 43.3661 26.7113 43.3101 26.6263C43.1569 26.4093 43.2277 26.5762 43.1241 26.4582C43.1037 26.3934 42.9863 26.2691 43.0201 26.2389C42.9753 26.1767 42.9511 26.1793 42.9222 26.1608C42.8547 26.0374 42.5053 25.6768 42.6442 25.7579L42.6715 25.7831C42.6672 25.7778 42.663 25.7725 42.658 25.7641C42.5245 25.5804 42.3657 25.4089 42.2017 25.2419C42.0227 25.0912 41.8443 24.9435 41.6882 24.7841L41.6783 24.7959C41.586 24.7006 41.4815 24.5924 41.378 24.5029C41.2692 24.4178 41.17 24.3337 41.1049 24.2636C41.0415 24.2153 40.9398 24.1761 40.9566 24.2101C40.8005 24.0793 40.7916 24.0529 40.5429 23.8965C40.6928 24.0415 40.473 23.8751 40.698 24.0371C40.4845 23.885 40.411 23.8898 40.1939 23.7069C40.2557 23.7905 40.0009 23.6482 39.8977 23.5745L40.0685 23.6449C39.9522 23.5679 39.8428 23.5084 39.7364 23.4481L39.7697 23.5289C39.532 23.4079 39.3172 23.3069 39.1235 23.1882C38.9281 23.0762 38.7458 22.9674 38.5381 22.9407C38.4767 22.9015 38.5482 22.9161 38.6211 22.9368C38.6916 22.9612 38.7622 22.9857 38.7149 22.9399C38.4861 22.8453 38.2138 22.8499 38.1426 22.8224C37.815 22.745 37.8686 22.6499 37.5289 22.5595C37.5768 22.5513 37.6335 22.5124 37.3785 22.44C37.1353 22.3932 37.0636 22.4483 37.2113 22.4988C37.2674 22.5139 37.2982 22.5129 37.2969 22.5069C37.3734 22.5299 37.4732 22.5601 37.3734 22.5584L37.3462 22.5332C37.2231 22.5244 36.8933 22.4507 36.9656 22.4969C36.7886 22.4408 36.8933 22.4507 37.0315 22.4718C36.8749 22.4519 36.7538 22.4237 36.6334 22.3985C36.5116 22.3672 36.3912 22.342 36.2285 22.3363C36.2806 22.3334 36.3331 22.3177 36.2819 22.3109C35.8051 22.2753 36.0793 22.2513 35.7584 22.204C35.5734 22.21 35.8153 22.2792 35.494 22.2161C35.2939 22.2098 35.4475 22.2589 35.5247 22.2849C35.2339 22.2051 34.9735 22.2638 34.8062 22.2656L34.9597 22.2861C34.8675 22.2764 34.792 22.2721 34.7143 22.2716L34.8032 22.2378C34.7107 22.2408 34.6358 22.2395 34.6362 22.2553C34.5436 22.2297 34.7103 22.1965 34.5248 22.1582C34.4012 22.1749 34.1521 22.1295 34.1092 22.1746C34.493 22.1689 34.067 22.2226 34.3901 22.2377C34.3265 22.2307 34.2517 22.2295 34.1591 22.2324C34.1451 22.239 34.1707 22.2424 34.1963 22.2458C33.8309 22.2788 34.0295 22.1935 33.6483 22.2113C33.6969 22.2346 33.5618 22.2699 33.5025 22.2681C33.6553 22.2571 33.5719 22.2168 33.4328 22.2055C33.1898 22.2442 33.1664 22.2086 33.0385 22.22L33.1834 22.2014C33.1319 22.1787 33.0092 22.1858 32.8373 22.1949C32.8259 22.2135 32.9928 22.196 32.9338 22.21C32.7379 22.1805 32.5187 22.3277 32.2536 22.3369C32.1353 22.3777 32.2494 22.3885 32.1475 22.4191C31.8499 22.436 31.8396 22.5018 31.5359 22.5613C31.6129 22.5018 31.6326 22.5067 31.4112 22.5308C31.5778 22.4975 31.7397 22.4432 31.911 22.431C31.7981 22.4261 31.6899 22.4424 31.581 22.4556C31.7289 22.4077 31.9014 22.4016 31.9929 22.3798C31.8338 22.3765 31.8505 22.382 31.919 22.3403C31.719 22.4196 31.5035 22.4138 31.276 22.5091L31.307 22.5936C31.1358 22.6628 30.9781 22.6939 30.8027 22.7293C30.6315 22.77 30.4502 22.8353 30.2322 22.9315L30.3689 22.861C30.298 22.8493 30.0935 22.9645 29.9449 23.0093C29.9686 23.0322 29.8853 23.0773 29.8293 23.1192C29.822 23.086 29.5196 23.2784 29.4559 23.2428L29.2839 23.3788C28.9513 23.5751 28.8468 23.4954 28.5428 23.7229C28.6529 23.6872 28.5226 23.8006 28.7418 23.682C28.6389 23.7508 28.5485 23.8198 28.535 23.8008C28.4853 23.857 28.2283 23.9593 28.1484 24.048C28.0966 24.0667 28.0647 24.0489 27.949 24.1303C27.9399 24.1451 27.9576 24.1409 27.9576 24.1409C27.9448 24.125 27.7764 24.2632 27.8494 24.1571C27.6134 24.4826 27.0042 24.8334 26.8381 25.1518C26.6442 25.3437 26.3897 25.5563 26.2417 25.7594C26.2588 25.7522 26.2532 25.7694 26.282 25.7308C26.0874 26.018 26.0851 25.8379 25.8622 26.1665C25.7756 26.3519 26.0132 26.0197 25.9504 26.1297C25.992 26.234 25.6404 26.4855 25.552 26.7473L25.5906 26.697C25.5076 26.8846 25.2908 27.0852 25.1125 27.3621C25.1125 27.3621 25.1288 27.3518 25.1262 27.3683C24.974 27.5376 24.7575 27.9091 24.594 28.1825C24.6749 28.1126 24.6797 28.0639 24.6861 28.1353C24.6134 28.2571 24.6495 28.0679 24.505 28.3146C24.4822 28.4087 24.4195 28.6043 24.4449 28.6489L24.5527 28.4047C24.5454 28.5553 24.4109 28.7204 24.3658 28.8547L24.3953 28.8477C24.2323 29.2224 24.1522 29.197 24.008 29.6148L24.0062 29.5645C23.8721 29.7739 23.9705 29.7695 23.8525 29.9813L23.8841 30.0689C23.8197 30.2141 23.6386 30.5773 23.566 30.8544C23.6088 30.7808 23.6519 30.666 23.7032 30.5461C23.7581 30.4284 23.8147 30.304 23.8624 30.2103C23.8082 30.3595 23.6845 30.7153 23.6453 30.7912C23.6665 30.7322 23.6998 30.6578 23.7079 30.5956C23.6157 30.7697 23.5262 31.0128 23.4477 31.3198C23.5104 31.3081 23.4674 31.5084 23.4097 31.7408C23.3652 31.9764 23.3198 32.2502 23.3433 32.3714C23.2723 32.6418 23.2298 32.915 23.1863 33.1978C23.1655 33.4848 23.1562 33.7817 23.1213 34.1038C23.0514 33.87 23.1007 34.2925 23.013 34.2468C22.9933 34.3972 22.9904 34.455 22.9937 34.47C22.993 34.6223 23.0268 34.7759 23.0415 34.9277C23.0682 35.0354 23.0596 34.7839 23.0812 34.7978C23.091 35.1251 23.1212 34.9373 23.1468 35.153C23.1126 35.1104 23.1008 35.2685 23.1139 35.4555L23.0688 35.1937C23.0449 35.4244 23.0668 35.5238 23.085 35.6209C23.1068 35.7202 23.1192 35.8187 23.1261 36.0484L23.1377 35.9031C23.1489 36.1381 23.2367 36.7637 23.1912 37.009C23.2093 37.0491 23.2477 37.097 23.2311 36.9932C23.2972 37.2659 23.3523 37.5729 23.4046 37.8678C23.4175 37.9408 23.4305 38.0138 23.4463 38.086C23.4645 38.1546 23.4886 38.2218 23.512 38.2859C23.5559 38.4149 23.603 38.5305 23.6491 38.6273L23.6568 38.5779C23.6852 38.6789 23.6795 38.7658 23.745 38.8802C23.7519 38.869 23.7498 38.8315 23.7692 38.8776C23.7782 38.9325 23.8242 39.1561 23.9081 39.2692L23.8764 39.1532C24.0152 39.3895 24.0943 39.5799 24.1698 39.7679C24.2057 39.8608 24.2416 39.9537 24.2782 40.0495C24.3253 40.1366 24.3766 40.229 24.4381 40.3253C24.4948 40.2864 24.753 40.6275 24.8796 40.7939L24.8828 40.7805C25.2963 41.2494 25.5283 41.6411 25.9634 42.0384C26.1211 42.134 26.3487 42.3366 26.6342 42.5191C26.9084 42.7074 27.1966 42.9304 27.4674 43.0467C27.3853 43.0123 27.4544 43.1005 27.5411 43.1559C27.6652 43.212 27.8495 43.3868 27.8599 43.321L27.8172 43.2963C27.9347 43.2937 28.1679 43.4506 28.3721 43.532L28.37 43.6212C28.6591 43.6792 28.9862 43.8677 29.3082 43.9908C29.628 44.1176 29.9179 44.2356 30.0829 44.2376C30.2044 44.3101 30.3737 44.3459 30.5014 44.4043L30.507 44.3586C30.8827 44.4436 31.0639 44.505 31.5264 44.6169L31.438 44.5682C31.7002 44.6168 31.7438 44.7586 31.9876 44.8084L32.0732 44.7595C32.5323 44.8563 33.0087 44.8762 33.4603 44.9812C33.4547 44.9698 33.4412 44.9508 33.3674 44.9398C33.5853 44.9704 34.2197 44.9749 34.132 45.056C34.142 45.0029 34.6149 45.0774 34.8679 45.1123L34.8301 45.0675C35.0415 45.125 35.0477 45.1393 35.3496 45.1563C35.4201 45.1522 35.4106 45.1228 35.3164 45.1325C35.5539 45.1109 35.5018 45.1708 35.7865 45.138L35.6786 45.1129C35.921 45.0997 35.9036 45.1196 36.0359 45.1421C36.1898 45.1499 36.4954 45.0994 36.5295 45.0564C36.5649 45.0765 36.6995 45.0952 36.8425 45.0676C36.8605 45.0506 36.807 45.0475 36.7821 45.0471C37.1828 44.9772 37.3873 45.0173 37.6578 44.934C37.661 44.9205 37.6774 44.9103 37.6997 44.8986C37.3822 44.9519 37.1238 44.9912 37.1487 44.9916C37.1431 44.9517 37.4002 44.9065 37.1902 44.8835C37.3985 44.8847 37.7637 44.8929 38.0083 44.8189C38.0194 44.8131 38.0306 44.8073 38.0381 44.7992L38.0102 44.7995C38.0656 44.7831 38.1201 44.7765 38.1693 44.7743C38.2483 44.7524 38.2965 44.7314 38.3703 44.7139C38.3925 44.6737 38.6562 44.6301 38.7811 44.5909C38.7815 44.6351 38.9435 44.5808 38.7993 44.6594C38.8186 44.6485 38.7757 44.665 38.6894 44.6824C38.6717 44.6866 38.6474 44.6892 38.6356 44.692L38.6451 44.6929C38.5625 44.7125 38.4533 44.7385 38.3294 44.768C38.4343 44.7652 38.5416 44.7587 38.678 44.7009C38.7488 44.7126 38.8279 44.7192 38.8719 44.7214C39.0285 44.6144 39.3478 44.4846 39.3821 44.4289C39.7668 44.328 40.2618 44.1216 40.5173 44.083C40.6238 44.045 40.6277 44.0061 40.6585 43.9766C40.5949 43.998 40.5244 44.0306 40.4883 44.036C40.7064 43.9683 41.0882 43.7413 41.1653 43.7673C41.4032 43.6062 41.0023 43.8029 41.3458 43.6135L41.2927 43.6262C41.6049 43.3935 41.8805 43.2487 42.1611 43.0838C42.2974 42.9975 42.4396 42.9098 42.5831 42.7996C42.7187 42.6818 42.8648 42.5552 42.9974 42.3811C42.961 42.4278 42.9414 42.4514 42.9388 42.4679C43.6124 41.7595 44.3291 40.9648 44.6827 40.0441C44.7915 39.7901 44.8358 39.7796 44.9244 39.6317L44.905 39.5572L45.0649 39.31C45.2463 38.9341 45.1955 38.6039 45.3964 38.1188L45.4094 38.1918C45.4563 38.0095 45.556 37.6151 45.5143 37.6376C45.5228 37.6198 45.5582 37.5828 45.5577 37.5101L45.5367 37.4992C45.5785 37.3498 45.6107 37.1996 45.6494 37.0509C45.6829 36.6944 45.5596 37.0945 45.6109 36.5784C45.6374 36.3883 45.7339 36.0358 45.7409 36.1101C45.7332 36.188 45.7354 36.3111 45.7587 36.3183L45.7886 36.1432C45.8604 36.1166 45.9487 35.9815 45.9534 36.4272L45.8802 36.7298L45.9027 36.8323L45.9294 36.5724C45.947 36.7235 45.9141 36.8137 45.8743 36.9151C45.8897 36.9431 45.8931 36.9866 45.8909 37.0474L45.7776 37.3374C45.7993 37.3797 45.8525 37.2118 45.8351 37.4156C45.7812 37.552 45.7968 37.2694 45.7385 37.4988C45.7407 37.6503 45.7731 37.6141 45.7098 37.7781C45.7223 37.8068 45.7422 37.7704 45.7621 37.7054C45.7073 37.8516 45.6704 38.1076 45.6137 38.1749C45.6114 38.3339 45.466 38.6759 45.532 38.6792C45.5074 38.7231 45.3962 38.9238 45.3512 39.0581C45.5142 38.8387 45.1799 39.5647 45.274 39.5264C45.2039 39.6033 45.1326 39.7597 45.05 39.9346C44.96 40.105 44.8689 40.2978 44.7723 40.438C44.788 40.4247 44.8129 40.3966 44.8253 40.3683C44.742 40.5403 44.7267 40.5978 44.6777 40.714C44.614 40.707 44.4554 40.9602 44.3302 41.0691C44.247 41.2981 44.4679 40.9889 44.473 41.0827C44.4401 41.0462 44.2065 41.3965 44.2175 41.3051C44.1459 41.4742 44.1416 41.4404 44.1244 41.5459C44.0456 41.5266 44.0121 41.6708 43.886 41.761C43.7522 41.9861 43.8983 41.8595 43.6939 42.0602C43.6302 42.1799 43.8185 42.0053 43.8185 42.0053ZM37.9884 45.0962C38.0452 45.0859 38.0931 45.0777 38.1232 45.0736C38.0931 45.0777 38.054 45.0838 37.9884 45.0962ZM37.4411 45.1915C37.5073 45.182 37.5913 45.1684 37.6782 45.1541C37.6962 45.1372 37.6716 45.124 37.6178 45.1336C37.6463 45.1363 37.5194 45.1665 37.4411 45.1915ZM38.5247 44.6676C38.4407 44.6813 38.4132 44.6973 38.4034 44.7092C38.4418 44.7001 38.4896 44.6918 38.5516 44.6771C38.5546 44.6764 38.5582 44.6787 38.5618 44.681C38.5539 44.6734 38.5437 44.6695 38.5247 44.6676Z" fill="#EFEFEF"/>
<path d="M42.6289 25.7516L42.6196 25.7428C42.6282 25.7481 42.6375 25.7569 42.6452 25.7588C42.6332 25.7543 42.634 25.7578 42.6289 25.7516Z" fill="#EFEFEF"/>
<path d="M33.0668 21.9202C33.0544 21.92 33.039 21.9206 33.0266 21.9205C32.9335 21.9208 32.9951 21.9186 33.0668 21.9202Z" fill="#EFEFEF"/>
<path d="M37.8173 22.4701C37.7712 22.4458 37.7252 22.4216 37.6768 22.4011C37.757 22.4236 37.8209 22.4436 37.8173 22.4701Z" fill="#EFEFEF"/>
<path d="M28.0078 23.7271L27.9779 23.748L28.0078 23.7271Z" fill="#EFEFEF"/>
<path d="M37.4622 22.3435C37.5475 22.3516 37.6165 22.3699 37.6787 22.3994C37.6113 22.3743 37.5289 22.3655 37.4622 22.3435Z" fill="#EFEFEF"/>
<path d="M40.8702 24.1713L40.8606 24.2168C40.7459 24.1244 40.8678 24.2051 40.8702 24.1713Z" fill="#EFEFEF"/>
<path d="M39.7548 23.2188L39.8836 23.2675L39.9231 23.3342L39.7548 23.2188Z" fill="#EFEFEF"/>
<path d="M38.8631 23.1029L38.9158 23.1315L38.7123 23.022L38.8631 23.1029Z" fill="#EFEFEF"/>
<path d="M27.0647 24.9709L27.0625 24.9048C27.133 24.8437 27.1823 24.87 27.0647 24.9709Z" fill="#EFEFEF"/>
<path d="M24.0391 29.5747C24.0411 29.6405 24.0038 29.7946 23.9507 29.8767C23.99 29.76 24.012 29.6348 24.0391 29.5747Z" fill="#EFEFEF"/>
<path d="M36.5432 27.7572C36.2989 27.7561 36.0394 27.3698 36.0416 26.9415C36.0449 26.3309 36.3705 26.1568 36.6323 26.1404C36.9066 26.1238 37.1474 26.5854 37.122 27.0455C37.0997 27.4058 36.9255 27.7593 36.5432 27.7572Z" fill="url(#paint2_linear_911_21014)"/>
<path d="M32.4715 27.7074C32.2758 27.7379 31.9466 27.348 31.9296 26.9185C31.9022 26.3099 32.2906 26.0997 32.4783 26.0873C32.7247 26.0718 33.0146 26.5042 33.0112 26.9648C33.0087 27.3293 32.8336 27.6543 32.4715 27.7074Z" fill="url(#paint3_linear_911_21014)"/>
<path d="M32.9027 28.0113C32.9053 27.9468 32.9483 27.8937 33.0144 27.895C33.2586 27.8961 34.1105 27.9245 34.566 27.9196C34.9871 27.9144 35.4545 27.9318 35.6849 27.9398C35.7641 27.9439 35.8071 28.0153 35.8016 28.0934C35.7809 28.3352 35.6425 29.2184 34.3851 29.2197C33.4314 29.2219 32.8927 28.4705 32.9027 28.0113Z" fill="url(#paint4_linear_911_21014)"/>
<path d="M33.7241 32.4187C39.4637 32.3599 43.8362 31.1007 45.305 30.4785C45.5852 30.9519 46.3842 32.4419 46.1604 35.3037C45.859 39.1581 38.9214 39.461 35.1007 39.4274C31.075 39.392 23.3222 41.1165 22.953 36.5519C22.712 33.5729 23.0708 31.2945 23.35 30.53C24.3701 31.1825 27.9845 32.4775 33.7241 32.4187Z" fill="url(#paint5_linear_911_21014)"/>
<path d="M33.7048 33.0342C39.444 32.9756 44.1305 31.5732 45.5992 30.9515C46.0102 31.8935 46.2545 33.6049 46.2435 34.9518C46.2231 37.4258 45.4264 39.9521 44.6916 40.9072C43.3761 41.4308 41.3633 42.7312 34.9414 42.6746C28.221 42.6153 25.7675 41.6493 24.2147 40.619C23.9741 40.4049 22.886 38.1216 22.8315 37.4492C22.5607 34.1046 22.9014 31.9064 23.1806 31.1425C24.2006 31.7945 27.9656 33.0928 33.7048 33.0342Z" fill="url(#paint6_linear_911_21014)"/>
<path d="M28.8685 35.2276C28.8685 35.2276 30.4685 37.0457 30.8699 37.3714C31.2712 37.697 30.7924 38.8061 29.6947 38.4565C28.4669 38.0674 27.5642 36.9686 27.2189 36.3173C26.7269 35.3854 27.6907 34.2684 28.8685 35.2276Z" fill="#EF5A2E"/>
<path d="M28.556 34.7551C28.556 34.7551 30.1344 36.4371 30.1584 36.513C30.1823 36.5888 29.8215 36.92 29.5094 37.2951C29.2021 37.6644 28.8839 38.1311 28.7992 38.1194C28.7146 38.1077 27.222 37.2023 26.6971 36.0817C26.1722 34.9611 27.3782 33.7959 28.556 34.7551Z" fill="url(#paint7_linear_911_21014)"/>
<path d="M39.5043 35.0462C39.5043 35.0462 38.1753 37.1034 37.8238 37.4905C37.4723 37.8776 38.0999 38.8964 39.1365 38.3726C40.2963 37.7886 41.036 36.5557 41.2868 35.8558C41.6436 34.8546 40.5354 33.9067 39.5043 35.0462Z" fill="#EF5A2E"/>
<path d="M39.7371 34.5273C39.7371 34.5273 38.4106 36.4465 38.3974 36.5253C38.3843 36.6042 38.7871 36.873 39.1478 37.1932C39.5029 37.5084 39.8824 37.9182 39.9645 37.8929C40.0466 37.8676 41.3963 36.7302 41.7594 35.5371C42.1226 34.344 40.7682 33.3878 39.7371 34.5273Z" fill="url(#paint8_linear_911_21014)"/>
<path d="M34.9858 36.945L37.4062 32.6333L31.9561 33.0255L34.9858 36.945Z" fill="url(#paint9_linear_911_21014)"/>
<mask id="mask1_911_21014" style="mask-type:alpha" maskUnits="userSpaceOnUse" x="31" y="32" width="7" height="5">
<path d="M34.9858 36.944L37.4062 32.6323L31.9561 33.0245L34.9858 36.944Z" fill="url(#paint10_linear_911_21014)"/>
</mask>
<g mask="url(#mask1_911_21014)">
<path d="M35.5442 32.9291L34.0975 32.9183C34.0641 32.9177 34.031 32.9222 34.001 32.9314C33.971 32.9406 33.9449 32.9543 33.9251 32.9713C33.9052 32.9882 33.8922 33.0079 33.887 33.0287C33.8819 33.0496 33.8848 33.0709 33.8955 33.0909L34.1926 33.7581C34.2035 33.7823 34.2266 33.8036 34.2582 33.8188C34.2899 33.8341 34.3285 33.8425 34.3683 33.8428L35.2299 33.8493C35.2692 33.8496 35.3077 33.842 35.3396 33.8275C35.3715 33.813 35.3952 33.7924 35.4071 33.7688L35.7587 33.0677C35.7592 33.0496 35.754 33.0317 35.7434 33.0149C35.7329 32.9981 35.7171 32.9828 35.697 32.9699C35.6769 32.957 35.653 32.9467 35.6266 32.9397C35.6002 32.9327 35.5718 32.9291 35.5432 32.9291L35.5442 32.9291ZM33.9344 36.9492L34.4229 37.1814C34.5191 37.227 34.6358 37.2521 34.756 37.253C34.8762 37.2539 34.9936 37.2305 35.0911 37.1864L35.5904 36.9602C35.6718 36.9232 35.7361 36.8732 35.7768 36.8154C35.8174 36.7575 35.833 36.6939 35.8218 36.6309L35.3775 34.2215C35.373 34.1954 35.3534 34.1712 35.3225 34.1536C35.2916 34.1359 35.2516 34.1261 35.2099 34.1259L34.4492 34.1202C34.4076 34.1198 34.3673 34.1291 34.3358 34.1463C34.3044 34.1634 34.284 34.1872 34.2786 34.2133L33.7142 36.6129C33.6996 36.6762 33.7123 36.7409 33.7511 36.8001C33.7898 36.8593 33.8532 36.9108 33.9344 36.9492Z" fill="url(#paint11_linear_911_21014)"/>
</g>
</g>
<rect x="54.0078" y="19.7139" width="42" height="5.14286" rx="2.57143" fill="#ECECEC"/>
<rect x="24.0078" y="52.2852" width="72" height="5.14286" rx="2.57143" fill="#ECECEC"/>
<rect x="24.0078" y="84" width="72" height="5.14286" rx="2.57143" fill="#ECECEC"/>
<rect x="24.0078" y="90.8574" width="45.4286" height="5.14286" rx="2.57143" fill="#ECECEC"/>
<rect x="54.0078" y="33.4282" width="23.1429" height="5.14286" rx="2.57143" fill="#ECECEC"/>
<rect x="24.0078" y="66" width="40.2857" height="5.14286" rx="2.57143" fill="#ECECEC"/>
<rect x="54.0078" y="26.5713" width="42" height="5.14286" rx="2.57143" fill="#ECECEC"/>
<rect x="24.0078" y="59.1426" width="72" height="5.14286" rx="2.57143" fill="#ECECEC"/>
<path d="M25.0878 49.1379H26.1781C26.3684 49.1379 26.4815 49.2407 26.4815 49.4259C26.4815 49.611 26.3684 49.7139 26.1781 49.7139H24.7381C24.5067 49.7139 24.3781 49.575 24.3781 49.3333V46.6282C24.3781 46.3864 24.5067 46.2476 24.7381 46.2476H26.1524C26.3427 46.2476 26.4558 46.3504 26.4558 46.5356C26.4558 46.7207 26.3427 46.8236 26.1524 46.8236H25.0878V47.6053H26.0392C26.2244 47.6053 26.3375 47.7082 26.3375 47.8882C26.3375 48.0682 26.2244 48.171 26.0392 48.171H25.0878V49.1379ZM28.2804 48.3562L28.9233 49.2253C28.9747 49.2973 29.0056 49.3796 29.0056 49.4567C29.0056 49.6264 28.8513 49.7396 28.7073 49.7396C28.6096 49.7396 28.517 49.6933 28.4399 49.5904L27.8382 48.7779L27.2364 49.5699C27.1593 49.6727 27.0513 49.7396 26.9433 49.7396C26.7942 49.7396 26.6759 49.6264 26.6759 49.4773C26.6759 49.4002 26.7016 49.3179 26.7582 49.2459L27.3907 48.4024L26.8302 47.6362C26.7736 47.559 26.753 47.4819 26.753 47.4047C26.753 47.2453 26.8764 47.1219 27.041 47.1219C27.1387 47.1219 27.2364 47.1682 27.3084 47.2659L27.8382 47.9962L28.3833 47.2864C28.4656 47.1836 28.5684 47.1219 28.6713 47.1219C28.8153 47.1219 28.9336 47.235 28.9336 47.379C28.9336 47.4562 28.9079 47.5333 28.8513 47.6104L28.2804 48.3562ZM30.8707 47.0756C31.6061 47.0756 32.1152 47.631 32.1152 48.4333C32.1152 49.2356 31.6061 49.7859 30.8707 49.7859C30.5312 49.7859 30.2432 49.6676 30.0581 49.4619V50.3773C30.0581 50.6139 29.945 50.7373 29.729 50.7373C29.513 50.7373 29.3998 50.6139 29.3998 50.3773V47.4202C29.3998 47.2247 29.5027 47.1116 29.6827 47.1116C29.8524 47.1116 29.9501 47.2144 29.9655 47.4099L29.9758 47.5076C30.1507 47.235 30.4798 47.0756 30.8707 47.0756ZM30.7472 49.2613C31.1535 49.2613 31.4415 48.9167 31.4415 48.4333C31.4415 47.9499 31.1535 47.6002 30.7472 47.6002C30.341 47.6002 30.053 47.9499 30.053 48.4333C30.053 48.9167 30.341 49.2613 30.7472 49.2613ZM33.7509 47.0756C34.4658 47.0756 34.9441 47.5487 34.9441 48.2533V48.3407C34.9441 48.5464 34.8309 48.6647 34.6201 48.6647H33.0823C33.1595 49.0556 33.4269 49.2613 33.8589 49.2613C34.0338 49.2613 34.1983 49.2253 34.3835 49.1533C34.4452 49.1276 34.5018 49.1173 34.5635 49.1173C34.7023 49.1173 34.8052 49.2202 34.8052 49.3539C34.8052 49.4619 34.7281 49.5596 34.5841 49.6367C34.4092 49.7344 34.1418 49.7859 33.8383 49.7859C32.9795 49.7859 32.4035 49.2407 32.4035 48.4282C32.4035 47.6413 32.9692 47.0756 33.7509 47.0756ZM33.7149 47.5796C33.3755 47.5796 33.1441 47.8059 33.0823 48.1864H34.2961C34.2703 47.811 34.0543 47.5796 33.7149 47.5796ZM36.6248 47.0859C36.8408 47.0859 36.9591 47.1939 36.9591 47.3893C36.9591 47.6053 36.8356 47.7133 36.5528 47.739C36.2185 47.7699 36.0899 47.955 36.0899 48.4179V49.3847C36.0899 49.6213 35.9768 49.7447 35.7608 49.7447C35.5448 49.7447 35.4316 49.6213 35.4316 49.3847V47.3996C35.4316 47.2196 35.5293 47.1116 35.7042 47.1116C35.8636 47.1116 35.9665 47.2093 35.9819 47.3893L35.9973 47.6002C36.1259 47.271 36.3419 47.0859 36.6248 47.0859ZM37.6542 46.8802C37.4382 46.8802 37.2839 46.731 37.2839 46.5304C37.2839 46.3247 37.4382 46.1756 37.6542 46.1756C37.8702 46.1756 38.0245 46.3247 38.0245 46.5304C38.0245 46.731 37.8702 46.8802 37.6542 46.8802ZM37.6542 49.7447C37.4382 49.7447 37.325 49.6213 37.325 49.3847V47.4767C37.325 47.2402 37.4382 47.1167 37.6542 47.1167C37.8702 47.1167 37.9833 47.2402 37.9833 47.4767V49.3847C37.9833 49.6213 37.8702 49.7447 37.6542 49.7447ZM39.8179 47.0756C40.5327 47.0756 41.011 47.5487 41.011 48.2533V48.3407C41.011 48.5464 40.8979 48.6647 40.687 48.6647H39.1493C39.2265 49.0556 39.4939 49.2613 39.9259 49.2613C40.1007 49.2613 40.2653 49.2253 40.4505 49.1533C40.5122 49.1276 40.5687 49.1173 40.6305 49.1173C40.7693 49.1173 40.8722 49.2202 40.8722 49.3539C40.8722 49.4619 40.795 49.5596 40.651 49.6367C40.4762 49.7344 40.2087 49.7859 39.9053 49.7859C39.0465 49.7859 38.4705 49.2407 38.4705 48.4282C38.4705 47.6413 39.0362 47.0756 39.8179 47.0756ZM39.7819 47.5796C39.4425 47.5796 39.211 47.8059 39.1493 48.1864H40.363C40.3373 47.811 40.1213 47.5796 39.7819 47.5796ZM42.8614 47.0756C43.4117 47.0756 43.7614 47.4562 43.7614 48.0476V49.3847C43.7614 49.6213 43.6483 49.7447 43.4323 49.7447C43.2163 49.7447 43.1032 49.6213 43.1032 49.3847V48.1504C43.1032 47.8162 42.9283 47.6259 42.63 47.6259C42.3317 47.6259 42.1569 47.8213 42.1569 48.1504V49.3847C42.1569 49.6213 42.0437 49.7447 41.8277 49.7447C41.6117 49.7447 41.4986 49.6213 41.4986 49.3847V47.415C41.4986 47.2196 41.6014 47.1116 41.7814 47.1116C41.9512 47.1116 42.0489 47.2144 42.0643 47.4047L42.0694 47.487C42.2186 47.2299 42.5117 47.0756 42.8614 47.0756ZM45.6302 49.7859C44.7919 49.7859 44.221 49.2356 44.221 48.4282C44.221 47.6207 44.7919 47.0704 45.6302 47.0704C45.8976 47.0704 46.1496 47.127 46.3296 47.2196C46.4787 47.2967 46.5507 47.3944 46.5507 47.5024C46.5507 47.6362 46.4479 47.739 46.309 47.739C46.2576 47.739 46.2062 47.7287 46.129 47.6979C45.9439 47.6259 45.8102 47.595 45.661 47.595C45.193 47.595 44.8947 47.919 44.8947 48.4282C44.8947 48.9373 45.193 49.2613 45.661 49.2613C45.8102 49.2613 45.9439 49.2304 46.129 49.1584C46.2062 49.1276 46.2576 49.1173 46.309 49.1173C46.4479 49.1173 46.5507 49.2202 46.5507 49.3539C46.5507 49.4619 46.4787 49.5544 46.3296 49.6367C46.1547 49.7344 45.8976 49.7859 45.6302 49.7859ZM48.0947 47.0756C48.8095 47.0756 49.2878 47.5487 49.2878 48.2533V48.3407C49.2878 48.5464 49.1747 48.6647 48.9638 48.6647H47.4261C47.5032 49.0556 47.7707 49.2613 48.2027 49.2613C48.3775 49.2613 48.5421 49.2253 48.7272 49.1533C48.789 49.1276 48.8455 49.1173 48.9072 49.1173C49.0461 49.1173 49.149 49.2202 49.149 49.3539C49.149 49.4619 49.0718 49.5596 48.9278 49.6367C48.753 49.7344 48.4855 49.7859 48.1821 49.7859C47.3232 49.7859 46.7472 49.2407 46.7472 48.4282C46.7472 47.6413 47.313 47.0756 48.0947 47.0756ZM48.0587 47.5796C47.7192 47.5796 47.4878 47.8059 47.4261 48.1864H48.6398C48.6141 47.811 48.3981 47.5796 48.0587 47.5796Z" fill="#11B6AB"/>
<path d="M25.0878 80.8527H26.1781C26.3684 80.8527 26.4815 80.9556 26.4815 81.1407C26.4815 81.3259 26.3684 81.4287 26.1781 81.4287H24.7381C24.5067 81.4287 24.3781 81.2899 24.3781 81.0481V78.343C24.3781 78.1013 24.5067 77.9624 24.7381 77.9624H26.1524C26.3427 77.9624 26.4558 78.0653 26.4558 78.2504C26.4558 78.4356 26.3427 78.5384 26.1524 78.5384H25.0878V79.3201H26.0392C26.2244 79.3201 26.3375 79.423 26.3375 79.603C26.3375 79.783 26.2244 79.8859 26.0392 79.8859H25.0878V80.8527ZM29.1547 77.8287C29.3707 77.8287 29.4839 77.9521 29.4839 78.1887V81.1561C29.4839 81.3516 29.381 81.4647 29.201 81.4647C29.0313 81.4647 28.9336 81.3619 28.9182 81.1664L28.9079 81.0687C28.733 81.3413 28.4039 81.5007 28.013 81.5007C27.2776 81.5007 26.7684 80.9453 26.7684 80.143C26.7684 79.3407 27.2776 78.7904 28.013 78.7904C28.3524 78.7904 28.6404 78.9087 28.8256 79.1144V78.1887C28.8256 77.9521 28.9387 77.8287 29.1547 77.8287ZM28.1364 80.9761C28.5427 80.9761 28.8307 80.6264 28.8307 80.143C28.8307 79.6596 28.5427 79.315 28.1364 79.315C27.7302 79.315 27.4422 79.6596 27.4422 80.143C27.4422 80.6264 27.7302 80.9761 28.1364 80.9761ZM31.2738 81.5007C30.5898 81.5007 30.1424 81.079 30.1424 80.4361V79.1864C30.1424 78.9499 30.2555 78.8316 30.4715 78.8316C30.6875 78.8316 30.8007 78.9499 30.8007 79.1864V80.4979C30.8007 80.8064 30.9755 80.9864 31.2738 80.9864C31.5721 80.9864 31.747 80.8064 31.747 80.4979V79.1864C31.747 78.9499 31.8601 78.8316 32.0761 78.8316C32.2921 78.8316 32.4053 78.9499 32.4053 79.1864V80.4361C32.4053 81.079 31.9578 81.5007 31.2738 81.5007ZM34.2697 81.5007C33.4314 81.5007 32.8605 80.9504 32.8605 80.143C32.8605 79.3356 33.4314 78.7853 34.2697 78.7853C34.5371 78.7853 34.7891 78.8419 34.9691 78.9344C35.1182 79.0116 35.1902 79.1093 35.1902 79.2173C35.1902 79.351 35.0874 79.4539 34.9485 79.4539C34.8971 79.4539 34.8457 79.4436 34.7685 79.4127C34.5834 79.3407 34.4497 79.3099 34.3005 79.3099C33.8325 79.3099 33.5342 79.6339 33.5342 80.143C33.5342 80.6521 33.8325 80.9761 34.3005 80.9761C34.4497 80.9761 34.5834 80.9453 34.7685 80.8733C34.8457 80.8424 34.8971 80.8321 34.9485 80.8321C35.0874 80.8321 35.1902 80.935 35.1902 81.0687C35.1902 81.1767 35.1182 81.2693 34.9691 81.3516C34.7942 81.4493 34.5371 81.5007 34.2697 81.5007ZM36.6918 78.7904C37.4118 78.7904 37.7667 79.1247 37.7667 79.8036V81.1561C37.7667 81.3516 37.6587 81.4647 37.4838 81.4647C37.3141 81.4647 37.2113 81.3619 37.1958 81.1664V81.1613C37.021 81.3824 36.7535 81.5007 36.4193 81.5007C35.8381 81.5007 35.4678 81.1561 35.4678 80.6213C35.4678 80.0659 35.8535 79.7161 36.4604 79.7161C36.7381 79.7161 36.9695 79.7881 37.1238 79.9219V79.7676C37.1238 79.4539 36.9644 79.3047 36.6301 79.3047C36.4655 79.3047 36.3061 79.3407 36.1107 79.423C36.0541 79.4487 35.9924 79.4641 35.9307 79.4641C35.7867 79.4641 35.6838 79.3664 35.6838 79.2327C35.6838 79.1144 35.761 79.0167 35.9153 78.9447C36.121 78.847 36.3935 78.7904 36.6918 78.7904ZM36.6147 80.9864C36.9078 80.9864 37.1135 80.8219 37.1135 80.5853C37.1135 80.3487 36.9078 80.1841 36.6147 80.1841C36.3215 80.1841 36.1158 80.3487 36.1158 80.5853C36.1158 80.8219 36.3215 80.9864 36.6147 80.9864ZM38.9463 81.4596C38.7303 81.4596 38.6171 81.3361 38.6171 81.0996V79.3716H38.3497C38.1697 79.3716 38.072 79.279 38.072 79.1144C38.072 78.9499 38.1749 78.8573 38.3497 78.8573H38.6171V78.4561C38.6171 78.2196 38.7303 78.1013 38.9463 78.1013C39.1623 78.1013 39.2754 78.2196 39.2754 78.4561V78.8573H39.7383C39.9131 78.8573 40.016 78.955 40.016 79.1144C40.016 79.279 39.9131 79.3716 39.7383 79.3716H39.2754V81.0996C39.2754 81.3361 39.1623 81.4596 38.9463 81.4596ZM40.6475 78.595C40.4315 78.595 40.2772 78.4459 40.2772 78.2453C40.2772 78.0396 40.4315 77.8904 40.6475 77.8904C40.8635 77.8904 41.0178 78.0396 41.0178 78.2453C41.0178 78.4459 40.8635 78.595 40.6475 78.595ZM40.6475 81.4596C40.4315 81.4596 40.3183 81.3361 40.3183 81.0996V79.1916C40.3183 78.955 40.4315 78.8316 40.6475 78.8316C40.8635 78.8316 40.9766 78.955 40.9766 79.1916V81.0996C40.9766 81.3361 40.8635 81.4596 40.6475 81.4596ZM42.8472 81.5007C42.0603 81.5007 41.4638 80.9196 41.4638 80.143C41.4638 79.3664 42.0603 78.7853 42.8472 78.7853C43.634 78.7853 44.2306 79.3716 44.2306 80.143C44.2306 80.9144 43.634 81.5007 42.8472 81.5007ZM42.8472 80.9864C43.2792 80.9864 43.5569 80.6521 43.5569 80.143C43.5569 79.6339 43.2792 79.2996 42.8472 79.2996C42.4152 79.2996 42.1375 79.6339 42.1375 80.143C42.1375 80.6521 42.4152 80.9864 42.8472 80.9864ZM46.0808 78.7904C46.631 78.7904 46.9808 79.171 46.9808 79.7624V81.0996C46.9808 81.3361 46.8676 81.4596 46.6516 81.4596C46.4356 81.4596 46.3225 81.3361 46.3225 81.0996V79.8653C46.3225 79.531 46.1476 79.3407 45.8493 79.3407C45.551 79.3407 45.3762 79.5361 45.3762 79.8653V81.0996C45.3762 81.3361 45.263 81.4596 45.047 81.4596C44.831 81.4596 44.7179 81.3361 44.7179 81.0996V79.1299C44.7179 78.9344 44.8208 78.8264 45.0008 78.8264C45.1705 78.8264 45.2682 78.9293 45.2836 79.1196L45.2888 79.2019C45.4379 78.9447 45.731 78.7904 46.0808 78.7904Z" fill="#11B6AB"/>
<path d="M111.264 31.5928C111.264 31.5928 111.679 31.5703 112.122 31.5445C112.114 32.0506 112.088 32.5921 112.088 32.5921C112.142 33.1595 112.352 33.3754 112.699 33.4238C113.043 33.4721 113.239 33.1208 113.31 32.5921C113.31 32.5921 113.324 32.0796 113.336 31.5187C113.742 31.5477 114.162 31.5928 114.162 31.5928C114.634 31.5315 114.816 31.293 114.856 30.8997C114.896 30.5097 114.606 30.2872 114.162 30.2066C114.162 30.2066 113.776 30.1647 113.336 30.1389C113.327 29.5974 113.313 29.1171 113.313 29.1171C113.313 28.6561 113.04 28.2854 112.702 28.2854C112.259 28.2854 112.091 28.6593 112.091 29.1171C112.091 29.1171 112.088 29.6103 112.097 30.1389C111.656 30.1647 111.267 30.2066 111.267 30.2066C110.883 30.2066 110.574 30.5161 110.574 30.8997C110.571 31.4026 110.881 31.5928 111.264 31.5928Z" fill="url(#paint12_linear_911_21014)" fill-opacity="0.6"/>
<path d="M15.2641 101.022C15.2641 101.022 15.679 100.999 16.1223 100.973C16.1137 101.479 16.0882 102.021 16.0882 102.021C16.1421 102.588 16.3524 102.804 16.6991 102.852C17.0429 102.901 17.239 102.55 17.31 102.021C17.31 102.021 17.3242 101.508 17.3356 100.947C17.7419 100.976 18.1624 101.022 18.1624 101.022C18.6341 100.96 18.816 100.722 18.8557 100.328C18.8955 99.9384 18.6057 99.7159 18.1624 99.6353C18.1624 99.6353 17.776 99.5934 17.3356 99.5677C17.327 99.0261 17.3128 98.5458 17.3128 98.5458C17.3128 98.0848 17.04 97.7141 16.7019 97.7141C16.2587 97.7141 16.091 98.088 16.091 98.5458C16.091 98.5458 16.0882 99.039 16.0967 99.5677C15.6563 99.5934 15.267 99.6353 15.267 99.6353C14.8834 99.6353 14.5737 99.9449 14.5737 100.328C14.5708 100.831 14.8806 101.022 15.2641 101.022Z" fill="url(#paint13_linear_911_21014)" fill-opacity="0.6"/>
<path d="M104.107 20.9405C104.107 20.9405 104.853 20.9029 105.651 20.8599C105.636 21.7034 105.59 22.6061 105.59 22.6061C105.687 23.5516 106.066 23.9115 106.69 23.9921C107.308 24.0727 107.661 23.4872 107.789 22.6061C107.789 22.6061 107.815 21.7518 107.835 20.8169C108.567 20.8653 109.324 20.9405 109.324 20.9405C110.173 20.8384 110.5 20.4409 110.572 19.7854C110.643 19.1353 110.121 18.7645 109.324 18.6302C109.324 18.6302 108.628 18.5604 107.835 18.5174C107.82 17.6148 107.794 16.8143 107.794 16.8143C107.794 16.046 107.303 15.4281 106.695 15.4281C105.897 15.4281 105.595 16.0514 105.595 16.8143C105.595 16.8143 105.59 17.6363 105.605 18.5174C104.813 18.5604 104.112 18.6302 104.112 18.6302C103.421 18.6302 102.864 19.146 102.864 19.7854C102.859 20.6235 103.416 20.9405 104.107 20.9405Z" fill="url(#paint14_linear_911_21014)" fill-opacity="0.6"/>
<path d="M6.38797 90.3692C6.38797 90.3692 7.13468 90.3316 7.93255 90.2886C7.91721 91.1322 7.87118 92.0348 7.87118 92.0348C7.96836 92.9804 8.34685 93.3402 8.97083 93.4208C9.5897 93.5014 9.94262 92.9159 10.0705 92.0348C10.0705 92.0348 10.096 91.1805 10.1165 90.2456C10.8479 90.294 11.6049 90.3692 11.6049 90.3692C12.4539 90.2671 12.7812 89.8696 12.8528 89.2141C12.9244 88.564 12.4027 88.1932 11.6049 88.0589C11.6049 88.0589 10.9093 87.9891 10.1165 87.9461C10.1012 87.0435 10.0756 86.243 10.0756 86.243C10.0756 85.4747 9.58459 84.8568 8.97595 84.8568C8.17807 84.8568 7.8763 85.4801 7.8763 86.243C7.8763 86.243 7.8712 87.065 7.88654 87.9461C7.09378 87.9891 6.39309 88.0589 6.39309 88.0589C5.70262 88.0589 5.14512 88.5748 5.14513 89.2141C5.14001 90.0522 5.6975 90.3692 6.38797 90.3692Z" fill="url(#paint15_linear_911_21014)" fill-opacity="0.6"/>
<circle cx="100" cy="100" r="12" fill="white"/>
<path d="M98.25 96.9651H99.4047V102.251C99.4047 102.32 99.4609 102.376 99.5297 102.376H100.467C100.536 102.376 100.592 102.32 100.592 102.251V96.9651H101.75C101.855 96.9651 101.912 96.8448 101.848 96.7636L100.098 94.548C100.087 94.533 100.072 94.5209 100.055 94.5126C100.038 94.5043 100.019 94.5 100 94.5C99.981 94.5 99.9623 94.5043 99.9453 94.5126C99.9282 94.5209 99.9133 94.533 99.9016 94.548L98.1516 96.762C98.0875 96.8448 98.1453 96.9651 98.25 96.9651ZM105.719 101.782H104.781C104.713 101.782 104.656 101.839 104.656 101.907V104.314H95.3438V101.907C95.3438 101.839 95.2875 101.782 95.2188 101.782H94.2812C94.2125 101.782 94.1562 101.839 94.1562 101.907V105.001C94.1562 105.278 94.3797 105.501 94.6562 105.501H105.344C105.62 105.501 105.844 105.278 105.844 105.001V101.907C105.844 101.839 105.788 101.782 105.719 101.782Z" fill="#11B6AB"/>
</g>
<defs>
<filter id="filter0_d_911_21014" x="5.15179" y="-0.857491" width="109.716" height="120.857" filterUnits="userSpaceOnUse" color-interpolation-filters="sRGB">
<feFlood flood-opacity="0" result="BackgroundImageFix"/>
<feColorMatrix in="SourceAlpha" type="matrix" values="0 0 0 0 0 0 0 0 0 0 0 0 0 0 0 0 0 0 127 0" result="hardAlpha"/>
<feOffset/>
<feGaussianBlur stdDeviation="5.14286"/>
<feComposite in2="hardAlpha" operator="out"/>
<feColorMatrix type="matrix" values="0 0 0 0 0 0 0 0 0 0 0 0 0 0 0 0 0 0 0.1 0"/>
<feBlend mode="normal" in2="BackgroundImageFix" result="effect1_dropShadow_911_21014"/>
<feBlend mode="normal" in="SourceGraphic" in2="effect1_dropShadow_911_21014" result="shape"/>
</filter>
<linearGradient id="paint0_linear_911_21014" x1="60.0089" y1="9.42822" x2="60.0089" y2="158.571" gradientUnits="userSpaceOnUse">
<stop offset="0.449952" stop-color="#FCFCFC"/>
<stop offset="1" stop-color="#DCDCDC"/>
</linearGradient>
<linearGradient id="paint1_linear_911_21014" x1="38.0742" y1="25.5991" x2="30.6417" y2="43.4977" gradientUnits="userSpaceOnUse">
<stop offset="0.000866505" stop-color="#FCFCFC"/>
<stop offset="1" stop-color="#DCDCDC"/>
</linearGradient>
<linearGradient id="paint2_linear_911_21014" x1="37.2467" y1="24.1331" x2="35.8426" y2="30.1015" gradientUnits="userSpaceOnUse">
<stop offset="0.000604984" stop-color="#EE883F"/>
<stop offset="1" stop-color="#F05B2E"/>
</linearGradient>
<linearGradient id="paint3_linear_911_21014" x1="33.3931" y1="22.9772" x2="31.9889" y2="28.9455" gradientUnits="userSpaceOnUse">
<stop offset="0.000604984" stop-color="#EE883F"/>
<stop offset="1" stop-color="#F05B2E"/>
</linearGradient>
<linearGradient id="paint4_linear_911_21014" x1="35.2896" y1="23.8505" x2="33.9621" y2="29.8367" gradientUnits="userSpaceOnUse">
<stop offset="0.000604984" stop-color="#EE883F"/>
<stop offset="1" stop-color="#F05B2E"/>
</linearGradient>
<linearGradient id="paint5_linear_911_21014" x1="36.4008" y1="30.1856" x2="35.222" y2="40.8152" gradientUnits="userSpaceOnUse">
<stop stop-color="white"/>
<stop offset="1" stop-color="#E7E7E7"/>
</linearGradient>
<linearGradient id="paint6_linear_911_21014" x1="34.8329" y1="30.5973" x2="34.4344" y2="42.71" gradientUnits="userSpaceOnUse">
<stop stop-color="#A5A5B6"/>
<stop offset="1" stop-color="#6A6A7C"/>
</linearGradient>
<linearGradient id="paint7_linear_911_21014" x1="26.4763" y1="35.675" x2="30.1022" y2="36.7556" gradientUnits="userSpaceOnUse">
<stop stop-color="#A5A5B6"/>
<stop offset="1" stop-color="#6A6A7C"/>
</linearGradient>
<linearGradient id="paint8_linear_911_21014" x1="41.9212" y1="35.0991" x2="38.459" y2="36.6961" gradientUnits="userSpaceOnUse">
<stop stop-color="#A5A5B6"/>
<stop offset="1" stop-color="#6A6A7C"/>
</linearGradient>
<linearGradient id="paint9_linear_911_21014" x1="35.0808" y1="32.6159" x2="34.3613" y2="37.2569" gradientUnits="userSpaceOnUse">
<stop stop-color="white"/>
<stop offset="1" stop-color="#E7E7E7"/>
</linearGradient>
<linearGradient id="paint10_linear_911_21014" x1="35.0808" y1="32.6149" x2="34.3613" y2="37.2559" gradientUnits="userSpaceOnUse">
<stop stop-color="white"/>
<stop offset="1" stop-color="#E7E7E7"/>
</linearGradient>
<linearGradient id="paint11_linear_911_21014" x1="36.105" y1="35.0982" x2="33.4773" y2="35.0579" gradientUnits="userSpaceOnUse">
<stop offset="0.000604984" stop-color="#EE883F"/>
<stop offset="0.2852" stop-color="#EE813C"/>
<stop offset="0.7014" stop-color="#EF6D35"/>
<stop offset="1" stop-color="#F05B2E"/>
</linearGradient>
<linearGradient id="paint12_linear_911_21014" x1="114.856" y1="30.8558" x2="110.57" y2="30.8558" gradientUnits="userSpaceOnUse">
<stop offset="0.000604984" stop-color="#EE883F"/>
<stop offset="1" stop-color="#F05B2E"/>
</linearGradient>
<linearGradient id="paint13_linear_911_21014" x1="18.856" y1="100.285" x2="14.5697" y2="100.285" gradientUnits="userSpaceOnUse">
<stop offset="0.000604984" stop-color="#EE883F"/>
<stop offset="1" stop-color="#F05B2E"/>
</linearGradient>
<linearGradient id="paint14_linear_911_21014" x1="110.572" y1="19.7121" x2="102.857" y2="19.7121" gradientUnits="userSpaceOnUse">
<stop offset="0.000604984" stop-color="#EEA83F"/>
<stop offset="1" stop-color="#F08B2E"/>
</linearGradient>
<linearGradient id="paint15_linear_911_21014" x1="12.8534" y1="89.1409" x2="5.13791" y2="89.1409" gradientUnits="userSpaceOnUse">
<stop offset="0.000604984" stop-color="#EEA83F"/>
<stop offset="1" stop-color="#F08B2E"/>
</linearGradient>
<clipPath id="clip0_911_21014">
<rect width="120" height="120" rx="10" fill="white"/>
</clipPath>
</defs>
</svg>
