<svg width="29" height="28" viewBox="0 0 29 28" fill="none" xmlns="http://www.w3.org/2000/svg">
<path d="M14.2403 6.11703C15.8063 5.4719 17.5293 5.30388 19.1915 5.63266C20.8538 5.96152 22.3818 6.77286 23.5811 7.96566C24.7805 9.15851 25.5976 10.6791 25.9288 12.3348C26.2598 13.9903 26.0898 15.7062 25.4405 17.2655C24.791 18.8248 23.6912 20.1576 22.2813 21.0946C21.189 21.8204 19.948 22.282 18.6563 22.4539V16.6405L20.0704 18.0545C20.4975 18.4815 21.1901 18.4816 21.6172 18.0545C22.0443 17.6274 22.0442 16.9348 21.6172 16.5077L18.336 13.2264C18.1225 13.0129 17.8424 12.9061 17.5625 12.9061C17.4142 12.9061 17.2726 12.9356 17.1436 12.9891C17.0164 13.0418 16.8969 13.1198 16.793 13.2225C16.7915 13.224 16.7896 13.2249 16.7881 13.2264L13.5079 16.5077C13.0807 16.9348 13.0807 17.6274 13.5079 18.0545C13.935 18.4815 14.6276 18.4816 15.0547 18.0545L16.4688 16.6405V22.5311H9.20708C8.31342 22.5302 7.42979 22.3399 6.61528 21.9735C5.80077 21.607 5.07289 21.0728 4.48149 20.4051C3.89011 19.7374 3.44776 18.9516 3.18461 18.1004C2.92147 17.2492 2.84393 16.3513 2.9561 15.4676C3.06827 14.5841 3.36772 13.7345 3.835 12.9754C4.30238 12.2163 4.92676 11.5647 5.66606 11.0643C6.40543 10.5639 7.2437 10.2257 8.12407 10.0721C8.72398 9.96747 9.33446 9.95015 9.93657 10.0194C10.0747 9.75887 10.2271 9.50503 10.3926 9.25863C11.3352 7.85562 12.6741 6.76223 14.2403 6.11703Z" fill="#BCBCC8"/>
</svg>
